<?xml version="1.0" encoding="UTF-8" standalone="no"?>
<!-- Created with Inkscape (http://www.inkscape.org/) -->

<svg
   width="104.36034mm"
   height="35.445488mm"
   viewBox="0 0 104.36033 35.445488"
   version="1.1"
   id="svg1"
   xml:space="preserve"
   inkscape:version="1.4.2 (ebf0e94, 2025-05-08)"
   sodipodi:docname="goram.svg"
   xmlns:inkscape="http://www.inkscape.org/namespaces/inkscape"
   xmlns:sodipodi="http://sodipodi.sourceforge.net/DTD/sodipodi-0.dtd"
   xmlns="http://www.w3.org/2000/svg"
   xmlns:svg="http://www.w3.org/2000/svg"><sodipodi:namedview
     id="namedview1"
     pagecolor="#ffffff"
     bordercolor="#000000"
     borderopacity="0.25"
     inkscape:showpageshadow="2"
     inkscape:pageopacity="0.0"
     inkscape:pagecheckerboard="0"
     inkscape:deskcolor="#d1d1d1"
     inkscape:document-units="mm"
     inkscape:zoom="1.9477379"
     inkscape:cx="203.82619"
     inkscape:cy="122.96315"
     inkscape:window-width="1920"
     inkscape:window-height="991"
     inkscape:window-x="3191"
     inkscape:window-y="435"
     inkscape:window-maximized="1"
     inkscape:current-layer="layer1" /><defs
     id="defs1" /><g
     inkscape:label="Layer 1"
     inkscape:groupmode="layer"
     id="layer1"
     transform="translate(-37.040236,-80.522614)"><path
       style="fill:#000000;stroke-width:0.132553"
       d="m 40.795032,115.91901 c -0.03102,-0.0502 0.09116,-0.35173 0.153837,-0.37967 0.01906,-0.008 0.07645,-0.0974 0.127527,-0.19762 0.05108,-0.10019 0.228025,-0.31062 0.39322,-0.46762 1.058463,-1.00594 1.435712,-1.38881 1.576135,-1.59962 0.08744,-0.13126 0.15897,-0.25848 0.15897,-0.28272 0,-0.0242 0.09606,-0.19988 0.21347,-0.39031 0.11741,-0.19043 0.22466,-0.41042 0.238336,-0.48885 0.02406,-0.13799 0.117178,-0.38987 0.201774,-0.54578 0.02482,-0.0457 0.02255,-0.0944 -0.0057,-0.12264 -0.05529,-0.0553 0.02899,-0.41753 0.12248,-0.52633 0.03313,-0.0386 0.07622,-0.12276 0.09573,-0.18705 0.036,-0.11864 0.200371,-0.41342 0.44327,-0.79495 0.243262,-0.3821 0.500929,-0.86253 0.551749,-1.02877 0.197992,-0.64765 0.284139,-1.38831 0.189078,-1.62564 -0.180767,-0.45131 -0.264831,-2.1736 -0.132933,-2.72343 0.166002,-0.69195 -0.133532,-1.24994 -1.217346,-2.26773 -0.543723,-0.51059 -1.041843,-0.80229 -1.641832,-0.96145 -0.483017,-0.12813 -1.296198,-0.50341 -1.560987,-0.72038 -0.524143,-0.4295 -0.990824,-0.57738 -1.925606,-0.610163 -0.354849,-0.01244 -0.771434,-0.04357 -0.92575,-0.06916 -0.154313,-0.02558 -0.358662,-0.04666 -0.454105,-0.0468 -0.184917,-2.65e-4 -0.378708,-0.150058 -0.35397,-0.273563 0.0072,-0.03604 0.273356,-0.211195 0.591419,-0.389235 0.800705,-0.4482 1.235847,-0.573876 2.157274,-0.623058 0.660633,-0.03527 0.909235,-0.10249 1.400377,-0.37869 0.210585,-0.118423 0.512981,-0.268044 0.671989,-0.332486 0.420063,-0.170246 0.836318,-0.381779 0.943772,-0.479612 0.05144,-0.04683 0.243865,-0.163186 0.427617,-0.258564 0.263028,-0.136531 0.339426,-0.200105 0.359185,-0.298907 0.01382,-0.06902 0.105941,-0.219527 0.204749,-0.334465 0.175213,-0.203811 0.317302,-0.509213 0.433856,-0.932517 0.123625,-0.448976 0.481511,-0.976311 1.143354,-1.684695 0.156188,-0.167175 0.326006,-0.365453 0.37737,-0.440627 0.05136,-0.07517 0.209127,-0.267358 0.350581,-0.427086 0.612772,-0.691924 0.746545,-1.017057 0.883966,-2.148429 0.02499,-0.205752 0.08041,-0.443587 0.12315,-0.528524 0.0632,-0.125607 0.07152,-0.225977 0.04453,-0.537759 -0.03565,-0.411956 -0.112673,-0.650881 -0.260573,-0.808313 -0.05111,-0.05441 -0.136742,-0.254603 -0.190285,-0.444876 -0.05354,-0.190273 -0.144735,-0.472209 -0.202649,-0.626524 -0.168939,-0.450131 -0.261305,-0.801703 -0.231221,-0.880102 0.04866,-0.126811 -0.0783,-0.60365 -0.257481,-0.96699 -0.09512,-0.192893 -0.200285,-0.445407 -0.233695,-0.561142 -0.0334,-0.115737 -0.07779,-0.267004 -0.09862,-0.336149 -0.08891,-0.295146 0.244162,-0.274779 0.37375,0.02286 0.104445,0.239888 0.449793,0.744042 0.626854,0.915112 0.175754,0.169807 0.50326,0.265287 0.646675,0.188535 0.08743,-0.04679 0.563356,-0.841923 0.817193,-1.365285 0.09216,-0.190013 0.371134,-0.488305 0.415338,-0.4441 0.03268,0.03267 -0.113266,0.502584 -0.184428,0.593839 -0.06611,0.08479 -0.04932,0.803248 0.02399,1.025329 0.03813,0.115536 0.04613,0.368516 0.02579,0.815674 -0.03185,0.699946 -10e-4,0.858633 0.201263,1.039187 0.0952,0.08494 0.193422,0.09607 1.070287,0.121289 0.531003,0.01527 1.018067,0.01291 1.082365,-0.0053 0.0643,-0.01816 0.24121,-0.151652 0.393141,-0.296647 0.15193,-0.144994 0.300813,-0.263626 0.330852,-0.263626 0.03003,0 0.17522,-0.09365 0.322628,-0.208119 0.294898,-0.228991 0.321631,-0.240416 0.660188,-0.282129 0.303626,-0.03741 0.758866,-0.155025 0.909783,-0.235054 0.157173,-0.08335 0.603984,-0.55273 0.781079,-0.820542 0.07751,-0.117222 0.195993,-0.329512 0.263284,-0.471755 0.06729,-0.142241 0.154905,-0.285641 0.194696,-0.318664 0.03979,-0.03302 0.07235,-0.09013 0.07235,-0.126912 0,-0.03678 0.191818,-0.260412 0.426269,-0.496965 0.62564,-0.631259 0.720818,-0.741315 0.788339,-0.911609 0.0349,-0.08802 0.123522,-0.186433 0.206521,-0.229341 0.168305,-0.08701 0.438989,-0.297009 0.672302,-0.521592 0.159976,-0.153986 0.485858,-0.331021 0.613068,-0.333048 0.03545,-5.17e-4 0.206618,-0.135134 0.380369,-0.299043 0.609776,-0.575231 1.162434,-0.593595 0.732825,-0.02435 -0.372568,0.493663 -0.639405,0.922876 -1.114793,1.793163 -0.111729,0.20454 -0.281395,0.448691 -0.377036,0.54256 -0.09564,0.09387 -0.195596,0.227746 -0.222119,0.297509 -0.06918,0.181964 -0.05942,0.62687 0.01965,0.895526 0.101497,0.344874 0.104813,1.312645 0.0061,1.780283 -0.111174,0.526639 -0.0666,0.672586 0.330046,1.080593 0.168814,0.17365 0.347147,0.394329 0.396298,0.4904 0.04915,0.09607 0.145391,0.211385 0.21387,0.256251 0.154589,0.10129 0.615888,0.153068 0.926433,0.103983 0.434408,-0.06866 0.724617,-0.07774 0.796834,-0.02492 0.102428,0.0749 0.0083,0.338961 -0.184834,0.518786 -0.161449,0.15029 -0.448332,0.548843 -0.448332,0.622845 0,0.02468 -0.07565,0.105047 -0.168118,0.178622 -0.09247,0.07357 -0.279534,0.281071 -0.415703,0.461107 -0.13617,0.180032 -0.301113,0.377035 -0.366542,0.437786 -0.06543,0.06075 -0.199268,0.247898 -0.297418,0.415885 -0.215446,0.368742 -0.754584,0.916233 -1.461769,1.484421 -0.288096,0.231469 -0.58015,0.483555 -0.649012,0.560184 -0.426345,0.474468 -0.607511,0.632245 -0.725986,0.632245 -0.116624,0 -0.124087,-0.01324 -0.125135,-0.22212 -6.9e-4,-0.122167 -0.02055,-0.305877 -0.04427,-0.408243 -0.03192,-0.137728 -0.02723,-0.204604 0.01806,-0.257192 0.03368,-0.03909 0.07506,-0.144191 0.09197,-0.233568 0.01689,-0.08938 0.07943,-0.236681 0.138948,-0.327336 0.05952,-0.09066 0.185351,-0.280747 0.279633,-0.422422 0.09428,-0.141678 0.171425,-0.300217 0.171425,-0.352312 0,-0.05273 0.112883,-0.206196 0.254662,-0.346216 0.422204,-0.416958 0.441867,-0.577141 0.118723,-0.967038 -0.10388,-0.125339 -0.212158,-0.305078 -0.240625,-0.399425 -0.0814,-0.269789 -0.328698,-0.299083 -0.768463,-0.09104 -0.258474,0.122277 -0.301075,0.164093 -0.4579,0.449393 -0.226336,0.41177 -0.443705,0.67828 -0.553214,0.67828 -0.229373,0 -0.449279,-0.181601 -0.835005,-0.689559 -0.373609,-0.491994 -0.97678,-0.679097 -1.303358,-0.4043 -0.07971,0.06707 -0.169039,0.167005 -0.198509,0.222072 -0.07992,0.149338 -0.131275,1.561484 -0.07983,2.195383 0.02461,0.303423 0.02013,0.322269 -0.09657,0.405365 -0.121839,0.08676 -0.645978,0.281385 -0.760127,0.282257 -0.125314,10e-4 -0.546843,0.230431 -0.614936,0.334758 -0.03913,0.05996 -0.091,0.269595 -0.115252,0.465854 -0.05291,0.428109 -0.05503,0.432267 -0.615691,1.206769 -0.244331,0.337527 -0.497224,0.70604 -0.561984,0.818924 -0.06476,0.112883 -0.191018,0.296366 -0.280571,0.40774 -0.147225,0.183093 -0.162393,0.229383 -0.158335,0.483069 0.0024,0.154312 0.03894,0.380203 0.08104,0.501977 0.0421,0.12177 0.08138,0.284852 0.08729,0.362402 0.0059,0.07755 0.03258,0.141323 0.05925,0.141716 0.02668,3.44e-4 0.01693,0.02113 -0.02165,0.04604 -0.05473,0.03537 -0.0561,0.04549 -0.0062,0.04605 0.03913,3.44e-4 0.0551,0.0344 0.04119,0.0876 -0.01251,0.04779 -0.0046,0.11924 0.01751,0.158793 0.02213,0.03955 0.05193,0.205622 0.06622,0.369045 0.03681,0.421046 0.05247,0.452285 0.257447,0.513701 0.150731,0.04516 0.244048,0.04062 0.523247,-0.02548 0.36154,-0.08558 0.573728,-0.229879 0.677786,-0.460924 0.05856,-0.130026 0.391428,-0.367548 0.778912,-0.555802 0.118702,-0.05767 0.215818,-0.121422 0.215818,-0.141672 0,-0.052 0.294543,-0.168832 0.452292,-0.179404 0.299717,-0.0201 0.30707,-0.01489 0.283473,0.199788 -0.06623,0.602599 -0.293922,1.296446 -0.518065,1.57872 -0.55733,0.70187 -0.693347,1.04956 -0.749799,1.91673 -0.02844,0.43675 -0.389908,1.54314 -0.504167,1.54314 -0.02158,0 -0.03926,0.0267 -0.03926,0.0593 0,0.0326 -0.05106,0.13443 -0.113466,0.22627 -0.34238,0.50385 -0.544082,1.03647 -0.434146,1.14641 0.01782,0.0178 0.0077,0.0623 -0.02261,0.0987 -0.03299,0.0398 -0.03752,0.0789 -0.01127,0.0978 0.02406,0.0173 0.04376,0.15776 0.04376,0.31207 0,0.15432 0.01375,0.30162 0.03058,0.32734 0.01682,0.0257 0.03787,0.0984 0.04676,0.1616 0.0132,0.0937 0.04695,0.11781 0.182966,0.13092 0.148193,0.0143 0.190646,-0.009 0.380734,-0.21266 0.117668,-0.1258 0.316167,-0.28853 0.441109,-0.36164 0.124945,-0.0731 0.36395,-0.28095 0.531124,-0.46187 0.482197,-0.52185 0.505848,-0.54327 0.690186,-0.62504 0.121388,-0.0538 0.325147,-0.0801 0.665907,-0.0858 0.27005,-0.005 0.535109,-0.0105 0.589024,-0.0133 0.05391,-0.003 0.233737,-0.13689 0.399611,-0.29793 0.285656,-0.27735 0.830417,-0.64421 1.054946,-0.71045 0.05663,-0.0167 0.228842,-0.18807 0.382689,-0.3808 0.238983,-0.29939 0.284315,-0.38714 0.311217,-0.60247 0.04433,-0.35483 -0.151072,-0.86594 -0.331056,-0.86594 -0.08825,0 -0.395671,-0.36255 -0.395671,-0.46662 0,-0.0507 -0.04201,-0.16116 -0.09335,-0.24537 -0.166367,-0.27287 -0.134529,-0.33756 0.269605,-0.54781 0.199816,-0.10396 0.569581,-0.3628 0.821702,-0.575202 0.252121,-0.212402 0.545623,-0.433587 0.652222,-0.491518 0.106599,-0.05793 0.263035,-0.176592 0.347634,-0.26369 0.0846,-0.0871 0.232596,-0.195024 0.328881,-0.239828 0.497513,-0.231517 0.747048,-0.366928 0.94794,-0.514398 0.121912,-0.08949 0.234971,-0.162706 0.251245,-0.162706 0.01627,0 0.120326,-0.09469 0.231221,-0.210427 0.197261,-0.205876 0.315795,-0.250494 0.446152,-0.167939 0.106451,0.06741 0.07847,0.395144 -0.05299,0.620569 -0.265086,0.454588 -0.540014,1.005768 -0.569268,1.141279 -0.03549,0.164382 0.07299,0.335041 0.230093,0.361988 0.05144,0.0088 0.146129,0.0391 0.210427,0.06729 0.0643,0.0282 0.174775,0.06363 0.245499,0.07876 0.102776,0.022 0.128265,0.0532 0.126941,0.15521 -0.0021,0.15637 -0.06799,0.27817 -0.271284,0.50092 -0.08582,0.094 -0.208172,0.28486 -0.271898,0.42405 -0.06373,0.1392 -0.133932,0.26425 -0.156012,0.2779 -0.02206,0.0136 -0.05494,0.0922 -0.07301,0.17446 -0.0181,0.0823 -0.08342,0.22605 -0.145212,0.31942 -0.220079,0.33256 -0.191519,0.81947 0.06602,1.12554 0.105406,0.12526 0.12316,0.19555 0.138496,0.54826 0.0097,0.22252 0.0463,0.57292 0.08138,0.77867 0.03508,0.20575 0.0642,0.44117 0.0647,0.52315 6.9e-4,0.082 0.02492,0.19394 0.0543,0.24881 0.0388,0.0725 0.03968,0.13909 0.0031,0.24371 -0.0916,0.26278 -0.06326,0.45435 0.08816,0.5958 0.09701,0.0906 0.165971,0.22893 0.23083,0.46299 0.05087,0.18358 0.08277,0.33378 0.07089,0.33378 -0.06255,0 0.164179,0.33118 0.377491,0.55141 l 0.244451,0.25237 0.02899,0.44117 c 0.03261,0.4965 0.07817,0.58846 0.389314,0.78583 0.252252,0.16002 0.41095,0.37226 0.498303,0.66641 0.09273,0.31225 0.174155,0.46398 0.407305,0.75893 0.215791,0.273 0.370465,0.58105 0.372023,0.74092 6.9e-4,0.058 0.04311,0.18391 0.09455,0.27988 0.09906,0.18482 0.12559,0.50126 0.04614,0.55036 -0.07717,0.0477 -0.574283,-0.11633 -0.700811,-0.23123 -0.0643,-0.0584 -0.154681,-0.11947 -0.20085,-0.13574 -0.04617,-0.0163 -0.113021,-0.0983 -0.148562,-0.18221 -0.06521,-0.15405 -0.560036,-0.65824 -0.871332,-0.88783 -0.210361,-0.15515 -0.72489,-0.25224 -1.538205,-0.29026 -0.735272,-0.0344 -0.877175,-0.0746 -1.140761,-0.32361 -0.170673,-0.16121 -0.242228,-0.28177 -0.361368,-0.60882 -0.08957,-0.24588 -0.184438,-0.427 -0.238928,-0.45616 -0.141972,-0.076 -0.817183,-0.062 -1.228322,0.0254 -0.205752,0.0438 -0.584525,0.0988 -0.841713,0.12229 -0.557151,0.0509 -0.740089,0.0991 -1.155664,0.30424 -0.327295,0.16159 -0.982189,0.52228 -1.236447,0.68099 -0.09707,0.0606 -0.329019,0.11559 -0.678049,0.1608 -0.291778,0.0378 -0.635719,0.0884 -0.764312,0.11243 -0.128596,0.024 -0.38111,0.0669 -0.561142,0.0953 -0.469149,0.0739 -1.080976,0.26656 -1.379476,0.43431 -0.24028,0.13502 -0.61836,0.40853 -0.724807,0.52434 -0.09721,0.10574 -0.335562,0.24411 -0.561146,0.32574 -0.38806,0.14043 -0.527142,0.23777 -1.014289,0.70985 -0.202943,0.19667 -0.294509,0.33198 -0.385792,0.5701 -0.06583,0.17172 -0.18119,0.40479 -0.256361,0.51793 -0.199891,0.30087 -0.906797,0.91917 -1.237239,1.08216 -0.303168,0.14954 -0.355601,0.1802 -0.656872,0.38416 -0.104717,0.0709 -0.337692,0.22702 -0.517728,0.34696 -0.180032,0.11992 -0.414824,0.28795 -0.521757,0.37339 -0.235223,0.18792 -0.928957,0.53023 -1.074603,0.53023 -0.05771,0 -0.118588,-0.0221 -0.13528,-0.0491 z m 21.433581,-4.8159 c -0.135397,-0.079 -0.192221,-0.33991 -0.134539,-0.61776 0.02816,-0.13564 0.06175,-0.6041 0.07466,-1.04103 0.02889,-0.97795 0.03833,-1.06921 0.137924,-1.33218 0.09047,-0.23888 0.103421,-0.4348 0.05103,-0.77158 -0.01999,-0.12859 -0.04409,-0.41267 -0.05352,-0.63128 -0.03866,-0.8966 -0.06467,-1.01891 -0.285101,-1.34088 -0.158532,-0.23156 -0.213092,-0.36231 -0.245778,-0.58897 -0.02923,-0.20261 -0.114573,-0.43033 -0.280251,-0.74769 -0.131033,-0.25099 -0.238239,-0.49704 -0.238239,-0.54677 0,-0.10914 -0.157504,-0.39117 -0.333255,-0.59673 -0.07064,-0.0826 -0.168443,-0.24045 -0.217328,-0.35071 -0.130795,-0.29502 -0.200175,-0.33882 -0.417461,-0.26355 -0.09769,0.0339 -0.230228,0.0985 -0.294526,0.14373 -0.12298,0.0865 -0.637681,0.2091 -0.683843,0.16294 -0.01482,-0.0148 -0.0093,-0.0547 0.01231,-0.0885 0.02158,-0.0339 0.04194,-0.14612 0.04522,-0.24948 0.0069,-0.2165 0.235991,-0.62515 0.417058,-0.74379 0.06365,-0.0417 0.115727,-0.11341 0.115727,-0.15934 0,-0.0459 0.03089,-0.12435 0.06866,-0.17428 0.03776,-0.0499 0.06932,-0.16239 0.07014,-0.24992 0.0021,-0.23224 0.215787,-0.65248 0.378735,-0.74508 0.150286,-0.0854 0.208723,-0.228627 0.248098,-0.608079 0.01837,-0.176926 0.006,-0.280174 -0.04247,-0.354118 -0.07655,-0.116827 -0.09482,-0.230372 -0.139844,-0.869139 -0.02158,-0.30615 -0.06842,-0.538722 -0.150665,-0.74819 l -0.119344,-0.303954 0.08309,-0.30395 c 0.0457,-0.167174 0.102986,-0.430212 0.127307,-0.584525 0.06324,-0.401255 0.0098,-0.509754 -0.323838,-0.657572 -0.425042,-0.188312 -0.664608,-0.224088 -1.078349,-0.161034 -0.198386,0.03023 -0.602692,0.07215 -0.898462,0.09314 -0.29577,0.02099 -0.61141,0.06228 -0.701428,0.09174 -0.148638,0.04865 -0.75397,0.162972 -1.170677,0.221096 -0.123904,0.01727 -0.194159,-0.0017 -0.280571,-0.0761 -0.110311,-0.09489 -0.111508,-0.101604 -0.02778,-0.155929 0.04811,-0.03123 0.153323,-0.102641 0.233809,-0.158711 0.08049,-0.05607 0.27932,-0.171807 0.441854,-0.257192 0.381764,-0.200553 0.488402,-0.299855 0.450444,-0.419457 -0.04432,-0.139637 0.09933,-0.265699 0.396243,-0.34774 0.143357,-0.03961 0.481601,-0.143595 0.751651,-0.231069 0.293178,-0.09497 0.643317,-0.171583 0.869053,-0.19016 0.358744,-0.02954 0.39372,-0.02365 0.684733,0.115248 0.168674,0.0805 0.372585,0.146363 0.453137,0.146363 0.08056,0 0.266199,0.04209 0.412552,0.09352 0.289544,0.101769 0.620745,0.121467 0.762923,0.04538 0.115207,-0.06166 0.200464,-0.228804 0.349161,-0.684526 0.06572,-0.201426 0.171283,-0.44101 0.234585,-0.53241 0.0633,-0.0914 0.115089,-0.181804 0.115089,-0.200898 0,-0.0191 0.07304,-0.190719 0.162304,-0.381382 0.08927,-0.190664 0.175592,-0.405379 0.191835,-0.477147 0.120991,-0.534481 0.216163,-0.76757 0.331284,-0.811336 0.07977,-0.03034 0.109936,-0.06897 0.09145,-0.117138 -0.01755,-0.0457 0.03859,-0.13487 0.154137,-0.24485 0.23343,-0.222192 0.315415,-0.49246 0.350364,-1.154968 0.02965,-0.561959 0.09452,-0.825708 0.308428,-1.253771 0.07721,-0.15451 0.140382,-0.305021 0.140382,-0.334466 0,-0.02944 -0.0724,-0.132574 -0.160883,-0.229178 -0.220851,-0.241116 -0.338223,-0.554661 -0.26653,-0.712013 0.04515,-0.09908 0.03437,-0.167461 -0.06602,-0.418348 -0.06599,-0.164951 -0.132019,-0.374071 -0.146728,-0.46471 -0.02544,-0.156769 -0.02017,-0.164749 0.107971,-0.163772 0.07409,5.17e-4 0.226446,0.04265 0.338557,0.09352 0.350344,0.158972 0.56773,0.10684 0.56773,-0.136149 0,-0.151896 0.368386,-0.494946 0.733449,-0.683009 0.522447,-0.269136 0.974857,-0.555031 1.166723,-0.737296 0.36546,-0.34717 0.510216,-0.113725 0.246733,0.397897 -0.08283,0.160841 -0.210213,0.408172 -0.283067,0.549626 -0.07286,0.141454 -0.132732,0.298869 -0.13306,0.349811 -3.31e-4,0.05094 -0.04574,0.201546 -0.100918,0.334677 -0.09668,0.233271 -0.09753,0.250599 -0.02337,0.47731 0.10694,0.326948 0.100821,0.805892 -0.01317,1.029296 -0.130747,0.256289 -0.283994,0.710307 -0.283994,0.841381 0,0.207652 0.109905,0.483242 0.222013,0.556699 0.279513,0.183142 0.806748,0.278386 0.806748,0.145732 0,-0.02306 0.110474,-0.09093 0.245499,-0.150851 0.308518,-0.136921 0.549452,-0.337857 0.549452,-0.458242 0,-0.05084 0.02265,-0.13477 0.05034,-0.18651 0.05663,-0.105816 0.149303,-0.430251 0.251869,-0.881782 0.19518,-0.859222 0.312448,-0.96132 0.80389,-0.699887 0.326058,0.173453 0.530562,0.371781 0.530562,0.514535 0,0.116695 0.229745,0.325639 0.358058,0.325639 0.07854,0 0.120988,-0.0508 0.185627,-0.22212 0.04609,-0.122165 0.177806,-0.316811 0.292699,-0.432546 0.114893,-0.115737 0.264855,-0.298533 0.333245,-0.406215 0.133984,-0.210958 0.356393,-0.499554 0.850897,-1.104107 0.172544,-0.210944 0.388318,-0.510456 0.479501,-0.665583 0.260622,-0.443404 0.408481,-0.582915 0.61869,-0.583761 0.212147,-7.93e-4 0.254755,-0.02702 0.33279,-0.204327 0.06027,-0.136935 0.5429,-0.613056 0.726651,-0.716847 0.0553,-0.03124 0.161138,-0.05754 0.235189,-0.05845 l 0.134632,-0.0017 -0.03196,0.282308 c -0.03216,0.284161 -0.365156,1.340619 -0.511664,1.623237 -0.04333,0.08359 -0.09959,0.151976 -0.125032,0.151976 -0.06634,0 -0.22445,0.272449 -0.28357,0.488648 -0.02778,0.10158 -0.118333,0.24888 -0.201233,0.327332 -0.0829,0.07845 -0.208582,0.259539 -0.279295,0.402418 -0.07071,0.142878 -0.187168,0.322479 -0.258788,0.399112 -0.263542,0.281988 -0.287576,0.401176 -0.141668,0.70258 0.09563,0.197541 0.09566,0.199497 0.0052,0.377167 -0.141934,0.278901 -0.16552,1.34934 -0.03085,1.40101 0.127782,0.04904 0.385408,-0.02689 0.409977,-0.120846 0.01589,-0.06075 0.08725,-0.101177 0.22727,-0.128744 0.167963,-0.03306 0.206938,-0.06066 0.220068,-0.155792 0.02199,-0.159276 0.130099,-0.267985 0.304537,-0.306201 0.08092,-0.01772 0.319163,-0.116286 0.529431,-0.219021 0.282163,-0.137862 0.414365,-0.178744 0.504693,-0.156072 0.175079,0.04394 0.191932,0.139646 0.08196,0.465425 -0.08299,0.245829 -0.09426,0.371019 -0.07804,0.86705 0.01496,0.45789 0.03542,0.597945 0.09734,0.666359 0.04312,0.04764 0.108054,0.08662 0.144309,0.08662 0.03625,0 0.1701,0.04482 0.297435,0.09959 0.223798,0.09628 0.238449,0.09695 0.439327,0.02023 0.114293,-0.04365 0.286462,-0.132739 0.382599,-0.197978 0.157849,-0.10712 0.204497,-0.115831 0.4812,-0.08985 0.67888,0.06375 1.352088,-0.0101 1.691349,-0.185548 0.0716,-0.03702 0.221702,-0.06731 0.333569,-0.06731 0.350667,0 0.406882,0.158249 0.163651,0.460697 -0.08359,0.103937 -0.18693,0.237446 -0.229652,0.296687 -0.07582,0.105127 -0.555458,0.362808 -1.340633,0.720232 -0.214253,0.09753 -0.435204,0.233861 -0.491001,0.302961 -0.165123,0.204484 -0.59396,0.52396 -0.919783,0.685229 -0.421701,0.208724 -0.456401,0.243524 -0.561235,0.562866 -0.08524,0.259667 -0.08706,0.297725 -0.02286,0.479656 0.03835,0.108688 0.06972,0.235268 0.06972,0.281285 0,0.04602 0.09046,0.164371 0.201012,0.263004 0.290627,0.259281 0.422667,0.463468 0.540604,0.835987 0.07354,0.232282 0.09222,0.361882 0.06339,0.43981 -0.04946,0.133708 0.01755,0.346169 0.273669,0.86753 0.218666,0.445146 0.345428,0.549349 0.72166,0.593236 0.582529,0.06795 0.995236,0.164747 1.139062,0.267161 0.08079,0.05753 0.146887,0.121364 0.146887,0.141864 0,0.107423 -0.21044,0.276455 -0.442288,0.355263 -0.282009,0.09586 -0.483086,0.262249 -0.676387,0.559715 -0.06685,0.102876 -0.265476,0.323827 -0.441389,0.491001 -0.175909,0.167174 -0.368024,0.388122 -0.42692,0.491001 -0.104979,0.183373 -0.31595,0.892799 -0.375463,1.262569 -0.03223,0.20035 -0.221996,0.568 -0.473052,0.91655 -0.201381,0.27958 -0.435024,0.94607 -0.456963,1.30351 -0.0095,0.15493 -0.0014,0.2817 0.01824,0.2817 0.07495,0 0.152717,0.42367 0.12225,0.66602 -0.08791,0.69921 -0.08768,0.71747 0.01165,0.92871 0.221016,0.46998 0.429502,0.80811 0.587517,0.95284 0.214594,0.19656 0.237263,0.426 0.04681,0.4738 -0.06663,0.0167 -0.200588,0.007 -0.297687,-0.0225 -0.0971,-0.0291 -0.222495,-0.0529 -0.278657,-0.0529 -0.05616,0 -0.165482,-0.0328 -0.242938,-0.0728 -0.112035,-0.0579 -0.172293,-0.0624 -0.294753,-0.022 -0.270036,0.0891 -0.341539,0.21317 -0.364653,0.63261 -0.0202,0.36685 -0.09783,0.58453 -0.20842,0.58453 -0.03058,0 -0.131281,-0.0714 -0.223826,-0.15869 -0.122033,-0.1151 -0.187509,-0.2326 -0.238336,-0.42774 -0.04059,-0.15586 -0.128596,-0.3357 -0.209165,-0.42746 -0.0972,-0.11071 -0.139089,-0.20735 -0.139089,-0.32091 0,-0.10298 -0.03323,-0.19096 -0.09075,-0.2402 -0.06228,-0.0533 -0.08332,-0.11554 -0.06706,-0.19828 0.01548,-0.0788 -0.02575,-0.21774 -0.119085,-0.40115 -0.07853,-0.15432 -0.143047,-0.32718 -0.143371,-0.38414 -0.001,-0.15889 -0.155191,-0.20835 -0.637729,-0.20449 -0.500823,0.004 -0.604381,0.0425 -0.879709,0.32686 -0.101277,0.10459 -0.259098,0.21485 -0.350716,0.24501 -0.230606,0.0759 -0.641769,0.38831 -0.726341,0.55186 -0.0386,0.0746 -0.154653,0.23331 -0.257898,0.3526 -0.103245,0.11929 -0.18772,0.23816 -0.18772,0.26415 0,0.08 -0.128461,0.18086 -0.230334,0.18086 -0.0532,0 -0.175699,-0.0709 -0.272222,-0.15746 -0.09652,-0.0866 -0.221913,-0.1719 -0.278651,-0.18955 -0.05674,-0.0176 -0.153192,-0.0915 -0.214343,-0.16421 -0.0722,-0.0858 -0.23173,-0.17389 -0.454939,-0.25121 -0.326396,-0.11305 -0.354174,-0.11552 -0.550149,-0.049 -0.113518,0.0385 -0.335838,0.14053 -0.494045,0.22664 -0.158205,0.0861 -0.377325,0.18014 -0.486927,0.20896 -0.109605,0.0288 -0.290727,0.1141 -0.402493,0.18953 -0.211561,0.14278 -0.543892,0.49209 -0.543892,0.57168 0,0.0252 -0.08436,0.14663 -0.187475,0.26979 -0.103107,0.12315 -0.217097,0.29441 -0.253307,0.38058 -0.03621,0.0862 -0.163944,0.26188 -0.283853,0.39048 -0.335251,0.35953 -0.615209,0.77092 -0.766632,1.12655 -0.07566,0.17769 -0.199161,0.39672 -0.274449,0.48673 -0.123304,0.14743 -0.6659,1.27774 -0.6659,1.38717 0,0.0779 -0.187327,0.24956 -0.270706,0.24808 -0.044,-6.9e-4 -0.115255,-0.022 -0.158335,-0.0471 z m 5.415509,-8.72138 c 0.06599,-0.066 0.107354,-0.1493 0.09287,-0.18705 -0.01438,-0.0374 -0.0057,-0.0681 0.01917,-0.0681 0.02492,0 0.0453,0.021 0.0453,0.0468 0,0.0988 0.08603,0.0401 0.155315,-0.10592 0.03985,-0.084 0.128083,-0.20494 0.19608,-0.26882 0.068,-0.0639 0.165267,-0.21293 0.216159,-0.33123 0.09031,-0.20993 0.346744,-0.41631 0.517276,-0.41631 0.0367,0 0.126731,-0.0626 0.200085,-0.13921 0.07335,-0.0766 0.208624,-0.16404 0.300606,-0.1944 0.136387,-0.045 0.520872,-0.30197 0.834402,-0.55765 0.03216,-0.0262 0.05866,-0.11523 0.05891,-0.197799 6.89e-4,-0.181908 0.18995,-0.604202 0.310996,-0.693431 0.09843,-0.07255 0.227381,-0.259804 0.358228,-0.520195 0.05137,-0.102235 0.163047,-0.217225 0.268547,-0.276518 0.15666,-0.08805 0.187023,-0.133029 0.229072,-0.339363 0.02665,-0.130823 0.05081,-0.31151 0.05366,-0.401528 0.0081,-0.257551 -0.135804,-0.790963 -0.299617,-1.110202 l -0.149769,-0.291868 -0.35155,-3.45e-4 c -0.298425,-3.44e-4 -0.37779,-0.01824 -0.525215,-0.118402 -0.288734,-0.1962 -0.56239,-0.06332 -0.745322,0.361916 -0.05769,0.134115 -0.13418,0.232671 -0.195034,0.251311 -0.05506,0.01686 -0.229618,0.149076 -0.387901,0.293794 -0.754329,0.689701 -0.720029,0.668455 -0.865889,0.536453 -0.103235,-0.09343 -0.110367,-0.300048 -0.01662,-0.481342 0.03789,-0.07328 0.0661,-0.207582 0.06269,-0.298455 -0.0034,-0.09087 0.02871,-0.218521 0.07139,-0.28366 0.04268,-0.06513 0.0776,-0.15869 0.0776,-0.207889 0,-0.0492 0.03137,-0.16453 0.0697,-0.256286 0.06995,-0.167415 0.07422,-0.566933 0.0072,-0.675352 -0.0251,-0.04062 -0.190336,-0.05632 -0.558964,-0.05311 -0.49066,0.0043 -0.537925,0.01313 -0.757139,0.141913 -0.128596,0.07555 -0.39163,0.263555 -0.584524,0.417795 -0.192891,0.15424 -0.51283,0.396561 -0.71097,0.538494 -0.198141,0.141933 -0.414583,0.325375 -0.48098,0.40765 -0.0664,0.08227 -0.160359,0.196817 -0.208803,0.254538 -0.122388,0.145832 -0.154671,0.334413 -0.09876,0.576954 0.110647,0.480032 -0.01517,1.020243 -0.284735,1.22252 -0.335906,0.252059 -0.694123,0.619301 -0.740164,0.758811 -0.09097,0.275641 -0.07156,0.561906 0.03824,0.563896 0.01713,2.7e-4 0.126214,0.0634 0.242376,0.14029 0.116162,0.0769 0.251662,0.16225 0.301113,0.18979 0.04945,0.0275 0.16028,0.17483 0.246282,0.32733 0.1248,0.2213 0.150827,0.3103 0.12894,0.44093 -0.0151,0.09 -0.03885,0.26362 -0.05282,0.38578 -0.02461,0.21519 -0.02155,0.22212 0.09773,0.22212 0.08709,0 0.206518,-0.0811 0.407982,-0.277 0.164399,-0.15987 0.366342,-0.30589 0.477588,-0.34533 0.106013,-0.0376 0.257502,-0.095 0.336644,-0.12768 0.130405,-0.0538 0.173048,-0.0456 0.454853,0.0876 0.270484,0.1278 0.325985,0.17658 0.42642,0.37478 0.107206,0.21156 0.325237,0.38118 0.489967,0.38118 0.06917,0 0.0649,0.0294 -0.02389,0.16495 -0.155695,0.23763 0.03701,0.3452 0.245282,0.13693 z m 73.216278,7.41043 c -0.3292,-0.38032 -0.65077,-0.73806 -0.84118,-0.9358 -0.11354,-0.11792 -0.26388,-0.32807 -0.33407,-0.467 -0.10056,-0.19905 -0.17033,-0.27284 -0.32907,-0.34804 -0.1108,-0.0525 -0.24438,-0.16325 -0.29685,-0.24612 -0.0525,-0.0829 -0.11562,-0.15069 -0.14034,-0.15069 -0.0247,0 -0.034,-0.0176 -0.0207,-0.0391 0.0387,-0.0626 -0.10958,-0.24143 -0.20025,-0.24143 -0.0502,0 -0.16408,-0.12262 -0.28961,-0.31189 -0.22362,-0.33718 -0.64225,-0.70707 -0.97843,-0.86451 -0.11573,-0.0542 -0.24199,-0.12722 -0.28057,-0.16225 -0.19036,-0.17289 -0.38174,-0.30604 -0.5462,-0.38 -0.0999,-0.0449 -0.2616,-0.17035 -0.35937,-0.27872 -0.22455,-0.2489 -0.63444,-0.45524 -1.05287,-0.53001 -0.30696,-0.0549 -0.33622,-0.0522 -0.52767,0.0477 -0.2805,0.14632 -0.65156,0.17179 -1.04851,0.072 -0.25432,-0.064 -0.41787,-0.0744 -0.76717,-0.0489 -0.43011,0.0314 -0.45416,0.0393 -0.77158,0.25381 -0.18019,0.12179 -0.44336,0.26796 -0.58481,0.32483 -0.26735,0.10749 -0.45101,0.22597 -1.03357,0.66676 -0.51217,0.38754 -0.672,0.54533 -0.91854,0.90683 -0.25805,0.37839 -0.41536,0.47713 -0.66274,0.41598 -0.16049,-0.0397 -0.16729,-0.0497 -0.16286,-0.24033 0.003,-0.11932 0.0378,-0.2356 0.0875,-0.29052 0.0456,-0.0504 0.0703,-0.1244 0.0549,-0.16452 -0.0755,-0.19685 0.16894,-0.79051 0.38903,-0.94467 0.0773,-0.0541 0.0827,-0.0833 0.0388,-0.20928 -0.0418,-0.11988 -0.0356,-0.17495 0.0341,-0.30448 0.0658,-0.12226 0.0725,-0.17075 0.0295,-0.21378 -0.0766,-0.0766 -0.30646,0.0517 -0.65062,0.36299 -0.3215,0.29079 -0.4277,0.33202 -0.61104,0.23721 -0.16092,-0.0832 -0.20588,-0.24502 -0.12028,-0.4328 0.0757,-0.16609 0.22786,-0.34297 0.295,-0.34297 0.028,0 0.0465,-0.0158 0.041,-0.0351 -0.005,-0.0193 0.0197,-0.0877 0.0559,-0.15197 0.0362,-0.0643 0.0679,-0.23772 0.0703,-0.38539 0.002,-0.14766 0.0299,-0.29391 0.061,-0.32499 0.0311,-0.0311 0.057,-0.0891 0.0576,-0.12899 3.4e-4,-0.0399 0.0605,-0.19424 0.13311,-0.34306 0.0945,-0.19361 0.11648,-0.28006 0.0773,-0.30395 -0.0988,-0.0602 -0.11849,-0.20053 -0.0474,-0.33797 0.0384,-0.0743 0.0698,-0.17556 0.0698,-0.22512 0,-0.0496 0.0292,-0.11438 0.065,-0.14404 0.0941,-0.0781 0.11651,-0.25881 0.0443,-0.35762 -0.0343,-0.047 -0.0611,-0.17082 -0.0595,-0.27521 0.002,-0.16516 0.009,-0.17569 0.0465,-0.0811 0.0475,0.1185 0.22063,0.12345 0.19048,0.005 -0.009,-0.037 -0.0138,-0.19492 -0.01,-0.35083 0.004,-0.15591 -0.016,-0.34529 -0.045,-0.42086 -0.029,-0.0756 -0.0603,-0.21835 -0.0696,-0.31731 -0.009,-0.099 -0.0309,-0.24364 -0.048,-0.3215 -0.0215,-0.098 -0.0152,-0.13171 0.0207,-0.10957 0.0876,0.0541 0.15955,-0.0229 0.0778,-0.0832 -0.0472,-0.0348 -0.0895,-0.18647 -0.11945,-0.428057 -0.048,-0.386895 -0.0337,-1.193805 0.0227,-1.285108 0.0507,-0.08205 -0.0238,-0.504515 -0.10009,-0.567875 -0.0458,-0.03802 -0.0657,-0.129454 -0.0591,-0.271233 0.006,-0.117633 -0.0247,-0.295359 -0.0671,-0.394947 -0.0424,-0.09959 -0.0772,-0.226422 -0.0772,-0.281857 0,-0.108598 -0.12025,-0.308645 -0.18552,-0.308645 -0.0516,0 -0.2821,0.461589 -0.2821,0.564869 0,0.04339 -0.0399,0.08933 -0.0888,0.1021 -0.0488,0.01275 -0.12712,0.08361 -0.17399,0.157429 -0.0469,0.07382 -0.1615,0.228914 -0.25471,0.344648 -0.0932,0.115734 -0.21901,0.294598 -0.27953,0.397474 -0.16654,0.283071 -0.3801,0.537763 -0.45092,0.537763 -0.0423,0 -0.0544,0.03499 -0.0367,0.105793 0.0216,0.086 -1.1e-4,0.115858 -0.11601,0.159603 -0.14097,0.05321 -0.14257,0.05766 -0.14327,0.396899 -3.5e-4,0.188695 -0.031,0.427258 -0.0681,0.530131 -0.0405,0.112473 -0.0682,0.368823 -0.0694,0.642973 -0.002,0.37319 -0.0148,0.45593 -0.0722,0.45593 -0.0769,0 -0.0938,0.0957 -0.0294,0.16601 0.0224,0.0244 0.0528,0.15381 0.0677,0.2875 0.0227,0.20524 0.0158,0.23882 -0.0443,0.21574 -0.0392,-0.015 -0.0899,-0.0765 -0.11276,-0.13656 -0.024,-0.0632 -0.0964,-0.12255 -0.17178,-0.14085 -0.16835,-0.0409 -0.4807,-0.31694 -0.58936,-0.5209 -0.0564,-0.10593 -0.15487,-0.19049 -0.29277,-0.25148 -0.11425,-0.0505 -0.2415,-0.14342 -0.28276,-0.20639 -0.11291,-0.17233 -0.32068,-0.15655 -0.41806,0.0318 -0.0416,0.0804 -0.082,0.22248 -0.0899,0.31564 -0.008,0.0932 -0.0256,0.20095 -0.0395,0.23953 -0.0139,0.0386 -0.0455,0.23164 -0.0702,0.42903 -0.0499,0.39934 -0.1371,0.5572 -0.37022,0.67054 -0.2078,0.10102 -0.59378,0.143 -0.67358,0.0733 -0.0346,-0.0302 -0.13555,-0.0928 -0.22436,-0.13896 -0.10247,-0.0533 -0.17549,-0.13367 -0.19982,-0.21991 -0.0446,-0.15813 -2.7e-4,-0.75153 0.0654,-0.87515 0.0612,-0.11524 0.0102,-0.31675 -0.12741,-0.50327 -0.063,-0.0853 -0.11446,-0.20455 -0.11446,-0.26495 0,-0.11547 -0.26818,-0.506912 -0.57707,-0.842326 -0.1225,-0.133008 -0.15891,-0.198737 -0.11008,-0.198737 0.0998,0 0.13996,-0.152016 0.0768,-0.290747 -0.0376,-0.08257 -0.11591,-0.130792 -0.28104,-0.17311 -0.23719,-0.06079 -0.50461,-0.282722 -0.82679,-0.686143 -0.0834,-0.104479 -0.16371,-0.20197 -0.17839,-0.216649 -0.0147,-0.01469 -0.0579,-0.160248 -0.0959,-0.323482 -0.0381,-0.163234 -0.1014,-0.345879 -0.14072,-0.405882 -0.11066,-0.16888 -0.29939,-0.69404 -0.3979,-1.107175 -0.10774,-0.45184 -0.31171,-1.138335 -0.37147,-1.250246 -0.0239,-0.04466 -0.0434,-0.118916 -0.0434,-0.165013 0,-0.113052 -0.24869,-1.027506 -0.3957,-1.455026 -0.0653,-0.189829 -0.11868,-0.39363 -0.11868,-0.452885 0,-0.323699 -0.12053,-0.398049 -0.48235,-0.29758 -0.31848,0.08844 -0.343,0.143361 -0.3527,0.79006 -0.005,0.316164 -0.0181,0.590199 -0.0297,0.60897 -0.0116,0.01879 -0.0333,0.40008 -0.0482,0.847353 -0.0149,0.447272 -0.0336,0.897396 -0.0415,1.000272 -0.008,0.102876 -0.029,0.365911 -0.0468,0.584522 -0.0178,0.218613 -0.0396,0.576344 -0.0485,0.794955 -0.0203,0.503487 -0.10315,1.121064 -0.1929,1.438362 -0.0386,0.136297 -0.0741,0.480269 -0.0797,0.771572 -0.008,0.435573 0.005,0.559684 0.0806,0.724372 0.0499,0.109303 0.10464,0.198733 0.12162,0.198733 0.0661,0 0.47514,0.57128 0.58182,0.81249 0.0619,0.13994 0.13468,0.26813 0.16177,0.28488 0.0271,0.0167 0.0493,0.0713 0.0493,0.1212 0,0.0935 0.0928,0.20216 0.27736,0.32458 0.0581,0.0386 0.13239,0.0912 0.16497,0.1169 0.0721,0.0569 0.21234,0.48673 0.21234,0.6507 0,0.0653 0.0702,0.26578 0.15608,0.44548 0.1556,0.32572 0.15589,0.32766 0.0939,0.62066 -0.0867,0.40962 -0.085,0.77144 0.005,1.01873 0.19658,0.54126 0.18288,1.76758 -0.021,1.87451 -0.33851,0.17759 -0.38594,0.18691 -0.45434,0.0893 -0.0361,-0.0516 -0.12757,-0.12582 -0.20316,-0.16491 -0.0904,-0.0467 -0.13745,-0.10715 -0.13745,-0.17637 0,-0.0579 -0.0368,-0.15733 -0.0818,-0.22092 -0.14648,-0.20696 -0.24693,-0.55642 -0.33567,-1.16776 -0.0206,-0.14146 -0.12398,-0.49657 -0.22989,-0.78915 -0.10591,-0.29257 -0.18008,-0.55216 -0.16482,-0.57685 0.0401,-0.065 -0.2091,-0.5102 -0.35205,-0.62888 -0.0669,-0.0556 -0.10652,-0.11631 -0.088,-0.13501 0.0185,-0.0187 -0.01,-0.0951 -0.063,-0.16979 -0.0532,-0.0747 -0.11184,-0.1928 -0.13035,-0.26247 -0.0262,-0.0987 -0.0691,-0.13227 -0.19418,-0.15205 -0.0883,-0.014 -0.24143,-0.0624 -0.3403,-0.10769 -0.106,-0.0485 -0.25952,-0.0765 -0.37409,-0.0681 l -0.19433,0.0142 -0.041,0.33459 c -0.0363,0.29635 -0.03,0.35516 0.0555,0.51439 0.2963,0.55167 0.3473,0.76318 0.21837,0.90564 -0.11116,0.12283 -0.32223,0.11811 -0.44146,-0.01 -0.0524,-0.0563 -0.0957,-0.12468 -0.0962,-0.15197 -3.4e-4,-0.0273 -0.10251,-0.11192 -0.22674,-0.18805 -0.13044,-0.0799 -0.25223,-0.19846 -0.2883,-0.28057 -0.0982,-0.22353 -0.55612,-0.67992 -0.68222,-0.67992 -0.11952,0 -0.57596,-0.22576 -0.77757,-0.38459 -0.11725,-0.0924 -0.2061,-0.10439 -1.00538,-0.13603 -0.90777,-0.0359 -1.05423,-0.0645 -1.46845,-0.28601 -0.17771,-0.0951 -0.28802,-0.11731 -0.60186,-0.12137 -0.31646,-0.004 -0.41835,-0.025 -0.57741,-0.11817 -0.28355,-0.16617 -0.35419,-0.26589 -0.41324,-0.58344 -0.0483,-0.25958 -0.0449,-0.29504 0.0368,-0.38669 0.0495,-0.0555 0.15464,-0.12831 0.23375,-0.16181 0.25322,-0.10724 0.84648,-0.755906 1.02997,-1.126164 0.0913,-0.184193 0.17041,-0.36516 0.17584,-0.402145 0.005,-0.03699 0.0459,-0.122277 0.09,-0.18953 0.0441,-0.06725 0.0801,-0.153502 0.0801,-0.19166 0,-0.03816 0.0534,-0.126962 0.11859,-0.19734 0.0652,-0.07038 0.1075,-0.15685 0.0939,-0.192164 -0.0135,-0.03531 0.0181,-0.147876 0.0702,-0.250145 0.0522,-0.10227 0.0817,-0.20719 0.0657,-0.233155 -0.016,-0.02596 -0.005,-0.0765 0.0249,-0.112311 0.0409,-0.04927 0.0407,-0.08994 -6.9e-4,-0.167225 -0.0454,-0.08487 -0.0381,-0.124549 0.0435,-0.234906 0.054,-0.07303 0.0982,-0.145312 0.0982,-0.160621 0,-0.01531 0.0435,-0.123439 0.0968,-0.240276 0.0532,-0.116837 0.0847,-0.243837 0.07,-0.282226 -0.0147,-0.03838 -0.0114,-0.0942 0.007,-0.124025 0.0187,-0.02982 0.0367,-0.117361 0.0399,-0.194517 0.003,-0.07716 0.0223,-0.239939 0.0424,-0.361737 0.0236,-0.14264 0.0162,-0.294408 -0.0207,-0.426455 -0.0507,-0.181018 -0.0791,-0.211512 -0.24305,-0.260629 -0.15333,-0.04593 -0.22489,-0.04259 -0.41099,0.01924 -0.12393,0.04116 -0.26463,0.118299 -0.31266,0.171414 -0.22679,0.250766 -0.79421,0.375726 -0.84387,0.185838 -0.0126,-0.0483 -0.0703,-0.109381 -0.12811,-0.135732 -0.21298,-0.09704 -0.11805,-0.246071 0.40756,-0.639891 0.12338,-0.09245 0.24414,-0.155847 0.26834,-0.140892 0.0242,0.01496 0.0332,-0.001 0.02,-0.03524 -0.0133,-0.03471 0.11127,-0.20711 0.28055,-0.388215 0.16747,-0.179177 0.3167,-0.362601 0.33159,-0.407609 0.0149,-0.04501 0.0567,-0.08183 0.0929,-0.08183 0.0918,0 0.20308,-0.234164 0.26156,-0.550618 0.0272,-0.147245 0.07,-0.280398 0.095,-0.295897 0.0251,-0.01551 0.0953,-0.165344 0.15619,-0.332983 0.10401,-0.286535 0.48388,-0.932938 0.58499,-0.995423 0.0253,-0.01562 0.046,-0.06663 0.046,-0.113352 0,-0.146218 0.23193,-0.617291 0.40141,-0.815286 0.0892,-0.104259 0.15834,-0.221931 0.15356,-0.261498 -0.0153,-0.126859 0.0557,-0.354832 0.24094,-0.773368 0.0749,-0.169274 0.13417,-0.450031 0.10887,-0.51594 -0.0136,-0.0356 6.9e-4,-0.142087 0.0319,-0.23664 0.0707,-0.214117 0.10364,-1.081847 0.0426,-1.119605 -0.0246,-0.01519 -0.0866,-0.11045 -0.13786,-0.211692 -0.0512,-0.101241 -0.13487,-0.266405 -0.18582,-0.367032 -0.093,-0.183769 -0.29531,-0.378185 -0.39345,-0.378185 -0.13687,0 -0.48467,-0.459846 -0.56589,-0.748189 -0.0181,-0.0643 -0.10568,-0.185336 -0.19461,-0.268973 -0.0889,-0.08364 -0.1486,-0.173218 -0.13262,-0.199067 0.016,-0.02585 -0.005,-0.05997 -0.046,-0.07582 -0.0413,-0.01585 -0.12155,-0.113151 -0.17832,-0.216224 -0.0568,-0.103073 -0.13176,-0.239516 -0.16664,-0.303205 -0.0349,-0.06369 -0.12416,-0.150364 -0.19841,-0.192612 -0.0743,-0.04225 -0.12773,-0.09786 -0.11883,-0.123575 0.009,-0.02572 -0.0449,-0.117036 -0.11947,-0.202926 -0.10762,-0.123894 -0.12435,-0.169796 -0.0809,-0.22212 0.0419,-0.05043 0.0417,-0.06595 -3.5e-4,-0.06595 -0.0304,0 -0.0422,-0.02104 -0.0263,-0.04676 0.0684,-0.11064 0.76386,0.01201 0.88307,0.155732 0.0661,0.07971 0.56225,0.265125 0.70941,0.265125 0.19503,0 0.42727,0.145321 0.53307,0.333556 0.0559,0.09945 0.11954,0.180825 0.14143,0.180825 0.0219,0 0.0982,0.06185 0.16953,0.137436 0.17677,0.18729 0.30337,0.208478 0.6745,0.112875 l 0.31714,-0.0817 0.32581,0.131161 c 0.19791,0.07967 0.36334,0.119248 0.42142,0.100814 0.16116,-0.05115 0.33518,-0.21342 0.43163,-0.402477 0.11294,-0.221379 0.15162,-0.867401 0.0555,-0.927138 -0.10563,-0.06566 -0.14381,-0.30192 -0.0602,-0.372433 0.067,-0.05651 0.0668,-0.06009 -0.002,-0.03873 -0.11791,0.03646 -0.18236,-0.0554 -0.12587,-0.179396 0.0334,-0.07327 0.0323,-0.134443 -0.003,-0.201305 -0.0918,-0.1715 -0.0166,-0.256924 0.19618,-0.2229 0.10307,0.01648 0.20492,0.04079 0.22633,0.05403 0.0859,0.0531 0.32384,0.443999 0.29684,0.487693 -0.0159,0.02572 0.01,0.06237 0.0575,0.08144 0.20808,0.08349 0.62101,0.645339 0.62101,0.844959 0,0.04957 0.0331,0.117594 0.0736,0.15117 0.0985,0.08175 0.25378,0.391678 0.25378,0.50655 0,0.05384 0.0925,0.166592 0.22211,0.270744 0.12217,0.09817 0.24962,0.215313 0.28323,0.260322 0.0379,0.05083 0.12338,0.08183 0.22548,0.08183 0.20967,0 0.55238,0.192292 0.77565,0.435211 0.1468,0.159717 0.2121,0.194139 0.42085,0.221843 0.13591,0.01804 0.26815,0.01724 0.29386,-0.0018 0.0749,-0.05536 0.65761,-0.09342 0.80269,-0.05242 0.0729,0.0206 0.28923,0.02049 0.48073,-2.65e-4 0.19149,-0.02074 0.37036,-0.01978 0.39747,0.0021 0.0909,0.07346 0.23585,0.07737 0.28889,0.0078 0.0452,-0.05926 0.091,-0.06045 0.32734,-0.0085 0.15113,0.03325 0.37556,0.103262 0.49873,0.155595 0.335,0.142333 0.80042,0.09158 1.0738,-0.1171 0.10934,-0.08346 0.33554,-0.212652 0.50267,-0.287098 0.16713,-0.07445 0.32078,-0.16398 0.34144,-0.198965 0.0298,-0.05039 0.50886,-0.38743 0.63556,-0.447114 0.0155,-0.0073 0.0809,-0.11467 0.1452,-0.238533 0.18299,-0.352518 0.26316,-0.419721 0.46187,-0.387183 0.0932,0.01526 0.19309,0.03128 0.22202,0.0356 0.0289,0.0043 0.0526,0.05847 0.0526,0.120332 0,0.126095 -0.19084,0.548515 -0.26988,0.597362 -0.0289,0.01788 -0.0391,0.08681 -0.0234,0.15832 0.024,0.10911 -0.0129,0.167498 -0.26614,0.421529 -0.16168,0.162182 -0.38339,0.356709 -0.4927,0.432284 -0.10931,0.07557 -0.19874,0.164827 -0.19874,0.198341 0,0.08927 -0.22478,0.500497 -0.34765,0.636003 -0.0583,0.0643 -0.17664,0.243162 -0.26298,0.397475 -0.0863,0.154315 -0.2229,0.367206 -0.30346,0.473092 -0.15716,0.206565 -0.36966,0.826339 -0.41499,1.210335 -0.0153,0.129223 -0.0601,0.25795 -0.10025,0.287772 -0.0471,0.03498 -0.0552,0.06474 -0.0231,0.0846 0.0273,0.01686 0.0496,0.07908 0.0496,0.138304 0,0.05922 0.0603,0.242106 0.13405,0.406409 0.23135,0.51557 0.27383,0.784927 0.21988,1.394203 -0.0253,0.285425 -0.0185,0.312441 0.13408,0.537759 0.19749,0.291565 0.26996,0.55158 0.28221,1.012473 0.008,0.299069 0.0336,0.401242 0.16467,0.654666 0.0854,0.165161 0.20388,0.397095 0.26332,0.515414 0.19809,0.394344 0.29263,0.401063 0.48375,0.0344 0.14355,-0.275414 0.33342,-0.497724 0.4501,-0.527008 0.0568,-0.01427 0.11471,-0.07559 0.13041,-0.138155 0.0156,-0.06188 0.10331,-0.20237 0.19507,-0.3122 0.19488,-0.233254 0.30141,-0.425717 0.30141,-0.544533 0,-0.04653 0.0421,-0.110881 0.0935,-0.143002 0.0514,-0.03213 0.0935,-0.105575 0.0936,-0.163223 1e-4,-0.269165 0.15276,-0.807579 0.28241,-0.996016 0.0761,-0.110646 0.13841,-0.212233 0.13841,-0.225746 0,-0.01351 0.0515,-0.100484 0.11448,-0.19327 0.063,-0.09279 0.12871,-0.263552 0.1461,-0.379482 0.0174,-0.115935 0.081,-0.269499 0.14139,-0.341257 0.0604,-0.07176 0.13142,-0.187371 0.15786,-0.256923 0.0617,-0.162389 0.0628,-0.900709 10e-4,-0.938694 -0.0257,-0.01589 -0.0469,-0.08553 -0.0471,-0.154737 -1.4e-4,-0.06921 -0.0421,-0.188964 -0.0932,-0.266119 -0.0511,-0.07716 -0.0931,-0.207434 -0.0932,-0.289502 -1.4e-4,-0.08207 -0.0185,-0.160467 -0.0408,-0.17422 -0.0222,-0.01375 -0.0506,-0.234655 -0.0629,-0.490896 -0.0161,-0.333673 -0.0455,-0.501037 -0.10357,-0.589719 -0.0446,-0.0681 -0.0689,-0.136073 -0.0539,-0.151044 0.015,-0.01497 -0.007,-0.06531 -0.0494,-0.111872 -0.0713,-0.07874 -0.0705,-0.08711 0.0116,-0.119791 0.24355,-0.09703 0.61157,0.0082 0.94454,0.270151 0.0677,0.05326 0.23004,0.0973 0.43202,0.117199 0.27119,0.02672 0.34704,0.05433 0.46867,0.170563 0.11016,0.105272 0.16947,0.130371 0.24619,0.104188 0.0556,-0.01897 0.48785,-0.04052 0.96059,-0.0479 0.52976,-0.0083 0.8787,-0.03259 0.90952,-0.0634 0.0275,-0.0275 0.13521,-0.05091 0.23938,-0.05203 0.31112,-0.0033 0.57656,-0.07185 0.76237,-0.196755 0.0964,-0.06477 0.23268,-0.131017 0.30294,-0.147211 0.1848,-0.0426 0.45679,-0.296856 0.45679,-0.427018 0,-0.06239 0.0538,-0.151006 0.12639,-0.20809 0.16709,-0.131429 0.46027,-0.09361 0.60422,0.07794 0.073,0.08705 0.15968,0.124939 0.32733,0.143168 0.1254,0.01364 0.28613,0.06557 0.35717,0.115414 0.15171,0.106436 0.35356,0.08147 0.48114,-0.05949 0.0452,-0.04998 0.13229,-0.09087 0.19345,-0.09087 0.0648,0 0.17959,-0.06837 0.27489,-0.163666 0.09,-0.09002 0.19813,-0.163666 0.24026,-0.163666 0.0421,0 0.10981,-0.02939 0.15041,-0.06532 0.0747,-0.06612 0.68516,-0.270805 0.98568,-0.330509 0.09,-0.01788 0.37999,-0.107573 0.64438,-0.199307 0.39616,-0.137457 0.50049,-0.15778 0.59317,-0.115553 0.0756,0.03443 0.16321,0.03669 0.26717,0.0069 0.0851,-0.0244 0.17871,-0.04437 0.20804,-0.04437 0.0856,0 0.0406,0.273002 -0.0638,0.38723 -0.0522,0.05707 -0.12865,0.170667 -0.16995,0.252432 -0.0413,0.08176 -0.12268,0.163545 -0.18083,0.181735 -0.0582,0.01819 -0.16885,0.08469 -0.24601,0.147768 -0.29789,0.243548 -1.09023,0.731136 -1.39685,0.859595 -0.17672,0.07404 -0.40199,0.207496 -0.50058,0.296569 -0.2068,0.186826 -0.45423,0.321618 -0.72348,0.394118 -0.15911,0.04285 -0.20545,0.08519 -0.29506,0.269634 -0.0585,0.120342 -0.17448,0.304832 -0.2578,0.409979 -0.18895,0.238441 -0.2208,0.311984 -0.5028,1.16082 -0.19095,0.574762 -0.23649,0.780335 -0.27451,1.23919 -0.0548,0.661743 -0.0578,0.833668 -0.0138,0.789626 0.0568,-0.05682 0.345,1.004071 0.37316,1.373774 0.0147,0.192891 0.0749,0.548009 0.13376,0.789143 0.0589,0.241138 0.0966,0.465733 0.0837,0.499102 -0.0128,0.03337 0.0171,0.08228 0.0664,0.108692 0.0493,0.02641 0.1484,0.180584 0.22012,0.342608 0.0717,0.162027 0.15597,0.326161 0.18722,0.364739 0.0682,0.08419 0.21838,0.453622 0.23761,0.584521 0.007,0.05144 0.0569,0.219782 0.10963,0.374095 0.0527,0.154316 0.0964,0.358748 0.097,0.454295 6.9e-4,0.09555 0.0335,0.269019 0.073,0.385495 0.0542,0.159559 0.065,0.318483 0.044,0.64461 -0.0374,0.580812 -0.0247,0.862921 0.0463,1.029278 0.0193,0.04513 0.0249,0.160869 0.0124,0.257192 -0.0268,0.208537 0.0427,0.63896 0.13079,0.809323 0.0788,0.152337 0.30599,0.430059 0.73796,0.902019 0.36436,0.39808 0.38556,0.43268 0.4294,0.70079 0.0351,0.2148 0.35073,0.55472 0.63194,0.68062 0.10103,0.0452 0.22585,0.13584 0.27739,0.20135 0.13291,0.16897 0.38451,0.27511 0.76552,0.32295 0.50265,0.0631 1.0551,0.29948 1.24863,0.53422 0.0685,0.0831 0.46273,0.35988 0.68705,0.48239 0.0634,0.0346 0.1352,0.12028 0.15964,0.1904 0.0244,0.0701 0.14745,0.20604 0.27336,0.30206 0.51876,0.39561 0.70727,1.05542 0.33902,1.18664 -0.53091,0.18917 -0.65787,0.19341 -1.04789,0.0349 -0.15823,-0.0643 -0.31482,-0.1169 -0.34796,-0.1169 -0.0331,0 -0.10026,-0.0429 -0.14915,-0.0954 -0.0742,-0.0797 -0.4298,-0.18979 -0.42883,-0.13282 1.4e-4,0.01 0.1159,0.24703 0.25719,0.5272 0.14129,0.28017 0.25689,0.53536 0.25689,0.56711 0,0.0318 0.035,0.0866 0.0777,0.12189 0.0427,0.0353 0.12623,0.17373 0.18555,0.30761 0.0593,0.1339 0.16212,0.27901 0.22847,0.32249 0.0663,0.0435 0.15188,0.15487 0.19008,0.24756 0.0382,0.0927 0.0973,0.18964 0.13125,0.21546 0.034,0.0258 0.0768,0.0942 0.0951,0.15198 0.0249,0.0784 0.0147,0.10503 -0.04,0.10503 -0.087,0 -0.092,0.0702 -0.0204,0.28528 0.075,0.22521 0.15827,0.3061 0.24293,0.23584 0.0544,-0.0451 0.0807,-0.0258 0.14263,0.10461 0.0417,0.088 0.0759,0.1831 0.0759,0.21136 0,0.0283 0.0792,0.13058 0.17599,0.22737 0.2682,0.26821 0.36677,0.43106 0.43122,0.71249 0.0324,0.14145 0.0809,0.30451 0.10781,0.36233 0.0614,0.13199 0.0386,0.15395 -0.19156,0.18482 -0.16642,0.0223 -0.19956,0.009 -0.3195,-0.1297 z m -58.894356,-0.31909 c -0.585893,-0.18745 -0.975197,-0.61269 -0.976852,-1.06703 -6.89e-4,-0.19545 -0.01944,-0.25379 -0.09441,-0.2939 -0.05144,-0.0276 -0.09352,-0.0807 -0.09352,-0.1182 0,-0.0375 -0.06627,-0.12616 -0.147263,-0.19709 -0.08099,-0.0709 -0.180945,-0.16385 -0.222119,-0.20651 -0.04117,-0.0427 -0.201112,-0.13308 -0.355425,-0.20095 -0.154316,-0.0679 -0.375263,-0.21572 -0.491001,-0.32855 -0.257319,-0.25087 -0.633407,-0.40997 -0.879012,-0.37184 -0.15341,0.0238 -0.634155,-0.0671 -0.757246,-0.14314 -0.06679,-0.0413 -0.242317,0.0626 -0.367214,0.21728 -0.06029,0.0747 -0.193539,0.17859 -0.296108,0.23092 -0.102569,0.0523 -0.221223,0.15565 -0.263669,0.22961 -0.04474,0.078 -0.174558,0.17993 -0.308835,0.24259 -0.127407,0.0595 -0.372951,0.23437 -0.545651,0.38868 -0.943289,0.84287 -0.960501,0.85299 -1.166667,0.68605 -0.105482,-0.0854 -0.10551,-0.0858 -0.02137,-0.30613 0.04633,-0.12132 0.139603,-0.30904 0.207265,-0.41716 0.187348,-0.29936 0.42376,-0.85973 0.42376,-1.00445 0,-0.071 0.04859,-0.2023 0.107984,-0.29185 0.05939,-0.0896 0.13314,-0.24977 0.163882,-0.35603 0.03075,-0.10625 0.08713,-0.21911 0.125311,-0.25079 0.03818,-0.0317 0.05923,-0.0741 0.04679,-0.0942 -0.01244,-0.0201 0.0087,-0.0966 0.04699,-0.17006 0.03828,-0.0734 0.06974,-0.16955 0.06989,-0.21366 1.62e-4,-0.0441 0.03227,-0.17442 0.07138,-0.28958 0.07967,-0.23466 0.164747,-0.77356 0.177605,-1.12497 0.0066,-0.17943 0.02975,-0.24326 0.102021,-0.28096 0.184231,-0.0961 0.672492,-0.66152 0.828845,-0.95986 0.08761,-0.16717 0.193456,-0.36708 0.235202,-0.44423 0.04175,-0.0772 0.101528,-0.21047 0.132846,-0.29625 0.0313,-0.0858 0.08766,-0.18667 0.125204,-0.22422 0.03754,-0.0375 0.0867,-0.15032 0.109237,-0.25062 0.02255,-0.1003 0.09083,-0.25583 0.151768,-0.34563 0.06094,-0.0898 0.124549,-0.24927 0.141358,-0.35438 0.01682,-0.10511 0.0729,-0.22735 0.124642,-0.27166 0.05175,-0.0443 0.106437,-0.1578 0.121532,-0.2522 0.02106,-0.13173 0.0827,-0.21878 0.265048,-0.374293 0.599303,-0.511147 0.593129,-0.502839 0.602265,-0.810558 0.01431,-0.482117 -0.09683,-1.864637 -0.174165,-2.166502 -0.08061,-0.314647 -0.281578,-0.662591 -0.38271,-0.662591 -0.129878,0 -0.853293,-0.3936 -1.007857,-0.54836 -0.226601,-0.226894 -0.2502,-0.280285 -0.224005,-0.506807 0.02475,-0.213939 0.03609,-0.229872 0.189978,-0.266623 0.09002,-0.02151 0.326374,-0.08262 0.525239,-0.135829 0.198864,-0.05321 0.419812,-0.08483 0.490998,-0.07027 0.275496,0.05636 0.807685,-0.244613 0.807299,-0.456553 -3.45e-4,-0.199157 -0.173703,-0.397253 -0.400745,-0.45798 -0.118392,-0.03168 -0.235061,-0.09458 -0.259267,-0.139806 -0.0242,-0.04523 -0.106213,-0.1144 -0.182236,-0.153713 -0.11733,-0.06068 -0.199902,-0.204442 -0.20793,-0.362043 -0.001,-0.0193 -0.06144,-0.109843 -0.13436,-0.201222 -0.179908,-0.225474 -0.232765,-0.418254 -0.136473,-0.497762 0.04056,-0.03347 0.121402,-0.16848 0.179657,-0.299975 0.09589,-0.216466 0.125531,-0.244024 0.31324,-0.291292 0.114028,-0.02872 0.233882,-0.08421 0.266341,-0.123318 0.03247,-0.03911 0.08747,-0.07111 0.122236,-0.07111 0.03477,0 0.09568,-0.06277 0.135352,-0.139492 0.03967,-0.07672 0.135811,-0.172424 0.213636,-0.212671 0.07783,-0.04025 0.163289,-0.130033 0.189919,-0.199526 0.07884,-0.205766 0.06939,-0.624234 -0.01761,-0.781025 -0.04283,-0.07716 -0.100511,-0.25602 -0.128192,-0.397474 -0.05263,-0.26893 -0.309621,-0.681089 -0.458173,-0.734814 -0.04385,-0.01586 -0.248971,-0.189985 -0.455822,-0.38695 -0.271522,-0.258544 -0.475796,-0.40544 -0.734674,-0.52832 -0.300158,-0.142472 -0.374191,-0.2008 -0.454388,-0.358 -0.05269,-0.103288 -0.153468,-0.218261 -0.223943,-0.255494 -0.07048,-0.03723 -0.281723,-0.227438 -0.469442,-0.422675 -0.18772,-0.195238 -0.424452,-0.407464 -0.52607,-0.471614 -0.101621,-0.06415 -0.184765,-0.138919 -0.184765,-0.166152 0,-0.02723 -0.03251,-0.08202 -0.07223,-0.121746 -0.09206,-0.09205 -0.06129,-0.183662 0.05388,-0.160425 0.04867,0.0098 0.1708,0.01697 0.271401,0.0159 0.100601,-0.0011 0.212578,0.02772 0.24884,0.06398 0.03626,0.03626 0.102907,0.06593 0.148097,0.06593 0.04519,0 0.178708,0.06395 0.2967,0.1421 l 0.214533,0.142101 0.296173,-0.100562 c 0.208613,-0.07083 0.455157,-0.107198 0.833937,-0.123007 0.304801,-0.01272 0.606073,-0.05097 0.695446,-0.0883 0.08673,-0.03622 0.194366,-0.06585 0.239194,-0.06585 0.124922,0 0.313793,-0.170571 0.348692,-0.314903 0.0172,-0.07113 0.08332,-0.230098 0.146932,-0.353254 l 0.115662,-0.22392 -0.09492,-0.214572 c -0.05221,-0.118014 -0.09492,-0.276966 -0.09492,-0.353228 0,-0.07626 -0.04208,-0.192159 -0.09352,-0.257551 -0.111056,-0.141186 -0.116241,-0.227539 -0.02654,-0.442199 0.146456,-0.350522 0.246316,-1.24697 0.166013,-1.4903 -0.05988,-0.181431 -0.06273,-0.212368 -0.05235,-0.567179 0.0051,-0.173213 0.02558,-0.225053 0.09817,-0.248091 0.295814,-0.09389 0.519644,0.400467 0.609382,1.345882 0.03261,0.343588 0.06727,0.488231 0.138783,0.579139 0.05242,0.06664 0.09531,0.158851 0.09531,0.204904 0,0.08719 0.666655,0.620936 0.885693,0.70912 0.157257,0.06331 2.030799,0.05533 2.151301,-0.0092 0.04945,-0.02646 0.131643,-0.04812 0.182659,-0.04812 0.05102,0 0.197492,-0.05261 0.325505,-0.116904 0.128017,-0.0643 0.274467,-0.116904 0.325451,-0.116904 0.05098,0 0.120171,-0.0331 0.153747,-0.07356 0.03358,-0.04046 0.146632,-0.116985 0.251228,-0.170057 0.104597,-0.05307 0.248695,-0.145419 0.320222,-0.205214 0.208055,-0.17393 0.381179,-0.19859 0.898713,-0.128014 0.551694,0.07524 0.673205,0.111648 1.079766,0.32356 0.334148,0.17417 0.57903,0.203846 0.679769,0.08238 0.114345,-0.137877 0.343363,-0.206955 0.502367,-0.151526 0.127475,0.04444 0.161679,0.03394 0.329935,-0.101274 0.103245,-0.08297 0.175124,-0.17123 0.159735,-0.196134 -0.01537,-0.0249 -0.0095,-0.05871 0.0131,-0.07512 0.02258,-0.01642 0.09204,-0.124537 0.154347,-0.240272 0.06231,-0.115736 0.142271,-0.227844 0.177695,-0.249131 0.03542,-0.02129 0.126669,-0.124653 0.202766,-0.229703 0.0761,-0.105049 0.185521,-0.214315 0.243162,-0.242812 0.138414,-0.06843 0.481342,-0.676319 0.523078,-0.927232 0.01813,-0.109019 0.048,-0.292908 0.06637,-0.408643 0.01837,-0.115737 0.07992,-0.306505 0.13678,-0.423931 0.05686,-0.117426 0.103382,-0.240436 0.103382,-0.273357 0,-0.03292 0.0361,-0.120968 0.08022,-0.195663 0.06064,-0.10266 0.115021,-0.13581 0.222772,-0.13581 0.12602,0 0.156018,0.02846 0.258798,0.245499 0.09844,0.207881 0.114621,0.303868 0.105592,0.626414 -0.01344,0.480362 0.02809,0.529899 0.343456,0.409466 0.120426,-0.04599 0.284198,-0.14336 0.363936,-0.216377 0.07974,-0.07302 0.20811,-0.149055 0.285269,-0.168974 0.08893,-0.02295 0.165965,-0.08798 0.210427,-0.177604 0.125228,-0.252422 0.259836,-0.381125 0.461955,-0.441682 0.109026,-0.03266 0.219382,-0.09892 0.245237,-0.147227 0.03672,-0.06862 0.08983,-0.08472 0.242741,-0.07361 0.174558,0.0127 0.197334,0.02814 0.210523,0.142741 0.01182,0.102855 -0.02896,0.168199 -0.204329,0.327332 -0.120515,0.109354 -0.309217,0.336565 -0.419343,0.504915 -0.110126,0.168349 -0.233868,0.334007 -0.27498,0.36813 -0.04111,0.03412 -0.07541,0.09629 -0.0762,0.138148 -0.0021,0.10225 -0.36729,0.371973 -0.554589,0.409433 -0.154084,0.03082 -0.379203,0.26784 -0.379203,0.399258 0,0.168946 -0.167412,0.542647 -0.302989,0.67634 -0.143346,0.141355 -0.275234,0.507066 -0.339464,0.941293 -0.01241,0.08383 -0.04126,0.163978 -0.06414,0.178117 -0.113011,0.06985 0.06282,0.628092 0.197838,0.628092 0.02372,0 0.06735,0.05313 0.09694,0.118072 0.02958,0.06494 0.171179,0.18419 0.31464,0.265001 0.143464,0.08081 0.37658,0.225557 0.518034,0.321659 0.226246,0.153708 0.302199,0.178414 0.631287,0.205342 0.57994,0.04745 1.154488,0.274373 1.223161,0.483088 0.0769,0.233711 0.284649,0.591491 0.379579,0.65369 0.08757,0.05738 0.102708,0.09744 0.07849,0.207687 -0.02141,0.09742 -0.006,0.163161 0.05382,0.229215 0.05693,0.06291 0.08084,0.155662 0.07453,0.289122 -0.0051,0.108076 0.02927,0.390405 0.07639,0.627397 0.08419,0.423417 0.08406,0.436806 -0.0073,0.771571 -0.05112,0.187372 -0.0985,0.466933 -0.105285,0.621245 -0.0076,0.172397 -0.06898,0.433822 -0.159235,0.678049 -0.08079,0.21861 -0.159049,0.439561 -0.173907,0.490997 -0.01486,0.05144 -0.129306,0.212861 -0.254334,0.358713 -0.125028,0.145853 -0.227325,0.283209 -0.227325,0.30523 0,0.02203 -0.05787,0.09719 -0.128596,0.167039 -0.328881,0.324796 -0.385784,0.393541 -0.385784,0.466078 0,0.08131 -0.199227,0.393713 -0.383365,0.60114 -0.149579,0.168498 -0.290585,0.234248 -0.475647,0.221782 -0.087,-0.0059 -0.211599,0.02434 -0.276893,0.06713 -0.174806,0.114542 -0.116351,0.248143 0.171645,0.392304 0.583181,0.291912 0.702983,0.467318 0.659399,0.965448 -0.0476,0.543985 -0.166453,0.769756 -0.531871,1.010291 -0.118475,0.07799 -0.310201,0.210771 -0.426059,0.29508 -0.139386,0.101432 -0.337123,0.183638 -0.584521,0.243007 -0.205632,0.04935 -0.415962,0.124786 -0.467402,0.167643 -0.128041,0.106688 -0.572128,0.288075 -0.669089,0.273297 -0.144908,-0.0221 -0.413548,0.167377 -0.515445,0.363536 -0.06192,0.119195 -0.004,0.360392 0.119212,0.496548 0.06266,0.06924 0.08553,0.1825 0.09275,0.459272 0.01038,0.398346 0.102456,0.651429 0.23727,0.652222 0.0525,2.62e-4 0.12053,0.0902 0.19497,0.257609 0.06289,0.141423 0.162841,0.302699 0.222119,0.358389 0.05928,0.05569 0.107782,0.125938 0.107782,0.156102 0,0.03016 0.04143,0.07384 0.09206,0.09706 0.05063,0.02323 0.255796,0.201243 0.455929,0.395607 0.200129,0.19437 0.458562,0.39752 0.5743,0.45146 0.115734,0.0539 0.305119,0.14245 0.420857,0.1967 0.293598,0.13761 0.485947,0.27055 0.783651,0.54159 0.248202,0.22598 0.619204,0.73244 0.619204,0.84529 0,0.0303 0.03158,0.0813 0.07014,0.11333 0.03858,0.032 0.07014,0.11395 0.07014,0.18208 0,0.11034 0.257282,0.5146 0.568612,0.89344 0.05284,0.0643 0.143968,0.22212 0.202512,0.35072 0.110608,0.24296 0.305636,0.42692 0.690155,0.651 0.12215,0.0712 0.25723,0.18891 0.30018,0.26161 0.04295,0.0727 0.126017,0.15785 0.184596,0.1892 0.265293,0.14198 0.09995,0.38833 -0.296821,0.44226 -0.340085,0.0462 -0.364257,0.0586 -0.444378,0.22656 -0.105665,0.22158 -0.02941,0.34811 0.313827,0.5207 0.410756,0.20654 0.438017,0.38835 0.130864,0.87275 -0.07795,0.12293 -0.07655,0.12732 0.106044,0.33381 0.207483,0.23464 0.335682,0.42153 0.508955,0.74198 0.102572,0.18969 0.111204,0.23804 0.06577,0.36837 l -0.0523,0.15002 -0.28052,-0.0293 c -0.301544,-0.0315 -0.503039,-0.13512 -1.267613,-0.65175 -0.432777,-0.29243 -0.58317,-0.45606 -0.708505,-0.77085 -0.05891,-0.14794 -0.127569,-0.22509 -0.260874,-0.2931 -0.09951,-0.0508 -0.302019,-0.20957 -0.450027,-0.3529 -0.175726,-0.17018 -0.404282,-0.32606 -0.658692,-0.44924 -0.480628,-0.2327 -0.617105,-0.22413 -1.256948,0.079 -0.388662,0.18411 -0.501725,0.21523 -0.940749,0.25895 -0.580495,0.0578 -0.590702,0.0601 -0.989993,0.21954 -0.320776,0.12809 -0.635237,0.38823 -0.808033,0.66844 -0.05551,0.09 -0.233131,0.29638 -0.394706,0.45859 -0.161576,0.16221 -0.380479,0.42525 -0.486444,0.58452 -0.105968,0.15928 -0.292881,0.39481 -0.415362,0.52341 -0.12248,0.1286 -0.325085,0.34607 -0.450237,0.48327 -0.23684,0.25965 -0.476075,0.3952 -0.791574,0.4485 -0.251138,0.0424 -0.515231,-0.0677 -0.545795,-0.22758 -0.02248,-0.11756 0.02427,-0.2003 0.427014,-0.75581 0.147593,-0.20358 0.154936,-0.23017 0.103152,-0.37338 -0.04407,-0.12188 -0.04317,-0.17434 0.0043,-0.25038 0.03302,-0.0529 0.07408,-0.0962 0.0912,-0.0962 0.03041,0 0.293405,-0.33776 0.488098,-0.62683 0.116379,-0.17279 0.206466,-0.51087 0.206466,-0.77483 0,-0.44397 0.339998,-1.13558 0.800015,-1.62733 0.182584,-0.19519 0.275507,-0.33355 0.275507,-0.41023 0,-0.17959 -0.180032,-0.51969 -0.357658,-0.67565 -0.193011,-0.16947 -0.275155,-0.15972 -0.717864,0.0852 -0.167174,0.0925 -0.425049,0.22808 -0.573059,0.30135 -0.172666,0.0855 -0.294595,0.1825 -0.340226,0.27073 -0.03911,0.0756 -0.09162,0.13753 -0.116679,0.13753 -0.02506,0 -0.04556,0.0522 -0.04556,0.11591 0,0.0919 -0.0684,0.16097 -0.330011,0.33332 -0.304888,0.20086 -0.346117,0.21521 -0.541638,0.1884 -0.116396,-0.016 -0.230927,-0.0409 -0.254513,-0.0555 -0.117458,-0.0726 0.06053,-0.62761 0.230434,-0.71854 0.05083,-0.0272 0.141147,-0.12863 0.200705,-0.2254 0.138066,-0.22433 0.601296,-0.71371 0.675574,-0.71371 0.09472,0 0.324041,-0.29688 0.491787,-0.63667 l 0.158949,-0.32195 0.0028,-0.71657 c 0.0024,-0.57038 0.01658,-0.72527 0.07014,-0.75917 0.03702,-0.0234 0.04368,-0.0429 0.01482,-0.0433 -0.02889,-3.4e-4 -0.06274,-0.10728 -0.07526,-0.23753 -0.01331,-0.13853 -0.06429,-0.29299 -0.122853,-0.3722 -0.05506,-0.0745 -0.100101,-0.15758 -0.100101,-0.1847 0,-0.0897 -0.208882,-0.374423 -0.295332,-0.402638 -0.0467,-0.01524 -0.153844,-0.08824 -0.238098,-0.16221 -0.225384,-0.197893 -0.362253,-0.237257 -0.623475,-0.179322 -0.122415,0.02713 -0.411956,0.07776 -0.643428,0.112466 -0.495224,0.07426 -0.422901,0.05467 -0.504987,0.136759 -0.05072,0.05072 -0.06172,0.147276 -0.04439,0.389585 0.02206,0.30833 0.01751,0.3265 -0.105878,0.42356 -0.112708,0.0887 -0.18844,0.10156 -0.601934,0.10251 -0.425541,0.001 -0.496461,0.0139 -0.706812,0.12859 -0.224209,0.12227 -0.23686,0.13999 -0.308159,0.43146 -0.06747,0.27583 -0.104972,0.33448 -0.405338,0.63387 -0.45841,0.45692 -0.467004,0.52086 -0.175602,1.30675 0.150717,0.40648 0.167881,0.81582 0.05329,1.27101 -0.08643,0.34332 -0.08602,0.3806 0.01451,1.32426 0.03628,0.34058 0.09016,0.62281 0.21133,1.10699 0.014,0.0559 0.07859,0.16479 0.143553,0.24199 0.06497,0.0772 0.176685,0.28401 0.24826,0.45954 0.133543,0.3275 0.178306,0.50746 0.317829,1.27777 0.04426,0.24433 0.0978,0.46422 0.118999,0.48866 0.0649,0.0748 0.04283,0.24787 -0.03544,0.2779 -0.04068,0.0156 -0.07751,0.0272 -0.08183,0.0259 -0.0043,-10e-4 -0.125517,-0.0402 -0.269312,-0.0862 z m 2.295592,-16.070127 c 0.06429,-0.03571 0.253441,-0.131126 0.420322,-0.212047 0.166878,-0.08092 0.331156,-0.186727 0.365056,-0.235126 0.03389,-0.0484 0.08751,-0.088 0.119144,-0.088 0.03165,0 0.132977,-0.10108 0.225208,-0.224626 0.126562,-0.169522 0.217911,-0.239918 0.372389,-0.286966 0.197916,-0.06028 1.00141,-0.07531 1.174306,-0.02196 0.04463,0.01379 0.202447,-0.02751 0.350712,-0.09177 0.148263,-0.06424 0.316919,-0.130106 0.374785,-0.146367 0.05967,-0.01675 0.105216,-0.06636 0.105216,-0.114565 0,-0.04675 0.05152,-0.118751 0.114494,-0.160015 0.06297,-0.04126 0.158373,-0.175199 0.212002,-0.297638 0.05363,-0.122439 0.159259,-0.285749 0.234733,-0.362905 0.07547,-0.07716 0.237277,-0.242545 0.359561,-0.367524 0.122284,-0.12498 0.270254,-0.245458 0.328819,-0.267724 0.05857,-0.02227 0.106485,-0.07285 0.106485,-0.112421 0,-0.03956 0.02103,-0.113735 0.04676,-0.164823 0.02572,-0.05109 0.067,-0.133401 0.09174,-0.182918 0.02475,-0.04952 0.129951,-0.249487 0.233809,-0.44438 0.103859,-0.194894 0.188165,-0.391111 0.187344,-0.436042 -0.004,-0.219117 -0.260342,-0.328853 -0.785137,-0.336092 -0.130764,-0.0017 -0.277431,-0.04694 -0.415513,-0.127857 -0.208221,-0.122026 -0.214988,-0.122879 -0.278096,-0.03507 -0.03558,0.0495 -0.09585,0.127063 -0.133936,0.172367 -0.03809,0.0453 -0.06925,0.09564 -0.06925,0.111863 0,0.09767 -0.454023,0.536474 -0.674564,0.651943 -0.227683,0.119209 -0.27862,0.174141 -0.429209,0.462875 -0.218989,0.419884 -0.336265,0.584804 -0.415861,0.584804 -0.035,0 -0.127552,-0.09469 -0.205663,-0.210427 -0.07811,-0.115737 -0.125014,-0.21043 -0.104238,-0.21043 0.06067,0 0.136115,-0.315443 0.195862,-0.818968 l 0.05556,-0.468256 -0.135325,-0.256552 c -0.131977,-0.250217 -0.140754,-0.256906 -0.355279,-0.270754 -0.183121,-0.01182 -0.290717,0.02096 -0.642515,0.195771 -0.232406,0.115482 -0.452544,0.239955 -0.489191,0.276599 -0.03665,0.03665 -0.146953,0.08039 -0.245127,0.09721 -0.211054,0.03616 -0.334944,0.121277 -0.355345,0.244144 -0.0081,0.04892 -0.04284,0.140134 -0.07715,0.202691 -0.03552,0.06478 -0.06818,0.298827 -0.07585,0.543682 -0.0081,0.257571 -0.05155,0.558794 -0.10845,0.75135 -0.05224,0.176778 -0.136025,0.510933 -0.186189,0.742571 -0.05016,0.231634 -0.172166,0.589365 -0.271122,0.794951 -0.15888,0.330091 -0.179588,0.412987 -0.17712,0.708998 0.0017,0.197524 0.02709,0.364477 0.06193,0.406465 0.109626,0.132091 0.658751,0.134504 0.893891,0.0039 z m 16.607814,15.738187 c -0.19935,-0.0471 -0.27214,-0.11606 -0.20803,-0.19699 0.0263,-0.0332 0.0486,-0.25318 0.0495,-0.48875 0.002,-0.51579 0.0282,-0.64782 0.19726,-0.99106 0.18163,-0.3688 0.21306,-0.54576 0.12173,-0.68516 -0.0408,-0.0623 -0.0743,-0.15685 -0.0743,-0.21 0,-0.20119 -0.13717,-0.1466 -0.57704,0.22964 -0.24312,0.20795 -0.484216,0.37809 -0.53578,0.37809 -0.05758,0 -0.131016,0.0631 -0.190322,0.16366 -0.114404,0.1939 -0.256954,0.21398 -0.448645,0.0632 -0.120526,-0.0948 -0.1259,-0.11512 -0.09528,-0.36018 0.04571,-0.36586 0.351763,-0.75554 0.949967,-1.20955 0.0751,-0.057 0.14917,-0.1665 0.16453,-0.24328 0.0185,-0.0925 0.16983,-0.28192 0.44854,-0.56143 0.23134,-0.232 0.45159,-0.48025 0.48944,-0.55167 0.0379,-0.0714 0.21255,-0.30216 0.38822,-0.51277 0.36263,-0.43478 0.62218,-0.891 0.62218,-1.09367 0,-0.0788 0.0604,-0.22085 0.14151,-0.33285 0.21106,-0.29136 0.2992,-0.63603 0.22725,-0.88861 -0.0315,-0.11065 -0.0964,-0.24523 -0.14417,-0.29907 -0.0717,-0.0808 -0.0816,-0.14267 -0.0567,-0.35476 0.0209,-0.17744 0.007,-0.33738 -0.0455,-0.51721 -0.0416,-0.14319 -0.0757,-0.30119 -0.0757,-0.35111 0,-0.0499 -0.0369,-0.12414 -0.0819,-0.164912 -0.0543,-0.0491 -0.0866,-0.158991 -0.0957,-0.325361 -0.0112,-0.204691 0.004,-0.267265 0.0819,-0.33783 0.0526,-0.04763 0.0957,-0.124191 0.0957,-0.170125 0,-0.04594 0.0186,-0.09502 0.0414,-0.109078 0.0496,-0.03065 0.13167,-0.49139 0.16454,-0.923395 0.0131,-0.171687 0.0594,-0.392635 0.1029,-0.491002 0.0883,-0.199595 0.12195,-0.676638 0.051,-0.723521 -0.0252,-0.01665 -0.10071,-0.01138 -0.16774,0.01172 -0.0705,0.0243 -0.25986,0.02513 -0.4492,0.0021 -0.20394,-0.02496 -0.38022,-0.02255 -0.46762,0.0063 -0.17044,0.05636 -0.38567,0.248791 -0.42603,0.380917 -0.0163,0.05334 -0.0969,0.181153 -0.17915,0.284029 -0.26857,0.335968 -0.49122,0.743591 -0.53638,0.981999 -0.0244,0.128592 -0.11098,0.412672 -0.19249,0.631283 -0.206049,0.552638 -0.223847,0.994316 -0.0631,1.566526 0.065,0.23147 0.16841,0.51717 0.22978,0.63489 0.0614,0.11772 0.12455,0.30711 0.14042,0.42086 0.0301,0.21576 0.0439,0.25675 0.20476,0.60805 0.0835,0.18231 0.0901,0.23799 0.0448,0.3741 -0.0909,0.27314 -0.15042,0.30786 -0.34826,0.20327 -0.25456,-0.13457 -0.557536,-0.41578 -0.689256,-0.63971 -0.191873,-0.3262 -0.30606,-0.40331 -0.712372,-0.48105 -0.202736,-0.0388 -0.537712,-0.1241 -0.744384,-0.18957 -0.313753,-0.0994 -0.426864,-0.11395 -0.685014,-0.0883 -0.260494,0.0259 -0.345214,0.0146 -0.537759,-0.0717 -0.125708,-0.0564 -0.295178,-0.16583 -0.376608,-0.24328 l -0.148056,-0.14083 -0.166626,0.12709 c -0.09308,0.071 -0.244465,0.13456 -0.342949,0.144 -0.09697,0.009 -0.243954,0.0304 -0.326626,0.047 -0.08267,0.0165 -0.254124,0.005 -0.381007,-0.0252 -0.157628,-0.0378 -0.282215,-0.0411 -0.393368,-0.0104 -0.192759,0.0532 -0.229514,0.0346 -0.333769,-0.16881 -0.08936,-0.17439 -0.06418,-0.31377 0.06962,-0.38537 0.06729,-0.036 0.08328,-0.0785 0.06179,-0.16409 -0.02089,-0.0832 0.0052,-0.16031 0.0931,-0.27558 0.06715,-0.088 0.122095,-0.1747 0.122095,-0.19258 0,-0.0179 0.131515,-0.17218 0.29226,-0.342898 0.545209,-0.579027 0.748976,-1.115073 0.730674,-1.922169 -0.01038,-0.457329 -6.89e-4,-0.517411 0.140776,-0.876124 0.08355,-0.211819 0.223757,-0.471121 0.311572,-0.576231 0.200777,-0.240314 0.276438,-0.485626 0.235002,-0.761944 -0.02685,-0.179182 -0.06666,-0.241546 -0.251508,-0.394193 -0.314664,-0.259853 -0.319707,-0.261256 -0.488195,-0.135814 -0.191794,0.142795 -0.303743,0.168687 -0.843633,0.195114 -0.349533,0.0171 -0.46766,0.0054 -0.596997,-0.05915 -0.141933,-0.07084 -0.161238,-0.102021 -0.161238,-0.260426 0,-0.203504 0.07095,-0.264286 0.308477,-0.264286 0.145339,0 0.532416,-0.208868 0.650287,-0.350891 0.02975,-0.03585 0.131327,-0.08997 0.225716,-0.120268 0.09439,-0.0303 0.296249,-0.139231 0.448579,-0.242079 0.15233,-0.102849 0.332645,-0.189795 0.400701,-0.193221 0.06806,-0.0034 0.192297,-0.06391 0.276093,-0.134419 0.0838,-0.07051 0.203339,-0.140995 0.265655,-0.156636 0.06232,-0.01565 0.1133,-0.04578 0.1133,-0.06698 0,-0.0212 0.04208,-0.0519 0.09352,-0.06822 0.05144,-0.01634 0.09352,-0.05726 0.09352,-0.09095 0,-0.09305 0.150152,-0.20549 0.175168,-0.131171 0.01082,0.03216 0.04317,0.05845 0.07189,0.05845 0.03776,0 0.03807,-0.01413 10e-4,-0.05108 -0.05115,-0.05115 -0.04555,-0.174576 0.03365,-0.74113 0.02889,-0.206648 0.02616,-0.320425 -0.0087,-0.362402 -0.0371,-0.04471 -0.03546,-0.06119 0.0061,-0.06119 0.04083,0 0.04853,-0.06266 0.02727,-0.222119 -0.03604,-0.270478 0.100701,-0.831999 0.248305,-1.01965 0.05492,-0.06981 0.09985,-0.173751 0.09985,-0.230969 0,-0.05737 0.07319,-0.175147 0.163169,-0.262573 0.08975,-0.0872 0.163471,-0.190108 0.163843,-0.228686 0.001,-0.09126 0.17006,-0.367683 0.283433,-0.463096 0.13226,-0.111308 0.494758,-0.838832 0.538149,-1.080046 0.04749,-0.264022 0.04301,-0.287369 -0.123367,-0.643101 -0.172238,-0.368262 -0.191928,-0.788849 -0.04323,-0.923422 0.05144,-0.04655 0.09352,-0.132741 0.09352,-0.191534 0,-0.05879 0.02106,-0.119902 0.04676,-0.135798 0.02572,-0.0159 0.04676,-0.06974 0.04676,-0.119664 0,-0.06927 -0.03258,-0.09076 -0.137524,-0.09076 -0.07564,0 -0.150531,-0.02104 -0.166426,-0.04676 -0.01606,-0.02596 0.0191,-0.04705 0.07907,-0.0474 0.181077,-0.0011 0.318401,-0.05357 0.318401,-0.121721 0,-0.03558 -0.01579,-0.06483 -0.03507,-0.06501 -0.06601,-6.55e-4 -0.245502,-0.309287 -0.246205,-0.423431 -0.001,-0.168921 -0.08453,-0.373546 -0.436807,-1.070656 -0.279455,-0.552999 -0.320497,-0.667826 -0.338454,-0.946928 -0.01682,-0.261583 -0.0079,-0.317616 0.05043,-0.317616 0.03898,0 0.07087,0.022 0.07087,0.04888 0,0.02963 0.05984,0.03802 0.151975,0.02129 0.121833,-0.02212 0.177485,-0.0036 0.280571,0.0933 0.07073,0.06649 0.128596,0.140341 0.128596,0.164115 0,0.07241 0.182821,0.146496 0.460769,0.186735 0.377363,0.05463 0.514118,0.119341 0.604998,0.286273 0.04395,0.08072 0.143026,0.215517 0.220186,0.299545 0.156878,0.170838 0.866878,0.547638 1.197258,0.635376 0.20859,0.0554 0.22475,0.05186 0.52198,-0.114362 0.18579,-0.103899 0.3695,-0.17153 0.46595,-0.17153 0.12924,0 0.21149,-0.04941 0.43664,-0.262284 0.18102,-0.171146 0.3205,-0.264576 0.40141,-0.26888 0.0682,-0.0036 0.11569,-0.02013 0.10554,-0.03667 -0.0101,-0.01654 0.0781,-0.07546 0.19611,-0.130934 0.11801,-0.05547 0.26808,-0.154375 0.33349,-0.219788 0.17133,-0.171331 0.45906,-0.262797 0.7309,-0.232346 0.25518,0.02858 0.40628,-0.02989 0.59087,-0.228678 0.0643,-0.06924 0.19511,-0.166006 0.29069,-0.215024 0.0956,-0.04902 0.19552,-0.129718 0.22207,-0.17933 0.0265,-0.04961 0.095,-0.105043 0.15218,-0.12318 0.0572,-0.01814 0.19736,-0.136933 0.3116,-0.26399 0.21336,-0.237311 0.71967,-0.597843 0.83958,-0.597843 0.0812,0 0.79268,-0.668108 0.90707,-0.851735 0.089,-0.142793 0.26743,-0.175387 0.35863,-0.06549 0.041,0.04937 0.0353,0.118865 -0.0238,0.292262 -0.0427,0.12512 -0.0835,0.322183 -0.0907,0.437918 -0.007,0.115736 -0.015,0.226211 -0.0172,0.2455 -0.002,0.01929 -0.0461,0.03507 -0.0976,0.03507 -0.0514,0 -0.0935,0.02287 -0.0935,0.05081 0,0.02794 -0.0599,0.138419 -0.13315,0.245501 -0.0732,0.10708 -0.16816,0.247297 -0.21093,0.311595 -0.0428,0.0643 -0.1295,0.19435 -0.19271,0.289005 -0.0632,0.09465 -0.20503,0.235014 -0.31515,0.311911 -0.38156,0.266459 -0.50416,0.408715 -0.50416,0.584999 0,0.22222 -0.14412,0.532981 -0.34342,0.74049 -0.18648,0.194171 -0.26758,0.434355 -0.29441,0.87195 -0.01,0.163128 -0.0389,0.335349 -0.0643,0.382712 -0.0663,0.123935 -0.0567,0.33012 0.0194,0.415914 0.036,0.0406 0.0874,0.147475 0.11407,0.237492 0.0267,0.09002 0.0805,0.247837 0.1195,0.350713 0.039,0.102878 0.0718,0.246858 0.073,0.319959 0.001,0.0731 0.0437,0.185891 0.0947,0.250647 0.0849,0.107911 0.0924,0.1889 0.0898,0.970267 -0.003,0.87671 0.0389,1.1279 0.20386,1.224992 0.0372,0.02192 0.0939,0.08962 0.12582,0.150445 0.0823,0.156687 0.29202,0.112311 0.74209,-0.157043 0.28911,-0.173027 0.38761,-0.209754 0.50532,-0.188416 0.0804,0.01458 0.19718,0.0071 0.25949,-0.01658 0.0623,-0.02368 0.26548,-0.0557 0.45149,-0.07114 0.22332,-0.01855 0.41658,-0.06779 0.56897,-0.145012 0.37912,-0.192111 0.78681,-0.129213 0.66238,0.102187 -0.0251,0.04666 -0.25276,0.288517 -0.50593,0.537477 -0.25318,0.24896 -0.51293,0.542351 -0.57723,0.65198 -0.0643,0.109633 -0.2116,0.307026 -0.32733,0.438659 -0.40769,0.463674 -0.91088,1.101663 -0.95028,1.204825 -0.0219,0.0574 -0.0596,0.240635 -0.0839,0.407198 -0.0242,0.166564 -0.0955,0.465771 -0.15838,0.664908 -0.0869,0.274952 -0.11611,0.477729 -0.12157,0.842823 -0.008,0.532034 0.0576,0.838377 0.21808,1.018519 0.0573,0.0643 0.16748,0.243162 0.24493,0.397478 0.0775,0.154312 0.20593,0.342377 0.28551,0.417913 0.0796,0.07554 0.14471,0.156791 0.14471,0.180559 0,0.02375 0.0894,0.150014 0.19873,0.280547 0.19834,0.236853 0.19876,0.238177 0.20837,0.650591 0.005,0.227294 0.0238,0.436101 0.041,0.464017 0.0172,0.02792 0.0411,0.220278 0.0529,0.427472 0.0228,0.397973 0.0733,0.595042 0.15249,0.595042 0.0263,0 0.0479,0.03813 0.0479,0.08474 0,0.04661 0.0403,0.168101 0.0895,0.269985 0.13054,0.270201 0.23783,0.721914 0.23783,1.001367 0,0.2707 0.11149,0.75303 0.20944,0.90612 0.0349,0.0546 0.0867,0.18733 0.11507,0.29496 0.0283,0.10763 0.10346,0.28649 0.16691,0.39747 0.0634,0.11098 0.11561,0.23666 0.11592,0.27929 6.9e-4,0.1105 0.54308,0.69731 1.2787,1.38369 0.14464,0.13496 0.30487,0.32748 0.35606,0.42783 0.0512,0.10035 0.16641,0.22777 0.25604,0.28316 0.37713,0.23308 0.65956,0.85938 0.47208,1.04686 -0.0843,0.0843 -0.23661,0.10339 -0.27893,0.0349 -0.039,-0.0632 -0.88914,-0.47164 -0.98153,-0.47164 -0.0436,0 -0.12146,-0.0226 -0.17304,-0.0502 -0.0516,-0.0276 -0.17874,-0.058 -0.28256,-0.0675 -0.10382,-0.01 -0.22331,-0.0475 -0.26553,-0.0844 -0.0422,-0.037 -0.15043,-0.10442 -0.24044,-0.14994 -0.09,-0.0455 -0.30664,-0.17684 -0.48137,-0.2918 l -0.31771,-0.20902 -0.26989,0.0757 c -0.33473,0.0939 -0.52302,0.096 -0.64059,0.007 -0.12032,-0.091 -0.23763,-0.0894 -0.27339,0.004 -0.0192,0.05 -0.0626,0.0667 -0.12872,0.0494 -0.0635,-0.0166 -0.2077,0.0322 -0.39633,0.13404 -0.24604,0.13285 -0.31711,0.15232 -0.4171,0.11431 -0.0663,-0.0252 -0.17249,-0.0458 -0.23602,-0.0458 -0.0635,0 -0.16644,-0.0334 -0.22871,-0.0742 -0.0623,-0.0408 -0.13853,-0.0585 -0.16949,-0.0394 -0.031,0.0191 -0.13597,0.0316 -0.23337,0.0279 -0.0974,-0.004 -0.18997,0.0139 -0.20572,0.0394 -0.0157,0.0255 -0.0703,0.0463 -0.12126,0.0463 -0.11232,0 -0.44123,0.16312 -0.56908,0.28223 -0.12845,0.11967 -0.58399,0.3299 -0.78209,0.36093 -0.0902,0.0141 -0.18045,0.0534 -0.20059,0.0874 -0.0201,0.0339 -0.11765,0.0835 -0.21668,0.11015 -0.22274,0.06 -0.64287,0.4755 -0.68566,0.67814 -0.0164,0.0777 -0.0682,0.21489 -0.11503,0.30491 -0.0469,0.09 -0.10961,0.27334 -0.13944,0.4074 -0.0374,0.16785 -0.11115,0.30839 -0.23705,0.45141 -0.10054,0.11422 -0.1828,0.22247 -0.1828,0.24054 0,0.0181 -0.0665,0.11677 -0.1477,0.21934 -0.30267,0.38215 -0.38671,0.52811 -0.83602,1.45195 -0.13446,0.27647 -0.26799,0.50053 -0.29673,0.4979 -0.0288,-0.003 -0.12261,-0.0214 -0.20857,-0.0417 z m -0.23206,-15.480154 c 0.1395,-0.03874 0.20044,-0.09633 0.31638,-0.298969 0.079,-0.138041 0.17284,-0.262208 0.20859,-0.275928 0.0357,-0.01372 0.079,-0.08854 0.096,-0.166271 0.0197,-0.08982 0.0682,-0.151689 0.13301,-0.169763 0.0561,-0.01565 0.14939,-0.05176 0.20735,-0.08025 0.0886,-0.04354 0.12471,-0.03375 0.22648,0.06139 0.0666,0.06226 0.18879,0.228942 0.27151,0.370396 0.0935,0.159821 0.18695,0.262556 0.24693,0.27136 0.1025,0.01503 0.65603,-0.155981 0.74659,-0.230679 0.0742,-0.06124 0.0256,-0.403159 -0.083,-0.583963 -0.0482,-0.08019 -0.0876,-0.180143 -0.0876,-0.222116 0,-0.04197 -0.0333,-0.113142 -0.0741,-0.158149 -0.0407,-0.04501 -0.15665,-0.212699 -0.25755,-0.372644 -0.1009,-0.159945 -0.22037,-0.310558 -0.26547,-0.3347 -0.0736,-0.0394 -0.17005,-0.279037 -0.30339,-0.753963 -0.0253,-0.09002 -0.075,-0.232772 -0.11049,-0.317229 -0.0355,-0.08446 -0.0645,-0.184414 -0.0645,-0.22212 0,-0.150352 -0.1724,-0.06468 -0.27228,0.135304 -0.056,0.112122 -0.10181,0.217042 -0.10181,0.233158 0,0.0161 -0.0737,0.140065 -0.16384,0.275448 -0.43284,0.650309 -0.49083,0.740847 -0.49083,0.76634 0,0.01506 -0.0495,0.125835 -0.10989,0.246174 -0.0711,0.141599 -0.11818,0.334459 -0.13335,0.546568 -0.0191,0.267164 -0.0593,0.395843 -0.21744,0.69596 -0.1981,0.376018 -0.23956,0.560208 -0.13553,0.602185 0.0966,0.03899 0.23574,0.03316 0.41827,-0.01755 z M 74.815738,107.64451 c 0,-0.0257 0.02227,-0.0468 0.04952,-0.0468 0.02723,0 0.03652,0.0211 0.02061,0.0468 -0.01589,0.0257 -0.03818,0.0468 -0.04952,0.0468 -0.01134,0 -0.02061,-0.021 -0.02061,-0.0468 z M 118.77188,92.522059 c 0,-0.0101 0.0316,-0.03047 0.0701,-0.0453 0.0386,-0.01479 0.0701,-0.0066 0.0701,0.01837 0,0.02492 -0.0316,0.04529 -0.0701,0.04529 -0.0386,0 -0.0701,-0.0083 -0.0701,-0.01837 z m 15.41895,-5.926182 c 0.0317,-0.03196 0.0695,-0.04633 0.0838,-0.03193 0.0144,0.01439 -0.0115,0.04054 -0.0577,0.0581 -0.0666,0.02538 -0.072,0.02001 -0.0262,-0.02618 z"
       id="path1" /></g></svg>
