<?xml version="1.0" encoding="UTF-8" standalone="no"?>
<!-- Created with Inkscape (http://www.inkscape.org/) -->

<svg
   width="210mm"
   height="297mm"
   viewBox="0 0 210 297"
   version="1.1"
   id="svg1"
   xml:space="preserve"
   inkscape:version="1.4.2 (ebf0e94, 2025-05-08)"
   sodipodi:docname="LineDrawing.svg"
   xmlns:inkscape="http://www.inkscape.org/namespaces/inkscape"
   xmlns:sodipodi="http://sodipodi.sourceforge.net/DTD/sodipodi-0.dtd"
   xmlns="http://www.w3.org/2000/svg"
   xmlns:svg="http://www.w3.org/2000/svg"><sodipodi:namedview
     id="namedview1"
     pagecolor="#ffffff"
     bordercolor="#000000"
     borderopacity="0.25"
     inkscape:showpageshadow="2"
     inkscape:pageopacity="0.0"
     inkscape:pagecheckerboard="0"
     inkscape:deskcolor="#d1d1d1"
     inkscape:document-units="mm"
     inkscape:zoom="0.68862935"
     inkscape:cx="213.46752"
     inkscape:cy="506.07776"
     inkscape:window-width="1920"
     inkscape:window-height="991"
     inkscape:window-x="3191"
     inkscape:window-y="435"
     inkscape:window-maximized="1"
     inkscape:current-layer="layer1" /><defs
     id="defs1"><marker
       id="DistanceX"
       orient="auto"
       refX="0.0"
       refY="0.0"
       style="overflow:visible"><path
         d="M 3,-3 L -3,3 M 0,-5 L  0,5"
         style="stroke:#000000; stroke-width:0.5"
         id="path1" /></marker><pattern
       id="Hatch"
       patternUnits="userSpaceOnUse"
       width="8"
       height="8"
       x="0"
       y="0"><path
         d="M8 4 l-4,4"
         stroke="#000000"
         stroke-width="0.25"
         linecap="square"
         id="path2" /><path
         d="M6 2 l-4,4"
         stroke="#000000"
         stroke-width="0.25"
         linecap="square"
         id="path3" /><path
         d="M4 0 l-4,4"
         stroke="#000000"
         stroke-width="0.25"
         linecap="square"
         id="path4" /></pattern><symbol
       id="*MODEL_SPACE" /><symbol
       id="*PAPER_SPACE" /><marker
       id="DistanceX-0"
       orient="auto"
       refX="0.0"
       refY="0.0"
       style="overflow:visible"><path
         d="M 3,-3 L -3,3 M 0,-5 L  0,5"
         style="stroke:#000000; stroke-width:0.5"
         id="path1-9" /></marker><pattern
       id="Hatch-4"
       patternUnits="userSpaceOnUse"
       width="8"
       height="8"
       x="0"
       y="0"><path
         d="M8 4 l-4,4"
         stroke="#000000"
         stroke-width="0.25"
         linecap="square"
         id="path2-8" /><path
         d="M6 2 l-4,4"
         stroke="#000000"
         stroke-width="0.25"
         linecap="square"
         id="path3-8" /><path
         d="M4 0 l-4,4"
         stroke="#000000"
         stroke-width="0.25"
         linecap="square"
         id="path4-2" /></pattern><symbol
       id="*MODEL_SPACE-4" /><symbol
       id="*PAPER_SPACE-5" /><marker
       id="DistanceX-1"
       orient="auto"
       refX="0.0"
       refY="0.0"
       style="overflow:visible"><path
         d="M 3,-3 L -3,3 M 0,-5 L  0,5"
         style="stroke:#000000; stroke-width:0.5"
         id="path1-4" /></marker><pattern
       id="Hatch-2"
       patternUnits="userSpaceOnUse"
       width="8"
       height="8"
       x="0"
       y="0"><path
         d="M8 4 l-4,4"
         stroke="#000000"
         stroke-width="0.25"
         linecap="square"
         id="path2-3" /><path
         d="M6 2 l-4,4"
         stroke="#000000"
         stroke-width="0.25"
         linecap="square"
         id="path3-2" /><path
         d="M4 0 l-4,4"
         stroke="#000000"
         stroke-width="0.25"
         linecap="square"
         id="path4-21" /></pattern><symbol
       id="*MODEL_SPACE-6" /><symbol
       id="*PAPER_SPACE-8" /></defs><g
     inkscape:label="Layer 1"
     inkscape:groupmode="layer"
     id="layer1"><g
       inkscape:label="0"
       id="g13"
       transform="matrix(0.26458333,0,0,-0.26458333,173.01219,290.36032)"><path
         d="m -353.42983,925.10662 a 17.007875,17.007875 0 0 0 -34.01575,0 17.007875,17.007875 0 0 0 34.01575,0 z"
         style="fill:none;stroke:#000000"
         id="path5" /><path
         d="m -211.98102,921.32712 a 26.173228,26.173228 0 0 0 -52.34645,0 26.173228,26.173228 0 0 0 52.34645,0 z"
         style="fill:none;stroke:#000000"
         id="path6" /><path
         d="m -88.862904,925.10662 a 17.007875,17.007875 0 0 0 -34.015746,0 17.007875,17.007875 0 0 0 34.015746,0 z"
         style="fill:none;stroke:#000000"
         id="path7" /><path
         d="M -450.75266,972.35072 H -25.555824 V 870.30342 H -450.75266 Z"
         style="fill:none;stroke:#000000"
         id="path8" /><path
         d="m -450.75266,870.30342 v -11.33855 h 425.196836 v 11.33855 z"
         style="fill:none;stroke:#000000"
         id="path9" /><path
         d="m -450.75266,870.30342 h -11.33859 v 102.0473 h 11.33859 z"
         style="fill:none;stroke:#000000"
         id="path10" /><path
         d="m -450.75266,858.96487 a 11.338583,11.338583 0 0 0 -11.33859,11.33855 h 11.33859 z"
         style="fill:none;stroke:#000000"
         id="path11" /><path
         d="m -25.555824,972.35072 h 11.33859 v -102.0473 h -11.33859 z"
         style="fill:none;stroke:#000000"
         id="path12" /><path
         d="m -25.555824,870.30342 v -11.33855 a 11.338583,11.338583 0 0 1 11.33859,11.33855 z"
         style="fill:none;stroke:#000000"
         id="path13" /></g><g
       inkscape:label="0"
       id="g22"
       transform="matrix(0.26458333,0,0,0.26458333,108.07374,-177.71021)"><path
         d="m 73.322835,1029.8731 a 13.6063,13.6063 0 0 0 -27.212599,0 13.6063,13.6063 0 0 0 27.212599,0 z"
         style="fill:none;stroke:#000000"
         id="path5-5" /><path
         d="m -30.614173,1216.586 a 17.76378,17.76378 0 0 0 -35.527559,0 17.76378,17.76378 0 0 0 35.527559,0 z"
         style="fill:none;stroke:#000000"
         id="path6-1" /><path
         d="m 49.020472,1238.692 a 9.448819,9.448819 0 0 0 -18.897637,0 9.448819,9.448819 0 0 0 18.897637,0 z"
         style="fill:none;stroke:#000000"
         id="path7-7" /><path
         d="m -46.299213,1029.8731 a 13.606299,13.606299 0 0 0 -27.212598,0 13.606299,13.606299 0 0 0 27.212598,0 z"
         style="fill:none;stroke:#000000"
         id="path8-1" /><path
         d="m 192.94488,1028.9283 a 13.6063,13.6063 0 0 0 -27.2126,0 13.6063,13.6063 0 0 0 27.2126,0 z"
         style="fill:none;stroke:#000000"
         id="path9-1" /><path
         d="m -133.36819,1216.586 a 17.76378,17.76378 0 0 0 -35.52756,0 17.76378,17.76378 0 0 0 35.52756,0 z"
         style="fill:none;stroke:#000000"
         id="path10-5" /><path
         d="m 172.40073,1236.0464 a 24.999155,24.999155 0 0 0 -49.99831,0 24.999155,24.999155 0 0 0 49.99831,0 z"
         style="fill:none;stroke:#000000"
         id="path11-2" /><path
         d="m -165.92126,1029.8731 a 13.6063,13.6063 0 0 0 -27.2126,0 13.6063,13.6063 0 0 0 27.2126,0 z"
         style="fill:none;stroke:#000000"
         id="path12-7" /><path
         d="M 212.59842,958.11024 H -212.59842 V 1286.9291 H 212.59842 Z"
         style="fill:none;stroke:#000000"
         id="path13-6" /><path
         d="m 212.59842,946.77165 v 11.33859 h -425.19684 v -11.33859 z"
         style="fill:none;stroke:#000000"
         id="path14" /><path
         d="m -212.59842,946.77165 v 11.33859 h -11.33859 a 11.338583,11.338583 0 0 1 11.33859,-11.33859 z"
         style="fill:none;stroke:#000000"
         id="path15" /><path
         d="m -223.93701,958.11024 h 11.33859 v 328.81886 h -11.33859 z"
         style="fill:none;stroke:#000000"
         id="path16" /><path
         d="m 212.59842,1286.9291 v 11.3386 h -425.19684 v -11.3386 z"
         style="fill:none;stroke:#000000"
         id="path17" /><path
         d="m -212.59842,1286.9291 v 11.3386 a 11.338583,11.338583 0 0 1 -11.33859,-11.3386 z"
         style="fill:none;stroke:#000000"
         id="path18" /><path
         d="m 212.59842,958.11024 h 11.33859 v 328.81886 h -11.33859 z"
         style="fill:none;stroke:#000000"
         id="path19" /><path
         d="m 212.59842,1298.2677 a 11.338583,11.338583 0 0 0 11.33859,-11.3386 h -11.33859 z"
         style="fill:none;stroke:#000000"
         id="path20" /><path
         style="fill:none;stroke:#000000"
         d="M 212.598,946.772 V 958.11"
         id="path21" /><path
         d="m 212.59842,958.11024 h 11.33859 a 11.338583,11.338583 0 0 0 -11.33859,-11.33859 z"
         style="fill:none;stroke:#000000"
         id="path22" /></g><g
       inkscape:label="0"
       id="g10"
       transform="matrix(0,-0.26458333,0.26458333,0,-247.51459,119.99916)"><path
         d="m -164.40945,1107.4016 h 328.8189 v -102.0473 h -328.8189 z"
         style="fill:none;stroke:#000000"
         id="path5-57" /><path
         d="m -164.40945,1005.3543 v -11.33855 h 328.8189 v 11.33855 z"
         style="fill:none;stroke:#000000"
         id="path6-6" /><path
         d="m -164.40945,994.01575 a 11.338583,11.338583 0 0 0 -11.33858,11.33855 h 11.33858 z"
         style="fill:none;stroke:#000000"
         id="path7-1" /><path
         d="m -175.74803,1107.4016 h 11.33858 v -102.0473 h -11.33858 z"
         style="fill:none;stroke:#000000"
         id="path8-8" /><path
         d="m 175.74803,1005.3543 a 11.338583,11.338583 0 0 0 -11.33858,-11.33855 v 11.33855 z"
         style="fill:none;stroke:#000000"
         id="path9-9" /><path
         d="m 164.40945,1107.4016 h 11.33858 v -102.0473 h -11.33858 z"
         style="fill:none;stroke:#000000"
         id="path10-2" /></g><g
       inkscape:label="0"
       id="g28"
       transform="matrix(0,0.26458333,-0.26458333,0,463.84486,118.58116)"><path
         d="m -164.40945,1107.4016 h 328.8189 v -102.0473 h -328.8189 z"
         style="fill:none;stroke:#000000"
         id="path23" /><path
         d="m -164.40945,1005.3543 v -11.33855 h 328.8189 v 11.33855 z"
         style="fill:none;stroke:#000000"
         id="path24" /><path
         d="m -164.40945,994.01575 a 11.338583,11.338583 0 0 0 -11.33858,11.33855 h 11.33858 z"
         style="fill:none;stroke:#000000"
         id="path25" /><path
         d="m -175.74803,1107.4016 h 11.33858 v -102.0473 h -11.33858 z"
         style="fill:none;stroke:#000000"
         id="path26" /><path
         d="m 175.74803,1005.3543 a 11.338583,11.338583 0 0 0 -11.33858,-11.33855 v 11.33855 z"
         style="fill:none;stroke:#000000"
         id="path27" /><path
         d="m 164.40945,1107.4016 h 11.33858 v -102.0473 h -11.33858 z"
         style="fill:none;stroke:#000000"
         id="path28" /></g><g
       id="g37"><path
         d="M 51.82946,206.78981 H 164.32945 V 179.7898 H 51.82946 Z"
         style="fill:none;stroke:#000000;stroke-width:0.264583"
         id="path32" /><path
         d="m 51.82946,179.7898 v -2.99999 h 112.49999 v 2.99999 z"
         style="fill:none;stroke:#000000;stroke-width:0.264583"
         id="path33" /><path
         d="m 51.82946,179.7898 h -3.000002 v 27.00001 h 3.000002 z"
         style="fill:none;stroke:#000000;stroke-width:0.264583"
         id="path34" /><path
         d="m 51.82946,176.78981 a 3,3 0 0 0 -3.000002,2.99999 h 3.000002 z"
         style="fill:none;stroke:#000000;stroke-width:0.264583"
         id="path35" /><path
         d="m 164.32945,206.78981 h 3.00001 V 179.7898 h -3.00001 z"
         style="fill:none;stroke:#000000;stroke-width:0.264583"
         id="path36" /><path
         d="m 164.32945,179.7898 v -2.99999 a 3,3 0 0 1 3.00001,2.99999 z"
         style="fill:none;stroke:#000000;stroke-width:0.264583"
         id="path37" /></g></g></svg>
