0
SECTION
2
HEADER
9
$INSUNITS
70
4
9
$ACADVER
1
AC1014
9
$HANDSEED
5
FFFF
0
ENDSEC
0
SECTION
2
TABLES
0
TABLE
2
VPORT
5
8
100
AcDbSymbolTable
0
ENDTAB
0
TABLE
2
LTYPE
5
5
100
AcDbSymbolTable
0
LTYPE
5
14
100
AcDbSymbolTableRecord
100
AcDbLinetypeTableRecord
2
BYBLOCK
70
0
0
LTYPE
5
15
100
AcDbSymbolTableRecord
100
AcDbLinetypeTableRecord
2
BYLAYER
70
0
0
LTYPE
5
16
100
AcDbSymbolTableRecord
100
AcDbLinetypeTableRecord
2
DASHED
70
0
3
Dashed __ __ __ __ __ __ __ __ __ __ __ __ __ _
72
65
73
2
40
0.75
49
0.5
74
0
49
-0.25
74
0
0
ENDTAB
0
TABLE
2
LAYER
5
2
100
AcDbSymbolTable
70
2
0
LAYER
5
50
100
AcDbSymbolTableRecord
100
AcDbLayerTableRecord
2
0
70
0
62
7
6
CONTINUOUS
0
ENDTAB
0
TABLE
2
STYLE
5
3
100
AcDbSymbolTable
70
1
0
STYLE
5
11
100
AcDbSymbolTableRecord
100
AcDbTextStyleTableRecord
2
STANDARD
70
0
0
ENDTAB
0
TABLE
2
VIEW
5
6
100
AcDbSymbolTable
70
0
0
ENDTAB
0
TABLE
2
UCS
5
7
100
AcDbSymbolTable
70
0
0
ENDTAB
0
TABLE
2
APPID
5
9
100
AcDbSymbolTable
70
2
0
APPID
5
12
100
AcDbSymbolTableRecord
100
AcDbRegAppTableRecord
2
ACAD
70
0
0
ENDTAB
0
TABLE
2
DIMSTYLE
5
A
100
AcDbSymbolTable
70
1
0
ENDTAB
0
TABLE
2
BLOCK_RECORD
5
1
100
AcDbSymbolTable
70
1
0
BLOCK_RECORD
5
1F
100
AcDbSymbolTableRecord
100
AcDbBlockTableRecord
2
*MODEL_SPACE
0
BLOCK_RECORD
5
1B
100
AcDbSymbolTableRecord
100
AcDbBlockTableRecord
2
*PAPER_SPACE
0
ENDTAB
0
ENDSEC
0
SECTION
2
BLOCKS
0
BLOCK
5
20
100
AcDbEntity
100
AcDbBlockBegin
2
*MODEL_SPACE
0
ENDBLK
5
21
100
AcDbEntity
100
AcDbBlockEnd
0
BLOCK
5
1C
100
AcDbEntity
100
AcDbBlockBegin
2
*PAPER_SPACE
0
ENDBLK
5
1D
100
AcDbEntity
100
AcDbBlockEnd
0
ENDSEC
0
SECTION
2
ENTITIES
0
LWPOLYLINE
5
100
100
AcDbEntity
8
0
100
AcDbPolyline
90
34
70
1
43
0.0
10
34.5
20
74
10
36.5
20
76
10
50.500000000000007
20
76
10
52.5
20
74
10
52.5
20
65
10
66
20
65
10
68
20
67
10
82.5
20
67
10
84.500000000000014
20
65
10
98
20
65
10
98
20
74
10
100
20
76
10
114
20
76
10
116.00000000000001
20
74
10
116.00000000000001
20
65
10
129.5
20
65
10
129.5
20
106.00000000000001
10
127.5
20
108
10
104
20
108
10
102.00000000000001
20
110
10
102.00000000000001
20
127.5
10
100
20
129.5
10
85
20
129.5
10
83
20
127.5
10
83
20
122.5
10
83.5
20
122.00000000000001
10
83.5
20
99
10
82.5
20
98
10
74.5
20
98
10
69.5
20
93
10
23
20
93
10
21
20
91
10
21
20
65
10
34.5
20
65
0
CIRCLE
5
101
100
AcDbEntity
8
0
100
AcDbCircle
10
84.500000000000014
20
126.00000000000001
30
0
40
0.50800000000000001
210
-0
220
0
230
1
0
CIRCLE
5
102
100
AcDbEntity
8
0
100
AcDbCircle
10
87.040000000000006
20
126.00000000000001
30
0
40
0.50800000000000001
210
0
220
0
230
1
0
CIRCLE
5
103
100
AcDbEntity
8
0
100
AcDbCircle
10
85.5
20
120.08000000000001
30
0
40
0.40000000000000008
210
-0
220
0
230
1
0
CIRCLE
5
104
100
AcDbEntity
8
0
100
AcDbCircle
10
94
20
125
30
0
40
0.40000000000000008
210
-0
220
0
230
1
0
CIRCLE
5
105
100
AcDbEntity
8
0
100
AcDbCircle
10
96.5
20
125
30
0
40
0.40000000000000008
210
-0
220
0
230
1
0
CIRCLE
5
106
100
AcDbEntity
8
0
100
AcDbCircle
10
93
20
121.00000000000001
30
0
40
0.40000000000000008
210
-0
220
0
230
1
0
CIRCLE
5
107
100
AcDbEntity
8
0
100
AcDbCircle
10
96.294900000000013
20
121.08000000000001
30
0
40
0.40000000000000008
210
-0
220
0
230
1
0
CIRCLE
5
108
100
AcDbEntity
8
0
100
AcDbCircle
10
89.500000000000014
20
117.81
30
0
40
0.55000000000000004
210
-0
220
0
230
1
0
CIRCLE
5
109
100
AcDbEntity
8
0
100
AcDbCircle
10
93
20
116.00000000000001
30
0
40
0.40000000000000008
210
-0
220
0
230
1
0
CIRCLE
5
110
100
AcDbEntity
8
0
100
AcDbCircle
10
85.5
20
109.92000000000002
30
0
40
0.40000000000000008
210
-0
220
0
230
1
0
CIRCLE
5
111
100
AcDbEntity
8
0
100
AcDbCircle
10
89.500000000000014
20
110.19
30
0
40
0.55000000000000004
210
-0
220
0
230
1
0
CIRCLE
5
112
100
AcDbEntity
8
0
100
AcDbCircle
10
96.294900000000013
20
110.92
30
0
40
0.40000000000000008
210
-0
220
0
230
1
0
CIRCLE
5
113
100
AcDbEntity
8
0
100
AcDbCircle
10
96.205100000000016
20
107.00000000000001
30
0
40
0.40000000000000008
210
0
220
0
230
1
0
CIRCLE
5
114
100
AcDbEntity
8
0
100
AcDbCircle
10
98.705100000000016
20
107.00000000000001
30
0
40
0.40000000000000008
210
0
220
0
230
1
0
CIRCLE
5
115
100
AcDbEntity
8
0
100
AcDbCircle
10
86.7149
20
102.5
30
0
40
0.40000000000000008
210
-0
220
0
230
1
0
CIRCLE
5
116
100
AcDbEntity
8
0
100
AcDbCircle
10
86.634900000000016
20
99
30
0
40
0.40000000000000008
210
0
220
0
230
1
0
CIRCLE
5
117
100
AcDbEntity
8
0
100
AcDbCircle
10
96.874899999999997
20
102.5
30
0
40
0.40000000000000008
210
-0
220
0
230
1
0
CIRCLE
5
118
100
AcDbEntity
8
0
100
AcDbCircle
10
99.500000000000014
20
102.5
30
0
40
0.40000000000000008
210
-0
220
0
230
1
0
CIRCLE
5
119
100
AcDbEntity
8
0
100
AcDbCircle
10
96.794900000000013
20
99
30
0
40
0.40000000000000008
210
-0
220
0
230
1
0
CIRCLE
5
120
100
AcDbEntity
8
0
100
AcDbCircle
10
99.500000000000014
20
97.5
30
0
40
0.40000000000000008
210
-0
220
0
230
1
0
CIRCLE
5
121
100
AcDbEntity
8
0
100
AcDbCircle
10
105.84000000000002
20
105
30
0
40
0.5
210
-0
220
0
230
1
0
CIRCLE
5
122
100
AcDbEntity
8
0
100
AcDbCircle
10
108.38000000000001
20
105
30
0
40
0.5
210
-0
220
0
230
1
0
CIRCLE
5
123
100
AcDbEntity
8
0
100
AcDbCircle
10
110.92
20
105
30
0
40
0.5
210
-0
220
0
230
1
0
CIRCLE
5
124
100
AcDbEntity
8
0
100
AcDbCircle
10
113.46000000000001
20
105
30
0
40
0.5
210
-0
220
0
230
1
0
CIRCLE
5
125
100
AcDbEntity
8
0
100
AcDbCircle
10
116.00000000000001
20
105
30
0
40
0.5
210
-0
220
0
230
1
0
CIRCLE
5
126
100
AcDbEntity
8
0
100
AcDbCircle
10
118.54000000000001
20
105
30
0
40
0.5
210
-0
220
0
230
1
0
CIRCLE
5
127
100
AcDbEntity
8
0
100
AcDbCircle
10
121.08000000000001
20
105
30
0
40
0.5
210
-0
220
0
230
1
0
CIRCLE
5
128
100
AcDbEntity
8
0
100
AcDbCircle
10
123.62000000000002
20
105
30
0
40
0.5
210
-0
220
0
230
1
0
CIRCLE
5
129
100
AcDbEntity
8
0
100
AcDbCircle
10
106.00000000000001
20
98.299999999999997
30
0
40
0.40000000000000008
210
-0
220
0
230
1
0
CIRCLE
5
130
100
AcDbEntity
8
0
100
AcDbCircle
10
113.62000000000002
20
98.299999999999997
30
0
40
0.40000000000000008
210
-0
220
0
230
1
0
CIRCLE
5
131
100
AcDbEntity
8
0
100
AcDbCircle
10
117.17
20
98.350000000000009
30
0
40
0.40000000000000008
210
0
220
0
230
1
0
CIRCLE
5
132
100
AcDbEntity
8
0
100
AcDbCircle
10
127.33000000000001
20
98.350000000000009
30
0
40
0.40000000000000008
210
-0
220
0
230
1
0
CIRCLE
5
133
100
AcDbEntity
8
0
100
AcDbCircle
10
25.3033
20
90.5
30
0
40
0.5
210
-0
220
0
230
1
0
CIRCLE
5
134
100
AcDbEntity
8
0
100
AcDbCircle
10
27.843300000000003
20
90.5
30
0
40
0.5
210
-0
220
0
230
1
0
CIRCLE
5
135
100
AcDbEntity
8
0
100
AcDbCircle
10
33.225000000000001
20
90.5
30
0
40
0.5
210
-0
220
0
230
1
0
CIRCLE
5
136
100
AcDbEntity
8
0
100
AcDbCircle
10
35.765000000000001
20
90.5
30
0
40
0.5
210
-0
220
0
230
1
0
CIRCLE
5
137
100
AcDbEntity
8
0
100
AcDbCircle
10
25
20
83
30
0
40
0.40000000000000008
210
-0
220
0
230
1
0
CIRCLE
5
138
100
AcDbEntity
8
0
100
AcDbCircle
10
33
20
86.5
30
0
40
0.40000000000000008
210
-0
220
0
230
1
0
CIRCLE
5
139
100
AcDbEntity
8
0
100
AcDbCircle
10
30
20
83
30
0
40
0.40000000000000008
210
-0
220
0
230
1
0
CIRCLE
5
140
100
AcDbEntity
8
0
100
AcDbCircle
10
38
20
86.5
30
0
40
0.40000000000000008
210
-0
220
0
230
1
0
CIRCLE
5
141
100
AcDbEntity
8
0
100
AcDbCircle
10
41.000000000000007
20
86.5
30
0
40
0.40000000000000008
210
-0
220
0
230
1
0
CIRCLE
5
142
100
AcDbEntity
8
0
100
AcDbCircle
10
46.000000000000007
20
86.5
30
0
40
0.40000000000000008
210
-0
220
0
230
1
0
CIRCLE
5
143
100
AcDbEntity
8
0
100
AcDbCircle
10
59.803300000000007
20
90.5
30
0
40
0.5
210
-0
220
0
230
1
0
CIRCLE
5
144
100
AcDbEntity
8
0
100
AcDbCircle
10
62.343299999999999
20
90.5
30
0
40
0.5
210
-0
220
0
230
1
0
CIRCLE
5
145
100
AcDbEntity
8
0
100
AcDbCircle
10
64.88330000000002
20
90.5
30
0
40
0.5
210
-0
220
0
230
1
0
CIRCLE
5
146
100
AcDbEntity
8
0
100
AcDbCircle
10
68.5
20
91
30
0
40
0.40000000000000008
210
-0
220
0
230
1
0
CIRCLE
5
147
100
AcDbEntity
8
0
100
AcDbCircle
10
73.5
20
91
30
0
40
0.40000000000000008
210
-0
220
0
230
1
0
CIRCLE
5
148
100
AcDbEntity
8
0
100
AcDbCircle
10
60.460000000000001
20
83.640000000000015
30
0
40
0.40000000000000008
210
-0
220
0
230
1
0
CIRCLE
5
149
100
AcDbEntity
8
0
100
AcDbCircle
10
68.5
20
87.5
30
0
40
0.40000000000000008
210
-0
220
0
230
1
0
CIRCLE
5
150
100
AcDbEntity
8
0
100
AcDbCircle
10
73.5
20
87.5
30
0
40
0.40000000000000008
210
-0
220
0
230
1
0
CIRCLE
5
151
100
AcDbEntity
8
0
100
AcDbCircle
10
63.000000000000007
20
83.640000000000015
30
0
40
0.40000000000000008
210
-0
220
0
230
1
0
CIRCLE
5
152
100
AcDbEntity
8
0
100
AcDbCircle
10
65.540000000000006
20
83.640000000000015
30
0
40
0.40000000000000008
210
0
220
0
230
1
0
CIRCLE
5
153
100
AcDbEntity
8
0
100
AcDbCircle
10
68.5
20
83.160000000000011
30
0
40
0.40000000000000008
210
-0
220
0
230
1
0
CIRCLE
5
154
100
AcDbEntity
8
0
100
AcDbCircle
10
32.920000000000002
20
82.5
30
0
40
0.40000000000000008
210
-0
220
0
230
1
0
CIRCLE
5
155
100
AcDbEntity
8
0
100
AcDbCircle
10
25.300000000000004
20
78
30
0
40
0.5
210
-0
220
0
230
1
0
CIRCLE
5
156
100
AcDbEntity
8
0
100
AcDbCircle
10
27.800000000000004
20
78
30
0
40
0.5
210
-0
220
0
230
1
0
CIRCLE
5
157
100
AcDbEntity
8
0
100
AcDbCircle
10
30.300000000000004
20
78
30
0
40
0.5
210
-0
220
0
230
1
0
CIRCLE
5
158
100
AcDbEntity
8
0
100
AcDbCircle
10
43.079999999999998
20
82.5
30
0
40
0.40000000000000008
210
-0
220
0
230
1
0
CIRCLE
5
159
100
AcDbEntity
8
0
100
AcDbCircle
10
46.5
20
82.5
30
0
40
0.40000000000000008
210
-0
220
0
230
1
0
CIRCLE
5
160
100
AcDbEntity
8
0
100
AcDbCircle
10
40
20
78.5
30
0
40
0.80000000000000016
210
-0
220
0
230
1
0
CIRCLE
5
161
100
AcDbEntity
8
0
100
AcDbCircle
10
47
20
78.5
30
0
40
0.80000000000000016
210
-0
220
0
230
1
0
LWPOLYLINE
5
162
100
AcDbEntity
8
0
100
AcDbPolyline
90
4
70
1
43
0.0
10
22.450000000000003
20
70.150000000000006
42
0.99999999999999989
10
23.550000000000004
20
70.150000000000006
10
23.550000000000004
20
70.849999999999994
42
0.99999999999999989
10
22.450000000000003
20
70.849999999999994
0
LWPOLYLINE
5
163
100
AcDbEntity
8
0
100
AcDbPolyline
90
4
70
1
43
0.0
10
32.049999999999997
20
70.150000000000006
42
0.99999999999999989
10
33.150000000000006
20
70.150000000000006
10
33.150000000000006
20
70.849999999999994
42
0.99999999999999989
10
32.049999999999997
20
70.849999999999994
0
CIRCLE
5
164
100
AcDbEntity
8
0
100
AcDbCircle
10
56.660000000000004
20
82.5
30
0
40
0.40000000000000008
210
-0
220
0
230
1
0
CIRCLE
5
165
100
AcDbEntity
8
0
100
AcDbCircle
10
56.950000000000003
20
78
30
0
40
0.5
210
-0
220
0
230
1
0
CIRCLE
5
166
100
AcDbEntity
8
0
100
AcDbCircle
10
59.450000000000003
20
78
30
0
40
0.5
210
-0
220
0
230
1
0
CIRCLE
5
167
100
AcDbEntity
8
0
100
AcDbCircle
10
61.950000000000003
20
78
30
0
40
0.5
210
-0
220
0
230
1
0
CIRCLE
5
168
100
AcDbEntity
8
0
100
AcDbCircle
10
72
20
81.5
30
0
40
0.40000000000000008
210
-0
220
0
230
1
0
CIRCLE
5
169
100
AcDbEntity
8
0
100
AcDbCircle
10
74.5
20
81.5
30
0
40
0.40000000000000008
210
-0
220
0
230
1
0
LWPOLYLINE
5
170
100
AcDbEntity
8
0
100
AcDbPolyline
90
4
70
1
43
0.0
10
54.100000000000001
20
70.150000000000006
42
0.99999999999999989
10
55.199999999999996
20
70.150000000000006
10
55.199999999999996
20
70.849999999999994
42
0.99999999999999989
10
54.100000000000001
20
70.849999999999994
0
CIRCLE
5
171
100
AcDbEntity
8
0
100
AcDbCircle
10
68.5
20
73
30
0
40
0.40000000000000008
210
-0
220
0
230
1
0
CIRCLE
5
172
100
AcDbEntity
8
0
100
AcDbCircle
10
72
20
75
30
0
40
0.40000000000000008
210
-0
220
0
230
1
0
CIRCLE
5
173
100
AcDbEntity
8
0
100
AcDbCircle
10
74.5
20
75
30
0
40
0.40000000000000008
210
-0
220
0
230
1
0
LWPOLYLINE
5
174
100
AcDbEntity
8
0
100
AcDbPolyline
90
4
70
1
43
0.0
10
63.70000000000001
20
70.150000000000006
42
0.99999999999999989
10
64.800000000000011
20
70.150000000000006
10
64.800000000000011
20
70.849999999999994
42
0.99999999999999989
10
63.70000000000001
20
70.849999999999994
0
CIRCLE
5
175
100
AcDbEntity
8
0
100
AcDbCircle
10
73
20
69
30
0
40
0.57499999999999996
210
-0
220
0
230
1
0
CIRCLE
5
176
100
AcDbEntity
8
0
100
AcDbCircle
10
88
20
96.080000000000013
30
0
40
0.40000000000000008
210
-0
220
0
230
1
0
CIRCLE
5
177
100
AcDbEntity
8
0
100
AcDbCircle
10
76.700000000000003
20
93.825000000000003
30
0
40
0.40000000000000008
210
0
220
0
230
1
0
CIRCLE
5
178
100
AcDbEntity
8
0
100
AcDbCircle
10
79.239999999999995
20
93.825000000000003
30
0
40
0.40000000000000008
210
-0
220
0
230
1
0
CIRCLE
5
179
100
AcDbEntity
8
0
100
AcDbCircle
10
81.780000000000001
20
93.825000000000003
30
0
40
0.40000000000000008
210
-0
220
0
230
1
0
CIRCLE
5
180
100
AcDbEntity
8
0
100
AcDbCircle
10
84.320000000000007
20
93.825000000000003
30
0
40
0.40000000000000008
210
-0
220
0
230
1
0
CIRCLE
5
181
100
AcDbEntity
8
0
100
AcDbCircle
10
91.88000000000001
20
94.500000000000014
30
0
40
0.40000000000000008
210
-0
220
0
230
1
0
CIRCLE
5
182
100
AcDbEntity
8
0
100
AcDbCircle
10
99.500000000000014
20
94.500000000000014
30
0
40
0.40000000000000008
210
-0
220
0
230
1
0
CIRCLE
5
183
100
AcDbEntity
8
0
100
AcDbCircle
10
91.88000000000001
20
91.959999999999994
30
0
40
0.40000000000000008
210
-0
220
0
230
1
0
CIRCLE
5
184
100
AcDbEntity
8
0
100
AcDbCircle
10
99.500000000000014
20
91.959999999999994
30
0
40
0.40000000000000008
210
-0
220
0
230
1
0
CIRCLE
5
185
100
AcDbEntity
8
0
100
AcDbCircle
10
76.700000000000003
20
86.204999999999998
30
0
40
0.40000000000000008
210
0
220
0
230
1
0
CIRCLE
5
186
100
AcDbEntity
8
0
100
AcDbCircle
10
79.239999999999995
20
86.204999999999998
30
0
40
0.40000000000000008
210
-0
220
0
230
1
0
CIRCLE
5
187
100
AcDbEntity
8
0
100
AcDbCircle
10
81.780000000000001
20
86.204999999999998
30
0
40
0.40000000000000008
210
-0
220
0
230
1
0
CIRCLE
5
188
100
AcDbEntity
8
0
100
AcDbCircle
10
78
20
83
30
0
40
0.40000000000000008
210
-0
220
0
230
1
0
CIRCLE
5
189
100
AcDbEntity
8
0
100
AcDbCircle
10
81.5
20
83.079999999999998
30
0
40
0.40000000000000008
210
-0
220
0
230
1
0
CIRCLE
5
190
100
AcDbEntity
8
0
100
AcDbCircle
10
84.320000000000007
20
86.204999999999998
30
0
40
0.40000000000000008
210
-0
220
0
230
1
0
CIRCLE
5
191
100
AcDbEntity
8
0
100
AcDbCircle
10
88
20
85.920000000000002
30
0
40
0.40000000000000008
210
-0
220
0
230
1
0
CIRCLE
5
192
100
AcDbEntity
8
0
100
AcDbCircle
10
91.88000000000001
20
89.420000000000002
30
0
40
0.40000000000000008
210
-0
220
0
230
1
0
CIRCLE
5
193
100
AcDbEntity
8
0
100
AcDbCircle
10
91.88000000000001
20
86.88000000000001
30
0
40
0.40000000000000008
210
-0
220
0
230
1
0
CIRCLE
5
194
100
AcDbEntity
8
0
100
AcDbCircle
10
99.500000000000014
20
89.420000000000002
30
0
40
0.40000000000000008
210
-0
220
0
230
1
0
CIRCLE
5
195
100
AcDbEntity
8
0
100
AcDbCircle
10
99.500000000000014
20
86.88000000000001
30
0
40
0.40000000000000008
210
-0
220
0
230
1
0
CIRCLE
5
196
100
AcDbEntity
8
0
100
AcDbCircle
10
98.340000000000018
20
83
30
0
40
0.40000000000000008
210
-0
220
0
230
1
0
CIRCLE
5
197
100
AcDbEntity
8
0
100
AcDbCircle
10
106.00000000000001
20
95.760000000000005
30
0
40
0.40000000000000008
210
-0
220
0
230
1
0
CIRCLE
5
198
100
AcDbEntity
8
0
100
AcDbCircle
10
113.62000000000002
20
95.760000000000005
30
0
40
0.40000000000000008
210
-0
220
0
230
1
0
CIRCLE
5
199
100
AcDbEntity
8
0
100
AcDbCircle
10
106.00000000000001
20
93.220000000000013
30
0
40
0.40000000000000008
210
-0
220
0
230
1
0
CIRCLE
5
200
100
AcDbEntity
8
0
100
AcDbCircle
10
102.5
20
91.5
30
0
40
0.40000000000000008
210
-0
220
0
230
1
0
CIRCLE
5
201
100
AcDbEntity
8
0
100
AcDbCircle
10
106.00000000000001
20
90.680000000000007
30
0
40
0.40000000000000008
210
-0
220
0
230
1
0
CIRCLE
5
202
100
AcDbEntity
8
0
100
AcDbCircle
10
113.62000000000002
20
93.220000000000013
30
0
40
0.40000000000000008
210
-0
220
0
230
1
0
CIRCLE
5
203
100
AcDbEntity
8
0
100
AcDbCircle
10
113.62000000000002
20
90.680000000000007
30
0
40
0.40000000000000008
210
-0
220
0
230
1
0
CIRCLE
5
204
100
AcDbEntity
8
0
100
AcDbCircle
10
117.17
20
94.299999999999997
30
0
40
0.40000000000000008
210
0
220
0
230
1
0
CIRCLE
5
205
100
AcDbEntity
8
0
100
AcDbCircle
10
127.33000000000001
20
94.299999999999997
30
0
40
0.40000000000000008
210
-0
220
0
230
1
0
CIRCLE
5
206
100
AcDbEntity
8
0
100
AcDbCircle
10
117.17
20
90.25
30
0
40
0.40000000000000008
210
0
220
0
230
1
0
CIRCLE
5
207
100
AcDbEntity
8
0
100
AcDbCircle
10
127.33000000000001
20
90.25
30
0
40
0.40000000000000008
210
-0
220
0
230
1
0
CIRCLE
5
208
100
AcDbEntity
8
0
100
AcDbCircle
10
102.5
20
86.5
30
0
40
0.40000000000000008
210
-0
220
0
230
1
0
CIRCLE
5
209
100
AcDbEntity
8
0
100
AcDbCircle
10
110.9802
20
85.349999999999994
30
0
40
0.40000000000000008
210
-0
220
0
230
1
0
CIRCLE
5
210
100
AcDbEntity
8
0
100
AcDbCircle
10
113.4802
20
85.349999999999994
30
0
40
0.40000000000000008
210
-0
220
0
230
1
0
CIRCLE
5
211
100
AcDbEntity
8
0
100
AcDbCircle
10
108.50000000000001
20
83
30
0
40
0.40000000000000008
210
-0
220
0
230
1
0
CIRCLE
5
212
100
AcDbEntity
8
0
100
AcDbCircle
10
117.17
20
86.200000000000017
30
0
40
0.40000000000000008
210
0
220
0
230
1
0
CIRCLE
5
213
100
AcDbEntity
8
0
100
AcDbCircle
10
127.33000000000001
20
86.200000000000017
30
0
40
0.40000000000000008
210
-0
220
0
230
1
0
CIRCLE
5
214
100
AcDbEntity
8
0
100
AcDbCircle
10
85.420000000000002
20
82.000000000000014
30
0
40
0.40000000000000008
210
0
220
0
230
1
0
CIRCLE
5
215
100
AcDbEntity
8
0
100
AcDbCircle
10
95.579999999999998
20
82.000000000000014
30
0
40
0.40000000000000008
210
-0
220
0
230
1
0
CIRCLE
5
216
100
AcDbEntity
8
0
100
AcDbCircle
10
88.599999999999994
20
78
30
0
40
0.5
210
-0
220
0
230
1
0
CIRCLE
5
217
100
AcDbEntity
8
0
100
AcDbCircle
10
91.099999999999994
20
78
30
0
40
0.5
210
-0
220
0
230
1
0
CIRCLE
5
218
100
AcDbEntity
8
0
100
AcDbCircle
10
93.599999999999994
20
78
30
0
40
0.5
210
-0
220
0
230
1
0
CIRCLE
5
219
100
AcDbEntity
8
0
100
AcDbCircle
10
78
20
72.840000000000003
30
0
40
0.40000000000000008
210
-0
220
0
230
1
0
CIRCLE
5
220
100
AcDbEntity
8
0
100
AcDbCircle
10
81.5
20
72.920000000000002
30
0
40
0.40000000000000008
210
-0
220
0
230
1
0
CIRCLE
5
221
100
AcDbEntity
8
0
100
AcDbCircle
10
77.599999999999994
20
69
30
0
40
0.57499999999999996
210
-0
220
0
230
1
0
LWPOLYLINE
5
222
100
AcDbEntity
8
0
100
AcDbPolyline
90
4
70
1
43
0.0
10
85.750000000000014
20
70.150000000000006
42
0.99999999999999989
10
86.850000000000009
20
70.150000000000006
10
86.850000000000009
20
70.849999999999994
42
0.99999999999999989
10
85.750000000000014
20
70.849999999999994
0
LWPOLYLINE
5
223
100
AcDbEntity
8
0
100
AcDbPolyline
90
4
70
1
43
0.0
10
95.350000000000023
20
70.150000000000006
42
0.99999999999999989
10
96.450000000000017
20
70.150000000000006
10
96.450000000000017
20
70.849999999999994
42
0.99999999999999989
10
95.349999999999994
20
70.849999999999994
0
CIRCLE
5
224
100
AcDbEntity
8
0
100
AcDbCircle
10
104.50000000000001
20
78.5
30
0
40
0.80000000000000016
210
-0
220
0
230
1
0
CIRCLE
5
225
100
AcDbEntity
8
0
100
AcDbCircle
10
111.5
20
78.5
30
0
40
0.80000000000000016
210
-0
220
0
230
1
0
CIRCLE
5
226
100
AcDbEntity
8
0
100
AcDbCircle
10
120.25
20
80.5
30
0
40
0.5
210
-0
220
0
230
1
0
CIRCLE
5
227
100
AcDbEntity
8
0
100
AcDbCircle
10
122.75
20
80.5
30
0
40
0.5
210
-0
220
0
230
1
0
CIRCLE
5
228
100
AcDbEntity
8
0
100
AcDbCircle
10
125.25
20
80.5
30
0
40
0.5
210
-0
220
0
230
1
0
CIRCLE
5
229
100
AcDbEntity
8
0
100
AcDbCircle
10
120.25
20
78
30
0
40
0.5
210
-0
220
0
230
1
0
CIRCLE
5
230
100
AcDbEntity
8
0
100
AcDbCircle
10
122.75
20
78
30
0
40
0.5
210
-0
220
0
230
1
0
CIRCLE
5
231
100
AcDbEntity
8
0
100
AcDbCircle
10
125.25
20
78
30
0
40
0.5
210
-0
220
0
230
1
0
LWPOLYLINE
5
232
100
AcDbEntity
8
0
100
AcDbPolyline
90
4
70
1
43
0.0
10
117.45000000000002
20
70.150000000000006
42
0.99999999999999989
10
118.55000000000001
20
70.150000000000006
10
118.55000000000001
20
70.849999999999994
42
0.99999999999999989
10
117.45000000000002
20
70.849999999999994
0
LWPOLYLINE
5
233
100
AcDbEntity
8
0
100
AcDbPolyline
90
4
70
1
43
0.0
10
126.95
20
70.150000000000006
42
0.99999999999999989
10
128.05000000000001
20
70.150000000000006
10
128.05000000000001
20
70.849999999999994
42
0.99999999999999989
10
126.95
20
70.849999999999994
0
LWPOLYLINE
5
234
100
AcDbEntity
8
0
100
AcDbPolyline
90
10
70
1
43
0.0
10
126.5
20
111.00000000000001
10
126.5
20
125.5
10
123.50000000000001
20
128.5
10
123.50000000000001
20
135.5
10
122.5
20
136.5
10
105.5
20
136.5
10
103.50000000000001
20
134.5
10
103.50000000000001
20
111.00000000000001
10
104.50000000000001
20
110
10
125.5
20
110
0
CIRCLE
5
235
100
AcDbEntity
8
0
100
AcDbCircle
10
109.7
20
130.59999999999999
30
0
40
0.89999999999999991
210
0
220
0
230
1
0
CIRCLE
5
236
100
AcDbEntity
8
0
100
AcDbCircle
10
114.40000000000001
20
130.59999999999999
30
0
40
0.89999999999999991
210
-0
220
0
230
1
0
CIRCLE
5
237
100
AcDbEntity
8
0
100
AcDbCircle
10
109.7
20
125.30000000000001
30
0
40
0.89999999999999991
210
0
220
0
230
1
0
CIRCLE
5
238
100
AcDbEntity
8
0
100
AcDbCircle
10
114.40000000000001
20
125.30000000000001
30
0
40
0.89999999999999991
210
-0
220
0
230
1
0
CIRCLE
5
239
100
AcDbEntity
8
0
100
AcDbCircle
10
119.09999999999999
20
130.59999999999999
30
0
40
0.89999999999999991
210
-0
220
0
230
1
0
CIRCLE
5
240
100
AcDbEntity
8
0
100
AcDbCircle
10
119.09999999999999
20
125.30000000000001
30
0
40
0.89999999999999991
210
-0
220
0
230
1
0
CIRCLE
5
241
100
AcDbEntity
8
0
100
AcDbCircle
10
109.80000000000001
20
120
30
0
40
0.89999999999999991
210
-0
220
0
230
1
0
CIRCLE
5
242
100
AcDbEntity
8
0
100
AcDbCircle
10
114.50000000000001
20
120
30
0
40
0.89999999999999991
210
-0
220
0
230
1
0
CIRCLE
5
243
100
AcDbEntity
8
0
100
AcDbCircle
10
105.84000000000002
20
112.5
30
0
40
0.5
210
-0
220
0
230
1
0
CIRCLE
5
244
100
AcDbEntity
8
0
100
AcDbCircle
10
108.38000000000001
20
112.5
30
0
40
0.5
210
-0
220
0
230
1
0
CIRCLE
5
245
100
AcDbEntity
8
0
100
AcDbCircle
10
110.92
20
112.5
30
0
40
0.5
210
-0
220
0
230
1
0
CIRCLE
5
246
100
AcDbEntity
8
0
100
AcDbCircle
10
113.46000000000001
20
112.5
30
0
40
0.5
210
-0
220
0
230
1
0
CIRCLE
5
247
100
AcDbEntity
8
0
100
AcDbCircle
10
119.20000000000002
20
120
30
0
40
0.89999999999999991
210
0
220
0
230
1
0
CIRCLE
5
248
100
AcDbEntity
8
0
100
AcDbCircle
10
116.00000000000001
20
112.5
30
0
40
0.5
210
-0
220
0
230
1
0
CIRCLE
5
249
100
AcDbEntity
8
0
100
AcDbCircle
10
118.54000000000001
20
112.5
30
0
40
0.5
210
-0
220
0
230
1
0
CIRCLE
5
250
100
AcDbEntity
8
0
100
AcDbCircle
10
121.08000000000001
20
112.5
30
0
40
0.5
210
-0
220
0
230
1
0
CIRCLE
5
251
100
AcDbEntity
8
0
100
AcDbCircle
10
123.62000000000002
20
112.5
30
0
40
0.5
210
-0
220
0
230
1
0
LWPOLYLINE
5
252
100
AcDbEntity
8
0
100
AcDbPolyline
90
10
70
1
43
0.0
10
72
20
99.500000000000014
10
81
20
99.500000000000014
10
82.000000000000014
20
100.5
10
82.000000000000014
20
132.5
10
80
20
134.5
10
29.5
20
134.5
10
21.5
20
126.5
10
21.533185000000003
20
96.00170900000002
10
23.000000000000004
20
94.500000000000014
10
67.000000000000014
20
94.500000000000014
0
CIRCLE
5
253
100
AcDbEntity
8
0
100
AcDbCircle
10
27.464115000000003
20
127.999984
30
0
40
0.80000000000000016
210
-0
220
0
230
1
0
CIRCLE
5
254
100
AcDbEntity
8
0
100
AcDbCircle
10
32.440109
20
130.87287699999999
30
0
40
0.80000000000000016
210
-0
220
0
230
1
0
CIRCLE
5
255
100
AcDbEntity
8
0
100
AcDbCircle
10
38.185892000000003
20
130.87287599999999
30
0
40
0.80000000000000016
210
0
220
0
230
1
0
CIRCLE
5
256
100
AcDbEntity
8
0
100
AcDbCircle
10
43.161884000000008
20
127.99998500000001
30
0
40
0.80000000000000016
210
-0
220
0
230
1
0
CIRCLE
5
257
100
AcDbEntity
8
0
100
AcDbCircle
10
24.591224
20
123.02399200000002
30
0
40
0.80000000000000016
210
-0
220
0
230
1
0
CIRCLE
5
258
100
AcDbEntity
8
0
100
AcDbCircle
10
32.625993999999999
20
122.83810600000001
30
0
40
0.80000000000000016
210
-0
220
0
230
1
0
CIRCLE
5
259
100
AcDbEntity
8
0
100
AcDbCircle
10
24.591223000000003
20
117.278209
30
0
40
0.80000000000000016
210
-0
220
0
230
1
0
CIRCLE
5
260
100
AcDbEntity
8
0
100
AcDbCircle
10
32.625993999999999
20
117.46409400000002
30
0
40
0.80000000000000016
210
-0
220
0
230
1
0
CIRCLE
5
261
100
AcDbEntity
8
0
100
AcDbCircle
10
38.000005999999999
20
122.83810600000001
30
0
40
0.80000000000000016
210
-0
220
0
230
1
0
CIRCLE
5
262
100
AcDbEntity
8
0
100
AcDbCircle
10
46.034776999999998
20
123.02399100000001
30
0
40
0.80000000000000016
210
-0
220
0
230
1
0
CIRCLE
5
263
100
AcDbEntity
8
0
100
AcDbCircle
10
51.400000000000006
20
120.1511
30
0
40
0.80000000000000016
210
-0
220
0
230
1
0
CIRCLE
5
264
100
AcDbEntity
8
0
100
AcDbCircle
10
38.000005999999999
20
117.46409400000002
30
0
40
0.80000000000000016
210
-0
220
0
230
1
0
CIRCLE
5
265
100
AcDbEntity
8
0
100
AcDbCircle
10
46.034773999999999
20
117.278209
30
0
40
0.80000000000000016
210
-0
220
0
230
1
0
CIRCLE
5
266
100
AcDbEntity
8
0
100
AcDbCircle
10
56.950000000000003
20
129.763981
30
0
40
0.80000000000000016
210
-0
220
0
230
1
0
CIRCLE
5
267
100
AcDbEntity
8
0
100
AcDbCircle
10
62.5
20
131.25110000000001
30
0
40
0.80000000000000016
210
-0
220
0
230
1
0
CIRCLE
5
268
100
AcDbEntity
8
0
100
AcDbCircle
10
52.887118999999998
20
125.7011
30
0
40
0.80000000000000016
210
-0
220
0
230
1
0
CIRCLE
5
269
100
AcDbEntity
8
0
100
AcDbCircle
10
60.600000000000009
20
123.44199700000001
30
0
40
0.80000000000000016
210
0
220
0
230
1
0
CIRCLE
5
270
100
AcDbEntity
8
0
100
AcDbCircle
10
68.049999
20
129.763981
30
0
40
0.80000000000000016
210
-0
220
0
230
1
0
CIRCLE
5
271
100
AcDbEntity
8
0
100
AcDbCircle
10
77.230000000000004
20
132
30
0
40
0.50800000000000001
210
0
220
0
230
1
0
CIRCLE
5
272
100
AcDbEntity
8
0
100
AcDbCircle
10
79.77000000000001
20
132
30
0
40
0.50800000000000001
210
-0
220
0
230
1
0
CIRCLE
5
273
100
AcDbEntity
8
0
100
AcDbCircle
10
72.112881000000016
20
125.701099
30
0
40
0.80000000000000016
210
-0
220
0
230
1
0
CIRCLE
5
274
100
AcDbEntity
8
0
100
AcDbCircle
10
77.459999999999994
20
124.50000000000001
30
0
40
0.50800000000000001
210
-0
220
0
230
1
0
CIRCLE
5
275
100
AcDbEntity
8
0
100
AcDbCircle
10
80
20
124.50000000000001
30
0
40
0.50800000000000001
210
-0
220
0
230
1
0
CIRCLE
5
276
100
AcDbEntity
8
0
100
AcDbCircle
10
65.790897000000001
20
122.05110000000002
30
0
40
0.80000000000000016
210
-0
220
0
230
1
0
CIRCLE
5
277
100
AcDbEntity
8
0
100
AcDbCircle
10
52.887118999999998
20
114.6011
30
0
40
0.80000000000000016
210
-0
220
0
230
1
0
CIRCLE
5
278
100
AcDbEntity
8
0
100
AcDbCircle
10
59.209102999999999
20
118.25110000000001
30
0
40
0.80000000000000016
210
-0
220
0
230
1
0
CIRCLE
5
279
100
AcDbEntity
8
0
100
AcDbCircle
10
64.400000000000006
20
116.86020300000001
30
0
40
0.80000000000000016
210
-0
220
0
230
1
0
CIRCLE
5
280
100
AcDbEntity
8
0
100
AcDbCircle
10
73.599999999999994
20
120.1511
30
0
40
0.80000000000000016
210
-0
220
0
230
1
0
CIRCLE
5
281
100
AcDbEntity
8
0
100
AcDbCircle
10
77.5
20
119.81000000000002
30
0
40
0.40000000000000008
210
-0
220
0
230
1
0
CIRCLE
5
282
100
AcDbEntity
8
0
100
AcDbCircle
10
80.050000000000011
20
119.81000000000002
30
0
40
0.40000000000000008
210
-0
220
0
230
1
0
CIRCLE
5
283
100
AcDbEntity
8
0
100
AcDbCircle
10
72.112881000000016
20
114.6011
30
0
40
0.80000000000000016
210
-0
220
0
230
1
0
CIRCLE
5
284
100
AcDbEntity
8
0
100
AcDbCircle
10
27.464115000000003
20
112.302216
30
0
40
0.80000000000000016
210
-0
220
0
230
1
0
CIRCLE
5
285
100
AcDbEntity
8
0
100
AcDbCircle
10
32.440108000000002
20
109.42932400000001
30
0
40
0.80000000000000016
210
-0
220
0
230
1
0
CIRCLE
5
286
100
AcDbEntity
8
0
100
AcDbCircle
10
35.5
20
105.5
30
0
40
0.40000000000000008
210
-0
220
0
230
1
0
CIRCLE
5
287
100
AcDbEntity
8
0
100
AcDbCircle
10
43.161884000000008
20
112.302215
30
0
40
0.80000000000000016
210
-0
220
0
230
1
0
CIRCLE
5
288
100
AcDbEntity
8
0
100
AcDbCircle
10
46.000000000000007
20
109.50000000000001
30
0
40
0.40000000000000008
210
-0
220
0
230
1
0
CIRCLE
5
289
100
AcDbEntity
8
0
100
AcDbCircle
10
51.000000000000007
20
109.50000000000001
30
0
40
0.40000000000000008
210
-0
220
0
230
1
0
CIRCLE
5
290
100
AcDbEntity
8
0
100
AcDbCircle
10
38.185890999999998
20
109.42932300000001
30
0
40
0.80000000000000016
210
-0
220
0
230
1
0
CIRCLE
5
291
100
AcDbEntity
8
0
100
AcDbCircle
10
42
20
105.20510000000002
30
0
40
0.40000000000000008
210
-0
220
0
230
1
0
CIRCLE
5
292
100
AcDbEntity
8
0
100
AcDbCircle
10
47.5
20
105.5
30
0
40
0.40000000000000008
210
-0
220
0
230
1
0
CIRCLE
5
293
100
AcDbEntity
8
0
100
AcDbCircle
10
23.5
20
103.50000000000001
30
0
40
0.40000000000000008
210
-0
220
0
230
1
0
CIRCLE
5
294
100
AcDbEntity
8
0
100
AcDbCircle
10
26
20
103.50000000000001
30
0
40
0.40000000000000008
210
-0
220
0
230
1
0
CIRCLE
5
295
100
AcDbEntity
8
0
100
AcDbCircle
10
29.658999999999999
20
103.50000000000001
30
0
40
0.40000000000000008
210
-0
220
0
230
1
0
CIRCLE
5
296
100
AcDbEntity
8
0
100
AcDbCircle
10
32.158999999999999
20
103.50000000000001
30
0
40
0.40000000000000008
210
-0
220
0
230
1
0
CIRCLE
5
297
100
AcDbEntity
8
0
100
AcDbCircle
10
35.5
20
100.5
30
0
40
0.40000000000000008
210
-0
220
0
230
1
0
CIRCLE
5
298
100
AcDbEntity
8
0
100
AcDbCircle
10
25.3033
20
97.000000000000014
30
0
40
0.5
210
-0
220
0
230
1
0
CIRCLE
5
299
100
AcDbEntity
8
0
100
AcDbCircle
10
27.843300000000003
20
97.000000000000014
30
0
40
0.5
210
-0
220
0
230
1
0
CIRCLE
5
300
100
AcDbEntity
8
0
100
AcDbCircle
10
33.460000000000001
20
97.000000000000014
30
0
40
0.5
210
-0
220
0
230
1
0
CIRCLE
5
301
100
AcDbEntity
8
0
100
AcDbCircle
10
36
20
97.000000000000014
30
0
40
0.5
210
-0
220
0
230
1
0
CIRCLE
5
302
100
AcDbEntity
8
0
100
AcDbCircle
10
42
20
102.70510000000002
30
0
40
0.40000000000000008
210
-0
220
0
230
1
0
CIRCLE
5
303
100
AcDbEntity
8
0
100
AcDbCircle
10
47.5
20
103
30
0
40
0.40000000000000008
210
-0
220
0
230
1
0
CIRCLE
5
304
100
AcDbEntity
8
0
100
AcDbCircle
10
39.420000000000002
20
99.500000000000014
30
0
40
0.40000000000000008
210
-0
220
0
230
1
0
CIRCLE
5
305
100
AcDbEntity
8
0
100
AcDbCircle
10
39.340000000000003
20
96.000000000000014
30
0
40
0.40000000000000008
210
-0
220
0
230
1
0
CIRCLE
5
306
100
AcDbEntity
8
0
100
AcDbCircle
10
49.579999999999998
20
99.500000000000014
30
0
40
0.40000000000000008
210
-0
220
0
230
1
0
CIRCLE
5
307
100
AcDbEntity
8
0
100
AcDbCircle
10
49.5
20
96.000000000000014
30
0
40
0.40000000000000008
210
-0
220
0
230
1
0
CIRCLE
5
308
100
AcDbEntity
8
0
100
AcDbCircle
10
56.950000000000003
20
110.53821900000001
30
0
40
0.80000000000000016
210
-0
220
0
230
1
0
CIRCLE
5
309
100
AcDbEntity
8
0
100
AcDbCircle
10
54
20
106.00000000000001
30
0
40
0.40000000000000008
210
-0
220
0
230
1
0
CIRCLE
5
310
100
AcDbEntity
8
0
100
AcDbCircle
10
57.5
20
106.00000000000001
30
0
40
0.40000000000000008
210
-0
220
0
230
1
0
CIRCLE
5
311
100
AcDbEntity
8
0
100
AcDbCircle
10
62.5
20
109.05110000000001
30
0
40
0.80000000000000016
210
-0
220
0
230
1
0
CIRCLE
5
312
100
AcDbEntity
8
0
100
AcDbCircle
10
61.000000000000007
20
106.00000000000001
30
0
40
0.40000000000000008
210
-0
220
0
230
1
0
CIRCLE
5
313
100
AcDbEntity
8
0
100
AcDbCircle
10
68.049999
20
110.53821900000001
30
0
40
0.80000000000000016
210
-0
220
0
230
1
0
CIRCLE
5
314
100
AcDbEntity
8
0
100
AcDbCircle
10
77.5
20
112.19000000000001
30
0
40
0.40000000000000008
210
-0
220
0
230
1
0
CIRCLE
5
315
100
AcDbEntity
8
0
100
AcDbCircle
10
80.050000000000011
20
112.19000000000001
30
0
40
0.40000000000000008
210
-0
220
0
230
1
0
CIRCLE
5
316
100
AcDbEntity
8
0
100
AcDbCircle
10
72.5
20
108
30
0
40
0.40000000000000008
210
-0
220
0
230
1
0
CIRCLE
5
317
100
AcDbEntity
8
0
100
AcDbCircle
10
72.189999999999998
20
105
30
0
40
0.40000000000000008
210
-0
220
0
230
1
0
CIRCLE
5
318
100
AcDbEntity
8
0
100
AcDbCircle
10
80.120000000000005
20
108
30
0
40
0.40000000000000008
210
-0
220
0
230
1
0
CIRCLE
5
319
100
AcDbEntity
8
0
100
AcDbCircle
10
79.810000000000002
20
105
30
0
40
0.40000000000000008
210
-0
220
0
230
1
0
CIRCLE
5
320
100
AcDbEntity
8
0
100
AcDbCircle
10
54
20
101.00000000000001
30
0
40
0.40000000000000008
210
-0
220
0
230
1
0
CIRCLE
5
321
100
AcDbEntity
8
0
100
AcDbCircle
10
57.5
20
101.00000000000001
30
0
40
0.40000000000000008
210
-0
220
0
230
1
0
CIRCLE
5
322
100
AcDbEntity
8
0
100
AcDbCircle
10
61.000000000000007
20
101.00000000000001
30
0
40
0.40000000000000008
210
-0
220
0
230
1
0
CIRCLE
5
323
100
AcDbEntity
8
0
100
AcDbCircle
10
59.763300000000008
20
97.000000000000014
30
0
40
0.5
210
-0
220
0
230
1
0
CIRCLE
5
324
100
AcDbEntity
8
0
100
AcDbCircle
10
62.303300000000007
20
97.000000000000014
30
0
40
0.5
210
-0
220
0
230
1
0
CIRCLE
5
325
100
AcDbEntity
8
0
100
AcDbCircle
10
64.843299999999999
20
97.000000000000014
30
0
40
0.5
210
-0
220
0
230
1
0
ENDSEC
0
SECTION
2
OBJECTS
0
DICTIONARY
5
C
100
AcDbDictionary
3
ACAD_GROUP
350
D
3
ACAD_MLINESTYLE
350
17
0
DICTIONARY
5
D
100
AcDbDictionary
0
DICTIONARY
5
1A
330
C
100
AcDbDictionary
0
DICTIONARY
5
17
100
AcDbDictionary
0
ENDSEC
0
EOF
