<?xml version="1.0" encoding="UTF-8" standalone="no"?>
<!-- Created with Inkscape (http://www.inkscape.org/) -->

<svg
   width="141.60931mm"
   height="92.980583mm"
   viewBox="0 0 141.60931 92.980582"
   version="1.1"
   id="svg1"
   xml:space="preserve"
   inkscape:version="1.4.2 (ebf0e94, 2025-05-08)"
   sodipodi:docname="underside.svg"
   xmlns:inkscape="http://www.inkscape.org/namespaces/inkscape"
   xmlns:sodipodi="http://sodipodi.sourceforge.net/DTD/sodipodi-0.dtd"
   xmlns="http://www.w3.org/2000/svg"
   xmlns:svg="http://www.w3.org/2000/svg"><sodipodi:namedview
     id="namedview1"
     pagecolor="#ffffff"
     bordercolor="#000000"
     borderopacity="0.25"
     inkscape:showpageshadow="2"
     inkscape:pageopacity="0.0"
     inkscape:pagecheckerboard="0"
     inkscape:deskcolor="#d1d1d1"
     inkscape:document-units="mm"
     inkscape:zoom="0.68862935"
     inkscape:cx="222.18048"
     inkscape:cy="394.98752"
     inkscape:window-width="1920"
     inkscape:window-height="991"
     inkscape:window-x="3191"
     inkscape:window-y="435"
     inkscape:window-maximized="1"
     inkscape:current-layer="layer1"><inkscape:page
       x="0"
       y="0"
       width="141.60931"
       height="92.980583"
       id="page1"
       margin="104.1229 39.958603 105.27554 32.658474"
       bleed="0" /></sodipodi:namedview><defs
     id="defs1"><marker
       id="DistanceX"
       orient="auto"
       refX="0"
       refY="0"
       style="overflow:visible"><path
         d="M 3,-3 -3,3 M 0,-5 V 5"
         style="stroke:#000000;stroke-width:0.5"
         id="path1" /></marker><pattern
       id="Hatch"
       patternUnits="userSpaceOnUse"
       width="8"
       height="8"
       x="0"
       y="0"><path
         d="M8 4 l-4,4"
         stroke="#000000"
         stroke-width="0.25"
         linecap="square"
         id="path2" /><path
         d="M6 2 l-4,4"
         stroke="#000000"
         stroke-width="0.25"
         linecap="square"
         id="path3" /><path
         d="M4 0 l-4,4"
         stroke="#000000"
         stroke-width="0.25"
         linecap="square"
         id="path4" /></pattern><symbol
       id="*MODEL_SPACE" /><symbol
       id="*PAPER_SPACE" /></defs><g
     inkscape:label="Layer 1"
     inkscape:groupmode="layer"
     id="layer1"
     transform="translate(23.053037,-157.14489)"><g
       inkscape:label="0"
       id="g230"
       transform="matrix(0.26458333,0,0,0.26458333,-26.186513,4.0505931)"><path
         d="m 130.3937,842.83465 7.55906,-7.55906 h 52.91338 l 7.55906,7.55906 v 34.01574 h 51.02362 l 7.55905,-7.55905 h 54.80315 l 7.55906,7.55905 h 51.02362 v -34.01574 l 7.55906,-7.55906 h 52.91338 l 7.55906,7.55906 v 34.01574 h 51.02362 V 721.88976 l -7.55906,-7.55905 h -88.81889 l -7.55906,-7.55906 v -66.14173 l -7.55905,-7.55905 h -56.69292 l -7.55905,7.55905 v 18.89764 l 1.88976,1.88976 v 86.92914 l -3.77953,3.77952 H 281.5748 l -18.89764,18.89764 H 86.929134 l -7.559055,7.55906 v 98.26771 H 130.3937 Z"
         style="fill:none;stroke:#000000"
         id="path5" /><path
         d="m 321.29008,646.29921 a 1.92,1.92 0 0 0 -3.84,0 1.92,1.92 0 0 0 3.84,0 z"
         style="fill:none;stroke:#000000"
         id="path6" /><path
         d="m 330.89008,646.29921 a 1.92,1.92 0 0 0 -3.84,0 1.92,1.92 0 0 0 3.84,0 z"
         style="fill:none;stroke:#000000"
         id="path7" /><path
         d="m 324.66142,668.67402 a 1.511815,1.511815 0 0 0 -3.02363,0 1.511815,1.511815 0 0 0 3.02363,0 z"
         style="fill:none;stroke:#000000"
         id="path8" /><path
         d="m 356.7874,650.07874 a 1.511811,1.511811 0 0 0 -3.02362,0 1.511811,1.511811 0 0 0 3.02362,0 z"
         style="fill:none;stroke:#000000"
         id="path9" /><path
         d="m 366.23622,650.07874 a 1.511811,1.511811 0 0 0 -3.02362,0 1.511811,1.511811 0 0 0 3.02362,0 z"
         style="fill:none;stroke:#000000"
         id="path10" /><path
         d="m 353.00787,665.19685 a 1.511811,1.511811 0 0 0 -3.02362,0 1.511811,1.511811 0 0 0 3.02362,0 z"
         style="fill:none;stroke:#000000"
         id="path11" /><path
         d="m 365.46104,664.89449 a 1.511811,1.511811 0 0 0 -3.02362,0 1.511811,1.511811 0 0 0 3.02362,0 z"
         style="fill:none;stroke:#000000"
         id="path12" /><path
         d="m 340.34646,677.25354 a 2.0787405,2.0787405 0 0 0 -4.15748,0 2.0787405,2.0787405 0 0 0 4.15748,0 z"
         style="fill:none;stroke:#000000"
         id="path13" /><path
         d="m 353.00787,684.09449 a 1.511811,1.511811 0 0 0 -3.02362,0 1.511811,1.511811 0 0 0 3.02362,0 z"
         style="fill:none;stroke:#000000"
         id="path14" /><path
         d="m 324.66142,707.07402 a 1.511815,1.511815 0 0 0 -3.02363,0 1.511815,1.511815 0 0 0 3.02363,0 z"
         style="fill:none;stroke:#000000"
         id="path15" /><path
         d="m 340.34646,706.05354 a 2.0787405,2.0787405 0 0 0 -4.15748,0 2.0787405,2.0787405 0 0 0 4.15748,0 z"
         style="fill:none;stroke:#000000"
         id="path16" /><path
         d="m 365.46104,703.29449 a 1.511811,1.511811 0 0 0 -3.02362,0 1.511811,1.511811 0 0 0 3.02362,0 z"
         style="fill:none;stroke:#000000"
         id="path17" /><path
         d="m 365.12164,718.11024 a 1.511811,1.511811 0 0 0 -3.02362,0 1.511811,1.511811 0 0 0 3.02362,0 z"
         style="fill:none;stroke:#000000"
         id="path18" /><path
         d="m 374.57046,718.11024 a 1.511815,1.511815 0 0 0 -3.02363,0 1.511815,1.511815 0 0 0 3.02363,0 z"
         style="fill:none;stroke:#000000"
         id="path19" /><path
         d="m 329.25317,735.11811 a 1.511815,1.511815 0 0 0 -3.02363,0 1.511815,1.511815 0 0 0 3.02363,0 z"
         style="fill:none;stroke:#000000"
         id="path20" /><path
         d="m 328.9508,748.34646 a 1.511811,1.511811 0 0 0 -3.02362,0 1.511811,1.511811 0 0 0 3.02362,0 z"
         style="fill:none;stroke:#000000"
         id="path21" /><path
         d="m 367.65316,735.11811 a 1.511811,1.511811 0 0 0 -3.02362,0 1.511811,1.511811 0 0 0 3.02362,0 z"
         style="fill:none;stroke:#000000"
         id="path22" /><path
         d="m 377.5748,735.11811 a 1.511811,1.511811 0 0 0 -3.02362,0 1.511811,1.511811 0 0 0 3.02362,0 z"
         style="fill:none;stroke:#000000"
         id="path23" /><path
         d="m 367.3508,748.34646 a 1.511811,1.511811 0 0 0 -3.02362,0 1.511811,1.511811 0 0 0 3.02362,0 z"
         style="fill:none;stroke:#000000"
         id="path24" /><path
         d="m 377.5748,754.01575 a 1.511811,1.511811 0 0 0 -3.02362,0 1.511811,1.511811 0 0 0 3.02362,0 z"
         style="fill:none;stroke:#000000"
         id="path25" /><path
         d="m 401.91496,725.66929 a 1.889765,1.889765 0 0 0 -3.77953,0 1.889765,1.889765 0 0 0 3.77953,0 z"
         style="fill:none;stroke:#000000"
         id="path26" /><path
         d="m 411.51496,725.66929 a 1.889765,1.889765 0 0 0 -3.77953,0 1.889765,1.889765 0 0 0 3.77953,0 z"
         style="fill:none;stroke:#000000"
         id="path27" /><path
         d="m 421.11496,725.66929 a 1.889765,1.889765 0 0 0 -3.77953,0 1.889765,1.889765 0 0 0 3.77953,0 z"
         style="fill:none;stroke:#000000"
         id="path28" /><path
         d="m 430.71496,725.66929 a 1.889765,1.889765 0 0 0 -3.77953,0 1.889765,1.889765 0 0 0 3.77953,0 z"
         style="fill:none;stroke:#000000"
         id="path29" /><path
         d="m 440.31496,725.66929 a 1.889765,1.889765 0 0 0 -3.77953,0 1.889765,1.889765 0 0 0 3.77953,0 z"
         style="fill:none;stroke:#000000"
         id="path30" /><path
         d="m 449.91496,725.66929 a 1.889765,1.889765 0 0 0 -3.77953,0 1.889765,1.889765 0 0 0 3.77953,0 z"
         style="fill:none;stroke:#000000"
         id="path31" /><path
         d="m 459.51496,725.66929 a 1.889765,1.889765 0 0 0 -3.77953,0 1.889765,1.889765 0 0 0 3.77953,0 z"
         style="fill:none;stroke:#000000"
         id="path32" /><path
         d="m 469.11496,725.66929 a 1.889765,1.889765 0 0 0 -3.77953,0 1.889765,1.889765 0 0 0 3.77953,0 z"
         style="fill:none;stroke:#000000"
         id="path33" /><path
         d="m 402.14173,750.99213 a 1.511811,1.511811 0 0 0 -3.02362,0 1.511811,1.511811 0 0 0 3.02362,0 z"
         style="fill:none;stroke:#000000"
         id="path34" /><path
         d="m 430.94173,750.99213 a 1.511811,1.511811 0 0 0 -3.02362,0 1.511811,1.511811 0 0 0 3.02362,0 z"
         style="fill:none;stroke:#000000"
         id="path35" /><path
         d="m 444.35905,750.80315 a 1.511811,1.511811 0 0 0 -3.02362,0 1.511811,1.511811 0 0 0 3.02362,0 z"
         style="fill:none;stroke:#000000"
         id="path36" /><path
         d="m 482.75905,750.80315 a 1.511811,1.511811 0 0 0 -3.02362,0 1.511811,1.511811 0 0 0 3.02362,0 z"
         style="fill:none;stroke:#000000"
         id="path37" /><path
         d="m 97.524283,780.47244 a 1.889764,1.889764 0 0 0 -3.779527,0 1.889764,1.889764 0 0 0 3.779527,0 z"
         style="fill:none;stroke:#000000"
         id="path38" /><path
         d="m 107.12428,780.47244 a 1.889764,1.889764 0 0 0 -3.77952,0 1.889764,1.889764 0 0 0 3.77952,0 z"
         style="fill:none;stroke:#000000"
         id="path39" /><path
         d="m 127.46457,780.47244 a 1.889765,1.889765 0 0 0 -3.77953,0 1.889765,1.889765 0 0 0 3.77953,0 z"
         style="fill:none;stroke:#000000"
         id="path40" /><path
         d="m 137.06457,780.47244 a 1.889765,1.889765 0 0 0 -3.77953,0 1.889765,1.889765 0 0 0 3.77953,0 z"
         style="fill:none;stroke:#000000"
         id="path41" /><path
         d="m 96,808.8189 a 1.511811,1.511811 0 0 0 -3.023622,0 1.511811,1.511811 0 0 0 3.023622,0 z"
         style="fill:none;stroke:#000000"
         id="path42" /><path
         d="m 126.23622,795.59055 a 1.511811,1.511811 0 0 0 -3.02362,0 1.511811,1.511811 0 0 0 3.02362,0 z"
         style="fill:none;stroke:#000000"
         id="path43" /><path
         d="m 114.89764,808.8189 a 1.511811,1.511811 0 0 0 -3.02362,0 1.511811,1.511811 0 0 0 3.02362,0 z"
         style="fill:none;stroke:#000000"
         id="path44" /><path
         d="m 145.13386,795.59055 a 1.511811,1.511811 0 0 0 -3.02362,0 1.511811,1.511811 0 0 0 3.02362,0 z"
         style="fill:none;stroke:#000000"
         id="path45" /><path
         d="m 156.47244,795.59055 a 1.511811,1.511811 0 0 0 -3.02362,0 1.511811,1.511811 0 0 0 3.02362,0 z"
         style="fill:none;stroke:#000000"
         id="path46" /><path
         d="m 175.37008,795.59055 a 1.511811,1.511811 0 0 0 -3.02362,0 1.511811,1.511811 0 0 0 3.02362,0 z"
         style="fill:none;stroke:#000000"
         id="path47" /><path
         d="m 227.91798,780.47244 a 1.889764,1.889764 0 0 0 -3.77952,0 1.889764,1.889764 0 0 0 3.77952,0 z"
         style="fill:none;stroke:#000000"
         id="path48" /><path
         d="m 237.51798,780.47244 a 1.889764,1.889764 0 0 0 -3.77952,0 1.889764,1.889764 0 0 0 3.77952,0 z"
         style="fill:none;stroke:#000000"
         id="path49" /><path
         d="m 247.11798,780.47244 a 1.889764,1.889764 0 0 0 -3.77952,0 1.889764,1.889764 0 0 0 3.77952,0 z"
         style="fill:none;stroke:#000000"
         id="path50" /><path
         d="m 260.40945,778.58268 a 1.511811,1.511811 0 0 0 -3.02362,0 1.511811,1.511811 0 0 0 3.02362,0 z"
         style="fill:none;stroke:#000000"
         id="path51" /><path
         d="m 279.30709,778.58268 a 1.511815,1.511815 0 0 0 -3.02363,0 1.511815,1.511815 0 0 0 3.02363,0 z"
         style="fill:none;stroke:#000000"
         id="path52" /><path
         d="m 230.02205,806.4 a 1.511815,1.511815 0 0 0 -3.02363,0 1.511815,1.511815 0 0 0 3.02363,0 z"
         style="fill:none;stroke:#000000"
         id="path53" /><path
         d="m 260.40945,791.81102 a 1.511811,1.511811 0 0 0 -3.02362,0 1.511811,1.511811 0 0 0 3.02362,0 z"
         style="fill:none;stroke:#000000"
         id="path54" /><path
         d="m 279.30709,791.81102 a 1.511815,1.511815 0 0 0 -3.02363,0 1.511815,1.511815 0 0 0 3.02363,0 z"
         style="fill:none;stroke:#000000"
         id="path55" /><path
         d="m 239.62205,806.4 a 1.511815,1.511815 0 0 0 -3.02363,0 1.511815,1.511815 0 0 0 3.02363,0 z"
         style="fill:none;stroke:#000000"
         id="path56" /><path
         d="m 249.22205,806.4 a 1.511815,1.511815 0 0 0 -3.02363,0 1.511815,1.511815 0 0 0 3.02363,0 z"
         style="fill:none;stroke:#000000"
         id="path57" /><path
         d="m 260.40945,808.21417 a 1.511811,1.511811 0 0 0 -3.02362,0 1.511811,1.511811 0 0 0 3.02362,0 z"
         style="fill:none;stroke:#000000"
         id="path58" /><path
         d="m 125.93386,810.70866 a 1.511811,1.511811 0 0 0 -3.02362,0 1.511811,1.511811 0 0 0 3.02362,0 z"
         style="fill:none;stroke:#000000"
         id="path59" /><path
         d="m 97.511811,827.71654 a 1.889764,1.889764 0 0 0 -3.779528,0 1.889764,1.889764 0 0 0 3.779528,0 z"
         style="fill:none;stroke:#000000"
         id="path60" /><path
         d="m 106.96063,827.71654 a 1.889765,1.889765 0 0 0 -3.77953,0 1.889765,1.889765 0 0 0 3.77953,0 z"
         style="fill:none;stroke:#000000"
         id="path61" /><path
         d="m 116.40945,827.71654 a 1.889765,1.889765 0 0 0 -3.77953,0 1.889765,1.889765 0 0 0 3.77953,0 z"
         style="fill:none;stroke:#000000"
         id="path62" /><path
         d="m 164.33386,810.70866 a 1.511811,1.511811 0 0 0 -3.02362,0 1.511811,1.511811 0 0 0 3.02362,0 z"
         style="fill:none;stroke:#000000"
         id="path63" /><path
         d="m 177.25984,810.70866 a 1.5118115,1.5118115 0 0 0 -3.02362,0 1.5118115,1.5118115 0 0 0 3.02362,0 z"
         style="fill:none;stroke:#000000"
         id="path64" /><path
         d="m 154.20472,825.82677 a 3.023622,3.023622 0 0 0 -6.04724,0 3.023622,3.023622 0 0 0 6.04724,0 z"
         style="fill:none;stroke:#000000"
         id="path65" /><path
         d="m 180.66142,825.82677 a 3.023625,3.023625 0 0 0 -6.04725,0 3.023625,3.023625 0 0 0 6.04725,0 z"
         style="fill:none;stroke:#000000"
         id="path66" /><path
         d="m 84.850394,857.38583 a 2.07874,2.07874 0 0 0 4.15748,0 v -2.64567 a 2.07874,2.07874 0 0 0 -4.15748,0 z"
         style="fill:none;stroke:#000000"
         id="path67" /><path
         d="m 121.13386,857.38583 a 2.0787405,2.0787405 0 0 0 4.15748,0 v -2.64567 a 2.0787405,2.0787405 0 0 0 -4.15748,0 z"
         style="fill:none;stroke:#000000"
         id="path68" /><path
         d="m 215.65984,810.70866 a 1.5118115,1.5118115 0 0 0 -3.02362,0 1.5118115,1.5118115 0 0 0 3.02362,0 z"
         style="fill:none;stroke:#000000"
         id="path69" /><path
         d="m 217.13386,827.71654 a 1.889765,1.889765 0 0 0 -3.77953,0 1.889765,1.889765 0 0 0 3.77953,0 z"
         style="fill:none;stroke:#000000"
         id="path70" /><path
         d="m 226.58268,827.71654 a 1.889765,1.889765 0 0 0 -3.77953,0 1.889765,1.889765 0 0 0 3.77953,0 z"
         style="fill:none;stroke:#000000"
         id="path71" /><path
         d="m 236.0315,827.71654 a 1.889765,1.889765 0 0 0 -3.77953,0 1.889765,1.889765 0 0 0 3.77953,0 z"
         style="fill:none;stroke:#000000"
         id="path72" /><path
         d="m 273.63779,814.48819 a 1.511811,1.511811 0 0 0 -3.02362,0 1.511811,1.511811 0 0 0 3.02362,0 z"
         style="fill:none;stroke:#000000"
         id="path73" /><path
         d="m 283.08661,814.48819 a 1.511811,1.511811 0 0 0 -3.02362,0 1.511811,1.511811 0 0 0 3.02362,0 z"
         style="fill:none;stroke:#000000"
         id="path74" /><path
         d="m 204.47244,857.38583 a 2.07874,2.07874 0 0 0 4.15748,0 v -2.64567 a 2.07874,2.07874 0 0 0 -4.15748,0 z"
         style="fill:none;stroke:#000000"
         id="path75" /><path
         d="m 260.40945,846.61417 a 1.511811,1.511811 0 0 0 -3.02362,0 1.511811,1.511811 0 0 0 3.02362,0 z"
         style="fill:none;stroke:#000000"
         id="path76" /><path
         d="m 273.63779,839.05512 a 1.511811,1.511811 0 0 0 -3.02362,0 1.511811,1.511811 0 0 0 3.02362,0 z"
         style="fill:none;stroke:#000000"
         id="path77" /><path
         d="m 283.08661,839.05512 a 1.511811,1.511811 0 0 0 -3.02362,0 1.511811,1.511811 0 0 0 3.02362,0 z"
         style="fill:none;stroke:#000000"
         id="path78" /><path
         d="m 240.75591,857.38583 a 2.07874,2.07874 0 0 0 4.15748,0 v -2.64567 a 2.07874,2.07874 0 0 0 -4.15748,0 z"
         style="fill:none;stroke:#000000"
         id="path79" /><path
         d="m 278.07874,861.73228 a 2.17323,2.17323 0 0 0 -4.34646,0 2.17323,2.17323 0 0 0 4.34646,0 z"
         style="fill:none;stroke:#000000"
         id="path80" /><path
         d="m 334.11024,759.38268 a 1.511815,1.511815 0 0 0 -3.02363,0 1.511815,1.511815 0 0 0 3.02363,0 z"
         style="fill:none;stroke:#000000"
         id="path81" /><path
         d="m 291.40157,767.90551 a 1.511811,1.511811 0 0 0 -3.02362,0 1.511811,1.511811 0 0 0 3.02362,0 z"
         style="fill:none;stroke:#000000"
         id="path82" /><path
         d="m 301.00157,767.90551 a 1.511811,1.511811 0 0 0 -3.02362,0 1.511811,1.511811 0 0 0 3.02362,0 z"
         style="fill:none;stroke:#000000"
         id="path83" /><path
         d="m 310.60158,767.90551 a 1.511815,1.511815 0 0 0 -3.02363,0 1.511815,1.511815 0 0 0 3.02363,0 z"
         style="fill:none;stroke:#000000"
         id="path84" /><path
         d="m 320.20157,767.90551 a 1.511811,1.511811 0 0 0 -3.02362,0 1.511811,1.511811 0 0 0 3.02362,0 z"
         style="fill:none;stroke:#000000"
         id="path85" /><path
         d="m 348.7748,765.35433 a 1.511811,1.511811 0 0 0 -3.02362,0 1.511811,1.511811 0 0 0 3.02362,0 z"
         style="fill:none;stroke:#000000"
         id="path86" /><path
         d="m 377.5748,765.35433 a 1.511811,1.511811 0 0 0 -3.02362,0 1.511811,1.511811 0 0 0 3.02362,0 z"
         style="fill:none;stroke:#000000"
         id="path87" /><path
         d="m 348.7748,774.95433 a 1.511811,1.511811 0 0 0 -3.02362,0 1.511811,1.511811 0 0 0 3.02362,0 z"
         style="fill:none;stroke:#000000"
         id="path88" /><path
         d="m 377.5748,774.95433 a 1.511811,1.511811 0 0 0 -3.02362,0 1.511811,1.511811 0 0 0 3.02362,0 z"
         style="fill:none;stroke:#000000"
         id="path89" /><path
         d="m 291.40157,796.70551 a 1.511811,1.511811 0 0 0 -3.02362,0 1.511811,1.511811 0 0 0 3.02362,0 z"
         style="fill:none;stroke:#000000"
         id="path90" /><path
         d="m 301.00157,796.70551 a 1.511811,1.511811 0 0 0 -3.02362,0 1.511811,1.511811 0 0 0 3.02362,0 z"
         style="fill:none;stroke:#000000"
         id="path91" /><path
         d="m 310.60158,796.70551 a 1.511815,1.511815 0 0 0 -3.02363,0 1.511815,1.511815 0 0 0 3.02363,0 z"
         style="fill:none;stroke:#000000"
         id="path92" /><path
         d="m 296.31496,808.8189 a 1.511811,1.511811 0 0 0 -3.02362,0 1.511811,1.511811 0 0 0 3.02362,0 z"
         style="fill:none;stroke:#000000"
         id="path93" /><path
         d="m 309.54331,808.51653 a 1.511815,1.511815 0 0 0 -3.02363,0 1.511815,1.511815 0 0 0 3.02363,0 z"
         style="fill:none;stroke:#000000"
         id="path94" /><path
         d="m 320.20157,796.70551 a 1.511811,1.511811 0 0 0 -3.02362,0 1.511811,1.511811 0 0 0 3.02362,0 z"
         style="fill:none;stroke:#000000"
         id="path95" /><path
         d="m 334.11024,797.78268 a 1.511815,1.511815 0 0 0 -3.02363,0 1.511815,1.511815 0 0 0 3.02363,0 z"
         style="fill:none;stroke:#000000"
         id="path96" /><path
         d="m 348.7748,784.55433 a 1.511811,1.511811 0 0 0 -3.02362,0 1.511811,1.511811 0 0 0 3.02362,0 z"
         style="fill:none;stroke:#000000"
         id="path97" /><path
         d="m 348.7748,794.15433 a 1.511811,1.511811 0 0 0 -3.02362,0 1.511811,1.511811 0 0 0 3.02362,0 z"
         style="fill:none;stroke:#000000"
         id="path98" /><path
         d="m 377.5748,784.55433 a 1.511811,1.511811 0 0 0 -3.02362,0 1.511811,1.511811 0 0 0 3.02362,0 z"
         style="fill:none;stroke:#000000"
         id="path99" /><path
         d="m 377.5748,794.15433 a 1.511811,1.511811 0 0 0 -3.02362,0 1.511811,1.511811 0 0 0 3.02362,0 z"
         style="fill:none;stroke:#000000"
         id="path100" /><path
         d="m 373.19055,808.8189 a 1.511811,1.511811 0 0 0 -3.02362,0 1.511811,1.511811 0 0 0 3.02362,0 z"
         style="fill:none;stroke:#000000"
         id="path101" /><path
         d="m 402.14173,760.59213 a 1.511811,1.511811 0 0 0 -3.02362,0 1.511811,1.511811 0 0 0 3.02362,0 z"
         style="fill:none;stroke:#000000"
         id="path102" /><path
         d="m 430.94173,760.59213 a 1.511811,1.511811 0 0 0 -3.02362,0 1.511811,1.511811 0 0 0 3.02362,0 z"
         style="fill:none;stroke:#000000"
         id="path103" /><path
         d="m 402.14173,770.19213 a 1.511811,1.511811 0 0 0 -3.02362,0 1.511811,1.511811 0 0 0 3.02362,0 z"
         style="fill:none;stroke:#000000"
         id="path104" /><path
         d="m 388.91339,776.69291 a 1.511815,1.511815 0 0 0 -3.02363,0 1.511815,1.511815 0 0 0 3.02363,0 z"
         style="fill:none;stroke:#000000"
         id="path105" /><path
         d="m 402.14173,779.79213 a 1.511811,1.511811 0 0 0 -3.02362,0 1.511811,1.511811 0 0 0 3.02362,0 z"
         style="fill:none;stroke:#000000"
         id="path106" /><path
         d="m 430.94173,770.19213 a 1.511811,1.511811 0 0 0 -3.02362,0 1.511811,1.511811 0 0 0 3.02362,0 z"
         style="fill:none;stroke:#000000"
         id="path107" /><path
         d="m 430.94173,779.79213 a 1.511811,1.511811 0 0 0 -3.02362,0 1.511811,1.511811 0 0 0 3.02362,0 z"
         style="fill:none;stroke:#000000"
         id="path108" /><path
         d="m 444.35905,766.11024 a 1.511811,1.511811 0 0 0 -3.02362,0 1.511811,1.511811 0 0 0 3.02362,0 z"
         style="fill:none;stroke:#000000"
         id="path109" /><path
         d="m 482.75905,766.11024 a 1.511811,1.511811 0 0 0 -3.02362,0 1.511811,1.511811 0 0 0 3.02362,0 z"
         style="fill:none;stroke:#000000"
         id="path110" /><path
         d="m 444.35905,781.41732 a 1.511811,1.511811 0 0 0 -3.02362,0 1.511811,1.511811 0 0 0 3.02362,0 z"
         style="fill:none;stroke:#000000"
         id="path111" /><path
         d="m 482.75905,781.41732 a 1.511811,1.511811 0 0 0 -3.02362,0 1.511811,1.511811 0 0 0 3.02362,0 z"
         style="fill:none;stroke:#000000"
         id="path112" /><path
         d="m 388.91339,795.59055 a 1.511815,1.511815 0 0 0 -3.02363,0 1.511815,1.511815 0 0 0 3.02363,0 z"
         style="fill:none;stroke:#000000"
         id="path113" /><path
         d="m 420.96453,799.93701 a 1.511811,1.511811 0 0 0 -3.02362,0 1.511811,1.511811 0 0 0 3.02362,0 z"
         style="fill:none;stroke:#000000"
         id="path114" /><path
         d="m 430.41335,799.93701 a 1.511811,1.511811 0 0 0 -3.02362,0 1.511811,1.511811 0 0 0 3.02362,0 z"
         style="fill:none;stroke:#000000"
         id="path115" /><path
         d="m 411.59055,808.8189 a 1.511811,1.511811 0 0 0 -3.02362,0 1.511811,1.511811 0 0 0 3.02362,0 z"
         style="fill:none;stroke:#000000"
         id="path116" /><path
         d="m 444.35905,796.72441 a 1.511811,1.511811 0 0 0 -3.02362,0 1.511811,1.511811 0 0 0 3.02362,0 z"
         style="fill:none;stroke:#000000"
         id="path117" /><path
         d="m 482.75905,796.72441 a 1.511811,1.511811 0 0 0 -3.02362,0 1.511811,1.511811 0 0 0 3.02362,0 z"
         style="fill:none;stroke:#000000"
         id="path118" /><path
         d="m 324.35905,812.59843 a 1.511811,1.511811 0 0 0 -3.02362,0 1.511811,1.511811 0 0 0 3.02362,0 z"
         style="fill:none;stroke:#000000"
         id="path119" /><path
         d="m 362.75905,812.59843 a 1.511811,1.511811 0 0 0 -3.02362,0 1.511811,1.511811 0 0 0 3.02362,0 z"
         style="fill:none;stroke:#000000"
         id="path120" /><path
         d="m 336.75591,827.71654 a 1.889765,1.889765 0 0 0 -3.77953,0 1.889765,1.889765 0 0 0 3.77953,0 z"
         style="fill:none;stroke:#000000"
         id="path121" /><path
         d="m 346.20472,827.71654 a 1.889764,1.889764 0 0 0 -3.77952,0 1.889764,1.889764 0 0 0 3.77952,0 z"
         style="fill:none;stroke:#000000"
         id="path122" /><path
         d="m 355.65354,827.71654 a 1.889764,1.889764 0 0 0 -3.77952,0 1.889764,1.889764 0 0 0 3.77952,0 z"
         style="fill:none;stroke:#000000"
         id="path123" /><path
         d="m 296.31496,847.2189 a 1.511811,1.511811 0 0 0 -3.02362,0 1.511811,1.511811 0 0 0 3.02362,0 z"
         style="fill:none;stroke:#000000"
         id="path124" /><path
         d="m 309.54331,846.91653 a 1.511815,1.511815 0 0 0 -3.02363,0 1.511815,1.511815 0 0 0 3.02363,0 z"
         style="fill:none;stroke:#000000"
         id="path125" /><path
         d="m 295.46457,861.73228 a 2.17323,2.17323 0 0 0 -4.34646,0 2.17323,2.17323 0 0 0 4.34646,0 z"
         style="fill:none;stroke:#000000"
         id="path126" /><path
         d="m 324.09449,857.38583 a 2.0787405,2.0787405 0 0 0 4.15748,0 v -2.64567 a 2.0787405,2.0787405 0 0 0 -4.15748,0 z"
         style="fill:none;stroke:#000000"
         id="path127" /><path
         d="m 360.37795,857.38583 a 2.07874,2.07874 0 0 0 4.15748,0 v -2.64567 a 2.07874,2.07874 0 0 0 -4.15748,0 z"
         style="fill:none;stroke:#000000"
         id="path128" /><path
         d="m 397.98425,825.82677 a 3.023622,3.023622 0 0 0 -6.04724,0 3.023622,3.023622 0 0 0 6.04724,0 z"
         style="fill:none;stroke:#000000"
         id="path129" /><path
         d="m 424.44094,825.82677 a 3.023622,3.023622 0 0 0 -6.04724,0 3.023622,3.023622 0 0 0 6.04724,0 z"
         style="fill:none;stroke:#000000"
         id="path130" /><path
         d="m 456.37795,818.26772 a 1.889764,1.889764 0 0 0 -3.77952,0 1.889764,1.889764 0 0 0 3.77952,0 z"
         style="fill:none;stroke:#000000"
         id="path131" /><path
         d="m 465.82677,818.26772 a 1.889765,1.889765 0 0 0 -3.77953,0 1.889765,1.889765 0 0 0 3.77953,0 z"
         style="fill:none;stroke:#000000"
         id="path132" /><path
         d="m 475.27559,818.26772 a 1.889765,1.889765 0 0 0 -3.77953,0 1.889765,1.889765 0 0 0 3.77953,0 z"
         style="fill:none;stroke:#000000"
         id="path133" /><path
         d="m 456.37795,827.71654 a 1.889764,1.889764 0 0 0 -3.77952,0 1.889764,1.889764 0 0 0 3.77952,0 z"
         style="fill:none;stroke:#000000"
         id="path134" /><path
         d="m 465.82677,827.71654 a 1.889765,1.889765 0 0 0 -3.77953,0 1.889765,1.889765 0 0 0 3.77953,0 z"
         style="fill:none;stroke:#000000"
         id="path135" /><path
         d="m 475.27559,827.71654 a 1.889765,1.889765 0 0 0 -3.77953,0 1.889765,1.889765 0 0 0 3.77953,0 z"
         style="fill:none;stroke:#000000"
         id="path136" /><path
         d="m 443.90551,857.38583 a 2.07874,2.07874 0 0 0 4.15748,0 v -2.64567 a 2.07874,2.07874 0 0 0 -4.15748,0 z"
         style="fill:none;stroke:#000000"
         id="path137" /><path
         d="m 479.81102,857.38583 a 2.07874,2.07874 0 0 0 4.15748,0 v -2.64567 a 2.07874,2.07874 0 0 0 -4.15748,0 z"
         style="fill:none;stroke:#000000"
         id="path138" /><path
         d="M 478.11024,702.99213 V 648.18898 L 466.77165,636.85039 V 610.3937 l -3.77952,-3.77953 h -64.25197 l -7.55906,7.55906 v 88.8189 l 3.77953,3.77952 h 79.37008 z"
         style="fill:none;stroke:#000000"
         id="path139" /><path
         d="m 418.01575,628.91339 a 3.401575,3.401575 0 0 0 -6.80315,0 3.401575,3.401575 0 0 0 6.80315,0 z"
         style="fill:none;stroke:#000000"
         id="path140" /><path
         d="m 435.77953,628.91339 a 3.401575,3.401575 0 0 0 -6.80315,0 3.401575,3.401575 0 0 0 6.80315,0 z"
         style="fill:none;stroke:#000000"
         id="path141" /><path
         d="m 418.01575,648.94488 a 3.401575,3.401575 0 0 0 -6.80315,0 3.401575,3.401575 0 0 0 6.80315,0 z"
         style="fill:none;stroke:#000000"
         id="path142" /><path
         d="m 435.77953,648.94488 a 3.401575,3.401575 0 0 0 -6.80315,0 3.401575,3.401575 0 0 0 6.80315,0 z"
         style="fill:none;stroke:#000000"
         id="path143" /><path
         d="m 453.54331,628.91339 a 3.401575,3.401575 0 0 0 -6.80315,0 3.401575,3.401575 0 0 0 6.80315,0 z"
         style="fill:none;stroke:#000000"
         id="path144" /><path
         d="m 453.54331,648.94488 a 3.401575,3.401575 0 0 0 -6.80315,0 3.401575,3.401575 0 0 0 6.80315,0 z"
         style="fill:none;stroke:#000000"
         id="path145" /><path
         d="m 418.3937,668.97638 a 3.401575,3.401575 0 0 0 -6.80315,0 3.401575,3.401575 0 0 0 6.80315,0 z"
         style="fill:none;stroke:#000000"
         id="path146" /><path
         d="m 436.15748,668.97638 a 3.401575,3.401575 0 0 0 -6.80315,0 3.401575,3.401575 0 0 0 6.80315,0 z"
         style="fill:none;stroke:#000000"
         id="path147" /><path
         d="m 401.91496,697.32284 a 1.889765,1.889765 0 0 0 -3.77953,0 1.889765,1.889765 0 0 0 3.77953,0 z"
         style="fill:none;stroke:#000000"
         id="path148" /><path
         d="m 411.51496,697.32284 a 1.889765,1.889765 0 0 0 -3.77953,0 1.889765,1.889765 0 0 0 3.77953,0 z"
         style="fill:none;stroke:#000000"
         id="path149" /><path
         d="m 421.11496,697.32284 a 1.889765,1.889765 0 0 0 -3.77953,0 1.889765,1.889765 0 0 0 3.77953,0 z"
         style="fill:none;stroke:#000000"
         id="path150" /><path
         d="m 430.71496,697.32284 a 1.889765,1.889765 0 0 0 -3.77953,0 1.889765,1.889765 0 0 0 3.77953,0 z"
         style="fill:none;stroke:#000000"
         id="path151" /><path
         d="m 453.92126,668.97638 a 3.401575,3.401575 0 0 0 -6.80315,0 3.401575,3.401575 0 0 0 6.80315,0 z"
         style="fill:none;stroke:#000000"
         id="path152" /><path
         d="m 440.31496,697.32284 a 1.889765,1.889765 0 0 0 -3.77953,0 1.889765,1.889765 0 0 0 3.77953,0 z"
         style="fill:none;stroke:#000000"
         id="path153" /><path
         d="m 449.91496,697.32284 a 1.889765,1.889765 0 0 0 -3.77953,0 1.889765,1.889765 0 0 0 3.77953,0 z"
         style="fill:none;stroke:#000000"
         id="path154" /><path
         d="m 459.51496,697.32284 a 1.889765,1.889765 0 0 0 -3.77953,0 1.889765,1.889765 0 0 0 3.77953,0 z"
         style="fill:none;stroke:#000000"
         id="path155" /><path
         d="m 469.11496,697.32284 a 1.889765,1.889765 0 0 0 -3.77953,0 1.889765,1.889765 0 0 0 3.77953,0 z"
         style="fill:none;stroke:#000000"
         id="path156" /><path
         d="m 272.12598,746.45669 h 34.01575 l 3.77953,-3.77953 V 621.73228 l -7.55905,-7.55905 H 111.49606 l -30.236217,30.23622 0.125423,115.26913 5.543868,5.67575 H 253.22835 Z"
         style="fill:none;stroke:#000000"
         id="path157" /><path
         d="m 106.825,638.74022 a 3.0236225,3.0236225 0 0 0 -6.04724,0 3.0236225,3.0236225 0 0 0 6.04724,0 z"
         style="fill:none;stroke:#000000"
         id="path158" /><path
         d="m 125.63191,627.88204 a 3.023625,3.023625 0 0 0 -6.04725,0 3.023625,3.023625 0 0 0 6.04725,0 z"
         style="fill:none;stroke:#000000"
         id="path159" /><path
         d="m 147.34825,627.88204 a 3.023622,3.023622 0 0 0 -6.04724,0 3.023622,3.023622 0 0 0 6.04724,0 z"
         style="fill:none;stroke:#000000"
         id="path160" /><path
         d="m 166.15515,638.74021 a 3.023622,3.023622 0 0 0 -6.04724,0 3.023622,3.023622 0 0 0 6.04724,0 z"
         style="fill:none;stroke:#000000"
         id="path161" /><path
         d="m 95.966831,657.54712 a 3.023622,3.023622 0 0 0 -6.047244,0 3.023622,3.023622 0 0 0 6.047244,0 z"
         style="fill:none;stroke:#000000"
         id="path162" /><path
         d="m 126.33447,658.24968 a 3.023625,3.023625 0 0 0 -6.04725,0 3.023625,3.023625 0 0 0 6.04725,0 z"
         style="fill:none;stroke:#000000"
         id="path163" /><path
         d="m 95.966827,679.26346 a 3.023622,3.023622 0 0 0 -6.047244,0 3.023622,3.023622 0 0 0 6.047244,0 z"
         style="fill:none;stroke:#000000"
         id="path164" /><path
         d="m 126.33447,678.56091 a 3.023625,3.023625 0 0 0 -6.04725,0 3.023625,3.023625 0 0 0 6.04725,0 z"
         style="fill:none;stroke:#000000"
         id="path165" /><path
         d="m 146.64569,658.24968 a 3.023622,3.023622 0 0 0 -6.04724,0 3.023622,3.023622 0 0 0 6.04724,0 z"
         style="fill:none;stroke:#000000"
         id="path166" /><path
         d="m 177.01333,657.54712 a 3.023622,3.023622 0 0 0 -6.04724,0 3.023622,3.023622 0 0 0 6.04724,0 z"
         style="fill:none;stroke:#000000"
         id="path167" /><path
         d="m 197.29134,668.40529 a 3.023625,3.023625 0 0 0 -6.04725,0 3.023625,3.023625 0 0 0 6.04725,0 z"
         style="fill:none;stroke:#000000"
         id="path168" /><path
         d="m 146.64569,678.56091 a 3.023622,3.023622 0 0 0 -6.04724,0 3.023622,3.023622 0 0 0 6.04724,0 z"
         style="fill:none;stroke:#000000"
         id="path169" /><path
         d="m 177.01332,679.26346 a 3.023625,3.023625 0 0 0 -6.04725,0 3.023625,3.023625 0 0 0 6.04725,0 z"
         style="fill:none;stroke:#000000"
         id="path170" /><path
         d="m 218.26772,632.07314 a 3.023625,3.023625 0 0 0 -6.04725,0 3.023625,3.023625 0 0 0 6.04725,0 z"
         style="fill:none;stroke:#000000"
         id="path171" /><path
         d="m 239.24409,626.45253 a 3.023622,3.023622 0 0 0 -6.04724,0 3.023622,3.023622 0 0 0 6.04724,0 z"
         style="fill:none;stroke:#000000"
         id="path172" /><path
         d="m 202.91195,647.42891 a 3.023625,3.023625 0 0 0 -6.04725,0 3.023625,3.023625 0 0 0 6.04725,0 z"
         style="fill:none;stroke:#000000"
         id="path173" /><path
         d="m 232.06299,655.96726 a 3.023622,3.023622 0 0 0 -6.04724,0 3.023622,3.023622 0 0 0 6.04724,0 z"
         style="fill:none;stroke:#000000"
         id="path174" /><path
         d="m 260.22047,632.07314 a 3.023625,3.023625 0 0 0 -6.04725,0 3.023625,3.023625 0 0 0 6.04725,0 z"
         style="fill:none;stroke:#000000"
         id="path175" /><path
         d="m 293.81291,623.62205 a 1.92,1.92 0 0 0 -3.84,0 1.92,1.92 0 0 0 3.84,0 z"
         style="fill:none;stroke:#000000"
         id="path176" /><path
         d="m 303.41291,623.62205 a 1.92,1.92 0 0 0 -3.84,0 1.92,1.92 0 0 0 3.84,0 z"
         style="fill:none;stroke:#000000"
         id="path177" /><path
         d="m 275.57624,647.42892 a 3.023622,3.023622 0 0 0 -6.04724,0 3.023622,3.023622 0 0 0 6.04724,0 z"
         style="fill:none;stroke:#000000"
         id="path178" /><path
         d="m 294.6822,651.9685 a 1.92,1.92 0 0 0 -3.84,0 1.92,1.92 0 0 0 3.84,0 z"
         style="fill:none;stroke:#000000"
         id="path179" /><path
         d="m 304.2822,651.9685 a 1.92,1.92 0 0 0 -3.84,0 1.92,1.92 0 0 0 3.84,0 z"
         style="fill:none;stroke:#000000"
         id="path180" /><path
         d="m 251.68213,661.22419 a 3.023622,3.023622 0 0 0 -6.04724,0 3.023622,3.023622 0 0 0 6.04724,0 z"
         style="fill:none;stroke:#000000"
         id="path181" /><path
         d="m 202.91195,689.38167 a 3.023625,3.023625 0 0 0 -6.04725,0 3.023625,3.023625 0 0 0 6.04725,0 z"
         style="fill:none;stroke:#000000"
         id="path182" /><path
         d="m 226.80606,675.58639 a 3.023625,3.023625 0 0 0 -6.04725,0 3.023625,3.023625 0 0 0 6.04725,0 z"
         style="fill:none;stroke:#000000"
         id="path183" /><path
         d="m 246.4252,680.84333 a 3.023625,3.023625 0 0 0 -6.04725,0 3.023625,3.023625 0 0 0 6.04725,0 z"
         style="fill:none;stroke:#000000"
         id="path184" /><path
         d="m 281.19685,668.40529 a 3.023622,3.023622 0 0 0 -6.04724,0 3.023622,3.023622 0 0 0 6.04724,0 z"
         style="fill:none;stroke:#000000"
         id="path185" /><path
         d="m 294.4252,669.69449 a 1.511815,1.511815 0 0 0 -3.02363,0 1.511815,1.511815 0 0 0 3.02363,0 z"
         style="fill:none;stroke:#000000"
         id="path186" /><path
         d="m 304.06299,669.69449 a 1.511811,1.511811 0 0 0 -3.02362,0 1.511811,1.511811 0 0 0 3.02362,0 z"
         style="fill:none;stroke:#000000"
         id="path187" /><path
         d="m 275.57624,689.38167 a 3.023622,3.023622 0 0 0 -6.04724,0 3.023622,3.023622 0 0 0 6.04724,0 z"
         style="fill:none;stroke:#000000"
         id="path188" /><path
         d="m 106.825,698.07037 a 3.0236225,3.0236225 0 0 0 -6.04724,0 3.0236225,3.0236225 0 0 0 6.04724,0 z"
         style="fill:none;stroke:#000000"
         id="path189" /><path
         d="m 125.6319,708.92854 a 3.023622,3.023622 0 0 0 -6.04724,0 3.023622,3.023622 0 0 0 6.04724,0 z"
         style="fill:none;stroke:#000000"
         id="path190" /><path
         d="m 135.68504,723.77953 a 1.511811,1.511811 0 0 0 -3.02362,0 1.511811,1.511811 0 0 0 3.02362,0 z"
         style="fill:none;stroke:#000000"
         id="path191" /><path
         d="m 166.15515,698.07037 a 3.023622,3.023622 0 0 0 -6.04724,0 3.023622,3.023622 0 0 0 6.04724,0 z"
         style="fill:none;stroke:#000000"
         id="path192" /><path
         d="m 175.37008,708.66142 a 1.511811,1.511811 0 0 0 -3.02362,0 1.511811,1.511811 0 0 0 3.02362,0 z"
         style="fill:none;stroke:#000000"
         id="path193" /><path
         d="m 194.26772,708.66142 a 1.511815,1.511815 0 0 0 -3.02363,0 1.511815,1.511815 0 0 0 3.02363,0 z"
         style="fill:none;stroke:#000000"
         id="path194" /><path
         d="m 147.34825,708.92854 a 3.023625,3.023625 0 0 0 -6.04725,0 3.023625,3.023625 0 0 0 6.04725,0 z"
         style="fill:none;stroke:#000000"
         id="path195" /><path
         d="m 160.25197,724.89411 a 1.5118115,1.5118115 0 0 0 -3.02362,0 1.5118115,1.5118115 0 0 0 3.02362,0 z"
         style="fill:none;stroke:#000000"
         id="path196" /><path
         d="m 181.03937,723.77953 a 1.511811,1.511811 0 0 0 -3.02362,0 1.511811,1.511811 0 0 0 3.02362,0 z"
         style="fill:none;stroke:#000000"
         id="path197" /><path
         d="m 90.330709,731.33858 a 1.511811,1.511811 0 0 0 -3.023622,0 1.511811,1.511811 0 0 0 3.023622,0 z"
         style="fill:none;stroke:#000000"
         id="path198" /><path
         d="m 99.779528,731.33858 a 1.511811,1.511811 0 0 0 -3.023622,0 1.511811,1.511811 0 0 0 3.023622,0 z"
         style="fill:none;stroke:#000000"
         id="path199" /><path
         d="m 113.60882,731.33858 a 1.511811,1.511811 0 0 0 -3.02362,0 1.511811,1.511811 0 0 0 3.02362,0 z"
         style="fill:none;stroke:#000000"
         id="path200" /><path
         d="m 123.05764,731.33858 a 1.511811,1.511811 0 0 0 -3.02362,0 1.511811,1.511811 0 0 0 3.02362,0 z"
         style="fill:none;stroke:#000000"
         id="path201" /><path
         d="m 135.68504,742.67716 a 1.511811,1.511811 0 0 0 -3.02362,0 1.511811,1.511811 0 0 0 3.02362,0 z"
         style="fill:none;stroke:#000000"
         id="path202" /><path
         d="m 97.524283,755.90551 a 1.889764,1.889764 0 0 0 -3.779527,0 1.889764,1.889764 0 0 0 3.779527,0 z"
         style="fill:none;stroke:#000000"
         id="path203" /><path
         d="m 107.12428,755.90551 a 1.889764,1.889764 0 0 0 -3.77952,0 1.889764,1.889764 0 0 0 3.77952,0 z"
         style="fill:none;stroke:#000000"
         id="path204" /><path
         d="m 128.35276,755.90551 a 1.889765,1.889765 0 0 0 -3.77953,0 1.889765,1.889765 0 0 0 3.77953,0 z"
         style="fill:none;stroke:#000000"
         id="path205" /><path
         d="m 137.95276,755.90551 a 1.889765,1.889765 0 0 0 -3.77953,0 1.889765,1.889765 0 0 0 3.77953,0 z"
         style="fill:none;stroke:#000000"
         id="path206" /><path
         d="m 160.25197,734.34293 a 1.5118115,1.5118115 0 0 0 -3.02362,0 1.5118115,1.5118115 0 0 0 3.02362,0 z"
         style="fill:none;stroke:#000000"
         id="path207" /><path
         d="m 181.03937,733.22835 a 1.511811,1.511811 0 0 0 -3.02362,0 1.511811,1.511811 0 0 0 3.02362,0 z"
         style="fill:none;stroke:#000000"
         id="path208" /><path
         d="m 150.50079,746.45669 a 1.511811,1.511811 0 0 0 -3.02362,0 1.511811,1.511811 0 0 0 3.02362,0 z"
         style="fill:none;stroke:#000000"
         id="path209" /><path
         d="m 150.19842,759.68504 a 1.511811,1.511811 0 0 0 -3.02362,0 1.511811,1.511811 0 0 0 3.02362,0 z"
         style="fill:none;stroke:#000000"
         id="path210" /><path
         d="m 188.90079,746.45669 a 1.511815,1.511815 0 0 0 -3.02363,0 1.511815,1.511815 0 0 0 3.02363,0 z"
         style="fill:none;stroke:#000000"
         id="path211" /><path
         d="m 188.59842,759.68504 a 1.511811,1.511811 0 0 0 -3.02362,0 1.511811,1.511811 0 0 0 3.02362,0 z"
         style="fill:none;stroke:#000000"
         id="path212" /><path
         d="m 218.26772,704.73744 a 3.023625,3.023625 0 0 0 -6.04725,0 3.023625,3.023625 0 0 0 6.04725,0 z"
         style="fill:none;stroke:#000000"
         id="path213" /><path
         d="m 205.6063,721.88976 a 1.511811,1.511811 0 0 0 -3.02362,0 1.511811,1.511811 0 0 0 3.02362,0 z"
         style="fill:none;stroke:#000000"
         id="path214" /><path
         d="m 218.83465,721.88976 a 1.511815,1.511815 0 0 0 -3.02363,0 1.511815,1.511815 0 0 0 3.02363,0 z"
         style="fill:none;stroke:#000000"
         id="path215" /><path
         d="m 239.24409,710.35805 a 3.023622,3.023622 0 0 0 -6.04724,0 3.023622,3.023622 0 0 0 6.04724,0 z"
         style="fill:none;stroke:#000000"
         id="path216" /><path
         d="m 232.06299,721.88976 a 1.511811,1.511811 0 0 0 -3.02362,0 1.511811,1.511811 0 0 0 3.02362,0 z"
         style="fill:none;stroke:#000000"
         id="path217" /><path
         d="m 260.22047,704.73744 a 3.023625,3.023625 0 0 0 -6.04725,0 3.023625,3.023625 0 0 0 6.04725,0 z"
         style="fill:none;stroke:#000000"
         id="path218" /><path
         d="m 294.4252,698.49449 a 1.511815,1.511815 0 0 0 -3.02363,0 1.511815,1.511815 0 0 0 3.02363,0 z"
         style="fill:none;stroke:#000000"
         id="path219" /><path
         d="m 304.06299,698.49449 a 1.511811,1.511811 0 0 0 -3.02362,0 1.511811,1.511811 0 0 0 3.02362,0 z"
         style="fill:none;stroke:#000000"
         id="path220" /><path
         d="m 275.52756,714.33071 a 1.511811,1.511811 0 0 0 -3.02362,0 1.511811,1.511811 0 0 0 3.02362,0 z"
         style="fill:none;stroke:#000000"
         id="path221" /><path
         d="m 274.35591,725.66929 a 1.511815,1.511815 0 0 0 -3.02363,0 1.511815,1.511815 0 0 0 3.02363,0 z"
         style="fill:none;stroke:#000000"
         id="path222" /><path
         d="m 304.32756,714.33071 a 1.511811,1.511811 0 0 0 -3.02362,0 1.511811,1.511811 0 0 0 3.02362,0 z"
         style="fill:none;stroke:#000000"
         id="path223" /><path
         d="m 303.15591,725.66929 a 1.511815,1.511815 0 0 0 -3.02363,0 1.511815,1.511815 0 0 0 3.02363,0 z"
         style="fill:none;stroke:#000000"
         id="path224" /><path
         d="m 205.6063,740.7874 a 1.511811,1.511811 0 0 0 -3.02362,0 1.511811,1.511811 0 0 0 3.02362,0 z"
         style="fill:none;stroke:#000000"
         id="path225" /><path
         d="m 218.83465,740.7874 a 1.511815,1.511815 0 0 0 -3.02363,0 1.511815,1.511815 0 0 0 3.02363,0 z"
         style="fill:none;stroke:#000000"
         id="path226" /><path
         d="m 232.06299,740.7874 a 1.511811,1.511811 0 0 0 -3.02362,0 1.511811,1.511811 0 0 0 3.02362,0 z"
         style="fill:none;stroke:#000000"
         id="path227" /><path
         d="m 227.7668,755.90551 a 1.889764,1.889764 0 0 0 -3.77952,0 1.889764,1.889764 0 0 0 3.77952,0 z"
         style="fill:none;stroke:#000000"
         id="path228" /><path
         d="m 237.3668,755.90551 a 1.889764,1.889764 0 0 0 -3.77952,0 1.889764,1.889764 0 0 0 3.77952,0 z"
         style="fill:none;stroke:#000000"
         id="path229" /><path
         d="m 246.9668,755.90551 a 1.889764,1.889764 0 0 0 -3.77952,0 1.889764,1.889764 0 0 0 3.77952,0 z"
         style="fill:none;stroke:#000000"
         id="path230" /></g></g></svg>
