M48
; DRILL file {KiCad 9.0.7} date 2026-03-19T12:55:18+0000
; FORMAT={-:-/ absolute / metric / decimal}
; #@! TF.CreationDate,2026-03-19T12:55:18+00:00
; #@! TF.GenerationSoftware,Kicad,Pcbnew,9.0.7
; #@! TF.FileFunction,Plated,1,2,PTH
FMAT,2
METRIC
; #@! TA.AperFunction,Plated,PTH,ViaDrill
T1C0.300
; #@! TA.AperFunction,Plated,PTH,ComponentDrill
T2C0.800
; #@! TA.AperFunction,Plated,PTH,ComponentDrill
T3C1.000
; #@! TA.AperFunction,Plated,PTH,ComponentDrill
T4C1.016
; #@! TA.AperFunction,Plated,PTH,ComponentDrill
T5C1.100
; #@! TA.AperFunction,Plated,PTH,ComponentDrill
T6C1.600
; #@! TA.AperFunction,Plated,PTH,ComponentDrill
T7C2.000
%
G90
G05
T1
X100.56Y-101.953
X126.5Y-80.5
X127.684Y-112.316
X139.469Y-90.416
X154.078Y-101.381
X168.13Y-84.305
T2
X88.0Y-103.5
X89.5Y-83.0
X90.5Y-103.5
X94.159Y-103.5
X94.5Y-83.0
X96.659Y-103.5
X97.42Y-82.5
X97.5Y-86.5
X100.0Y-100.5
X100.0Y-105.5
X102.5Y-86.5
X103.84Y-96.0
X103.92Y-99.5
X105.5Y-86.5
X106.5Y-102.705
X106.5Y-105.205
X107.58Y-82.5
X110.5Y-86.5
X110.5Y-109.5
X111.0Y-82.5
X112.0Y-103.0
X112.0Y-105.5
X114.0Y-96.0
X114.08Y-99.5
X115.5Y-109.5
X118.5Y-101.0
X118.5Y-106.0
X121.16Y-82.5
X122.0Y-101.0
X122.0Y-106.0
X124.96Y-83.64
X125.5Y-101.0
X125.5Y-106.0
X127.5Y-83.64
X130.04Y-83.64
X133.0Y-73.0
X133.0Y-83.16
X133.0Y-87.5
X136.0Y-83.0
X136.561Y-74.675
X136.69Y-105.0
X137.0Y-108.0
X138.0Y-87.5
X138.5Y-83.0
X139.061Y-74.675
X141.2Y-86.205
X141.2Y-93.825
X142.0Y-112.19
X142.0Y-119.81
X142.5Y-72.84
X142.5Y-83.0
X143.74Y-86.205
X143.74Y-93.825
X144.31Y-105.0
X144.55Y-112.19
X144.55Y-119.81
X144.62Y-108.0
X146.0Y-72.92
X146.0Y-83.08
X146.28Y-86.205
X146.28Y-93.825
X148.82Y-86.205
X148.82Y-93.825
X150.0Y-109.92
X150.0Y-120.08
X150.42Y-81.5
X151.135Y-99.0
X151.215Y-102.5
X152.5Y-85.92
X152.5Y-96.08
X156.38Y-86.88
X156.38Y-89.42
X156.38Y-91.96
X156.38Y-94.5
X157.5Y-116.0
X157.5Y-121.0
X158.5Y-125.0
X160.58Y-81.5
X160.705Y-107.0
X160.795Y-110.92
X160.795Y-121.08
X161.0Y-125.0
X161.295Y-99.0
X161.375Y-102.5
X162.84Y-83.0
X163.205Y-107.0
X164.0Y-86.88
X164.0Y-89.42
X164.0Y-91.96
X164.0Y-94.5
X164.0Y-97.5
X164.0Y-102.5
X167.0Y-86.5
X167.0Y-91.5
X170.5Y-90.68
X170.5Y-93.22
X170.5Y-95.76
X170.5Y-98.3
X173.0Y-83.0
X175.48Y-85.35
X177.98Y-85.35
X178.12Y-90.68
X178.12Y-93.22
X178.12Y-95.76
X178.12Y-98.3
X181.67Y-86.2
X181.67Y-90.25
X181.67Y-94.3
X181.67Y-98.35
X191.83Y-86.2
X191.83Y-90.25
X191.83Y-94.3
X191.83Y-98.35
T3
X89.8Y-78.0
X89.803Y-90.5
X89.803Y-97.0
X92.3Y-78.0
X92.343Y-90.5
X92.343Y-97.0
X94.8Y-78.0
X97.725Y-90.5
X97.96Y-97.0
X100.265Y-90.5
X100.5Y-97.0
X121.45Y-78.0
X123.95Y-78.0
X125.46Y-90.5
X125.5Y-96.5
X126.45Y-78.0
X128.0Y-90.5
X128.04Y-96.5
X153.1Y-78.0
X155.6Y-78.0
X158.1Y-78.0
X170.34Y-105.0
X170.34Y-112.5
X172.88Y-105.0
X172.88Y-112.5
X175.42Y-105.0
X175.42Y-112.5
X177.96Y-105.0
X177.96Y-112.5
X180.5Y-105.0
X180.5Y-112.5
X183.04Y-105.0
X183.04Y-112.5
X184.75Y-78.0
X184.75Y-80.5
X185.58Y-105.0
X185.58Y-112.5
X187.25Y-78.0
X187.25Y-80.5
X188.12Y-105.0
X188.12Y-112.5
X189.75Y-78.0
X189.75Y-80.5
T4
X141.73Y-132.0
X141.96Y-124.5
X144.27Y-132.0
X144.5Y-124.5
X149.0Y-126.0
X151.54Y-126.0
T5
X154.0Y-110.19
X154.0Y-117.81
T6
X89.091Y-117.278
X89.091Y-123.024
X91.964Y-112.302
X91.964Y-128.0
X96.94Y-109.429
X96.94Y-130.873
X97.126Y-117.464
X97.126Y-122.838
X102.5Y-117.464
X102.5Y-122.838
X102.686Y-109.429
X102.686Y-130.873
X107.662Y-112.302
X107.662Y-128.0
X110.535Y-117.278
X110.535Y-123.024
X115.9Y-120.151
X117.387Y-114.601
X117.387Y-125.701
X121.45Y-110.538
X121.45Y-129.764
X123.709Y-118.251
X125.1Y-123.442
X127.0Y-109.051
X127.0Y-131.251
X128.9Y-116.86
X130.291Y-122.051
X132.55Y-110.538
X132.55Y-129.764
X136.613Y-114.601
X136.613Y-125.701
X138.1Y-120.151
T7
X104.5Y-78.5
X111.5Y-78.5
X137.5Y-69.0
X142.1Y-69.0
X169.0Y-78.5
X176.0Y-78.5
T5
X87.5Y-70.85G85X87.5Y-70.15
G05
X97.1Y-70.85G85X97.1Y-70.15
G05
X119.15Y-70.85G85X119.15Y-70.15
G05
X128.75Y-70.85G85X128.75Y-70.15
G05
X150.8Y-70.85G85X150.8Y-70.15
G05
X160.4Y-70.85G85X160.4Y-70.15
G05
X182.5Y-70.85G85X182.5Y-70.15
G05
X192.0Y-70.85G85X192.0Y-70.15
G05
T6
X172.85Y-120.5G85X174.25Y-120.5
G05
X172.95Y-125.3G85X174.35Y-125.3
G05
X172.95Y-130.1G85X174.35Y-130.1
G05
X178.1Y-125.3G85X179.5Y-125.3
G05
X178.1Y-130.1G85X179.5Y-130.1
G05
X178.15Y-120.5G85X179.55Y-120.5
G05
X183.25Y-120.5G85X184.65Y-120.5
G05
X183.25Y-125.3G85X184.65Y-125.3
G05
X183.25Y-130.1G85X184.65Y-130.1
G05
M30
