%TF.GenerationSoftware,KiCad,Pcbnew,9.0.7*%
%TF.CreationDate,2026-03-19T12:53:19+00:00*%
%TF.ProjectId,GORAT circuit diagram,474f5241-5420-4636-9972-637569742064,rev?*%
%TF.SameCoordinates,Original*%
%TF.FileFunction,Legend,Top*%
%TF.FilePolarity,Positive*%
%FSLAX46Y46*%
G04 Gerber Fmt 4.6, Leading zero omitted, Abs format (unit mm)*
G04 Created by KiCad (PCBNEW 9.0.7) date 2026-03-19 12:53:19*
%MOMM*%
%LPD*%
G01*
G04 APERTURE LIST*
%ADD10C,0.100000*%
%ADD11C,0.150000*%
%ADD12C,0.120000*%
%ADD13C,0.200000*%
G04 APERTURE END LIST*
D10*
X142000000Y-128500000D02*
X142000000Y-130500000D01*
X143500000Y-130500000D02*
X142000000Y-129500000D01*
X142000000Y-129500000D02*
X143500000Y-128500000D01*
X145000000Y-129500000D02*
X142000000Y-129500000D01*
X143500000Y-128500000D02*
X143500000Y-130500000D01*
X145000000Y-126000000D02*
X145000000Y-128000000D01*
X143500000Y-128000000D02*
X145000000Y-127000000D01*
X143500000Y-126000000D02*
X143500000Y-128000000D01*
X145000000Y-127000000D02*
X143500000Y-126000000D01*
X142000000Y-127000000D02*
X145000000Y-127000000D01*
D11*
X162425124Y-77869819D02*
X162615600Y-77869819D01*
X162615600Y-77869819D02*
X162710838Y-77917438D01*
X162710838Y-77917438D02*
X162806076Y-78012676D01*
X162806076Y-78012676D02*
X162853695Y-78203152D01*
X162853695Y-78203152D02*
X162853695Y-78536485D01*
X162853695Y-78536485D02*
X162806076Y-78726961D01*
X162806076Y-78726961D02*
X162710838Y-78822200D01*
X162710838Y-78822200D02*
X162615600Y-78869819D01*
X162615600Y-78869819D02*
X162425124Y-78869819D01*
X162425124Y-78869819D02*
X162329886Y-78822200D01*
X162329886Y-78822200D02*
X162234648Y-78726961D01*
X162234648Y-78726961D02*
X162187029Y-78536485D01*
X162187029Y-78536485D02*
X162187029Y-78203152D01*
X162187029Y-78203152D02*
X162234648Y-78012676D01*
X162234648Y-78012676D02*
X162329886Y-77917438D01*
X162329886Y-77917438D02*
X162425124Y-77869819D01*
X163710838Y-78203152D02*
X163710838Y-78869819D01*
X163282267Y-78203152D02*
X163282267Y-78726961D01*
X163282267Y-78726961D02*
X163329886Y-78822200D01*
X163329886Y-78822200D02*
X163425124Y-78869819D01*
X163425124Y-78869819D02*
X163567981Y-78869819D01*
X163567981Y-78869819D02*
X163663219Y-78822200D01*
X163663219Y-78822200D02*
X163710838Y-78774580D01*
X164044172Y-78203152D02*
X164425124Y-78203152D01*
X164187029Y-77869819D02*
X164187029Y-78726961D01*
X164187029Y-78726961D02*
X164234648Y-78822200D01*
X164234648Y-78822200D02*
X164329886Y-78869819D01*
X164329886Y-78869819D02*
X164425124Y-78869819D01*
X164758458Y-78203152D02*
X164758458Y-79203152D01*
X164758458Y-78250771D02*
X164853696Y-78203152D01*
X164853696Y-78203152D02*
X165044172Y-78203152D01*
X165044172Y-78203152D02*
X165139410Y-78250771D01*
X165139410Y-78250771D02*
X165187029Y-78298390D01*
X165187029Y-78298390D02*
X165234648Y-78393628D01*
X165234648Y-78393628D02*
X165234648Y-78679342D01*
X165234648Y-78679342D02*
X165187029Y-78774580D01*
X165187029Y-78774580D02*
X165139410Y-78822200D01*
X165139410Y-78822200D02*
X165044172Y-78869819D01*
X165044172Y-78869819D02*
X164853696Y-78869819D01*
X164853696Y-78869819D02*
X164758458Y-78822200D01*
X166091791Y-78203152D02*
X166091791Y-78869819D01*
X165663220Y-78203152D02*
X165663220Y-78726961D01*
X165663220Y-78726961D02*
X165710839Y-78822200D01*
X165710839Y-78822200D02*
X165806077Y-78869819D01*
X165806077Y-78869819D02*
X165948934Y-78869819D01*
X165948934Y-78869819D02*
X166044172Y-78822200D01*
X166044172Y-78822200D02*
X166091791Y-78774580D01*
X166425125Y-78203152D02*
X166806077Y-78203152D01*
X166567982Y-77869819D02*
X166567982Y-78726961D01*
X166567982Y-78726961D02*
X166615601Y-78822200D01*
X166615601Y-78822200D02*
X166710839Y-78869819D01*
X166710839Y-78869819D02*
X166806077Y-78869819D01*
X114027255Y-77869819D02*
X114217731Y-77869819D01*
X114217731Y-77869819D02*
X114312969Y-77917438D01*
X114312969Y-77917438D02*
X114408207Y-78012676D01*
X114408207Y-78012676D02*
X114455826Y-78203152D01*
X114455826Y-78203152D02*
X114455826Y-78536485D01*
X114455826Y-78536485D02*
X114408207Y-78726961D01*
X114408207Y-78726961D02*
X114312969Y-78822200D01*
X114312969Y-78822200D02*
X114217731Y-78869819D01*
X114217731Y-78869819D02*
X114027255Y-78869819D01*
X114027255Y-78869819D02*
X113932017Y-78822200D01*
X113932017Y-78822200D02*
X113836779Y-78726961D01*
X113836779Y-78726961D02*
X113789160Y-78536485D01*
X113789160Y-78536485D02*
X113789160Y-78203152D01*
X113789160Y-78203152D02*
X113836779Y-78012676D01*
X113836779Y-78012676D02*
X113932017Y-77917438D01*
X113932017Y-77917438D02*
X114027255Y-77869819D01*
X115312969Y-78203152D02*
X115312969Y-78869819D01*
X114884398Y-78203152D02*
X114884398Y-78726961D01*
X114884398Y-78726961D02*
X114932017Y-78822200D01*
X114932017Y-78822200D02*
X115027255Y-78869819D01*
X115027255Y-78869819D02*
X115170112Y-78869819D01*
X115170112Y-78869819D02*
X115265350Y-78822200D01*
X115265350Y-78822200D02*
X115312969Y-78774580D01*
X115646303Y-78203152D02*
X116027255Y-78203152D01*
X115789160Y-77869819D02*
X115789160Y-78726961D01*
X115789160Y-78726961D02*
X115836779Y-78822200D01*
X115836779Y-78822200D02*
X115932017Y-78869819D01*
X115932017Y-78869819D02*
X116027255Y-78869819D01*
X116360589Y-78203152D02*
X116360589Y-79203152D01*
X116360589Y-78250771D02*
X116455827Y-78203152D01*
X116455827Y-78203152D02*
X116646303Y-78203152D01*
X116646303Y-78203152D02*
X116741541Y-78250771D01*
X116741541Y-78250771D02*
X116789160Y-78298390D01*
X116789160Y-78298390D02*
X116836779Y-78393628D01*
X116836779Y-78393628D02*
X116836779Y-78679342D01*
X116836779Y-78679342D02*
X116789160Y-78774580D01*
X116789160Y-78774580D02*
X116741541Y-78822200D01*
X116741541Y-78822200D02*
X116646303Y-78869819D01*
X116646303Y-78869819D02*
X116455827Y-78869819D01*
X116455827Y-78869819D02*
X116360589Y-78822200D01*
X117693922Y-78203152D02*
X117693922Y-78869819D01*
X117265351Y-78203152D02*
X117265351Y-78726961D01*
X117265351Y-78726961D02*
X117312970Y-78822200D01*
X117312970Y-78822200D02*
X117408208Y-78869819D01*
X117408208Y-78869819D02*
X117551065Y-78869819D01*
X117551065Y-78869819D02*
X117646303Y-78822200D01*
X117646303Y-78822200D02*
X117693922Y-78774580D01*
X118027256Y-78203152D02*
X118408208Y-78203152D01*
X118170113Y-77869819D02*
X118170113Y-78726961D01*
X118170113Y-78726961D02*
X118217732Y-78822200D01*
X118217732Y-78822200D02*
X118312970Y-78869819D01*
X118312970Y-78869819D02*
X118408208Y-78869819D01*
X100360588Y-77917438D02*
X100265350Y-77869819D01*
X100265350Y-77869819D02*
X100122493Y-77869819D01*
X100122493Y-77869819D02*
X99979636Y-77917438D01*
X99979636Y-77917438D02*
X99884398Y-78012676D01*
X99884398Y-78012676D02*
X99836779Y-78107914D01*
X99836779Y-78107914D02*
X99789160Y-78298390D01*
X99789160Y-78298390D02*
X99789160Y-78441247D01*
X99789160Y-78441247D02*
X99836779Y-78631723D01*
X99836779Y-78631723D02*
X99884398Y-78726961D01*
X99884398Y-78726961D02*
X99979636Y-78822200D01*
X99979636Y-78822200D02*
X100122493Y-78869819D01*
X100122493Y-78869819D02*
X100217731Y-78869819D01*
X100217731Y-78869819D02*
X100360588Y-78822200D01*
X100360588Y-78822200D02*
X100408207Y-78774580D01*
X100408207Y-78774580D02*
X100408207Y-78441247D01*
X100408207Y-78441247D02*
X100217731Y-78441247D01*
X100836779Y-78869819D02*
X100836779Y-77869819D01*
X100836779Y-77869819D02*
X101408207Y-78869819D01*
X101408207Y-78869819D02*
X101408207Y-77869819D01*
X101884398Y-78869819D02*
X101884398Y-77869819D01*
X101884398Y-77869819D02*
X102122493Y-77869819D01*
X102122493Y-77869819D02*
X102265350Y-77917438D01*
X102265350Y-77917438D02*
X102360588Y-78012676D01*
X102360588Y-78012676D02*
X102408207Y-78107914D01*
X102408207Y-78107914D02*
X102455826Y-78298390D01*
X102455826Y-78298390D02*
X102455826Y-78441247D01*
X102455826Y-78441247D02*
X102408207Y-78631723D01*
X102408207Y-78631723D02*
X102360588Y-78726961D01*
X102360588Y-78726961D02*
X102265350Y-78822200D01*
X102265350Y-78822200D02*
X102122493Y-78869819D01*
X102122493Y-78869819D02*
X101884398Y-78869819D01*
X132836779Y-69988866D02*
X133598684Y-69988866D01*
X133217731Y-70369819D02*
X133217731Y-69607914D01*
X134122493Y-70369819D02*
X134312969Y-70369819D01*
X134312969Y-70369819D02*
X134408207Y-70322200D01*
X134408207Y-70322200D02*
X134455826Y-70274580D01*
X134455826Y-70274580D02*
X134551064Y-70131723D01*
X134551064Y-70131723D02*
X134598683Y-69941247D01*
X134598683Y-69941247D02*
X134598683Y-69560295D01*
X134598683Y-69560295D02*
X134551064Y-69465057D01*
X134551064Y-69465057D02*
X134503445Y-69417438D01*
X134503445Y-69417438D02*
X134408207Y-69369819D01*
X134408207Y-69369819D02*
X134217731Y-69369819D01*
X134217731Y-69369819D02*
X134122493Y-69417438D01*
X134122493Y-69417438D02*
X134074874Y-69465057D01*
X134074874Y-69465057D02*
X134027255Y-69560295D01*
X134027255Y-69560295D02*
X134027255Y-69798390D01*
X134027255Y-69798390D02*
X134074874Y-69893628D01*
X134074874Y-69893628D02*
X134122493Y-69941247D01*
X134122493Y-69941247D02*
X134217731Y-69988866D01*
X134217731Y-69988866D02*
X134408207Y-69988866D01*
X134408207Y-69988866D02*
X134503445Y-69941247D01*
X134503445Y-69941247D02*
X134551064Y-69893628D01*
X134551064Y-69893628D02*
X134598683Y-69798390D01*
X134884398Y-69369819D02*
X135217731Y-70369819D01*
X135217731Y-70369819D02*
X135551064Y-69369819D01*
X144860588Y-68417438D02*
X144765350Y-68369819D01*
X144765350Y-68369819D02*
X144622493Y-68369819D01*
X144622493Y-68369819D02*
X144479636Y-68417438D01*
X144479636Y-68417438D02*
X144384398Y-68512676D01*
X144384398Y-68512676D02*
X144336779Y-68607914D01*
X144336779Y-68607914D02*
X144289160Y-68798390D01*
X144289160Y-68798390D02*
X144289160Y-68941247D01*
X144289160Y-68941247D02*
X144336779Y-69131723D01*
X144336779Y-69131723D02*
X144384398Y-69226961D01*
X144384398Y-69226961D02*
X144479636Y-69322200D01*
X144479636Y-69322200D02*
X144622493Y-69369819D01*
X144622493Y-69369819D02*
X144717731Y-69369819D01*
X144717731Y-69369819D02*
X144860588Y-69322200D01*
X144860588Y-69322200D02*
X144908207Y-69274580D01*
X144908207Y-69274580D02*
X144908207Y-68941247D01*
X144908207Y-68941247D02*
X144717731Y-68941247D01*
X145336779Y-69369819D02*
X145336779Y-68369819D01*
X145336779Y-68369819D02*
X145908207Y-69369819D01*
X145908207Y-69369819D02*
X145908207Y-68369819D01*
X146384398Y-69369819D02*
X146384398Y-68369819D01*
X146384398Y-68369819D02*
X146622493Y-68369819D01*
X146622493Y-68369819D02*
X146765350Y-68417438D01*
X146765350Y-68417438D02*
X146860588Y-68512676D01*
X146860588Y-68512676D02*
X146908207Y-68607914D01*
X146908207Y-68607914D02*
X146955826Y-68798390D01*
X146955826Y-68798390D02*
X146955826Y-68941247D01*
X146955826Y-68941247D02*
X146908207Y-69131723D01*
X146908207Y-69131723D02*
X146860588Y-69226961D01*
X146860588Y-69226961D02*
X146765350Y-69322200D01*
X146765350Y-69322200D02*
X146622493Y-69369819D01*
X146622493Y-69369819D02*
X146384398Y-69369819D01*
X178615601Y-77917438D02*
X178520363Y-77869819D01*
X178520363Y-77869819D02*
X178377506Y-77869819D01*
X178377506Y-77869819D02*
X178234649Y-77917438D01*
X178234649Y-77917438D02*
X178139411Y-78012676D01*
X178139411Y-78012676D02*
X178091792Y-78107914D01*
X178091792Y-78107914D02*
X178044173Y-78298390D01*
X178044173Y-78298390D02*
X178044173Y-78441247D01*
X178044173Y-78441247D02*
X178091792Y-78631723D01*
X178091792Y-78631723D02*
X178139411Y-78726961D01*
X178139411Y-78726961D02*
X178234649Y-78822200D01*
X178234649Y-78822200D02*
X178377506Y-78869819D01*
X178377506Y-78869819D02*
X178472744Y-78869819D01*
X178472744Y-78869819D02*
X178615601Y-78822200D01*
X178615601Y-78822200D02*
X178663220Y-78774580D01*
X178663220Y-78774580D02*
X178663220Y-78441247D01*
X178663220Y-78441247D02*
X178472744Y-78441247D01*
X179091792Y-78869819D02*
X179091792Y-77869819D01*
X179091792Y-77869819D02*
X179663220Y-78869819D01*
X179663220Y-78869819D02*
X179663220Y-77869819D01*
X180139411Y-78869819D02*
X180139411Y-77869819D01*
X180139411Y-77869819D02*
X180377506Y-77869819D01*
X180377506Y-77869819D02*
X180520363Y-77917438D01*
X180520363Y-77917438D02*
X180615601Y-78012676D01*
X180615601Y-78012676D02*
X180663220Y-78107914D01*
X180663220Y-78107914D02*
X180710839Y-78298390D01*
X180710839Y-78298390D02*
X180710839Y-78441247D01*
X180710839Y-78441247D02*
X180663220Y-78631723D01*
X180663220Y-78631723D02*
X180615601Y-78726961D01*
X180615601Y-78726961D02*
X180520363Y-78822200D01*
X180520363Y-78822200D02*
X180377506Y-78869819D01*
X180377506Y-78869819D02*
X180139411Y-78869819D01*
X118666667Y-122907200D02*
X118809524Y-122954819D01*
X118809524Y-122954819D02*
X119047619Y-122954819D01*
X119047619Y-122954819D02*
X119142857Y-122907200D01*
X119142857Y-122907200D02*
X119190476Y-122859580D01*
X119190476Y-122859580D02*
X119238095Y-122764342D01*
X119238095Y-122764342D02*
X119238095Y-122669104D01*
X119238095Y-122669104D02*
X119190476Y-122573866D01*
X119190476Y-122573866D02*
X119142857Y-122526247D01*
X119142857Y-122526247D02*
X119047619Y-122478628D01*
X119047619Y-122478628D02*
X118857143Y-122431009D01*
X118857143Y-122431009D02*
X118761905Y-122383390D01*
X118761905Y-122383390D02*
X118714286Y-122335771D01*
X118714286Y-122335771D02*
X118666667Y-122240533D01*
X118666667Y-122240533D02*
X118666667Y-122145295D01*
X118666667Y-122145295D02*
X118714286Y-122050057D01*
X118714286Y-122050057D02*
X118761905Y-122002438D01*
X118761905Y-122002438D02*
X118857143Y-121954819D01*
X118857143Y-121954819D02*
X119095238Y-121954819D01*
X119095238Y-121954819D02*
X119238095Y-122002438D01*
X119571429Y-121954819D02*
X119809524Y-122954819D01*
X119809524Y-122954819D02*
X120000000Y-122240533D01*
X120000000Y-122240533D02*
X120190476Y-122954819D01*
X120190476Y-122954819D02*
X120428572Y-121954819D01*
X120952381Y-122383390D02*
X120857143Y-122335771D01*
X120857143Y-122335771D02*
X120809524Y-122288152D01*
X120809524Y-122288152D02*
X120761905Y-122192914D01*
X120761905Y-122192914D02*
X120761905Y-122145295D01*
X120761905Y-122145295D02*
X120809524Y-122050057D01*
X120809524Y-122050057D02*
X120857143Y-122002438D01*
X120857143Y-122002438D02*
X120952381Y-121954819D01*
X120952381Y-121954819D02*
X121142857Y-121954819D01*
X121142857Y-121954819D02*
X121238095Y-122002438D01*
X121238095Y-122002438D02*
X121285714Y-122050057D01*
X121285714Y-122050057D02*
X121333333Y-122145295D01*
X121333333Y-122145295D02*
X121333333Y-122192914D01*
X121333333Y-122192914D02*
X121285714Y-122288152D01*
X121285714Y-122288152D02*
X121238095Y-122335771D01*
X121238095Y-122335771D02*
X121142857Y-122383390D01*
X121142857Y-122383390D02*
X120952381Y-122383390D01*
X120952381Y-122383390D02*
X120857143Y-122431009D01*
X120857143Y-122431009D02*
X120809524Y-122478628D01*
X120809524Y-122478628D02*
X120761905Y-122573866D01*
X120761905Y-122573866D02*
X120761905Y-122764342D01*
X120761905Y-122764342D02*
X120809524Y-122859580D01*
X120809524Y-122859580D02*
X120857143Y-122907200D01*
X120857143Y-122907200D02*
X120952381Y-122954819D01*
X120952381Y-122954819D02*
X121142857Y-122954819D01*
X121142857Y-122954819D02*
X121238095Y-122907200D01*
X121238095Y-122907200D02*
X121285714Y-122859580D01*
X121285714Y-122859580D02*
X121333333Y-122764342D01*
X121333333Y-122764342D02*
X121333333Y-122573866D01*
X121333333Y-122573866D02*
X121285714Y-122478628D01*
X121285714Y-122478628D02*
X121238095Y-122431009D01*
X121238095Y-122431009D02*
X121142857Y-122383390D01*
X135333333Y-87859580D02*
X135285714Y-87907200D01*
X135285714Y-87907200D02*
X135142857Y-87954819D01*
X135142857Y-87954819D02*
X135047619Y-87954819D01*
X135047619Y-87954819D02*
X134904762Y-87907200D01*
X134904762Y-87907200D02*
X134809524Y-87811961D01*
X134809524Y-87811961D02*
X134761905Y-87716723D01*
X134761905Y-87716723D02*
X134714286Y-87526247D01*
X134714286Y-87526247D02*
X134714286Y-87383390D01*
X134714286Y-87383390D02*
X134761905Y-87192914D01*
X134761905Y-87192914D02*
X134809524Y-87097676D01*
X134809524Y-87097676D02*
X134904762Y-87002438D01*
X134904762Y-87002438D02*
X135047619Y-86954819D01*
X135047619Y-86954819D02*
X135142857Y-86954819D01*
X135142857Y-86954819D02*
X135285714Y-87002438D01*
X135285714Y-87002438D02*
X135333333Y-87050057D01*
X135714286Y-87050057D02*
X135761905Y-87002438D01*
X135761905Y-87002438D02*
X135857143Y-86954819D01*
X135857143Y-86954819D02*
X136095238Y-86954819D01*
X136095238Y-86954819D02*
X136190476Y-87002438D01*
X136190476Y-87002438D02*
X136238095Y-87050057D01*
X136238095Y-87050057D02*
X136285714Y-87145295D01*
X136285714Y-87145295D02*
X136285714Y-87240533D01*
X136285714Y-87240533D02*
X136238095Y-87383390D01*
X136238095Y-87383390D02*
X135666667Y-87954819D01*
X135666667Y-87954819D02*
X136285714Y-87954819D01*
X185857142Y-86454819D02*
X185523809Y-85978628D01*
X185285714Y-86454819D02*
X185285714Y-85454819D01*
X185285714Y-85454819D02*
X185666666Y-85454819D01*
X185666666Y-85454819D02*
X185761904Y-85502438D01*
X185761904Y-85502438D02*
X185809523Y-85550057D01*
X185809523Y-85550057D02*
X185857142Y-85645295D01*
X185857142Y-85645295D02*
X185857142Y-85788152D01*
X185857142Y-85788152D02*
X185809523Y-85883390D01*
X185809523Y-85883390D02*
X185761904Y-85931009D01*
X185761904Y-85931009D02*
X185666666Y-85978628D01*
X185666666Y-85978628D02*
X185285714Y-85978628D01*
X186809523Y-86454819D02*
X186238095Y-86454819D01*
X186523809Y-86454819D02*
X186523809Y-85454819D01*
X186523809Y-85454819D02*
X186428571Y-85597676D01*
X186428571Y-85597676D02*
X186333333Y-85692914D01*
X186333333Y-85692914D02*
X186238095Y-85740533D01*
X187380952Y-85883390D02*
X187285714Y-85835771D01*
X187285714Y-85835771D02*
X187238095Y-85788152D01*
X187238095Y-85788152D02*
X187190476Y-85692914D01*
X187190476Y-85692914D02*
X187190476Y-85645295D01*
X187190476Y-85645295D02*
X187238095Y-85550057D01*
X187238095Y-85550057D02*
X187285714Y-85502438D01*
X187285714Y-85502438D02*
X187380952Y-85454819D01*
X187380952Y-85454819D02*
X187571428Y-85454819D01*
X187571428Y-85454819D02*
X187666666Y-85502438D01*
X187666666Y-85502438D02*
X187714285Y-85550057D01*
X187714285Y-85550057D02*
X187761904Y-85645295D01*
X187761904Y-85645295D02*
X187761904Y-85692914D01*
X187761904Y-85692914D02*
X187714285Y-85788152D01*
X187714285Y-85788152D02*
X187666666Y-85835771D01*
X187666666Y-85835771D02*
X187571428Y-85883390D01*
X187571428Y-85883390D02*
X187380952Y-85883390D01*
X187380952Y-85883390D02*
X187285714Y-85931009D01*
X187285714Y-85931009D02*
X187238095Y-85978628D01*
X187238095Y-85978628D02*
X187190476Y-86073866D01*
X187190476Y-86073866D02*
X187190476Y-86264342D01*
X187190476Y-86264342D02*
X187238095Y-86359580D01*
X187238095Y-86359580D02*
X187285714Y-86407200D01*
X187285714Y-86407200D02*
X187380952Y-86454819D01*
X187380952Y-86454819D02*
X187571428Y-86454819D01*
X187571428Y-86454819D02*
X187666666Y-86407200D01*
X187666666Y-86407200D02*
X187714285Y-86359580D01*
X187714285Y-86359580D02*
X187761904Y-86264342D01*
X187761904Y-86264342D02*
X187761904Y-86073866D01*
X187761904Y-86073866D02*
X187714285Y-85978628D01*
X187714285Y-85978628D02*
X187666666Y-85931009D01*
X187666666Y-85931009D02*
X187571428Y-85883390D01*
X188454819Y-115833333D02*
X189169104Y-115833333D01*
X189169104Y-115833333D02*
X189311961Y-115880952D01*
X189311961Y-115880952D02*
X189407200Y-115976190D01*
X189407200Y-115976190D02*
X189454819Y-116119047D01*
X189454819Y-116119047D02*
X189454819Y-116214285D01*
X188788152Y-114928571D02*
X189454819Y-114928571D01*
X188407200Y-115166666D02*
X189121485Y-115404761D01*
X189121485Y-115404761D02*
X189121485Y-114785714D01*
X141954819Y-111238094D02*
X140954819Y-111238094D01*
X140954819Y-111238094D02*
X140954819Y-110999999D01*
X140954819Y-110999999D02*
X141002438Y-110857142D01*
X141002438Y-110857142D02*
X141097676Y-110761904D01*
X141097676Y-110761904D02*
X141192914Y-110714285D01*
X141192914Y-110714285D02*
X141383390Y-110666666D01*
X141383390Y-110666666D02*
X141526247Y-110666666D01*
X141526247Y-110666666D02*
X141716723Y-110714285D01*
X141716723Y-110714285D02*
X141811961Y-110761904D01*
X141811961Y-110761904D02*
X141907200Y-110857142D01*
X141907200Y-110857142D02*
X141954819Y-110999999D01*
X141954819Y-110999999D02*
X141954819Y-111238094D01*
X141383390Y-110095237D02*
X141335771Y-110190475D01*
X141335771Y-110190475D02*
X141288152Y-110238094D01*
X141288152Y-110238094D02*
X141192914Y-110285713D01*
X141192914Y-110285713D02*
X141145295Y-110285713D01*
X141145295Y-110285713D02*
X141050057Y-110238094D01*
X141050057Y-110238094D02*
X141002438Y-110190475D01*
X141002438Y-110190475D02*
X140954819Y-110095237D01*
X140954819Y-110095237D02*
X140954819Y-109904761D01*
X140954819Y-109904761D02*
X141002438Y-109809523D01*
X141002438Y-109809523D02*
X141050057Y-109761904D01*
X141050057Y-109761904D02*
X141145295Y-109714285D01*
X141145295Y-109714285D02*
X141192914Y-109714285D01*
X141192914Y-109714285D02*
X141288152Y-109761904D01*
X141288152Y-109761904D02*
X141335771Y-109809523D01*
X141335771Y-109809523D02*
X141383390Y-109904761D01*
X141383390Y-109904761D02*
X141383390Y-110095237D01*
X141383390Y-110095237D02*
X141431009Y-110190475D01*
X141431009Y-110190475D02*
X141478628Y-110238094D01*
X141478628Y-110238094D02*
X141573866Y-110285713D01*
X141573866Y-110285713D02*
X141764342Y-110285713D01*
X141764342Y-110285713D02*
X141859580Y-110238094D01*
X141859580Y-110238094D02*
X141907200Y-110190475D01*
X141907200Y-110190475D02*
X141954819Y-110095237D01*
X141954819Y-110095237D02*
X141954819Y-109904761D01*
X141954819Y-109904761D02*
X141907200Y-109809523D01*
X141907200Y-109809523D02*
X141859580Y-109761904D01*
X141859580Y-109761904D02*
X141764342Y-109714285D01*
X141764342Y-109714285D02*
X141573866Y-109714285D01*
X141573866Y-109714285D02*
X141478628Y-109761904D01*
X141478628Y-109761904D02*
X141431009Y-109809523D01*
X141431009Y-109809523D02*
X141383390Y-109904761D01*
X143454819Y-110761904D02*
X142454819Y-110761904D01*
X143454819Y-110190476D02*
X142883390Y-110619047D01*
X142454819Y-110190476D02*
X143026247Y-110761904D01*
X101857142Y-82954819D02*
X101523809Y-82478628D01*
X101285714Y-82954819D02*
X101285714Y-81954819D01*
X101285714Y-81954819D02*
X101666666Y-81954819D01*
X101666666Y-81954819D02*
X101761904Y-82002438D01*
X101761904Y-82002438D02*
X101809523Y-82050057D01*
X101809523Y-82050057D02*
X101857142Y-82145295D01*
X101857142Y-82145295D02*
X101857142Y-82288152D01*
X101857142Y-82288152D02*
X101809523Y-82383390D01*
X101809523Y-82383390D02*
X101761904Y-82431009D01*
X101761904Y-82431009D02*
X101666666Y-82478628D01*
X101666666Y-82478628D02*
X101285714Y-82478628D01*
X102809523Y-82954819D02*
X102238095Y-82954819D01*
X102523809Y-82954819D02*
X102523809Y-81954819D01*
X102523809Y-81954819D02*
X102428571Y-82097676D01*
X102428571Y-82097676D02*
X102333333Y-82192914D01*
X102333333Y-82192914D02*
X102238095Y-82240533D01*
X103666666Y-82288152D02*
X103666666Y-82954819D01*
X103428571Y-81907200D02*
X103190476Y-82621485D01*
X103190476Y-82621485D02*
X103809523Y-82621485D01*
X178857142Y-82859580D02*
X178809523Y-82907200D01*
X178809523Y-82907200D02*
X178666666Y-82954819D01*
X178666666Y-82954819D02*
X178571428Y-82954819D01*
X178571428Y-82954819D02*
X178428571Y-82907200D01*
X178428571Y-82907200D02*
X178333333Y-82811961D01*
X178333333Y-82811961D02*
X178285714Y-82716723D01*
X178285714Y-82716723D02*
X178238095Y-82526247D01*
X178238095Y-82526247D02*
X178238095Y-82383390D01*
X178238095Y-82383390D02*
X178285714Y-82192914D01*
X178285714Y-82192914D02*
X178333333Y-82097676D01*
X178333333Y-82097676D02*
X178428571Y-82002438D01*
X178428571Y-82002438D02*
X178571428Y-81954819D01*
X178571428Y-81954819D02*
X178666666Y-81954819D01*
X178666666Y-81954819D02*
X178809523Y-82002438D01*
X178809523Y-82002438D02*
X178857142Y-82050057D01*
X179809523Y-82954819D02*
X179238095Y-82954819D01*
X179523809Y-82954819D02*
X179523809Y-81954819D01*
X179523809Y-81954819D02*
X179428571Y-82097676D01*
X179428571Y-82097676D02*
X179333333Y-82192914D01*
X179333333Y-82192914D02*
X179238095Y-82240533D01*
X180285714Y-82954819D02*
X180476190Y-82954819D01*
X180476190Y-82954819D02*
X180571428Y-82907200D01*
X180571428Y-82907200D02*
X180619047Y-82859580D01*
X180619047Y-82859580D02*
X180714285Y-82716723D01*
X180714285Y-82716723D02*
X180761904Y-82526247D01*
X180761904Y-82526247D02*
X180761904Y-82145295D01*
X180761904Y-82145295D02*
X180714285Y-82050057D01*
X180714285Y-82050057D02*
X180666666Y-82002438D01*
X180666666Y-82002438D02*
X180571428Y-81954819D01*
X180571428Y-81954819D02*
X180380952Y-81954819D01*
X180380952Y-81954819D02*
X180285714Y-82002438D01*
X180285714Y-82002438D02*
X180238095Y-82050057D01*
X180238095Y-82050057D02*
X180190476Y-82145295D01*
X180190476Y-82145295D02*
X180190476Y-82383390D01*
X180190476Y-82383390D02*
X180238095Y-82478628D01*
X180238095Y-82478628D02*
X180285714Y-82526247D01*
X180285714Y-82526247D02*
X180380952Y-82573866D01*
X180380952Y-82573866D02*
X180571428Y-82573866D01*
X180571428Y-82573866D02*
X180666666Y-82526247D01*
X180666666Y-82526247D02*
X180714285Y-82478628D01*
X180714285Y-82478628D02*
X180761904Y-82383390D01*
X139333333Y-80359580D02*
X139285714Y-80407200D01*
X139285714Y-80407200D02*
X139142857Y-80454819D01*
X139142857Y-80454819D02*
X139047619Y-80454819D01*
X139047619Y-80454819D02*
X138904762Y-80407200D01*
X138904762Y-80407200D02*
X138809524Y-80311961D01*
X138809524Y-80311961D02*
X138761905Y-80216723D01*
X138761905Y-80216723D02*
X138714286Y-80026247D01*
X138714286Y-80026247D02*
X138714286Y-79883390D01*
X138714286Y-79883390D02*
X138761905Y-79692914D01*
X138761905Y-79692914D02*
X138809524Y-79597676D01*
X138809524Y-79597676D02*
X138904762Y-79502438D01*
X138904762Y-79502438D02*
X139047619Y-79454819D01*
X139047619Y-79454819D02*
X139142857Y-79454819D01*
X139142857Y-79454819D02*
X139285714Y-79502438D01*
X139285714Y-79502438D02*
X139333333Y-79550057D01*
X139666667Y-79454819D02*
X140333333Y-79454819D01*
X140333333Y-79454819D02*
X139904762Y-80454819D01*
X142954819Y-78086666D02*
X142478628Y-78419999D01*
X142954819Y-78658094D02*
X141954819Y-78658094D01*
X141954819Y-78658094D02*
X141954819Y-78277142D01*
X141954819Y-78277142D02*
X142002438Y-78181904D01*
X142002438Y-78181904D02*
X142050057Y-78134285D01*
X142050057Y-78134285D02*
X142145295Y-78086666D01*
X142145295Y-78086666D02*
X142288152Y-78086666D01*
X142288152Y-78086666D02*
X142383390Y-78134285D01*
X142383390Y-78134285D02*
X142431009Y-78181904D01*
X142431009Y-78181904D02*
X142478628Y-78277142D01*
X142478628Y-78277142D02*
X142478628Y-78658094D01*
X141954819Y-77229523D02*
X141954819Y-77419999D01*
X141954819Y-77419999D02*
X142002438Y-77515237D01*
X142002438Y-77515237D02*
X142050057Y-77562856D01*
X142050057Y-77562856D02*
X142192914Y-77658094D01*
X142192914Y-77658094D02*
X142383390Y-77705713D01*
X142383390Y-77705713D02*
X142764342Y-77705713D01*
X142764342Y-77705713D02*
X142859580Y-77658094D01*
X142859580Y-77658094D02*
X142907200Y-77610475D01*
X142907200Y-77610475D02*
X142954819Y-77515237D01*
X142954819Y-77515237D02*
X142954819Y-77324761D01*
X142954819Y-77324761D02*
X142907200Y-77229523D01*
X142907200Y-77229523D02*
X142859580Y-77181904D01*
X142859580Y-77181904D02*
X142764342Y-77134285D01*
X142764342Y-77134285D02*
X142526247Y-77134285D01*
X142526247Y-77134285D02*
X142431009Y-77181904D01*
X142431009Y-77181904D02*
X142383390Y-77229523D01*
X142383390Y-77229523D02*
X142335771Y-77324761D01*
X142335771Y-77324761D02*
X142335771Y-77515237D01*
X142335771Y-77515237D02*
X142383390Y-77610475D01*
X142383390Y-77610475D02*
X142431009Y-77658094D01*
X142431009Y-77658094D02*
X142526247Y-77705713D01*
X145761905Y-104954819D02*
X145761905Y-103954819D01*
X145761905Y-103954819D02*
X146000000Y-103954819D01*
X146000000Y-103954819D02*
X146142857Y-104002438D01*
X146142857Y-104002438D02*
X146238095Y-104097676D01*
X146238095Y-104097676D02*
X146285714Y-104192914D01*
X146285714Y-104192914D02*
X146333333Y-104383390D01*
X146333333Y-104383390D02*
X146333333Y-104526247D01*
X146333333Y-104526247D02*
X146285714Y-104716723D01*
X146285714Y-104716723D02*
X146238095Y-104811961D01*
X146238095Y-104811961D02*
X146142857Y-104907200D01*
X146142857Y-104907200D02*
X146000000Y-104954819D01*
X146000000Y-104954819D02*
X145761905Y-104954819D01*
X146714286Y-104050057D02*
X146761905Y-104002438D01*
X146761905Y-104002438D02*
X146857143Y-103954819D01*
X146857143Y-103954819D02*
X147095238Y-103954819D01*
X147095238Y-103954819D02*
X147190476Y-104002438D01*
X147190476Y-104002438D02*
X147238095Y-104050057D01*
X147238095Y-104050057D02*
X147285714Y-104145295D01*
X147285714Y-104145295D02*
X147285714Y-104240533D01*
X147285714Y-104240533D02*
X147238095Y-104383390D01*
X147238095Y-104383390D02*
X146666667Y-104954819D01*
X146666667Y-104954819D02*
X147285714Y-104954819D01*
X145738095Y-106454819D02*
X145738095Y-105454819D01*
X146309523Y-106454819D02*
X145880952Y-105883390D01*
X146309523Y-105454819D02*
X145738095Y-106026247D01*
X86878119Y-97333333D02*
X87592404Y-97333333D01*
X87592404Y-97333333D02*
X87735261Y-97380952D01*
X87735261Y-97380952D02*
X87830500Y-97476190D01*
X87830500Y-97476190D02*
X87878119Y-97619047D01*
X87878119Y-97619047D02*
X87878119Y-97714285D01*
X86878119Y-96380952D02*
X86878119Y-96857142D01*
X86878119Y-96857142D02*
X87354309Y-96904761D01*
X87354309Y-96904761D02*
X87306690Y-96857142D01*
X87306690Y-96857142D02*
X87259071Y-96761904D01*
X87259071Y-96761904D02*
X87259071Y-96523809D01*
X87259071Y-96523809D02*
X87306690Y-96428571D01*
X87306690Y-96428571D02*
X87354309Y-96380952D01*
X87354309Y-96380952D02*
X87449547Y-96333333D01*
X87449547Y-96333333D02*
X87687642Y-96333333D01*
X87687642Y-96333333D02*
X87782880Y-96380952D01*
X87782880Y-96380952D02*
X87830500Y-96428571D01*
X87830500Y-96428571D02*
X87878119Y-96523809D01*
X87878119Y-96523809D02*
X87878119Y-96761904D01*
X87878119Y-96761904D02*
X87830500Y-96857142D01*
X87830500Y-96857142D02*
X87782880Y-96904761D01*
X122359580Y-104142857D02*
X122407200Y-104190476D01*
X122407200Y-104190476D02*
X122454819Y-104333333D01*
X122454819Y-104333333D02*
X122454819Y-104428571D01*
X122454819Y-104428571D02*
X122407200Y-104571428D01*
X122407200Y-104571428D02*
X122311961Y-104666666D01*
X122311961Y-104666666D02*
X122216723Y-104714285D01*
X122216723Y-104714285D02*
X122026247Y-104761904D01*
X122026247Y-104761904D02*
X121883390Y-104761904D01*
X121883390Y-104761904D02*
X121692914Y-104714285D01*
X121692914Y-104714285D02*
X121597676Y-104666666D01*
X121597676Y-104666666D02*
X121502438Y-104571428D01*
X121502438Y-104571428D02*
X121454819Y-104428571D01*
X121454819Y-104428571D02*
X121454819Y-104333333D01*
X121454819Y-104333333D02*
X121502438Y-104190476D01*
X121502438Y-104190476D02*
X121550057Y-104142857D01*
X121550057Y-103761904D02*
X121502438Y-103714285D01*
X121502438Y-103714285D02*
X121454819Y-103619047D01*
X121454819Y-103619047D02*
X121454819Y-103380952D01*
X121454819Y-103380952D02*
X121502438Y-103285714D01*
X121502438Y-103285714D02*
X121550057Y-103238095D01*
X121550057Y-103238095D02*
X121645295Y-103190476D01*
X121645295Y-103190476D02*
X121740533Y-103190476D01*
X121740533Y-103190476D02*
X121883390Y-103238095D01*
X121883390Y-103238095D02*
X122454819Y-103809523D01*
X122454819Y-103809523D02*
X122454819Y-103190476D01*
X121550057Y-102809523D02*
X121502438Y-102761904D01*
X121502438Y-102761904D02*
X121454819Y-102666666D01*
X121454819Y-102666666D02*
X121454819Y-102428571D01*
X121454819Y-102428571D02*
X121502438Y-102333333D01*
X121502438Y-102333333D02*
X121550057Y-102285714D01*
X121550057Y-102285714D02*
X121645295Y-102238095D01*
X121645295Y-102238095D02*
X121740533Y-102238095D01*
X121740533Y-102238095D02*
X121883390Y-102285714D01*
X121883390Y-102285714D02*
X122454819Y-102857142D01*
X122454819Y-102857142D02*
X122454819Y-102238095D01*
X112357142Y-109859580D02*
X112309523Y-109907200D01*
X112309523Y-109907200D02*
X112166666Y-109954819D01*
X112166666Y-109954819D02*
X112071428Y-109954819D01*
X112071428Y-109954819D02*
X111928571Y-109907200D01*
X111928571Y-109907200D02*
X111833333Y-109811961D01*
X111833333Y-109811961D02*
X111785714Y-109716723D01*
X111785714Y-109716723D02*
X111738095Y-109526247D01*
X111738095Y-109526247D02*
X111738095Y-109383390D01*
X111738095Y-109383390D02*
X111785714Y-109192914D01*
X111785714Y-109192914D02*
X111833333Y-109097676D01*
X111833333Y-109097676D02*
X111928571Y-109002438D01*
X111928571Y-109002438D02*
X112071428Y-108954819D01*
X112071428Y-108954819D02*
X112166666Y-108954819D01*
X112166666Y-108954819D02*
X112309523Y-109002438D01*
X112309523Y-109002438D02*
X112357142Y-109050057D01*
X112738095Y-109050057D02*
X112785714Y-109002438D01*
X112785714Y-109002438D02*
X112880952Y-108954819D01*
X112880952Y-108954819D02*
X113119047Y-108954819D01*
X113119047Y-108954819D02*
X113214285Y-109002438D01*
X113214285Y-109002438D02*
X113261904Y-109050057D01*
X113261904Y-109050057D02*
X113309523Y-109145295D01*
X113309523Y-109145295D02*
X113309523Y-109240533D01*
X113309523Y-109240533D02*
X113261904Y-109383390D01*
X113261904Y-109383390D02*
X112690476Y-109954819D01*
X112690476Y-109954819D02*
X113309523Y-109954819D01*
X114261904Y-109954819D02*
X113690476Y-109954819D01*
X113976190Y-109954819D02*
X113976190Y-108954819D01*
X113976190Y-108954819D02*
X113880952Y-109097676D01*
X113880952Y-109097676D02*
X113785714Y-109192914D01*
X113785714Y-109192914D02*
X113690476Y-109240533D01*
X158064692Y-119142857D02*
X158112312Y-119190476D01*
X158112312Y-119190476D02*
X158159931Y-119333333D01*
X158159931Y-119333333D02*
X158159931Y-119428571D01*
X158159931Y-119428571D02*
X158112312Y-119571428D01*
X158112312Y-119571428D02*
X158017073Y-119666666D01*
X158017073Y-119666666D02*
X157921835Y-119714285D01*
X157921835Y-119714285D02*
X157731359Y-119761904D01*
X157731359Y-119761904D02*
X157588502Y-119761904D01*
X157588502Y-119761904D02*
X157398026Y-119714285D01*
X157398026Y-119714285D02*
X157302788Y-119666666D01*
X157302788Y-119666666D02*
X157207550Y-119571428D01*
X157207550Y-119571428D02*
X157159931Y-119428571D01*
X157159931Y-119428571D02*
X157159931Y-119333333D01*
X157159931Y-119333333D02*
X157207550Y-119190476D01*
X157207550Y-119190476D02*
X157255169Y-119142857D01*
X158159931Y-118190476D02*
X158159931Y-118761904D01*
X158159931Y-118476190D02*
X157159931Y-118476190D01*
X157159931Y-118476190D02*
X157302788Y-118571428D01*
X157302788Y-118571428D02*
X157398026Y-118666666D01*
X157398026Y-118666666D02*
X157445645Y-118761904D01*
X157255169Y-117809523D02*
X157207550Y-117761904D01*
X157207550Y-117761904D02*
X157159931Y-117666666D01*
X157159931Y-117666666D02*
X157159931Y-117428571D01*
X157159931Y-117428571D02*
X157207550Y-117333333D01*
X157207550Y-117333333D02*
X157255169Y-117285714D01*
X157255169Y-117285714D02*
X157350407Y-117238095D01*
X157350407Y-117238095D02*
X157445645Y-117238095D01*
X157445645Y-117238095D02*
X157588502Y-117285714D01*
X157588502Y-117285714D02*
X158159931Y-117857142D01*
X158159931Y-117857142D02*
X158159931Y-117238095D01*
X115859580Y-104166666D02*
X115907200Y-104214285D01*
X115907200Y-104214285D02*
X115954819Y-104357142D01*
X115954819Y-104357142D02*
X115954819Y-104452380D01*
X115954819Y-104452380D02*
X115907200Y-104595237D01*
X115907200Y-104595237D02*
X115811961Y-104690475D01*
X115811961Y-104690475D02*
X115716723Y-104738094D01*
X115716723Y-104738094D02*
X115526247Y-104785713D01*
X115526247Y-104785713D02*
X115383390Y-104785713D01*
X115383390Y-104785713D02*
X115192914Y-104738094D01*
X115192914Y-104738094D02*
X115097676Y-104690475D01*
X115097676Y-104690475D02*
X115002438Y-104595237D01*
X115002438Y-104595237D02*
X114954819Y-104452380D01*
X114954819Y-104452380D02*
X114954819Y-104357142D01*
X114954819Y-104357142D02*
X115002438Y-104214285D01*
X115002438Y-104214285D02*
X115050057Y-104166666D01*
X114954819Y-103309523D02*
X114954819Y-103499999D01*
X114954819Y-103499999D02*
X115002438Y-103595237D01*
X115002438Y-103595237D02*
X115050057Y-103642856D01*
X115050057Y-103642856D02*
X115192914Y-103738094D01*
X115192914Y-103738094D02*
X115383390Y-103785713D01*
X115383390Y-103785713D02*
X115764342Y-103785713D01*
X115764342Y-103785713D02*
X115859580Y-103738094D01*
X115859580Y-103738094D02*
X115907200Y-103690475D01*
X115907200Y-103690475D02*
X115954819Y-103595237D01*
X115954819Y-103595237D02*
X115954819Y-103404761D01*
X115954819Y-103404761D02*
X115907200Y-103309523D01*
X115907200Y-103309523D02*
X115859580Y-103261904D01*
X115859580Y-103261904D02*
X115764342Y-103214285D01*
X115764342Y-103214285D02*
X115526247Y-103214285D01*
X115526247Y-103214285D02*
X115431009Y-103261904D01*
X115431009Y-103261904D02*
X115383390Y-103309523D01*
X115383390Y-103309523D02*
X115335771Y-103404761D01*
X115335771Y-103404761D02*
X115335771Y-103595237D01*
X115335771Y-103595237D02*
X115383390Y-103690475D01*
X115383390Y-103690475D02*
X115431009Y-103738094D01*
X115431009Y-103738094D02*
X115526247Y-103785713D01*
X186107142Y-94954819D02*
X185773809Y-94478628D01*
X185535714Y-94954819D02*
X185535714Y-93954819D01*
X185535714Y-93954819D02*
X185916666Y-93954819D01*
X185916666Y-93954819D02*
X186011904Y-94002438D01*
X186011904Y-94002438D02*
X186059523Y-94050057D01*
X186059523Y-94050057D02*
X186107142Y-94145295D01*
X186107142Y-94145295D02*
X186107142Y-94288152D01*
X186107142Y-94288152D02*
X186059523Y-94383390D01*
X186059523Y-94383390D02*
X186011904Y-94431009D01*
X186011904Y-94431009D02*
X185916666Y-94478628D01*
X185916666Y-94478628D02*
X185535714Y-94478628D01*
X187059523Y-94954819D02*
X186488095Y-94954819D01*
X186773809Y-94954819D02*
X186773809Y-93954819D01*
X186773809Y-93954819D02*
X186678571Y-94097676D01*
X186678571Y-94097676D02*
X186583333Y-94192914D01*
X186583333Y-94192914D02*
X186488095Y-94240533D01*
X187916666Y-93954819D02*
X187726190Y-93954819D01*
X187726190Y-93954819D02*
X187630952Y-94002438D01*
X187630952Y-94002438D02*
X187583333Y-94050057D01*
X187583333Y-94050057D02*
X187488095Y-94192914D01*
X187488095Y-94192914D02*
X187440476Y-94383390D01*
X187440476Y-94383390D02*
X187440476Y-94764342D01*
X187440476Y-94764342D02*
X187488095Y-94859580D01*
X187488095Y-94859580D02*
X187535714Y-94907200D01*
X187535714Y-94907200D02*
X187630952Y-94954819D01*
X187630952Y-94954819D02*
X187821428Y-94954819D01*
X187821428Y-94954819D02*
X187916666Y-94907200D01*
X187916666Y-94907200D02*
X187964285Y-94859580D01*
X187964285Y-94859580D02*
X188011904Y-94764342D01*
X188011904Y-94764342D02*
X188011904Y-94526247D01*
X188011904Y-94526247D02*
X187964285Y-94431009D01*
X187964285Y-94431009D02*
X187916666Y-94383390D01*
X187916666Y-94383390D02*
X187821428Y-94335771D01*
X187821428Y-94335771D02*
X187630952Y-94335771D01*
X187630952Y-94335771D02*
X187535714Y-94383390D01*
X187535714Y-94383390D02*
X187488095Y-94431009D01*
X187488095Y-94431009D02*
X187440476Y-94526247D01*
X92548233Y-121393291D02*
X92631203Y-121267627D01*
X92631203Y-121267627D02*
X92692827Y-121037644D01*
X92692827Y-121037644D02*
X92671480Y-120933327D01*
X92671480Y-120933327D02*
X92637808Y-120875005D01*
X92637808Y-120875005D02*
X92558140Y-120804359D01*
X92558140Y-120804359D02*
X92466147Y-120779710D01*
X92466147Y-120779710D02*
X92361829Y-120801057D01*
X92361829Y-120801057D02*
X92303508Y-120834729D01*
X92303508Y-120834729D02*
X92232862Y-120914397D01*
X92232862Y-120914397D02*
X92137567Y-121086058D01*
X92137567Y-121086058D02*
X92066921Y-121165726D01*
X92066921Y-121165726D02*
X92008600Y-121199398D01*
X92008600Y-121199398D02*
X91904282Y-121220745D01*
X91904282Y-121220745D02*
X91812289Y-121196096D01*
X91812289Y-121196096D02*
X91732621Y-121125450D01*
X91732621Y-121125450D02*
X91698949Y-121067129D01*
X91698949Y-121067129D02*
X91677602Y-120962811D01*
X91677602Y-120962811D02*
X91739226Y-120732829D01*
X91739226Y-120732829D02*
X91822196Y-120607164D01*
X91862473Y-120272864D02*
X92890022Y-120301701D01*
X92890022Y-120301701D02*
X92249374Y-119932844D01*
X92249374Y-119932844D02*
X92988620Y-119933729D01*
X92988620Y-119933729D02*
X92084318Y-119444928D01*
X92158266Y-119168949D02*
X92318487Y-118570995D01*
X92318487Y-118570995D02*
X92600186Y-118991568D01*
X92600186Y-118991568D02*
X92637160Y-118853578D01*
X92637160Y-118853578D02*
X92707806Y-118773910D01*
X92707806Y-118773910D02*
X92766127Y-118740238D01*
X92766127Y-118740238D02*
X92870445Y-118718891D01*
X92870445Y-118718891D02*
X93100427Y-118780515D01*
X93100427Y-118780515D02*
X93180095Y-118851161D01*
X93180095Y-118851161D02*
X93213767Y-118909482D01*
X93213767Y-118909482D02*
X93235114Y-119013800D01*
X93235114Y-119013800D02*
X93161166Y-119289778D01*
X93161166Y-119289778D02*
X93090520Y-119369447D01*
X93090520Y-119369447D02*
X93032199Y-119403118D01*
X99833333Y-86859580D02*
X99785714Y-86907200D01*
X99785714Y-86907200D02*
X99642857Y-86954819D01*
X99642857Y-86954819D02*
X99547619Y-86954819D01*
X99547619Y-86954819D02*
X99404762Y-86907200D01*
X99404762Y-86907200D02*
X99309524Y-86811961D01*
X99309524Y-86811961D02*
X99261905Y-86716723D01*
X99261905Y-86716723D02*
X99214286Y-86526247D01*
X99214286Y-86526247D02*
X99214286Y-86383390D01*
X99214286Y-86383390D02*
X99261905Y-86192914D01*
X99261905Y-86192914D02*
X99309524Y-86097676D01*
X99309524Y-86097676D02*
X99404762Y-86002438D01*
X99404762Y-86002438D02*
X99547619Y-85954819D01*
X99547619Y-85954819D02*
X99642857Y-85954819D01*
X99642857Y-85954819D02*
X99785714Y-86002438D01*
X99785714Y-86002438D02*
X99833333Y-86050057D01*
X100404762Y-86383390D02*
X100309524Y-86335771D01*
X100309524Y-86335771D02*
X100261905Y-86288152D01*
X100261905Y-86288152D02*
X100214286Y-86192914D01*
X100214286Y-86192914D02*
X100214286Y-86145295D01*
X100214286Y-86145295D02*
X100261905Y-86050057D01*
X100261905Y-86050057D02*
X100309524Y-86002438D01*
X100309524Y-86002438D02*
X100404762Y-85954819D01*
X100404762Y-85954819D02*
X100595238Y-85954819D01*
X100595238Y-85954819D02*
X100690476Y-86002438D01*
X100690476Y-86002438D02*
X100738095Y-86050057D01*
X100738095Y-86050057D02*
X100785714Y-86145295D01*
X100785714Y-86145295D02*
X100785714Y-86192914D01*
X100785714Y-86192914D02*
X100738095Y-86288152D01*
X100738095Y-86288152D02*
X100690476Y-86335771D01*
X100690476Y-86335771D02*
X100595238Y-86383390D01*
X100595238Y-86383390D02*
X100404762Y-86383390D01*
X100404762Y-86383390D02*
X100309524Y-86431009D01*
X100309524Y-86431009D02*
X100261905Y-86478628D01*
X100261905Y-86478628D02*
X100214286Y-86573866D01*
X100214286Y-86573866D02*
X100214286Y-86764342D01*
X100214286Y-86764342D02*
X100261905Y-86859580D01*
X100261905Y-86859580D02*
X100309524Y-86907200D01*
X100309524Y-86907200D02*
X100404762Y-86954819D01*
X100404762Y-86954819D02*
X100595238Y-86954819D01*
X100595238Y-86954819D02*
X100690476Y-86907200D01*
X100690476Y-86907200D02*
X100738095Y-86859580D01*
X100738095Y-86859580D02*
X100785714Y-86764342D01*
X100785714Y-86764342D02*
X100785714Y-86573866D01*
X100785714Y-86573866D02*
X100738095Y-86478628D01*
X100738095Y-86478628D02*
X100690476Y-86431009D01*
X100690476Y-86431009D02*
X100595238Y-86383390D01*
X152954819Y-91166666D02*
X152478628Y-91499999D01*
X152954819Y-91738094D02*
X151954819Y-91738094D01*
X151954819Y-91738094D02*
X151954819Y-91357142D01*
X151954819Y-91357142D02*
X152002438Y-91261904D01*
X152002438Y-91261904D02*
X152050057Y-91214285D01*
X152050057Y-91214285D02*
X152145295Y-91166666D01*
X152145295Y-91166666D02*
X152288152Y-91166666D01*
X152288152Y-91166666D02*
X152383390Y-91214285D01*
X152383390Y-91214285D02*
X152431009Y-91261904D01*
X152431009Y-91261904D02*
X152478628Y-91357142D01*
X152478628Y-91357142D02*
X152478628Y-91738094D01*
X152050057Y-90785713D02*
X152002438Y-90738094D01*
X152002438Y-90738094D02*
X151954819Y-90642856D01*
X151954819Y-90642856D02*
X151954819Y-90404761D01*
X151954819Y-90404761D02*
X152002438Y-90309523D01*
X152002438Y-90309523D02*
X152050057Y-90261904D01*
X152050057Y-90261904D02*
X152145295Y-90214285D01*
X152145295Y-90214285D02*
X152240533Y-90214285D01*
X152240533Y-90214285D02*
X152383390Y-90261904D01*
X152383390Y-90261904D02*
X152954819Y-90833332D01*
X152954819Y-90833332D02*
X152954819Y-90214285D01*
X103109580Y-104597957D02*
X103157200Y-104645576D01*
X103157200Y-104645576D02*
X103204819Y-104788433D01*
X103204819Y-104788433D02*
X103204819Y-104883671D01*
X103204819Y-104883671D02*
X103157200Y-105026528D01*
X103157200Y-105026528D02*
X103061961Y-105121766D01*
X103061961Y-105121766D02*
X102966723Y-105169385D01*
X102966723Y-105169385D02*
X102776247Y-105217004D01*
X102776247Y-105217004D02*
X102633390Y-105217004D01*
X102633390Y-105217004D02*
X102442914Y-105169385D01*
X102442914Y-105169385D02*
X102347676Y-105121766D01*
X102347676Y-105121766D02*
X102252438Y-105026528D01*
X102252438Y-105026528D02*
X102204819Y-104883671D01*
X102204819Y-104883671D02*
X102204819Y-104788433D01*
X102204819Y-104788433D02*
X102252438Y-104645576D01*
X102252438Y-104645576D02*
X102300057Y-104597957D01*
X103204819Y-103645576D02*
X103204819Y-104217004D01*
X103204819Y-103931290D02*
X102204819Y-103931290D01*
X102204819Y-103931290D02*
X102347676Y-104026528D01*
X102347676Y-104026528D02*
X102442914Y-104121766D01*
X102442914Y-104121766D02*
X102490533Y-104217004D01*
X102204819Y-102740814D02*
X102204819Y-103217004D01*
X102204819Y-103217004D02*
X102681009Y-103264623D01*
X102681009Y-103264623D02*
X102633390Y-103217004D01*
X102633390Y-103217004D02*
X102585771Y-103121766D01*
X102585771Y-103121766D02*
X102585771Y-102883671D01*
X102585771Y-102883671D02*
X102633390Y-102788433D01*
X102633390Y-102788433D02*
X102681009Y-102740814D01*
X102681009Y-102740814D02*
X102776247Y-102693195D01*
X102776247Y-102693195D02*
X103014342Y-102693195D01*
X103014342Y-102693195D02*
X103109580Y-102740814D01*
X103109580Y-102740814D02*
X103157200Y-102788433D01*
X103157200Y-102788433D02*
X103204819Y-102883671D01*
X103204819Y-102883671D02*
X103204819Y-103121766D01*
X103204819Y-103121766D02*
X103157200Y-103217004D01*
X103157200Y-103217004D02*
X103109580Y-103264623D01*
X127404761Y-87750057D02*
X127309523Y-87702438D01*
X127309523Y-87702438D02*
X127214285Y-87607200D01*
X127214285Y-87607200D02*
X127071428Y-87464342D01*
X127071428Y-87464342D02*
X126976190Y-87416723D01*
X126976190Y-87416723D02*
X126880952Y-87416723D01*
X126928571Y-87654819D02*
X126833333Y-87607200D01*
X126833333Y-87607200D02*
X126738095Y-87511961D01*
X126738095Y-87511961D02*
X126690476Y-87321485D01*
X126690476Y-87321485D02*
X126690476Y-86988152D01*
X126690476Y-86988152D02*
X126738095Y-86797676D01*
X126738095Y-86797676D02*
X126833333Y-86702438D01*
X126833333Y-86702438D02*
X126928571Y-86654819D01*
X126928571Y-86654819D02*
X127119047Y-86654819D01*
X127119047Y-86654819D02*
X127214285Y-86702438D01*
X127214285Y-86702438D02*
X127309523Y-86797676D01*
X127309523Y-86797676D02*
X127357142Y-86988152D01*
X127357142Y-86988152D02*
X127357142Y-87321485D01*
X127357142Y-87321485D02*
X127309523Y-87511961D01*
X127309523Y-87511961D02*
X127214285Y-87607200D01*
X127214285Y-87607200D02*
X127119047Y-87654819D01*
X127119047Y-87654819D02*
X126928571Y-87654819D01*
X128309523Y-87654819D02*
X127738095Y-87654819D01*
X128023809Y-87654819D02*
X128023809Y-86654819D01*
X128023809Y-86654819D02*
X127928571Y-86797676D01*
X127928571Y-86797676D02*
X127833333Y-86892914D01*
X127833333Y-86892914D02*
X127738095Y-86940533D01*
X124814714Y-84715414D02*
X124729000Y-84672557D01*
X124729000Y-84672557D02*
X124600428Y-84672557D01*
X124600428Y-84672557D02*
X124471857Y-84715414D01*
X124471857Y-84715414D02*
X124386142Y-84801128D01*
X124386142Y-84801128D02*
X124343285Y-84886842D01*
X124343285Y-84886842D02*
X124300428Y-85058271D01*
X124300428Y-85058271D02*
X124300428Y-85186842D01*
X124300428Y-85186842D02*
X124343285Y-85358271D01*
X124343285Y-85358271D02*
X124386142Y-85443985D01*
X124386142Y-85443985D02*
X124471857Y-85529700D01*
X124471857Y-85529700D02*
X124600428Y-85572557D01*
X124600428Y-85572557D02*
X124686142Y-85572557D01*
X124686142Y-85572557D02*
X124814714Y-85529700D01*
X124814714Y-85529700D02*
X124857571Y-85486842D01*
X124857571Y-85486842D02*
X124857571Y-85186842D01*
X124857571Y-85186842D02*
X124686142Y-85186842D01*
X130185285Y-85572557D02*
X130185285Y-84672557D01*
X130185285Y-84672557D02*
X130399571Y-84672557D01*
X130399571Y-84672557D02*
X130528142Y-84715414D01*
X130528142Y-84715414D02*
X130613857Y-84801128D01*
X130613857Y-84801128D02*
X130656714Y-84886842D01*
X130656714Y-84886842D02*
X130699571Y-85058271D01*
X130699571Y-85058271D02*
X130699571Y-85186842D01*
X130699571Y-85186842D02*
X130656714Y-85358271D01*
X130656714Y-85358271D02*
X130613857Y-85443985D01*
X130613857Y-85443985D02*
X130528142Y-85529700D01*
X130528142Y-85529700D02*
X130399571Y-85572557D01*
X130399571Y-85572557D02*
X130185285Y-85572557D01*
X127242857Y-85529700D02*
X127371429Y-85572557D01*
X127371429Y-85572557D02*
X127585714Y-85572557D01*
X127585714Y-85572557D02*
X127671429Y-85529700D01*
X127671429Y-85529700D02*
X127714286Y-85486842D01*
X127714286Y-85486842D02*
X127757143Y-85401128D01*
X127757143Y-85401128D02*
X127757143Y-85315414D01*
X127757143Y-85315414D02*
X127714286Y-85229700D01*
X127714286Y-85229700D02*
X127671429Y-85186842D01*
X127671429Y-85186842D02*
X127585714Y-85143985D01*
X127585714Y-85143985D02*
X127414286Y-85101128D01*
X127414286Y-85101128D02*
X127328571Y-85058271D01*
X127328571Y-85058271D02*
X127285714Y-85015414D01*
X127285714Y-85015414D02*
X127242857Y-84929700D01*
X127242857Y-84929700D02*
X127242857Y-84843985D01*
X127242857Y-84843985D02*
X127285714Y-84758271D01*
X127285714Y-84758271D02*
X127328571Y-84715414D01*
X127328571Y-84715414D02*
X127414286Y-84672557D01*
X127414286Y-84672557D02*
X127628571Y-84672557D01*
X127628571Y-84672557D02*
X127757143Y-84715414D01*
X95034819Y-97809523D02*
X95749104Y-97809523D01*
X95749104Y-97809523D02*
X95891961Y-97857142D01*
X95891961Y-97857142D02*
X95987200Y-97952380D01*
X95987200Y-97952380D02*
X96034819Y-98095237D01*
X96034819Y-98095237D02*
X96034819Y-98190475D01*
X96034819Y-96809523D02*
X96034819Y-97380951D01*
X96034819Y-97095237D02*
X95034819Y-97095237D01*
X95034819Y-97095237D02*
X95177676Y-97190475D01*
X95177676Y-97190475D02*
X95272914Y-97285713D01*
X95272914Y-97285713D02*
X95320533Y-97380951D01*
X96034819Y-95857142D02*
X96034819Y-96428570D01*
X96034819Y-96142856D02*
X95034819Y-96142856D01*
X95034819Y-96142856D02*
X95177676Y-96238094D01*
X95177676Y-96238094D02*
X95272914Y-96333332D01*
X95272914Y-96333332D02*
X95320533Y-96428570D01*
X155572042Y-99454819D02*
X155238709Y-98978628D01*
X155000614Y-99454819D02*
X155000614Y-98454819D01*
X155000614Y-98454819D02*
X155381566Y-98454819D01*
X155381566Y-98454819D02*
X155476804Y-98502438D01*
X155476804Y-98502438D02*
X155524423Y-98550057D01*
X155524423Y-98550057D02*
X155572042Y-98645295D01*
X155572042Y-98645295D02*
X155572042Y-98788152D01*
X155572042Y-98788152D02*
X155524423Y-98883390D01*
X155524423Y-98883390D02*
X155476804Y-98931009D01*
X155476804Y-98931009D02*
X155381566Y-98978628D01*
X155381566Y-98978628D02*
X155000614Y-98978628D01*
X156524423Y-99454819D02*
X155952995Y-99454819D01*
X156238709Y-99454819D02*
X156238709Y-98454819D01*
X156238709Y-98454819D02*
X156143471Y-98597676D01*
X156143471Y-98597676D02*
X156048233Y-98692914D01*
X156048233Y-98692914D02*
X155952995Y-98740533D01*
X157143471Y-98454819D02*
X157238709Y-98454819D01*
X157238709Y-98454819D02*
X157333947Y-98502438D01*
X157333947Y-98502438D02*
X157381566Y-98550057D01*
X157381566Y-98550057D02*
X157429185Y-98645295D01*
X157429185Y-98645295D02*
X157476804Y-98835771D01*
X157476804Y-98835771D02*
X157476804Y-99073866D01*
X157476804Y-99073866D02*
X157429185Y-99264342D01*
X157429185Y-99264342D02*
X157381566Y-99359580D01*
X157381566Y-99359580D02*
X157333947Y-99407200D01*
X157333947Y-99407200D02*
X157238709Y-99454819D01*
X157238709Y-99454819D02*
X157143471Y-99454819D01*
X157143471Y-99454819D02*
X157048233Y-99407200D01*
X157048233Y-99407200D02*
X157000614Y-99359580D01*
X157000614Y-99359580D02*
X156952995Y-99264342D01*
X156952995Y-99264342D02*
X156905376Y-99073866D01*
X156905376Y-99073866D02*
X156905376Y-98835771D01*
X156905376Y-98835771D02*
X156952995Y-98645295D01*
X156952995Y-98645295D02*
X157000614Y-98550057D01*
X157000614Y-98550057D02*
X157048233Y-98502438D01*
X157048233Y-98502438D02*
X157143471Y-98454819D01*
X155652042Y-102954819D02*
X155318709Y-102478628D01*
X155080614Y-102954819D02*
X155080614Y-101954819D01*
X155080614Y-101954819D02*
X155461566Y-101954819D01*
X155461566Y-101954819D02*
X155556804Y-102002438D01*
X155556804Y-102002438D02*
X155604423Y-102050057D01*
X155604423Y-102050057D02*
X155652042Y-102145295D01*
X155652042Y-102145295D02*
X155652042Y-102288152D01*
X155652042Y-102288152D02*
X155604423Y-102383390D01*
X155604423Y-102383390D02*
X155556804Y-102431009D01*
X155556804Y-102431009D02*
X155461566Y-102478628D01*
X155461566Y-102478628D02*
X155080614Y-102478628D01*
X156604423Y-102954819D02*
X156032995Y-102954819D01*
X156318709Y-102954819D02*
X156318709Y-101954819D01*
X156318709Y-101954819D02*
X156223471Y-102097676D01*
X156223471Y-102097676D02*
X156128233Y-102192914D01*
X156128233Y-102192914D02*
X156032995Y-102240533D01*
X157556804Y-102954819D02*
X156985376Y-102954819D01*
X157271090Y-102954819D02*
X157271090Y-101954819D01*
X157271090Y-101954819D02*
X157175852Y-102097676D01*
X157175852Y-102097676D02*
X157080614Y-102192914D01*
X157080614Y-102192914D02*
X156985376Y-102240533D01*
X173548095Y-93954819D02*
X173548095Y-94764342D01*
X173548095Y-94764342D02*
X173595714Y-94859580D01*
X173595714Y-94859580D02*
X173643333Y-94907200D01*
X173643333Y-94907200D02*
X173738571Y-94954819D01*
X173738571Y-94954819D02*
X173929047Y-94954819D01*
X173929047Y-94954819D02*
X174024285Y-94907200D01*
X174024285Y-94907200D02*
X174071904Y-94859580D01*
X174071904Y-94859580D02*
X174119523Y-94764342D01*
X174119523Y-94764342D02*
X174119523Y-93954819D01*
X174500476Y-93954819D02*
X175119523Y-93954819D01*
X175119523Y-93954819D02*
X174786190Y-94335771D01*
X174786190Y-94335771D02*
X174929047Y-94335771D01*
X174929047Y-94335771D02*
X175024285Y-94383390D01*
X175024285Y-94383390D02*
X175071904Y-94431009D01*
X175071904Y-94431009D02*
X175119523Y-94526247D01*
X175119523Y-94526247D02*
X175119523Y-94764342D01*
X175119523Y-94764342D02*
X175071904Y-94859580D01*
X175071904Y-94859580D02*
X175024285Y-94907200D01*
X175024285Y-94907200D02*
X174929047Y-94954819D01*
X174929047Y-94954819D02*
X174643333Y-94954819D01*
X174643333Y-94954819D02*
X174548095Y-94907200D01*
X174548095Y-94907200D02*
X174500476Y-94859580D01*
X186107142Y-98954819D02*
X185773809Y-98478628D01*
X185535714Y-98954819D02*
X185535714Y-97954819D01*
X185535714Y-97954819D02*
X185916666Y-97954819D01*
X185916666Y-97954819D02*
X186011904Y-98002438D01*
X186011904Y-98002438D02*
X186059523Y-98050057D01*
X186059523Y-98050057D02*
X186107142Y-98145295D01*
X186107142Y-98145295D02*
X186107142Y-98288152D01*
X186107142Y-98288152D02*
X186059523Y-98383390D01*
X186059523Y-98383390D02*
X186011904Y-98431009D01*
X186011904Y-98431009D02*
X185916666Y-98478628D01*
X185916666Y-98478628D02*
X185535714Y-98478628D01*
X187059523Y-98954819D02*
X186488095Y-98954819D01*
X186773809Y-98954819D02*
X186773809Y-97954819D01*
X186773809Y-97954819D02*
X186678571Y-98097676D01*
X186678571Y-98097676D02*
X186583333Y-98192914D01*
X186583333Y-98192914D02*
X186488095Y-98240533D01*
X187964285Y-97954819D02*
X187488095Y-97954819D01*
X187488095Y-97954819D02*
X187440476Y-98431009D01*
X187440476Y-98431009D02*
X187488095Y-98383390D01*
X187488095Y-98383390D02*
X187583333Y-98335771D01*
X187583333Y-98335771D02*
X187821428Y-98335771D01*
X187821428Y-98335771D02*
X187916666Y-98383390D01*
X187916666Y-98383390D02*
X187964285Y-98431009D01*
X187964285Y-98431009D02*
X188011904Y-98526247D01*
X188011904Y-98526247D02*
X188011904Y-98764342D01*
X188011904Y-98764342D02*
X187964285Y-98859580D01*
X187964285Y-98859580D02*
X187916666Y-98907200D01*
X187916666Y-98907200D02*
X187821428Y-98954819D01*
X187821428Y-98954819D02*
X187583333Y-98954819D01*
X187583333Y-98954819D02*
X187488095Y-98907200D01*
X187488095Y-98907200D02*
X187440476Y-98859580D01*
X153454819Y-121238094D02*
X152454819Y-121238094D01*
X152454819Y-121238094D02*
X152454819Y-120999999D01*
X152454819Y-120999999D02*
X152502438Y-120857142D01*
X152502438Y-120857142D02*
X152597676Y-120761904D01*
X152597676Y-120761904D02*
X152692914Y-120714285D01*
X152692914Y-120714285D02*
X152883390Y-120666666D01*
X152883390Y-120666666D02*
X153026247Y-120666666D01*
X153026247Y-120666666D02*
X153216723Y-120714285D01*
X153216723Y-120714285D02*
X153311961Y-120761904D01*
X153311961Y-120761904D02*
X153407200Y-120857142D01*
X153407200Y-120857142D02*
X153454819Y-120999999D01*
X153454819Y-120999999D02*
X153454819Y-121238094D01*
X152454819Y-120333332D02*
X152454819Y-119714285D01*
X152454819Y-119714285D02*
X152835771Y-120047618D01*
X152835771Y-120047618D02*
X152835771Y-119904761D01*
X152835771Y-119904761D02*
X152883390Y-119809523D01*
X152883390Y-119809523D02*
X152931009Y-119761904D01*
X152931009Y-119761904D02*
X153026247Y-119714285D01*
X153026247Y-119714285D02*
X153264342Y-119714285D01*
X153264342Y-119714285D02*
X153359580Y-119761904D01*
X153359580Y-119761904D02*
X153407200Y-119809523D01*
X153407200Y-119809523D02*
X153454819Y-119904761D01*
X153454819Y-119904761D02*
X153454819Y-120190475D01*
X153454819Y-120190475D02*
X153407200Y-120285713D01*
X153407200Y-120285713D02*
X153359580Y-120333332D01*
X154954819Y-120761904D02*
X153954819Y-120761904D01*
X154954819Y-120190476D02*
X154383390Y-120619047D01*
X153954819Y-120190476D02*
X154526247Y-120761904D01*
X167359580Y-89642857D02*
X167407200Y-89690476D01*
X167407200Y-89690476D02*
X167454819Y-89833333D01*
X167454819Y-89833333D02*
X167454819Y-89928571D01*
X167454819Y-89928571D02*
X167407200Y-90071428D01*
X167407200Y-90071428D02*
X167311961Y-90166666D01*
X167311961Y-90166666D02*
X167216723Y-90214285D01*
X167216723Y-90214285D02*
X167026247Y-90261904D01*
X167026247Y-90261904D02*
X166883390Y-90261904D01*
X166883390Y-90261904D02*
X166692914Y-90214285D01*
X166692914Y-90214285D02*
X166597676Y-90166666D01*
X166597676Y-90166666D02*
X166502438Y-90071428D01*
X166502438Y-90071428D02*
X166454819Y-89928571D01*
X166454819Y-89928571D02*
X166454819Y-89833333D01*
X166454819Y-89833333D02*
X166502438Y-89690476D01*
X166502438Y-89690476D02*
X166550057Y-89642857D01*
X167454819Y-88690476D02*
X167454819Y-89261904D01*
X167454819Y-88976190D02*
X166454819Y-88976190D01*
X166454819Y-88976190D02*
X166597676Y-89071428D01*
X166597676Y-89071428D02*
X166692914Y-89166666D01*
X166692914Y-89166666D02*
X166740533Y-89261904D01*
X166883390Y-88119047D02*
X166835771Y-88214285D01*
X166835771Y-88214285D02*
X166788152Y-88261904D01*
X166788152Y-88261904D02*
X166692914Y-88309523D01*
X166692914Y-88309523D02*
X166645295Y-88309523D01*
X166645295Y-88309523D02*
X166550057Y-88261904D01*
X166550057Y-88261904D02*
X166502438Y-88214285D01*
X166502438Y-88214285D02*
X166454819Y-88119047D01*
X166454819Y-88119047D02*
X166454819Y-87928571D01*
X166454819Y-87928571D02*
X166502438Y-87833333D01*
X166502438Y-87833333D02*
X166550057Y-87785714D01*
X166550057Y-87785714D02*
X166645295Y-87738095D01*
X166645295Y-87738095D02*
X166692914Y-87738095D01*
X166692914Y-87738095D02*
X166788152Y-87785714D01*
X166788152Y-87785714D02*
X166835771Y-87833333D01*
X166835771Y-87833333D02*
X166883390Y-87928571D01*
X166883390Y-87928571D02*
X166883390Y-88119047D01*
X166883390Y-88119047D02*
X166931009Y-88214285D01*
X166931009Y-88214285D02*
X166978628Y-88261904D01*
X166978628Y-88261904D02*
X167073866Y-88309523D01*
X167073866Y-88309523D02*
X167264342Y-88309523D01*
X167264342Y-88309523D02*
X167359580Y-88261904D01*
X167359580Y-88261904D02*
X167407200Y-88214285D01*
X167407200Y-88214285D02*
X167454819Y-88119047D01*
X167454819Y-88119047D02*
X167454819Y-87928571D01*
X167454819Y-87928571D02*
X167407200Y-87833333D01*
X167407200Y-87833333D02*
X167359580Y-87785714D01*
X167359580Y-87785714D02*
X167264342Y-87738095D01*
X167264342Y-87738095D02*
X167073866Y-87738095D01*
X167073866Y-87738095D02*
X166978628Y-87785714D01*
X166978628Y-87785714D02*
X166931009Y-87833333D01*
X166931009Y-87833333D02*
X166883390Y-87928571D01*
X189954819Y-105333333D02*
X190669104Y-105333333D01*
X190669104Y-105333333D02*
X190811961Y-105380952D01*
X190811961Y-105380952D02*
X190907200Y-105476190D01*
X190907200Y-105476190D02*
X190954819Y-105619047D01*
X190954819Y-105619047D02*
X190954819Y-105714285D01*
X189954819Y-104952380D02*
X189954819Y-104333333D01*
X189954819Y-104333333D02*
X190335771Y-104666666D01*
X190335771Y-104666666D02*
X190335771Y-104523809D01*
X190335771Y-104523809D02*
X190383390Y-104428571D01*
X190383390Y-104428571D02*
X190431009Y-104380952D01*
X190431009Y-104380952D02*
X190526247Y-104333333D01*
X190526247Y-104333333D02*
X190764342Y-104333333D01*
X190764342Y-104333333D02*
X190859580Y-104380952D01*
X190859580Y-104380952D02*
X190907200Y-104428571D01*
X190907200Y-104428571D02*
X190954819Y-104523809D01*
X190954819Y-104523809D02*
X190954819Y-104809523D01*
X190954819Y-104809523D02*
X190907200Y-104904761D01*
X190907200Y-104904761D02*
X190859580Y-104952380D01*
X95242333Y-100109580D02*
X95194714Y-100157200D01*
X95194714Y-100157200D02*
X95051857Y-100204819D01*
X95051857Y-100204819D02*
X94956619Y-100204819D01*
X94956619Y-100204819D02*
X94813762Y-100157200D01*
X94813762Y-100157200D02*
X94718524Y-100061961D01*
X94718524Y-100061961D02*
X94670905Y-99966723D01*
X94670905Y-99966723D02*
X94623286Y-99776247D01*
X94623286Y-99776247D02*
X94623286Y-99633390D01*
X94623286Y-99633390D02*
X94670905Y-99442914D01*
X94670905Y-99442914D02*
X94718524Y-99347676D01*
X94718524Y-99347676D02*
X94813762Y-99252438D01*
X94813762Y-99252438D02*
X94956619Y-99204819D01*
X94956619Y-99204819D02*
X95051857Y-99204819D01*
X95051857Y-99204819D02*
X95194714Y-99252438D01*
X95194714Y-99252438D02*
X95242333Y-99300057D01*
X96147095Y-99204819D02*
X95670905Y-99204819D01*
X95670905Y-99204819D02*
X95623286Y-99681009D01*
X95623286Y-99681009D02*
X95670905Y-99633390D01*
X95670905Y-99633390D02*
X95766143Y-99585771D01*
X95766143Y-99585771D02*
X96004238Y-99585771D01*
X96004238Y-99585771D02*
X96099476Y-99633390D01*
X96099476Y-99633390D02*
X96147095Y-99681009D01*
X96147095Y-99681009D02*
X96194714Y-99776247D01*
X96194714Y-99776247D02*
X96194714Y-100014342D01*
X96194714Y-100014342D02*
X96147095Y-100109580D01*
X96147095Y-100109580D02*
X96099476Y-100157200D01*
X96099476Y-100157200D02*
X96004238Y-100204819D01*
X96004238Y-100204819D02*
X95766143Y-100204819D01*
X95766143Y-100204819D02*
X95670905Y-100157200D01*
X95670905Y-100157200D02*
X95623286Y-100109580D01*
X107833333Y-86859580D02*
X107785714Y-86907200D01*
X107785714Y-86907200D02*
X107642857Y-86954819D01*
X107642857Y-86954819D02*
X107547619Y-86954819D01*
X107547619Y-86954819D02*
X107404762Y-86907200D01*
X107404762Y-86907200D02*
X107309524Y-86811961D01*
X107309524Y-86811961D02*
X107261905Y-86716723D01*
X107261905Y-86716723D02*
X107214286Y-86526247D01*
X107214286Y-86526247D02*
X107214286Y-86383390D01*
X107214286Y-86383390D02*
X107261905Y-86192914D01*
X107261905Y-86192914D02*
X107309524Y-86097676D01*
X107309524Y-86097676D02*
X107404762Y-86002438D01*
X107404762Y-86002438D02*
X107547619Y-85954819D01*
X107547619Y-85954819D02*
X107642857Y-85954819D01*
X107642857Y-85954819D02*
X107785714Y-86002438D01*
X107785714Y-86002438D02*
X107833333Y-86050057D01*
X108309524Y-86954819D02*
X108500000Y-86954819D01*
X108500000Y-86954819D02*
X108595238Y-86907200D01*
X108595238Y-86907200D02*
X108642857Y-86859580D01*
X108642857Y-86859580D02*
X108738095Y-86716723D01*
X108738095Y-86716723D02*
X108785714Y-86526247D01*
X108785714Y-86526247D02*
X108785714Y-86145295D01*
X108785714Y-86145295D02*
X108738095Y-86050057D01*
X108738095Y-86050057D02*
X108690476Y-86002438D01*
X108690476Y-86002438D02*
X108595238Y-85954819D01*
X108595238Y-85954819D02*
X108404762Y-85954819D01*
X108404762Y-85954819D02*
X108309524Y-86002438D01*
X108309524Y-86002438D02*
X108261905Y-86050057D01*
X108261905Y-86050057D02*
X108214286Y-86145295D01*
X108214286Y-86145295D02*
X108214286Y-86383390D01*
X108214286Y-86383390D02*
X108261905Y-86478628D01*
X108261905Y-86478628D02*
X108309524Y-86526247D01*
X108309524Y-86526247D02*
X108404762Y-86573866D01*
X108404762Y-86573866D02*
X108595238Y-86573866D01*
X108595238Y-86573866D02*
X108690476Y-86526247D01*
X108690476Y-86526247D02*
X108738095Y-86478628D01*
X108738095Y-86478628D02*
X108785714Y-86383390D01*
X115913333Y-82954819D02*
X115580000Y-82478628D01*
X115341905Y-82954819D02*
X115341905Y-81954819D01*
X115341905Y-81954819D02*
X115722857Y-81954819D01*
X115722857Y-81954819D02*
X115818095Y-82002438D01*
X115818095Y-82002438D02*
X115865714Y-82050057D01*
X115865714Y-82050057D02*
X115913333Y-82145295D01*
X115913333Y-82145295D02*
X115913333Y-82288152D01*
X115913333Y-82288152D02*
X115865714Y-82383390D01*
X115865714Y-82383390D02*
X115818095Y-82431009D01*
X115818095Y-82431009D02*
X115722857Y-82478628D01*
X115722857Y-82478628D02*
X115341905Y-82478628D01*
X116246667Y-81954819D02*
X116913333Y-81954819D01*
X116913333Y-81954819D02*
X116484762Y-82954819D01*
X100359580Y-103642857D02*
X100407200Y-103690476D01*
X100407200Y-103690476D02*
X100454819Y-103833333D01*
X100454819Y-103833333D02*
X100454819Y-103928571D01*
X100454819Y-103928571D02*
X100407200Y-104071428D01*
X100407200Y-104071428D02*
X100311961Y-104166666D01*
X100311961Y-104166666D02*
X100216723Y-104214285D01*
X100216723Y-104214285D02*
X100026247Y-104261904D01*
X100026247Y-104261904D02*
X99883390Y-104261904D01*
X99883390Y-104261904D02*
X99692914Y-104214285D01*
X99692914Y-104214285D02*
X99597676Y-104166666D01*
X99597676Y-104166666D02*
X99502438Y-104071428D01*
X99502438Y-104071428D02*
X99454819Y-103928571D01*
X99454819Y-103928571D02*
X99454819Y-103833333D01*
X99454819Y-103833333D02*
X99502438Y-103690476D01*
X99502438Y-103690476D02*
X99550057Y-103642857D01*
X99550057Y-103261904D02*
X99502438Y-103214285D01*
X99502438Y-103214285D02*
X99454819Y-103119047D01*
X99454819Y-103119047D02*
X99454819Y-102880952D01*
X99454819Y-102880952D02*
X99502438Y-102785714D01*
X99502438Y-102785714D02*
X99550057Y-102738095D01*
X99550057Y-102738095D02*
X99645295Y-102690476D01*
X99645295Y-102690476D02*
X99740533Y-102690476D01*
X99740533Y-102690476D02*
X99883390Y-102738095D01*
X99883390Y-102738095D02*
X100454819Y-103309523D01*
X100454819Y-103309523D02*
X100454819Y-102690476D01*
X99454819Y-102071428D02*
X99454819Y-101976190D01*
X99454819Y-101976190D02*
X99502438Y-101880952D01*
X99502438Y-101880952D02*
X99550057Y-101833333D01*
X99550057Y-101833333D02*
X99645295Y-101785714D01*
X99645295Y-101785714D02*
X99835771Y-101738095D01*
X99835771Y-101738095D02*
X100073866Y-101738095D01*
X100073866Y-101738095D02*
X100264342Y-101785714D01*
X100264342Y-101785714D02*
X100359580Y-101833333D01*
X100359580Y-101833333D02*
X100407200Y-101880952D01*
X100407200Y-101880952D02*
X100454819Y-101976190D01*
X100454819Y-101976190D02*
X100454819Y-102071428D01*
X100454819Y-102071428D02*
X100407200Y-102166666D01*
X100407200Y-102166666D02*
X100359580Y-102214285D01*
X100359580Y-102214285D02*
X100264342Y-102261904D01*
X100264342Y-102261904D02*
X100073866Y-102309523D01*
X100073866Y-102309523D02*
X99835771Y-102309523D01*
X99835771Y-102309523D02*
X99645295Y-102261904D01*
X99645295Y-102261904D02*
X99550057Y-102214285D01*
X99550057Y-102214285D02*
X99502438Y-102166666D01*
X99502438Y-102166666D02*
X99454819Y-102071428D01*
X146454819Y-78166666D02*
X145978628Y-78499999D01*
X146454819Y-78738094D02*
X145454819Y-78738094D01*
X145454819Y-78738094D02*
X145454819Y-78357142D01*
X145454819Y-78357142D02*
X145502438Y-78261904D01*
X145502438Y-78261904D02*
X145550057Y-78214285D01*
X145550057Y-78214285D02*
X145645295Y-78166666D01*
X145645295Y-78166666D02*
X145788152Y-78166666D01*
X145788152Y-78166666D02*
X145883390Y-78214285D01*
X145883390Y-78214285D02*
X145931009Y-78261904D01*
X145931009Y-78261904D02*
X145978628Y-78357142D01*
X145978628Y-78357142D02*
X145978628Y-78738094D01*
X145454819Y-77833332D02*
X145454819Y-77214285D01*
X145454819Y-77214285D02*
X145835771Y-77547618D01*
X145835771Y-77547618D02*
X145835771Y-77404761D01*
X145835771Y-77404761D02*
X145883390Y-77309523D01*
X145883390Y-77309523D02*
X145931009Y-77261904D01*
X145931009Y-77261904D02*
X146026247Y-77214285D01*
X146026247Y-77214285D02*
X146264342Y-77214285D01*
X146264342Y-77214285D02*
X146359580Y-77261904D01*
X146359580Y-77261904D02*
X146407200Y-77309523D01*
X146407200Y-77309523D02*
X146454819Y-77404761D01*
X146454819Y-77404761D02*
X146454819Y-77690475D01*
X146454819Y-77690475D02*
X146407200Y-77785713D01*
X146407200Y-77785713D02*
X146359580Y-77833332D01*
X134166666Y-67454819D02*
X134166666Y-68169104D01*
X134166666Y-68169104D02*
X134119047Y-68311961D01*
X134119047Y-68311961D02*
X134023809Y-68407200D01*
X134023809Y-68407200D02*
X133880952Y-68454819D01*
X133880952Y-68454819D02*
X133785714Y-68454819D01*
X135071428Y-67454819D02*
X134880952Y-67454819D01*
X134880952Y-67454819D02*
X134785714Y-67502438D01*
X134785714Y-67502438D02*
X134738095Y-67550057D01*
X134738095Y-67550057D02*
X134642857Y-67692914D01*
X134642857Y-67692914D02*
X134595238Y-67883390D01*
X134595238Y-67883390D02*
X134595238Y-68264342D01*
X134595238Y-68264342D02*
X134642857Y-68359580D01*
X134642857Y-68359580D02*
X134690476Y-68407200D01*
X134690476Y-68407200D02*
X134785714Y-68454819D01*
X134785714Y-68454819D02*
X134976190Y-68454819D01*
X134976190Y-68454819D02*
X135071428Y-68407200D01*
X135071428Y-68407200D02*
X135119047Y-68359580D01*
X135119047Y-68359580D02*
X135166666Y-68264342D01*
X135166666Y-68264342D02*
X135166666Y-68026247D01*
X135166666Y-68026247D02*
X135119047Y-67931009D01*
X135119047Y-67931009D02*
X135071428Y-67883390D01*
X135071428Y-67883390D02*
X134976190Y-67835771D01*
X134976190Y-67835771D02*
X134785714Y-67835771D01*
X134785714Y-67835771D02*
X134690476Y-67883390D01*
X134690476Y-67883390D02*
X134642857Y-67931009D01*
X134642857Y-67931009D02*
X134595238Y-68026247D01*
X129874819Y-96833333D02*
X130589104Y-96833333D01*
X130589104Y-96833333D02*
X130731961Y-96880952D01*
X130731961Y-96880952D02*
X130827200Y-96976190D01*
X130827200Y-96976190D02*
X130874819Y-97119047D01*
X130874819Y-97119047D02*
X130874819Y-97214285D01*
X130874819Y-96309523D02*
X130874819Y-96119047D01*
X130874819Y-96119047D02*
X130827200Y-96023809D01*
X130827200Y-96023809D02*
X130779580Y-95976190D01*
X130779580Y-95976190D02*
X130636723Y-95880952D01*
X130636723Y-95880952D02*
X130446247Y-95833333D01*
X130446247Y-95833333D02*
X130065295Y-95833333D01*
X130065295Y-95833333D02*
X129970057Y-95880952D01*
X129970057Y-95880952D02*
X129922438Y-95928571D01*
X129922438Y-95928571D02*
X129874819Y-96023809D01*
X129874819Y-96023809D02*
X129874819Y-96214285D01*
X129874819Y-96214285D02*
X129922438Y-96309523D01*
X129922438Y-96309523D02*
X129970057Y-96357142D01*
X129970057Y-96357142D02*
X130065295Y-96404761D01*
X130065295Y-96404761D02*
X130303390Y-96404761D01*
X130303390Y-96404761D02*
X130398628Y-96357142D01*
X130398628Y-96357142D02*
X130446247Y-96309523D01*
X130446247Y-96309523D02*
X130493866Y-96214285D01*
X130493866Y-96214285D02*
X130493866Y-96023809D01*
X130493866Y-96023809D02*
X130446247Y-95928571D01*
X130446247Y-95928571D02*
X130398628Y-95880952D01*
X130398628Y-95880952D02*
X130303390Y-95833333D01*
X118859580Y-104142857D02*
X118907200Y-104190476D01*
X118907200Y-104190476D02*
X118954819Y-104333333D01*
X118954819Y-104333333D02*
X118954819Y-104428571D01*
X118954819Y-104428571D02*
X118907200Y-104571428D01*
X118907200Y-104571428D02*
X118811961Y-104666666D01*
X118811961Y-104666666D02*
X118716723Y-104714285D01*
X118716723Y-104714285D02*
X118526247Y-104761904D01*
X118526247Y-104761904D02*
X118383390Y-104761904D01*
X118383390Y-104761904D02*
X118192914Y-104714285D01*
X118192914Y-104714285D02*
X118097676Y-104666666D01*
X118097676Y-104666666D02*
X118002438Y-104571428D01*
X118002438Y-104571428D02*
X117954819Y-104428571D01*
X117954819Y-104428571D02*
X117954819Y-104333333D01*
X117954819Y-104333333D02*
X118002438Y-104190476D01*
X118002438Y-104190476D02*
X118050057Y-104142857D01*
X118954819Y-103190476D02*
X118954819Y-103761904D01*
X118954819Y-103476190D02*
X117954819Y-103476190D01*
X117954819Y-103476190D02*
X118097676Y-103571428D01*
X118097676Y-103571428D02*
X118192914Y-103666666D01*
X118192914Y-103666666D02*
X118240533Y-103761904D01*
X117954819Y-102333333D02*
X117954819Y-102523809D01*
X117954819Y-102523809D02*
X118002438Y-102619047D01*
X118002438Y-102619047D02*
X118050057Y-102666666D01*
X118050057Y-102666666D02*
X118192914Y-102761904D01*
X118192914Y-102761904D02*
X118383390Y-102809523D01*
X118383390Y-102809523D02*
X118764342Y-102809523D01*
X118764342Y-102809523D02*
X118859580Y-102761904D01*
X118859580Y-102761904D02*
X118907200Y-102714285D01*
X118907200Y-102714285D02*
X118954819Y-102619047D01*
X118954819Y-102619047D02*
X118954819Y-102428571D01*
X118954819Y-102428571D02*
X118907200Y-102333333D01*
X118907200Y-102333333D02*
X118859580Y-102285714D01*
X118859580Y-102285714D02*
X118764342Y-102238095D01*
X118764342Y-102238095D02*
X118526247Y-102238095D01*
X118526247Y-102238095D02*
X118431009Y-102285714D01*
X118431009Y-102285714D02*
X118383390Y-102333333D01*
X118383390Y-102333333D02*
X118335771Y-102428571D01*
X118335771Y-102428571D02*
X118335771Y-102619047D01*
X118335771Y-102619047D02*
X118383390Y-102714285D01*
X118383390Y-102714285D02*
X118431009Y-102761904D01*
X118431009Y-102761904D02*
X118526247Y-102809523D01*
X172166666Y-77954819D02*
X172166666Y-78669104D01*
X172166666Y-78669104D02*
X172119047Y-78811961D01*
X172119047Y-78811961D02*
X172023809Y-78907200D01*
X172023809Y-78907200D02*
X171880952Y-78954819D01*
X171880952Y-78954819D02*
X171785714Y-78954819D01*
X173166666Y-78954819D02*
X172595238Y-78954819D01*
X172880952Y-78954819D02*
X172880952Y-77954819D01*
X172880952Y-77954819D02*
X172785714Y-78097676D01*
X172785714Y-78097676D02*
X172690476Y-78192914D01*
X172690476Y-78192914D02*
X172595238Y-78240533D01*
D10*
X171359800Y-126361904D02*
X171407419Y-126219047D01*
X171407419Y-126219047D02*
X171407419Y-125980952D01*
X171407419Y-125980952D02*
X171359800Y-125885714D01*
X171359800Y-125885714D02*
X171312180Y-125838095D01*
X171312180Y-125838095D02*
X171216942Y-125790476D01*
X171216942Y-125790476D02*
X171121704Y-125790476D01*
X171121704Y-125790476D02*
X171026466Y-125838095D01*
X171026466Y-125838095D02*
X170978847Y-125885714D01*
X170978847Y-125885714D02*
X170931228Y-125980952D01*
X170931228Y-125980952D02*
X170883609Y-126171428D01*
X170883609Y-126171428D02*
X170835990Y-126266666D01*
X170835990Y-126266666D02*
X170788371Y-126314285D01*
X170788371Y-126314285D02*
X170693133Y-126361904D01*
X170693133Y-126361904D02*
X170597895Y-126361904D01*
X170597895Y-126361904D02*
X170502657Y-126314285D01*
X170502657Y-126314285D02*
X170455038Y-126266666D01*
X170455038Y-126266666D02*
X170407419Y-126171428D01*
X170407419Y-126171428D02*
X170407419Y-125933333D01*
X170407419Y-125933333D02*
X170455038Y-125790476D01*
X171407419Y-124838095D02*
X171407419Y-125409523D01*
X171407419Y-125123809D02*
X170407419Y-125123809D01*
X170407419Y-125123809D02*
X170550276Y-125219047D01*
X170550276Y-125219047D02*
X170645514Y-125314285D01*
X170645514Y-125314285D02*
X170693133Y-125409523D01*
D11*
X150159931Y-115642857D02*
X149683740Y-115976190D01*
X150159931Y-116214285D02*
X149159931Y-116214285D01*
X149159931Y-116214285D02*
X149159931Y-115833333D01*
X149159931Y-115833333D02*
X149207550Y-115738095D01*
X149207550Y-115738095D02*
X149255169Y-115690476D01*
X149255169Y-115690476D02*
X149350407Y-115642857D01*
X149350407Y-115642857D02*
X149493264Y-115642857D01*
X149493264Y-115642857D02*
X149588502Y-115690476D01*
X149588502Y-115690476D02*
X149636121Y-115738095D01*
X149636121Y-115738095D02*
X149683740Y-115833333D01*
X149683740Y-115833333D02*
X149683740Y-116214285D01*
X150159931Y-114690476D02*
X150159931Y-115261904D01*
X150159931Y-114976190D02*
X149159931Y-114976190D01*
X149159931Y-114976190D02*
X149302788Y-115071428D01*
X149302788Y-115071428D02*
X149398026Y-115166666D01*
X149398026Y-115166666D02*
X149445645Y-115261904D01*
X149159931Y-114357142D02*
X149159931Y-113738095D01*
X149159931Y-113738095D02*
X149540883Y-114071428D01*
X149540883Y-114071428D02*
X149540883Y-113928571D01*
X149540883Y-113928571D02*
X149588502Y-113833333D01*
X149588502Y-113833333D02*
X149636121Y-113785714D01*
X149636121Y-113785714D02*
X149731359Y-113738095D01*
X149731359Y-113738095D02*
X149969454Y-113738095D01*
X149969454Y-113738095D02*
X150064692Y-113785714D01*
X150064692Y-113785714D02*
X150112312Y-113833333D01*
X150112312Y-113833333D02*
X150159931Y-113928571D01*
X150159931Y-113928571D02*
X150159931Y-114214285D01*
X150159931Y-114214285D02*
X150112312Y-114309523D01*
X150112312Y-114309523D02*
X150064692Y-114357142D01*
X133454819Y-78166666D02*
X132978628Y-78499999D01*
X133454819Y-78738094D02*
X132454819Y-78738094D01*
X132454819Y-78738094D02*
X132454819Y-78357142D01*
X132454819Y-78357142D02*
X132502438Y-78261904D01*
X132502438Y-78261904D02*
X132550057Y-78214285D01*
X132550057Y-78214285D02*
X132645295Y-78166666D01*
X132645295Y-78166666D02*
X132788152Y-78166666D01*
X132788152Y-78166666D02*
X132883390Y-78214285D01*
X132883390Y-78214285D02*
X132931009Y-78261904D01*
X132931009Y-78261904D02*
X132978628Y-78357142D01*
X132978628Y-78357142D02*
X132978628Y-78738094D01*
X133454819Y-77690475D02*
X133454819Y-77499999D01*
X133454819Y-77499999D02*
X133407200Y-77404761D01*
X133407200Y-77404761D02*
X133359580Y-77357142D01*
X133359580Y-77357142D02*
X133216723Y-77261904D01*
X133216723Y-77261904D02*
X133026247Y-77214285D01*
X133026247Y-77214285D02*
X132645295Y-77214285D01*
X132645295Y-77214285D02*
X132550057Y-77261904D01*
X132550057Y-77261904D02*
X132502438Y-77309523D01*
X132502438Y-77309523D02*
X132454819Y-77404761D01*
X132454819Y-77404761D02*
X132454819Y-77595237D01*
X132454819Y-77595237D02*
X132502438Y-77690475D01*
X132502438Y-77690475D02*
X132550057Y-77738094D01*
X132550057Y-77738094D02*
X132645295Y-77785713D01*
X132645295Y-77785713D02*
X132883390Y-77785713D01*
X132883390Y-77785713D02*
X132978628Y-77738094D01*
X132978628Y-77738094D02*
X133026247Y-77690475D01*
X133026247Y-77690475D02*
X133073866Y-77595237D01*
X133073866Y-77595237D02*
X133073866Y-77404761D01*
X133073866Y-77404761D02*
X133026247Y-77309523D01*
X133026247Y-77309523D02*
X132978628Y-77261904D01*
X132978628Y-77261904D02*
X132883390Y-77214285D01*
X107666666Y-77954819D02*
X107666666Y-78669104D01*
X107666666Y-78669104D02*
X107619047Y-78811961D01*
X107619047Y-78811961D02*
X107523809Y-78907200D01*
X107523809Y-78907200D02*
X107380952Y-78954819D01*
X107380952Y-78954819D02*
X107285714Y-78954819D01*
X108095238Y-78050057D02*
X108142857Y-78002438D01*
X108142857Y-78002438D02*
X108238095Y-77954819D01*
X108238095Y-77954819D02*
X108476190Y-77954819D01*
X108476190Y-77954819D02*
X108571428Y-78002438D01*
X108571428Y-78002438D02*
X108619047Y-78050057D01*
X108619047Y-78050057D02*
X108666666Y-78145295D01*
X108666666Y-78145295D02*
X108666666Y-78240533D01*
X108666666Y-78240533D02*
X108619047Y-78383390D01*
X108619047Y-78383390D02*
X108047619Y-78954819D01*
X108047619Y-78954819D02*
X108666666Y-78954819D01*
X125859580Y-104142857D02*
X125907200Y-104190476D01*
X125907200Y-104190476D02*
X125954819Y-104333333D01*
X125954819Y-104333333D02*
X125954819Y-104428571D01*
X125954819Y-104428571D02*
X125907200Y-104571428D01*
X125907200Y-104571428D02*
X125811961Y-104666666D01*
X125811961Y-104666666D02*
X125716723Y-104714285D01*
X125716723Y-104714285D02*
X125526247Y-104761904D01*
X125526247Y-104761904D02*
X125383390Y-104761904D01*
X125383390Y-104761904D02*
X125192914Y-104714285D01*
X125192914Y-104714285D02*
X125097676Y-104666666D01*
X125097676Y-104666666D02*
X125002438Y-104571428D01*
X125002438Y-104571428D02*
X124954819Y-104428571D01*
X124954819Y-104428571D02*
X124954819Y-104333333D01*
X124954819Y-104333333D02*
X125002438Y-104190476D01*
X125002438Y-104190476D02*
X125050057Y-104142857D01*
X125954819Y-103190476D02*
X125954819Y-103761904D01*
X125954819Y-103476190D02*
X124954819Y-103476190D01*
X124954819Y-103476190D02*
X125097676Y-103571428D01*
X125097676Y-103571428D02*
X125192914Y-103666666D01*
X125192914Y-103666666D02*
X125240533Y-103761904D01*
X124954819Y-102857142D02*
X124954819Y-102190476D01*
X124954819Y-102190476D02*
X125954819Y-102619047D01*
X160954831Y-116642857D02*
X160478640Y-116976190D01*
X160954831Y-117214285D02*
X159954831Y-117214285D01*
X159954831Y-117214285D02*
X159954831Y-116833333D01*
X159954831Y-116833333D02*
X160002450Y-116738095D01*
X160002450Y-116738095D02*
X160050069Y-116690476D01*
X160050069Y-116690476D02*
X160145307Y-116642857D01*
X160145307Y-116642857D02*
X160288164Y-116642857D01*
X160288164Y-116642857D02*
X160383402Y-116690476D01*
X160383402Y-116690476D02*
X160431021Y-116738095D01*
X160431021Y-116738095D02*
X160478640Y-116833333D01*
X160478640Y-116833333D02*
X160478640Y-117214285D01*
X160954831Y-115690476D02*
X160954831Y-116261904D01*
X160954831Y-115976190D02*
X159954831Y-115976190D01*
X159954831Y-115976190D02*
X160097688Y-116071428D01*
X160097688Y-116071428D02*
X160192926Y-116166666D01*
X160192926Y-116166666D02*
X160240545Y-116261904D01*
X160050069Y-115309523D02*
X160002450Y-115261904D01*
X160002450Y-115261904D02*
X159954831Y-115166666D01*
X159954831Y-115166666D02*
X159954831Y-114928571D01*
X159954831Y-114928571D02*
X160002450Y-114833333D01*
X160002450Y-114833333D02*
X160050069Y-114785714D01*
X160050069Y-114785714D02*
X160145307Y-114738095D01*
X160145307Y-114738095D02*
X160240545Y-114738095D01*
X160240545Y-114738095D02*
X160383402Y-114785714D01*
X160383402Y-114785714D02*
X160954831Y-115357142D01*
X160954831Y-115357142D02*
X160954831Y-114738095D01*
X94799819Y-91309523D02*
X95514104Y-91309523D01*
X95514104Y-91309523D02*
X95656961Y-91357142D01*
X95656961Y-91357142D02*
X95752200Y-91452380D01*
X95752200Y-91452380D02*
X95799819Y-91595237D01*
X95799819Y-91595237D02*
X95799819Y-91690475D01*
X95799819Y-90309523D02*
X95799819Y-90880951D01*
X95799819Y-90595237D02*
X94799819Y-90595237D01*
X94799819Y-90595237D02*
X94942676Y-90690475D01*
X94942676Y-90690475D02*
X95037914Y-90785713D01*
X95037914Y-90785713D02*
X95085533Y-90880951D01*
X94799819Y-89690475D02*
X94799819Y-89595237D01*
X94799819Y-89595237D02*
X94847438Y-89499999D01*
X94847438Y-89499999D02*
X94895057Y-89452380D01*
X94895057Y-89452380D02*
X94990295Y-89404761D01*
X94990295Y-89404761D02*
X95180771Y-89357142D01*
X95180771Y-89357142D02*
X95418866Y-89357142D01*
X95418866Y-89357142D02*
X95609342Y-89404761D01*
X95609342Y-89404761D02*
X95704580Y-89452380D01*
X95704580Y-89452380D02*
X95752200Y-89499999D01*
X95752200Y-89499999D02*
X95799819Y-89595237D01*
X95799819Y-89595237D02*
X95799819Y-89690475D01*
X95799819Y-89690475D02*
X95752200Y-89785713D01*
X95752200Y-89785713D02*
X95704580Y-89833332D01*
X95704580Y-89833332D02*
X95609342Y-89880951D01*
X95609342Y-89880951D02*
X95418866Y-89928570D01*
X95418866Y-89928570D02*
X95180771Y-89928570D01*
X95180771Y-89928570D02*
X94990295Y-89880951D01*
X94990295Y-89880951D02*
X94895057Y-89833332D01*
X94895057Y-89833332D02*
X94847438Y-89785713D01*
X94847438Y-89785713D02*
X94799819Y-89690475D01*
X186107142Y-90954819D02*
X185773809Y-90478628D01*
X185535714Y-90954819D02*
X185535714Y-89954819D01*
X185535714Y-89954819D02*
X185916666Y-89954819D01*
X185916666Y-89954819D02*
X186011904Y-90002438D01*
X186011904Y-90002438D02*
X186059523Y-90050057D01*
X186059523Y-90050057D02*
X186107142Y-90145295D01*
X186107142Y-90145295D02*
X186107142Y-90288152D01*
X186107142Y-90288152D02*
X186059523Y-90383390D01*
X186059523Y-90383390D02*
X186011904Y-90431009D01*
X186011904Y-90431009D02*
X185916666Y-90478628D01*
X185916666Y-90478628D02*
X185535714Y-90478628D01*
X187059523Y-90954819D02*
X186488095Y-90954819D01*
X186773809Y-90954819D02*
X186773809Y-89954819D01*
X186773809Y-89954819D02*
X186678571Y-90097676D01*
X186678571Y-90097676D02*
X186583333Y-90192914D01*
X186583333Y-90192914D02*
X186488095Y-90240533D01*
X187392857Y-89954819D02*
X188059523Y-89954819D01*
X188059523Y-89954819D02*
X187630952Y-90954819D01*
X155857142Y-128359580D02*
X155809523Y-128407200D01*
X155809523Y-128407200D02*
X155666666Y-128454819D01*
X155666666Y-128454819D02*
X155571428Y-128454819D01*
X155571428Y-128454819D02*
X155428571Y-128407200D01*
X155428571Y-128407200D02*
X155333333Y-128311961D01*
X155333333Y-128311961D02*
X155285714Y-128216723D01*
X155285714Y-128216723D02*
X155238095Y-128026247D01*
X155238095Y-128026247D02*
X155238095Y-127883390D01*
X155238095Y-127883390D02*
X155285714Y-127692914D01*
X155285714Y-127692914D02*
X155333333Y-127597676D01*
X155333333Y-127597676D02*
X155428571Y-127502438D01*
X155428571Y-127502438D02*
X155571428Y-127454819D01*
X155571428Y-127454819D02*
X155666666Y-127454819D01*
X155666666Y-127454819D02*
X155809523Y-127502438D01*
X155809523Y-127502438D02*
X155857142Y-127550057D01*
X156809523Y-128454819D02*
X156238095Y-128454819D01*
X156523809Y-128454819D02*
X156523809Y-127454819D01*
X156523809Y-127454819D02*
X156428571Y-127597676D01*
X156428571Y-127597676D02*
X156333333Y-127692914D01*
X156333333Y-127692914D02*
X156238095Y-127740533D01*
X157761904Y-128454819D02*
X157190476Y-128454819D01*
X157476190Y-128454819D02*
X157476190Y-127454819D01*
X157476190Y-127454819D02*
X157380952Y-127597676D01*
X157380952Y-127597676D02*
X157285714Y-127692914D01*
X157285714Y-127692914D02*
X157190476Y-127740533D01*
X88607142Y-100109580D02*
X88559523Y-100157200D01*
X88559523Y-100157200D02*
X88416666Y-100204819D01*
X88416666Y-100204819D02*
X88321428Y-100204819D01*
X88321428Y-100204819D02*
X88178571Y-100157200D01*
X88178571Y-100157200D02*
X88083333Y-100061961D01*
X88083333Y-100061961D02*
X88035714Y-99966723D01*
X88035714Y-99966723D02*
X87988095Y-99776247D01*
X87988095Y-99776247D02*
X87988095Y-99633390D01*
X87988095Y-99633390D02*
X88035714Y-99442914D01*
X88035714Y-99442914D02*
X88083333Y-99347676D01*
X88083333Y-99347676D02*
X88178571Y-99252438D01*
X88178571Y-99252438D02*
X88321428Y-99204819D01*
X88321428Y-99204819D02*
X88416666Y-99204819D01*
X88416666Y-99204819D02*
X88559523Y-99252438D01*
X88559523Y-99252438D02*
X88607142Y-99300057D01*
X89559523Y-100204819D02*
X88988095Y-100204819D01*
X89273809Y-100204819D02*
X89273809Y-99204819D01*
X89273809Y-99204819D02*
X89178571Y-99347676D01*
X89178571Y-99347676D02*
X89083333Y-99442914D01*
X89083333Y-99442914D02*
X88988095Y-99490533D01*
X90416666Y-99538152D02*
X90416666Y-100204819D01*
X90178571Y-99157200D02*
X89940476Y-99871485D01*
X89940476Y-99871485D02*
X90559523Y-99871485D01*
X155333333Y-81954819D02*
X155000000Y-81478628D01*
X154761905Y-81954819D02*
X154761905Y-80954819D01*
X154761905Y-80954819D02*
X155142857Y-80954819D01*
X155142857Y-80954819D02*
X155238095Y-81002438D01*
X155238095Y-81002438D02*
X155285714Y-81050057D01*
X155285714Y-81050057D02*
X155333333Y-81145295D01*
X155333333Y-81145295D02*
X155333333Y-81288152D01*
X155333333Y-81288152D02*
X155285714Y-81383390D01*
X155285714Y-81383390D02*
X155238095Y-81431009D01*
X155238095Y-81431009D02*
X155142857Y-81478628D01*
X155142857Y-81478628D02*
X154761905Y-81478628D01*
X155904762Y-81383390D02*
X155809524Y-81335771D01*
X155809524Y-81335771D02*
X155761905Y-81288152D01*
X155761905Y-81288152D02*
X155714286Y-81192914D01*
X155714286Y-81192914D02*
X155714286Y-81145295D01*
X155714286Y-81145295D02*
X155761905Y-81050057D01*
X155761905Y-81050057D02*
X155809524Y-81002438D01*
X155809524Y-81002438D02*
X155904762Y-80954819D01*
X155904762Y-80954819D02*
X156095238Y-80954819D01*
X156095238Y-80954819D02*
X156190476Y-81002438D01*
X156190476Y-81002438D02*
X156238095Y-81050057D01*
X156238095Y-81050057D02*
X156285714Y-81145295D01*
X156285714Y-81145295D02*
X156285714Y-81192914D01*
X156285714Y-81192914D02*
X156238095Y-81288152D01*
X156238095Y-81288152D02*
X156190476Y-81335771D01*
X156190476Y-81335771D02*
X156095238Y-81383390D01*
X156095238Y-81383390D02*
X155904762Y-81383390D01*
X155904762Y-81383390D02*
X155809524Y-81431009D01*
X155809524Y-81431009D02*
X155761905Y-81478628D01*
X155761905Y-81478628D02*
X155714286Y-81573866D01*
X155714286Y-81573866D02*
X155714286Y-81764342D01*
X155714286Y-81764342D02*
X155761905Y-81859580D01*
X155761905Y-81859580D02*
X155809524Y-81907200D01*
X155809524Y-81907200D02*
X155904762Y-81954819D01*
X155904762Y-81954819D02*
X156095238Y-81954819D01*
X156095238Y-81954819D02*
X156190476Y-81907200D01*
X156190476Y-81907200D02*
X156238095Y-81859580D01*
X156238095Y-81859580D02*
X156285714Y-81764342D01*
X156285714Y-81764342D02*
X156285714Y-81573866D01*
X156285714Y-81573866D02*
X156238095Y-81478628D01*
X156238095Y-81478628D02*
X156190476Y-81431009D01*
X156190476Y-81431009D02*
X156095238Y-81383390D01*
X122534819Y-90833333D02*
X123249104Y-90833333D01*
X123249104Y-90833333D02*
X123391961Y-90880952D01*
X123391961Y-90880952D02*
X123487200Y-90976190D01*
X123487200Y-90976190D02*
X123534819Y-91119047D01*
X123534819Y-91119047D02*
X123534819Y-91214285D01*
X122963390Y-90214285D02*
X122915771Y-90309523D01*
X122915771Y-90309523D02*
X122868152Y-90357142D01*
X122868152Y-90357142D02*
X122772914Y-90404761D01*
X122772914Y-90404761D02*
X122725295Y-90404761D01*
X122725295Y-90404761D02*
X122630057Y-90357142D01*
X122630057Y-90357142D02*
X122582438Y-90309523D01*
X122582438Y-90309523D02*
X122534819Y-90214285D01*
X122534819Y-90214285D02*
X122534819Y-90023809D01*
X122534819Y-90023809D02*
X122582438Y-89928571D01*
X122582438Y-89928571D02*
X122630057Y-89880952D01*
X122630057Y-89880952D02*
X122725295Y-89833333D01*
X122725295Y-89833333D02*
X122772914Y-89833333D01*
X122772914Y-89833333D02*
X122868152Y-89880952D01*
X122868152Y-89880952D02*
X122915771Y-89928571D01*
X122915771Y-89928571D02*
X122963390Y-90023809D01*
X122963390Y-90023809D02*
X122963390Y-90214285D01*
X122963390Y-90214285D02*
X123011009Y-90309523D01*
X123011009Y-90309523D02*
X123058628Y-90357142D01*
X123058628Y-90357142D02*
X123153866Y-90404761D01*
X123153866Y-90404761D02*
X123344342Y-90404761D01*
X123344342Y-90404761D02*
X123439580Y-90357142D01*
X123439580Y-90357142D02*
X123487200Y-90309523D01*
X123487200Y-90309523D02*
X123534819Y-90214285D01*
X123534819Y-90214285D02*
X123534819Y-90023809D01*
X123534819Y-90023809D02*
X123487200Y-89928571D01*
X123487200Y-89928571D02*
X123439580Y-89880952D01*
X123439580Y-89880952D02*
X123344342Y-89833333D01*
X123344342Y-89833333D02*
X123153866Y-89833333D01*
X123153866Y-89833333D02*
X123058628Y-89880952D01*
X123058628Y-89880952D02*
X123011009Y-89928571D01*
X123011009Y-89928571D02*
X122963390Y-90023809D01*
X164359580Y-100166666D02*
X164407200Y-100214285D01*
X164407200Y-100214285D02*
X164454819Y-100357142D01*
X164454819Y-100357142D02*
X164454819Y-100452380D01*
X164454819Y-100452380D02*
X164407200Y-100595237D01*
X164407200Y-100595237D02*
X164311961Y-100690475D01*
X164311961Y-100690475D02*
X164216723Y-100738094D01*
X164216723Y-100738094D02*
X164026247Y-100785713D01*
X164026247Y-100785713D02*
X163883390Y-100785713D01*
X163883390Y-100785713D02*
X163692914Y-100738094D01*
X163692914Y-100738094D02*
X163597676Y-100690475D01*
X163597676Y-100690475D02*
X163502438Y-100595237D01*
X163502438Y-100595237D02*
X163454819Y-100452380D01*
X163454819Y-100452380D02*
X163454819Y-100357142D01*
X163454819Y-100357142D02*
X163502438Y-100214285D01*
X163502438Y-100214285D02*
X163550057Y-100166666D01*
X164454819Y-99214285D02*
X164454819Y-99785713D01*
X164454819Y-99499999D02*
X163454819Y-99499999D01*
X163454819Y-99499999D02*
X163597676Y-99595237D01*
X163597676Y-99595237D02*
X163692914Y-99690475D01*
X163692914Y-99690475D02*
X163740533Y-99785713D01*
X108753333Y-96454819D02*
X108420000Y-95978628D01*
X108181905Y-96454819D02*
X108181905Y-95454819D01*
X108181905Y-95454819D02*
X108562857Y-95454819D01*
X108562857Y-95454819D02*
X108658095Y-95502438D01*
X108658095Y-95502438D02*
X108705714Y-95550057D01*
X108705714Y-95550057D02*
X108753333Y-95645295D01*
X108753333Y-95645295D02*
X108753333Y-95788152D01*
X108753333Y-95788152D02*
X108705714Y-95883390D01*
X108705714Y-95883390D02*
X108658095Y-95931009D01*
X108658095Y-95931009D02*
X108562857Y-95978628D01*
X108562857Y-95978628D02*
X108181905Y-95978628D01*
X109658095Y-95454819D02*
X109181905Y-95454819D01*
X109181905Y-95454819D02*
X109134286Y-95931009D01*
X109134286Y-95931009D02*
X109181905Y-95883390D01*
X109181905Y-95883390D02*
X109277143Y-95835771D01*
X109277143Y-95835771D02*
X109515238Y-95835771D01*
X109515238Y-95835771D02*
X109610476Y-95883390D01*
X109610476Y-95883390D02*
X109658095Y-95931009D01*
X109658095Y-95931009D02*
X109705714Y-96026247D01*
X109705714Y-96026247D02*
X109705714Y-96264342D01*
X109705714Y-96264342D02*
X109658095Y-96359580D01*
X109658095Y-96359580D02*
X109610476Y-96407200D01*
X109610476Y-96407200D02*
X109515238Y-96454819D01*
X109515238Y-96454819D02*
X109277143Y-96454819D01*
X109277143Y-96454819D02*
X109181905Y-96407200D01*
X109181905Y-96407200D02*
X109134286Y-96359580D01*
X144454819Y-90761904D02*
X145264342Y-90761904D01*
X145264342Y-90761904D02*
X145359580Y-90714285D01*
X145359580Y-90714285D02*
X145407200Y-90666666D01*
X145407200Y-90666666D02*
X145454819Y-90571428D01*
X145454819Y-90571428D02*
X145454819Y-90380952D01*
X145454819Y-90380952D02*
X145407200Y-90285714D01*
X145407200Y-90285714D02*
X145359580Y-90238095D01*
X145359580Y-90238095D02*
X145264342Y-90190476D01*
X145264342Y-90190476D02*
X144454819Y-90190476D01*
X145454819Y-89190476D02*
X145454819Y-89761904D01*
X145454819Y-89476190D02*
X144454819Y-89476190D01*
X144454819Y-89476190D02*
X144597676Y-89571428D01*
X144597676Y-89571428D02*
X144692914Y-89666666D01*
X144692914Y-89666666D02*
X144740533Y-89761904D01*
X138918330Y-71534880D02*
X138870711Y-71582500D01*
X138870711Y-71582500D02*
X138727854Y-71630119D01*
X138727854Y-71630119D02*
X138632616Y-71630119D01*
X138632616Y-71630119D02*
X138489759Y-71582500D01*
X138489759Y-71582500D02*
X138394521Y-71487261D01*
X138394521Y-71487261D02*
X138346902Y-71392023D01*
X138346902Y-71392023D02*
X138299283Y-71201547D01*
X138299283Y-71201547D02*
X138299283Y-71058690D01*
X138299283Y-71058690D02*
X138346902Y-70868214D01*
X138346902Y-70868214D02*
X138394521Y-70772976D01*
X138394521Y-70772976D02*
X138489759Y-70677738D01*
X138489759Y-70677738D02*
X138632616Y-70630119D01*
X138632616Y-70630119D02*
X138727854Y-70630119D01*
X138727854Y-70630119D02*
X138870711Y-70677738D01*
X138870711Y-70677738D02*
X138918330Y-70725357D01*
X139870711Y-71630119D02*
X139299283Y-71630119D01*
X139584997Y-71630119D02*
X139584997Y-70630119D01*
X139584997Y-70630119D02*
X139489759Y-70772976D01*
X139489759Y-70772976D02*
X139394521Y-70868214D01*
X139394521Y-70868214D02*
X139299283Y-70915833D01*
X140489759Y-70630119D02*
X140584997Y-70630119D01*
X140584997Y-70630119D02*
X140680235Y-70677738D01*
X140680235Y-70677738D02*
X140727854Y-70725357D01*
X140727854Y-70725357D02*
X140775473Y-70820595D01*
X140775473Y-70820595D02*
X140823092Y-71011071D01*
X140823092Y-71011071D02*
X140823092Y-71249166D01*
X140823092Y-71249166D02*
X140775473Y-71439642D01*
X140775473Y-71439642D02*
X140727854Y-71534880D01*
X140727854Y-71534880D02*
X140680235Y-71582500D01*
X140680235Y-71582500D02*
X140584997Y-71630119D01*
X140584997Y-71630119D02*
X140489759Y-71630119D01*
X140489759Y-71630119D02*
X140394521Y-71582500D01*
X140394521Y-71582500D02*
X140346902Y-71534880D01*
X140346902Y-71534880D02*
X140299283Y-71439642D01*
X140299283Y-71439642D02*
X140251664Y-71249166D01*
X140251664Y-71249166D02*
X140251664Y-71011071D01*
X140251664Y-71011071D02*
X140299283Y-70820595D01*
X140299283Y-70820595D02*
X140346902Y-70725357D01*
X140346902Y-70725357D02*
X140394521Y-70677738D01*
X140394521Y-70677738D02*
X140489759Y-70630119D01*
X164857129Y-105359580D02*
X164809510Y-105407200D01*
X164809510Y-105407200D02*
X164666653Y-105454819D01*
X164666653Y-105454819D02*
X164571415Y-105454819D01*
X164571415Y-105454819D02*
X164428558Y-105407200D01*
X164428558Y-105407200D02*
X164333320Y-105311961D01*
X164333320Y-105311961D02*
X164285701Y-105216723D01*
X164285701Y-105216723D02*
X164238082Y-105026247D01*
X164238082Y-105026247D02*
X164238082Y-104883390D01*
X164238082Y-104883390D02*
X164285701Y-104692914D01*
X164285701Y-104692914D02*
X164333320Y-104597676D01*
X164333320Y-104597676D02*
X164428558Y-104502438D01*
X164428558Y-104502438D02*
X164571415Y-104454819D01*
X164571415Y-104454819D02*
X164666653Y-104454819D01*
X164666653Y-104454819D02*
X164809510Y-104502438D01*
X164809510Y-104502438D02*
X164857129Y-104550057D01*
X165809510Y-105454819D02*
X165238082Y-105454819D01*
X165523796Y-105454819D02*
X165523796Y-104454819D01*
X165523796Y-104454819D02*
X165428558Y-104597676D01*
X165428558Y-104597676D02*
X165333320Y-104692914D01*
X165333320Y-104692914D02*
X165238082Y-104740533D01*
X166142844Y-104454819D02*
X166761891Y-104454819D01*
X166761891Y-104454819D02*
X166428558Y-104835771D01*
X166428558Y-104835771D02*
X166571415Y-104835771D01*
X166571415Y-104835771D02*
X166666653Y-104883390D01*
X166666653Y-104883390D02*
X166714272Y-104931009D01*
X166714272Y-104931009D02*
X166761891Y-105026247D01*
X166761891Y-105026247D02*
X166761891Y-105264342D01*
X166761891Y-105264342D02*
X166714272Y-105359580D01*
X166714272Y-105359580D02*
X166666653Y-105407200D01*
X166666653Y-105407200D02*
X166571415Y-105454819D01*
X166571415Y-105454819D02*
X166285701Y-105454819D01*
X166285701Y-105454819D02*
X166190463Y-105407200D01*
X166190463Y-105407200D02*
X166142844Y-105359580D01*
X108833333Y-99954819D02*
X108500000Y-99478628D01*
X108261905Y-99954819D02*
X108261905Y-98954819D01*
X108261905Y-98954819D02*
X108642857Y-98954819D01*
X108642857Y-98954819D02*
X108738095Y-99002438D01*
X108738095Y-99002438D02*
X108785714Y-99050057D01*
X108785714Y-99050057D02*
X108833333Y-99145295D01*
X108833333Y-99145295D02*
X108833333Y-99288152D01*
X108833333Y-99288152D02*
X108785714Y-99383390D01*
X108785714Y-99383390D02*
X108738095Y-99431009D01*
X108738095Y-99431009D02*
X108642857Y-99478628D01*
X108642857Y-99478628D02*
X108261905Y-99478628D01*
X109690476Y-99288152D02*
X109690476Y-99954819D01*
X109452381Y-98907200D02*
X109214286Y-99621485D01*
X109214286Y-99621485D02*
X109833333Y-99621485D01*
X167753333Y-83454819D02*
X167420000Y-82978628D01*
X167181905Y-83454819D02*
X167181905Y-82454819D01*
X167181905Y-82454819D02*
X167562857Y-82454819D01*
X167562857Y-82454819D02*
X167658095Y-82502438D01*
X167658095Y-82502438D02*
X167705714Y-82550057D01*
X167705714Y-82550057D02*
X167753333Y-82645295D01*
X167753333Y-82645295D02*
X167753333Y-82788152D01*
X167753333Y-82788152D02*
X167705714Y-82883390D01*
X167705714Y-82883390D02*
X167658095Y-82931009D01*
X167658095Y-82931009D02*
X167562857Y-82978628D01*
X167562857Y-82978628D02*
X167181905Y-82978628D01*
X168705714Y-83454819D02*
X168134286Y-83454819D01*
X168420000Y-83454819D02*
X168420000Y-82454819D01*
X168420000Y-82454819D02*
X168324762Y-82597676D01*
X168324762Y-82597676D02*
X168229524Y-82692914D01*
X168229524Y-82692914D02*
X168134286Y-82740533D01*
X144454819Y-122738094D02*
X143454819Y-122738094D01*
X143454819Y-122738094D02*
X143454819Y-122499999D01*
X143454819Y-122499999D02*
X143502438Y-122357142D01*
X143502438Y-122357142D02*
X143597676Y-122261904D01*
X143597676Y-122261904D02*
X143692914Y-122214285D01*
X143692914Y-122214285D02*
X143883390Y-122166666D01*
X143883390Y-122166666D02*
X144026247Y-122166666D01*
X144026247Y-122166666D02*
X144216723Y-122214285D01*
X144216723Y-122214285D02*
X144311961Y-122261904D01*
X144311961Y-122261904D02*
X144407200Y-122357142D01*
X144407200Y-122357142D02*
X144454819Y-122499999D01*
X144454819Y-122499999D02*
X144454819Y-122738094D01*
X143454819Y-121833332D02*
X143454819Y-121166666D01*
X143454819Y-121166666D02*
X144454819Y-121595237D01*
X145954819Y-121761904D02*
X144954819Y-121761904D01*
X145954819Y-121190476D02*
X145383390Y-121619047D01*
X144954819Y-121190476D02*
X145526247Y-121761904D01*
X86878119Y-90833333D02*
X87592404Y-90833333D01*
X87592404Y-90833333D02*
X87735261Y-90880952D01*
X87735261Y-90880952D02*
X87830500Y-90976190D01*
X87830500Y-90976190D02*
X87878119Y-91119047D01*
X87878119Y-91119047D02*
X87878119Y-91214285D01*
X86878119Y-90452380D02*
X86878119Y-89785714D01*
X86878119Y-89785714D02*
X87878119Y-90214285D01*
X159238095Y-90454819D02*
X159238095Y-91264342D01*
X159238095Y-91264342D02*
X159285714Y-91359580D01*
X159285714Y-91359580D02*
X159333333Y-91407200D01*
X159333333Y-91407200D02*
X159428571Y-91454819D01*
X159428571Y-91454819D02*
X159619047Y-91454819D01*
X159619047Y-91454819D02*
X159714285Y-91407200D01*
X159714285Y-91407200D02*
X159761904Y-91359580D01*
X159761904Y-91359580D02*
X159809523Y-91264342D01*
X159809523Y-91264342D02*
X159809523Y-90454819D01*
X160238095Y-90550057D02*
X160285714Y-90502438D01*
X160285714Y-90502438D02*
X160380952Y-90454819D01*
X160380952Y-90454819D02*
X160619047Y-90454819D01*
X160619047Y-90454819D02*
X160714285Y-90502438D01*
X160714285Y-90502438D02*
X160761904Y-90550057D01*
X160761904Y-90550057D02*
X160809523Y-90645295D01*
X160809523Y-90645295D02*
X160809523Y-90740533D01*
X160809523Y-90740533D02*
X160761904Y-90883390D01*
X160761904Y-90883390D02*
X160190476Y-91454819D01*
X160190476Y-91454819D02*
X160809523Y-91454819D01*
X134071905Y-107904819D02*
X134071905Y-106904819D01*
X134071905Y-106904819D02*
X134310000Y-106904819D01*
X134310000Y-106904819D02*
X134452857Y-106952438D01*
X134452857Y-106952438D02*
X134548095Y-107047676D01*
X134548095Y-107047676D02*
X134595714Y-107142914D01*
X134595714Y-107142914D02*
X134643333Y-107333390D01*
X134643333Y-107333390D02*
X134643333Y-107476247D01*
X134643333Y-107476247D02*
X134595714Y-107666723D01*
X134595714Y-107666723D02*
X134548095Y-107761961D01*
X134548095Y-107761961D02*
X134452857Y-107857200D01*
X134452857Y-107857200D02*
X134310000Y-107904819D01*
X134310000Y-107904819D02*
X134071905Y-107904819D01*
X135595714Y-107904819D02*
X135024286Y-107904819D01*
X135310000Y-107904819D02*
X135310000Y-106904819D01*
X135310000Y-106904819D02*
X135214762Y-107047676D01*
X135214762Y-107047676D02*
X135119524Y-107142914D01*
X135119524Y-107142914D02*
X135024286Y-107190533D01*
X135048095Y-109404819D02*
X135048095Y-108404819D01*
X135619523Y-109404819D02*
X135190952Y-108833390D01*
X135619523Y-108404819D02*
X135048095Y-108976247D01*
X91833333Y-83359580D02*
X91785714Y-83407200D01*
X91785714Y-83407200D02*
X91642857Y-83454819D01*
X91642857Y-83454819D02*
X91547619Y-83454819D01*
X91547619Y-83454819D02*
X91404762Y-83407200D01*
X91404762Y-83407200D02*
X91309524Y-83311961D01*
X91309524Y-83311961D02*
X91261905Y-83216723D01*
X91261905Y-83216723D02*
X91214286Y-83026247D01*
X91214286Y-83026247D02*
X91214286Y-82883390D01*
X91214286Y-82883390D02*
X91261905Y-82692914D01*
X91261905Y-82692914D02*
X91309524Y-82597676D01*
X91309524Y-82597676D02*
X91404762Y-82502438D01*
X91404762Y-82502438D02*
X91547619Y-82454819D01*
X91547619Y-82454819D02*
X91642857Y-82454819D01*
X91642857Y-82454819D02*
X91785714Y-82502438D01*
X91785714Y-82502438D02*
X91833333Y-82550057D01*
X92690476Y-82788152D02*
X92690476Y-83454819D01*
X92452381Y-82407200D02*
X92214286Y-83121485D01*
X92214286Y-83121485D02*
X92833333Y-83121485D01*
D12*
%TO.C,RV1-GAIN1*%
X97170000Y-77120000D02*
X97170000Y-72400000D01*
X97170000Y-77120000D02*
X95680000Y-77120000D01*
X97170000Y-68590000D02*
X97170000Y-65530000D01*
X97170000Y-65530000D02*
X87430000Y-65530000D01*
X93960000Y-77120000D02*
X93130000Y-77120000D01*
X91510000Y-77120000D02*
X90980000Y-77120000D01*
X88610000Y-77120000D02*
X87430000Y-77120000D01*
X87430000Y-68590000D02*
X87430000Y-65530000D01*
X87420000Y-77120000D02*
X87420000Y-72400000D01*
%TO.C,RV2-FILTER1*%
X128820000Y-77120000D02*
X128820000Y-72400000D01*
X128820000Y-77120000D02*
X127330000Y-77120000D01*
X128820000Y-68590000D02*
X128820000Y-65530000D01*
X128820000Y-65530000D02*
X119080000Y-65530000D01*
X125610000Y-77120000D02*
X124780000Y-77120000D01*
X123160000Y-77120000D02*
X122630000Y-77120000D01*
X120260000Y-77120000D02*
X119080000Y-77120000D01*
X119080000Y-68590000D02*
X119080000Y-65530000D01*
X119070000Y-77120000D02*
X119070000Y-72400000D01*
%TO.C,RV3-VOL1*%
X160470000Y-77120000D02*
X160470000Y-72400000D01*
X160470000Y-77120000D02*
X158980000Y-77120000D01*
X160470000Y-68590000D02*
X160470000Y-65530000D01*
X160470000Y-65530000D02*
X150730000Y-65530000D01*
X157260000Y-77120000D02*
X156430000Y-77120000D01*
X154810000Y-77120000D02*
X154280000Y-77120000D01*
X151910000Y-77120000D02*
X150730000Y-77120000D01*
X150730000Y-68590000D02*
X150730000Y-65530000D01*
X150720000Y-77120000D02*
X150720000Y-72400000D01*
%TO.C,RV4-BLEND1*%
X192120000Y-77120000D02*
X192120000Y-72400000D01*
X192120000Y-77120000D02*
X190630000Y-77120000D01*
X192120000Y-68590000D02*
X192120000Y-65530000D01*
X192120000Y-65530000D02*
X182380000Y-65530000D01*
X188910000Y-77120000D02*
X188080000Y-77120000D01*
X186460000Y-77120000D02*
X185930000Y-77120000D01*
X183560000Y-77120000D02*
X182380000Y-77120000D01*
X182380000Y-77120000D02*
X182380000Y-72400000D01*
X182380000Y-68590000D02*
X182380000Y-65530000D01*
D10*
%TO.C,SW8*%
X130800000Y-120151100D02*
G75*
G02*
X123200000Y-120151100I-3800000J0D01*
G01*
X123200000Y-120151100D02*
G75*
G02*
X130800000Y-120151100I3800000J0D01*
G01*
D12*
X140300376Y-120151100D02*
G75*
G02*
X113699624Y-120151100I-13300376J0D01*
G01*
X113699624Y-120151100D02*
G75*
G02*
X140300376Y-120151100I13300376J0D01*
G01*
%TO.C,C2*%
X133030000Y-86130000D02*
X137970000Y-86130000D01*
X133030000Y-86460000D02*
X133030000Y-86130000D01*
X133030000Y-88870000D02*
X133030000Y-88540000D01*
X137970000Y-86130000D02*
X137970000Y-86460000D01*
X137970000Y-88540000D02*
X137970000Y-88870000D01*
X137970000Y-88870000D02*
X133030000Y-88870000D01*
%TO.C,R18*%
X182710000Y-86200000D02*
X183480000Y-86200000D01*
X190790000Y-86200000D02*
X190020000Y-86200000D01*
X190020000Y-87570000D02*
X183480000Y-87570000D01*
X183480000Y-84830000D01*
X190020000Y-84830000D01*
X190020000Y-87570000D01*
%TO.C,J4*%
X168960000Y-111120000D02*
X168960000Y-113880000D01*
X186850000Y-111120000D02*
X168960000Y-111120000D01*
X186850000Y-111120000D02*
X186850000Y-113880000D01*
X186850000Y-113880000D02*
X168960000Y-113880000D01*
X188120000Y-111120000D02*
X189500000Y-111120000D01*
X189500000Y-111120000D02*
X189500000Y-112500000D01*
%TO.C,D8*%
X142000000Y-113230000D02*
X142000000Y-113880000D01*
X142000000Y-118770000D02*
X142000000Y-118120000D01*
X143120000Y-114480000D02*
X140880000Y-114480000D01*
X143120000Y-114600000D02*
X140880000Y-114600000D01*
X143120000Y-114720000D02*
X140880000Y-114720000D01*
X143120000Y-113880000D02*
X140880000Y-113880000D01*
X140880000Y-118120000D01*
X143120000Y-118120000D01*
X143120000Y-113880000D01*
%TO.C,R14*%
X98460000Y-82500000D02*
X99230000Y-82500000D01*
X106540000Y-82500000D02*
X105770000Y-82500000D01*
X99230000Y-81130000D02*
X105770000Y-81130000D01*
X105770000Y-83870000D01*
X99230000Y-83870000D01*
X99230000Y-81130000D01*
%TO.C,C19*%
X174130200Y-85633000D02*
X174130200Y-85067000D01*
X174170200Y-85867000D02*
X174170200Y-84833000D01*
X174210200Y-86027000D02*
X174210200Y-84673000D01*
X174250200Y-86155000D02*
X174250200Y-84545000D01*
X174290200Y-86264000D02*
X174290200Y-84436000D01*
X174330200Y-86361000D02*
X174330200Y-84339000D01*
X174370200Y-86448000D02*
X174370200Y-84252000D01*
X174410200Y-86527000D02*
X174410200Y-84173000D01*
X174450200Y-84310000D02*
X174450200Y-84099000D01*
X174450200Y-86601000D02*
X174450200Y-86390000D01*
X174490200Y-84310000D02*
X174490200Y-84031000D01*
X174490200Y-86669000D02*
X174490200Y-86390000D01*
X174530200Y-84310000D02*
X174530200Y-83967000D01*
X174530200Y-86733000D02*
X174530200Y-86390000D01*
X174570200Y-84310000D02*
X174570200Y-83907000D01*
X174570200Y-86793000D02*
X174570200Y-86390000D01*
X174610200Y-84310000D02*
X174610200Y-83851000D01*
X174610200Y-86849000D02*
X174610200Y-86390000D01*
X174650200Y-84310000D02*
X174650200Y-83797000D01*
X174650200Y-86903000D02*
X174650200Y-86390000D01*
X174690200Y-84310000D02*
X174690200Y-83746000D01*
X174690200Y-86954000D02*
X174690200Y-86390000D01*
X174730200Y-84310000D02*
X174730200Y-83698000D01*
X174730200Y-87002000D02*
X174730200Y-86390000D01*
X174770200Y-84310000D02*
X174770200Y-83651000D01*
X174770200Y-87049000D02*
X174770200Y-86390000D01*
X174810200Y-84310000D02*
X174810200Y-83607000D01*
X174810200Y-87093000D02*
X174810200Y-86390000D01*
X174850200Y-84310000D02*
X174850200Y-83565000D01*
X174850200Y-87135000D02*
X174850200Y-86390000D01*
X174890200Y-84310000D02*
X174890200Y-83525000D01*
X174890200Y-87175000D02*
X174890200Y-86390000D01*
X174930200Y-84310000D02*
X174930200Y-83486000D01*
X174930200Y-87214000D02*
X174930200Y-86390000D01*
X174970200Y-84310000D02*
X174970200Y-83449000D01*
X174970200Y-87251000D02*
X174970200Y-86390000D01*
X175010200Y-84310000D02*
X175010200Y-83414000D01*
X175010200Y-87286000D02*
X175010200Y-86390000D01*
X175050200Y-84310000D02*
X175050200Y-83380000D01*
X175050200Y-87320000D02*
X175050200Y-86390000D01*
X175090200Y-84310000D02*
X175090200Y-83347000D01*
X175090200Y-87353000D02*
X175090200Y-86390000D01*
X175130200Y-84310000D02*
X175130200Y-83315000D01*
X175130200Y-87385000D02*
X175130200Y-86390000D01*
X175170200Y-84310000D02*
X175170200Y-83285000D01*
X175170200Y-87415000D02*
X175170200Y-86390000D01*
X175210200Y-84310000D02*
X175210200Y-83256000D01*
X175210200Y-87444000D02*
X175210200Y-86390000D01*
X175250200Y-84310000D02*
X175250200Y-83228000D01*
X175250200Y-87472000D02*
X175250200Y-86390000D01*
X175290200Y-84310000D02*
X175290200Y-83201000D01*
X175290200Y-87499000D02*
X175290200Y-86390000D01*
X175330200Y-84310000D02*
X175330200Y-83175000D01*
X175330200Y-87525000D02*
X175330200Y-86390000D01*
X175370200Y-84310000D02*
X175370200Y-83151000D01*
X175370200Y-87549000D02*
X175370200Y-86390000D01*
X175410200Y-84310000D02*
X175410200Y-83127000D01*
X175410200Y-87573000D02*
X175410200Y-86390000D01*
X175450200Y-84310000D02*
X175450200Y-83104000D01*
X175450200Y-87596000D02*
X175450200Y-86390000D01*
X175490200Y-84310000D02*
X175490200Y-83082000D01*
X175490200Y-87618000D02*
X175490200Y-86390000D01*
X175530200Y-84310000D02*
X175530200Y-83061000D01*
X175530200Y-87639000D02*
X175530200Y-86390000D01*
X175570200Y-84310000D02*
X175570200Y-83041000D01*
X175570200Y-87659000D02*
X175570200Y-86390000D01*
X175610200Y-84310000D02*
X175610200Y-83021000D01*
X175610200Y-87679000D02*
X175610200Y-86390000D01*
X175650200Y-84310000D02*
X175650200Y-83003000D01*
X175650200Y-87697000D02*
X175650200Y-86390000D01*
X175690200Y-84310000D02*
X175690200Y-82985000D01*
X175690200Y-87715000D02*
X175690200Y-86390000D01*
X175730200Y-84310000D02*
X175730200Y-82968000D01*
X175730200Y-87732000D02*
X175730200Y-86390000D01*
X175770200Y-84310000D02*
X175770200Y-82952000D01*
X175770200Y-87748000D02*
X175770200Y-86390000D01*
X175810200Y-84310000D02*
X175810200Y-82937000D01*
X175810200Y-87763000D02*
X175810200Y-86390000D01*
X175850200Y-84310000D02*
X175850200Y-82922000D01*
X175850200Y-87778000D02*
X175850200Y-86390000D01*
X175890200Y-84310000D02*
X175890200Y-82908000D01*
X175890200Y-87792000D02*
X175890200Y-86390000D01*
X175930200Y-84310000D02*
X175930200Y-82895000D01*
X175930200Y-87805000D02*
X175930200Y-86390000D01*
X175970200Y-84310000D02*
X175970200Y-82883000D01*
X175970200Y-87817000D02*
X175970200Y-86390000D01*
X176010200Y-84310000D02*
X176010200Y-82871000D01*
X176010200Y-87829000D02*
X176010200Y-86390000D01*
X176050200Y-84310000D02*
X176050200Y-82860000D01*
X176050200Y-87840000D02*
X176050200Y-86390000D01*
X176090200Y-84310000D02*
X176090200Y-82849000D01*
X176090200Y-87851000D02*
X176090200Y-86390000D01*
X176130200Y-84310000D02*
X176130200Y-82840000D01*
X176130200Y-87860000D02*
X176130200Y-86390000D01*
X176170200Y-84310000D02*
X176170200Y-82831000D01*
X176170200Y-87869000D02*
X176170200Y-86390000D01*
X176210200Y-84310000D02*
X176210200Y-82822000D01*
X176210200Y-87878000D02*
X176210200Y-86390000D01*
X176250200Y-84310000D02*
X176250200Y-82814000D01*
X176250200Y-87886000D02*
X176250200Y-86390000D01*
X176290200Y-84310000D02*
X176290200Y-82807000D01*
X176290200Y-87893000D02*
X176290200Y-86390000D01*
X176330200Y-84310000D02*
X176330200Y-82801000D01*
X176330200Y-87899000D02*
X176330200Y-86390000D01*
X176370200Y-84310000D02*
X176370200Y-82795000D01*
X176370200Y-87905000D02*
X176370200Y-86390000D01*
X176410200Y-84310000D02*
X176410200Y-82790000D01*
X176410200Y-87910000D02*
X176410200Y-86390000D01*
X176450200Y-84310000D02*
X176450200Y-82785000D01*
X176450200Y-87915000D02*
X176450200Y-86390000D01*
X176490200Y-84310000D02*
X176490200Y-82781000D01*
X176490200Y-87919000D02*
X176490200Y-86390000D01*
X176530200Y-87922000D02*
X176530200Y-82778000D01*
X176570200Y-87925000D02*
X176570200Y-82775000D01*
X176610200Y-87927000D02*
X176610200Y-82773000D01*
X176650200Y-87929000D02*
X176650200Y-82771000D01*
X176690200Y-87930000D02*
X176690200Y-82770000D01*
X176730200Y-87930000D02*
X176730200Y-82770000D01*
X179284975Y-87075000D02*
X179284975Y-86575000D01*
X179534975Y-86825000D02*
X179034975Y-86825000D01*
X179350200Y-85350000D02*
G75*
G02*
X174110200Y-85350000I-2620000J0D01*
G01*
X174110200Y-85350000D02*
G75*
G02*
X179350200Y-85350000I2620000J0D01*
G01*
%TO.C,C7*%
X134445225Y-81525000D02*
X134945225Y-81525000D01*
X134695225Y-81275000D02*
X134695225Y-81775000D01*
X137250000Y-80420000D02*
X137250000Y-85580000D01*
X137290000Y-80420000D02*
X137290000Y-85580000D01*
X137330000Y-80421000D02*
X137330000Y-85579000D01*
X137370000Y-80423000D02*
X137370000Y-85577000D01*
X137410000Y-80425000D02*
X137410000Y-85575000D01*
X137450000Y-80428000D02*
X137450000Y-85572000D01*
X137490000Y-80431000D02*
X137490000Y-81960000D01*
X137490000Y-84040000D02*
X137490000Y-85569000D01*
X137530000Y-80435000D02*
X137530000Y-81960000D01*
X137530000Y-84040000D02*
X137530000Y-85565000D01*
X137570000Y-80440000D02*
X137570000Y-81960000D01*
X137570000Y-84040000D02*
X137570000Y-85560000D01*
X137610000Y-80445000D02*
X137610000Y-81960000D01*
X137610000Y-84040000D02*
X137610000Y-85555000D01*
X137650000Y-80451000D02*
X137650000Y-81960000D01*
X137650000Y-84040000D02*
X137650000Y-85549000D01*
X137690000Y-80457000D02*
X137690000Y-81960000D01*
X137690000Y-84040000D02*
X137690000Y-85543000D01*
X137730000Y-80464000D02*
X137730000Y-81960000D01*
X137730000Y-84040000D02*
X137730000Y-85536000D01*
X137770000Y-80472000D02*
X137770000Y-81960000D01*
X137770000Y-84040000D02*
X137770000Y-85528000D01*
X137810000Y-80481000D02*
X137810000Y-81960000D01*
X137810000Y-84040000D02*
X137810000Y-85519000D01*
X137850000Y-80490000D02*
X137850000Y-81960000D01*
X137850000Y-84040000D02*
X137850000Y-85510000D01*
X137890000Y-80499000D02*
X137890000Y-81960000D01*
X137890000Y-84040000D02*
X137890000Y-85501000D01*
X137930000Y-80510000D02*
X137930000Y-81960000D01*
X137930000Y-84040000D02*
X137930000Y-85490000D01*
X137970000Y-80521000D02*
X137970000Y-81960000D01*
X137970000Y-84040000D02*
X137970000Y-85479000D01*
X138010000Y-80533000D02*
X138010000Y-81960000D01*
X138010000Y-84040000D02*
X138010000Y-85467000D01*
X138050000Y-80545000D02*
X138050000Y-81960000D01*
X138050000Y-84040000D02*
X138050000Y-85455000D01*
X138090000Y-80558000D02*
X138090000Y-81960000D01*
X138090000Y-84040000D02*
X138090000Y-85442000D01*
X138130000Y-80572000D02*
X138130000Y-81960000D01*
X138130000Y-84040000D02*
X138130000Y-85428000D01*
X138170000Y-80587000D02*
X138170000Y-81960000D01*
X138170000Y-84040000D02*
X138170000Y-85413000D01*
X138210000Y-80602000D02*
X138210000Y-81960000D01*
X138210000Y-84040000D02*
X138210000Y-85398000D01*
X138250000Y-80618000D02*
X138250000Y-81960000D01*
X138250000Y-84040000D02*
X138250000Y-85382000D01*
X138290000Y-80635000D02*
X138290000Y-81960000D01*
X138290000Y-84040000D02*
X138290000Y-85365000D01*
X138330000Y-80653000D02*
X138330000Y-81960000D01*
X138330000Y-84040000D02*
X138330000Y-85347000D01*
X138370000Y-80671000D02*
X138370000Y-81960000D01*
X138370000Y-84040000D02*
X138370000Y-85329000D01*
X138410000Y-80691000D02*
X138410000Y-81960000D01*
X138410000Y-84040000D02*
X138410000Y-85309000D01*
X138450000Y-80711000D02*
X138450000Y-81960000D01*
X138450000Y-84040000D02*
X138450000Y-85289000D01*
X138490000Y-80732000D02*
X138490000Y-81960000D01*
X138490000Y-84040000D02*
X138490000Y-85268000D01*
X138530000Y-80754000D02*
X138530000Y-81960000D01*
X138530000Y-84040000D02*
X138530000Y-85246000D01*
X138570000Y-80777000D02*
X138570000Y-81960000D01*
X138570000Y-84040000D02*
X138570000Y-85223000D01*
X138610000Y-80801000D02*
X138610000Y-81960000D01*
X138610000Y-84040000D02*
X138610000Y-85199000D01*
X138650000Y-80825000D02*
X138650000Y-81960000D01*
X138650000Y-84040000D02*
X138650000Y-85175000D01*
X138690000Y-80851000D02*
X138690000Y-81960000D01*
X138690000Y-84040000D02*
X138690000Y-85149000D01*
X138730000Y-80878000D02*
X138730000Y-81960000D01*
X138730000Y-84040000D02*
X138730000Y-85122000D01*
X138770000Y-80906000D02*
X138770000Y-81960000D01*
X138770000Y-84040000D02*
X138770000Y-85094000D01*
X138810000Y-80935000D02*
X138810000Y-81960000D01*
X138810000Y-84040000D02*
X138810000Y-85065000D01*
X138850000Y-80965000D02*
X138850000Y-81960000D01*
X138850000Y-84040000D02*
X138850000Y-85035000D01*
X138890000Y-80997000D02*
X138890000Y-81960000D01*
X138890000Y-84040000D02*
X138890000Y-85003000D01*
X138930000Y-81030000D02*
X138930000Y-81960000D01*
X138930000Y-84040000D02*
X138930000Y-84970000D01*
X138970000Y-81064000D02*
X138970000Y-81960000D01*
X138970000Y-84040000D02*
X138970000Y-84936000D01*
X139010000Y-81099000D02*
X139010000Y-81960000D01*
X139010000Y-84040000D02*
X139010000Y-84901000D01*
X139050000Y-81136000D02*
X139050000Y-81960000D01*
X139050000Y-84040000D02*
X139050000Y-84864000D01*
X139090000Y-81175000D02*
X139090000Y-81960000D01*
X139090000Y-84040000D02*
X139090000Y-84825000D01*
X139130000Y-81215000D02*
X139130000Y-81960000D01*
X139130000Y-84040000D02*
X139130000Y-84785000D01*
X139170000Y-81257000D02*
X139170000Y-81960000D01*
X139170000Y-84040000D02*
X139170000Y-84743000D01*
X139210000Y-81301000D02*
X139210000Y-81960000D01*
X139210000Y-84040000D02*
X139210000Y-84699000D01*
X139250000Y-81348000D02*
X139250000Y-81960000D01*
X139250000Y-84040000D02*
X139250000Y-84652000D01*
X139290000Y-81396000D02*
X139290000Y-81960000D01*
X139290000Y-84040000D02*
X139290000Y-84604000D01*
X139330000Y-81447000D02*
X139330000Y-81960000D01*
X139330000Y-84040000D02*
X139330000Y-84553000D01*
X139370000Y-81501000D02*
X139370000Y-81960000D01*
X139370000Y-84040000D02*
X139370000Y-84499000D01*
X139410000Y-81557000D02*
X139410000Y-81960000D01*
X139410000Y-84040000D02*
X139410000Y-84443000D01*
X139450000Y-81617000D02*
X139450000Y-81960000D01*
X139450000Y-84040000D02*
X139450000Y-84383000D01*
X139490000Y-81681000D02*
X139490000Y-81960000D01*
X139490000Y-84040000D02*
X139490000Y-84319000D01*
X139530000Y-81749000D02*
X139530000Y-81960000D01*
X139530000Y-84040000D02*
X139530000Y-84251000D01*
X139570000Y-81823000D02*
X139570000Y-84177000D01*
X139610000Y-81902000D02*
X139610000Y-84098000D01*
X139650000Y-81989000D02*
X139650000Y-84011000D01*
X139690000Y-82086000D02*
X139690000Y-83914000D01*
X139730000Y-82195000D02*
X139730000Y-83805000D01*
X139770000Y-82323000D02*
X139770000Y-83677000D01*
X139810000Y-82483000D02*
X139810000Y-83517000D01*
X139850000Y-82717000D02*
X139850000Y-83283000D01*
X139870000Y-83000000D02*
G75*
G02*
X134630000Y-83000000I-2620000J0D01*
G01*
X134630000Y-83000000D02*
G75*
G02*
X139870000Y-83000000I2620000J0D01*
G01*
%TO.C,R6*%
X142500000Y-73880000D02*
X142500000Y-74650000D01*
X142500000Y-81960000D02*
X142500000Y-81190000D01*
X143870000Y-74650000D02*
X141130000Y-74650000D01*
X141130000Y-81190000D01*
X143870000Y-81190000D01*
X143870000Y-74650000D01*
%TO.C,D2*%
X137730000Y-105000000D02*
X138380000Y-105000000D01*
X138380000Y-103880000D02*
X138380000Y-106120000D01*
X138380000Y-105000000D02*
X139674500Y-105000000D01*
X138380000Y-106120000D02*
X142620000Y-106120000D01*
X141262000Y-105889000D02*
X141262000Y-104111000D01*
X142620000Y-103880000D02*
X138380000Y-103880000D01*
X142620000Y-106120000D02*
X142620000Y-103880000D01*
X142659000Y-105000000D02*
X141262000Y-105000000D01*
X143270000Y-105000000D02*
X142620000Y-105000000D01*
D10*
X141262000Y-105000000D02*
X139738000Y-105889000D01*
X139738000Y-104111000D01*
X141262000Y-105000000D01*
G36*
X141262000Y-105000000D02*
G01*
X139738000Y-105889000D01*
X139738000Y-104111000D01*
X141262000Y-105000000D01*
G37*
D12*
%TO.C,J5*%
X88423300Y-98380000D02*
X88423300Y-97000000D01*
X89803300Y-98380000D02*
X88423300Y-98380000D01*
X91073300Y-95620000D02*
X93723300Y-95620000D01*
X91073300Y-98380000D02*
X91073300Y-95620000D01*
X91073300Y-98380000D02*
X93723300Y-98380000D01*
X93723300Y-98380000D02*
X93723300Y-95620000D01*
%TO.C,C22*%
X120630000Y-101030000D02*
X120960000Y-101030000D01*
X120630000Y-105970000D02*
X120630000Y-101030000D01*
X120960000Y-105970000D02*
X120630000Y-105970000D01*
X123040000Y-101030000D02*
X123370000Y-101030000D01*
X123370000Y-101030000D02*
X123370000Y-105970000D01*
X123370000Y-105970000D02*
X123040000Y-105970000D01*
%TO.C,C21*%
X110530000Y-108130000D02*
X115470000Y-108130000D01*
X110530000Y-108460000D02*
X110530000Y-108130000D01*
X110530000Y-110870000D02*
X110530000Y-110540000D01*
X115470000Y-108130000D02*
X115470000Y-108460000D01*
X115470000Y-110540000D02*
X115470000Y-110870000D01*
X115470000Y-110870000D02*
X110530000Y-110870000D01*
%TO.C,C12*%
X156130000Y-116030000D02*
X156460000Y-116030000D01*
X156130000Y-120970000D02*
X156130000Y-116030000D01*
X156460000Y-120970000D02*
X156130000Y-120970000D01*
X158540000Y-116030000D02*
X158870000Y-116030000D01*
X158870000Y-116030000D02*
X158870000Y-120970000D01*
X158870000Y-120970000D02*
X158540000Y-120970000D01*
%TO.C,C6*%
X109420000Y-104210000D02*
X114580000Y-104210000D01*
X109420000Y-104250000D02*
X114580000Y-104250000D01*
X109421000Y-104170000D02*
X114579000Y-104170000D01*
X109423000Y-104130000D02*
X114577000Y-104130000D01*
X109425000Y-104090000D02*
X114575000Y-104090000D01*
X109428000Y-104050000D02*
X114572000Y-104050000D01*
X109431000Y-104010000D02*
X110960000Y-104010000D01*
X109435000Y-103970000D02*
X110960000Y-103970000D01*
X109440000Y-103930000D02*
X110960000Y-103930000D01*
X109445000Y-103890000D02*
X110960000Y-103890000D01*
X109451000Y-103850000D02*
X110960000Y-103850000D01*
X109457000Y-103810000D02*
X110960000Y-103810000D01*
X109464000Y-103770000D02*
X110960000Y-103770000D01*
X109472000Y-103730000D02*
X110960000Y-103730000D01*
X109481000Y-103690000D02*
X110960000Y-103690000D01*
X109490000Y-103650000D02*
X110960000Y-103650000D01*
X109499000Y-103610000D02*
X110960000Y-103610000D01*
X109510000Y-103570000D02*
X110960000Y-103570000D01*
X109521000Y-103530000D02*
X110960000Y-103530000D01*
X109533000Y-103490000D02*
X110960000Y-103490000D01*
X109545000Y-103450000D02*
X110960000Y-103450000D01*
X109558000Y-103410000D02*
X110960000Y-103410000D01*
X109572000Y-103370000D02*
X110960000Y-103370000D01*
X109587000Y-103330000D02*
X110960000Y-103330000D01*
X109602000Y-103290000D02*
X110960000Y-103290000D01*
X109618000Y-103250000D02*
X110960000Y-103250000D01*
X109635000Y-103210000D02*
X110960000Y-103210000D01*
X109653000Y-103170000D02*
X110960000Y-103170000D01*
X109671000Y-103130000D02*
X110960000Y-103130000D01*
X109691000Y-103090000D02*
X110960000Y-103090000D01*
X109711000Y-103050000D02*
X110960000Y-103050000D01*
X109732000Y-103010000D02*
X110960000Y-103010000D01*
X109754000Y-102970000D02*
X110960000Y-102970000D01*
X109777000Y-102930000D02*
X110960000Y-102930000D01*
X109801000Y-102890000D02*
X110960000Y-102890000D01*
X109825000Y-102850000D02*
X110960000Y-102850000D01*
X109851000Y-102810000D02*
X110960000Y-102810000D01*
X109878000Y-102770000D02*
X110960000Y-102770000D01*
X109906000Y-102730000D02*
X110960000Y-102730000D01*
X109935000Y-102690000D02*
X110960000Y-102690000D01*
X109965000Y-102650000D02*
X110960000Y-102650000D01*
X109997000Y-102610000D02*
X110960000Y-102610000D01*
X110030000Y-102570000D02*
X110960000Y-102570000D01*
X110064000Y-102530000D02*
X110960000Y-102530000D01*
X110099000Y-102490000D02*
X110960000Y-102490000D01*
X110136000Y-102450000D02*
X110960000Y-102450000D01*
X110175000Y-102410000D02*
X110960000Y-102410000D01*
X110215000Y-102370000D02*
X110960000Y-102370000D01*
X110257000Y-102330000D02*
X110960000Y-102330000D01*
X110275000Y-106804775D02*
X110775000Y-106804775D01*
X110301000Y-102290000D02*
X110960000Y-102290000D01*
X110348000Y-102250000D02*
X110960000Y-102250000D01*
X110396000Y-102210000D02*
X110960000Y-102210000D01*
X110447000Y-102170000D02*
X110960000Y-102170000D01*
X110501000Y-102130000D02*
X110960000Y-102130000D01*
X110525000Y-107054775D02*
X110525000Y-106554775D01*
X110557000Y-102090000D02*
X110960000Y-102090000D01*
X110617000Y-102050000D02*
X110960000Y-102050000D01*
X110681000Y-102010000D02*
X110960000Y-102010000D01*
X110749000Y-101970000D02*
X110960000Y-101970000D01*
X110823000Y-101930000D02*
X113177000Y-101930000D01*
X110902000Y-101890000D02*
X113098000Y-101890000D01*
X110989000Y-101850000D02*
X113011000Y-101850000D01*
X111086000Y-101810000D02*
X112914000Y-101810000D01*
X111195000Y-101770000D02*
X112805000Y-101770000D01*
X111323000Y-101730000D02*
X112677000Y-101730000D01*
X111483000Y-101690000D02*
X112517000Y-101690000D01*
X111717000Y-101650000D02*
X112283000Y-101650000D01*
X113040000Y-101970000D02*
X113251000Y-101970000D01*
X113040000Y-102010000D02*
X113319000Y-102010000D01*
X113040000Y-102050000D02*
X113383000Y-102050000D01*
X113040000Y-102090000D02*
X113443000Y-102090000D01*
X113040000Y-102130000D02*
X113499000Y-102130000D01*
X113040000Y-102170000D02*
X113553000Y-102170000D01*
X113040000Y-102210000D02*
X113604000Y-102210000D01*
X113040000Y-102250000D02*
X113652000Y-102250000D01*
X113040000Y-102290000D02*
X113699000Y-102290000D01*
X113040000Y-102330000D02*
X113743000Y-102330000D01*
X113040000Y-102370000D02*
X113785000Y-102370000D01*
X113040000Y-102410000D02*
X113825000Y-102410000D01*
X113040000Y-102450000D02*
X113864000Y-102450000D01*
X113040000Y-102490000D02*
X113901000Y-102490000D01*
X113040000Y-102530000D02*
X113936000Y-102530000D01*
X113040000Y-102570000D02*
X113970000Y-102570000D01*
X113040000Y-102610000D02*
X114003000Y-102610000D01*
X113040000Y-102650000D02*
X114035000Y-102650000D01*
X113040000Y-102690000D02*
X114065000Y-102690000D01*
X113040000Y-102730000D02*
X114094000Y-102730000D01*
X113040000Y-102770000D02*
X114122000Y-102770000D01*
X113040000Y-102810000D02*
X114149000Y-102810000D01*
X113040000Y-102850000D02*
X114175000Y-102850000D01*
X113040000Y-102890000D02*
X114199000Y-102890000D01*
X113040000Y-102930000D02*
X114223000Y-102930000D01*
X113040000Y-102970000D02*
X114246000Y-102970000D01*
X113040000Y-103010000D02*
X114268000Y-103010000D01*
X113040000Y-103050000D02*
X114289000Y-103050000D01*
X113040000Y-103090000D02*
X114309000Y-103090000D01*
X113040000Y-103130000D02*
X114329000Y-103130000D01*
X113040000Y-103170000D02*
X114347000Y-103170000D01*
X113040000Y-103210000D02*
X114365000Y-103210000D01*
X113040000Y-103250000D02*
X114382000Y-103250000D01*
X113040000Y-103290000D02*
X114398000Y-103290000D01*
X113040000Y-103330000D02*
X114413000Y-103330000D01*
X113040000Y-103370000D02*
X114428000Y-103370000D01*
X113040000Y-103410000D02*
X114442000Y-103410000D01*
X113040000Y-103450000D02*
X114455000Y-103450000D01*
X113040000Y-103490000D02*
X114467000Y-103490000D01*
X113040000Y-103530000D02*
X114479000Y-103530000D01*
X113040000Y-103570000D02*
X114490000Y-103570000D01*
X113040000Y-103610000D02*
X114501000Y-103610000D01*
X113040000Y-103650000D02*
X114510000Y-103650000D01*
X113040000Y-103690000D02*
X114519000Y-103690000D01*
X113040000Y-103730000D02*
X114528000Y-103730000D01*
X113040000Y-103770000D02*
X114536000Y-103770000D01*
X113040000Y-103810000D02*
X114543000Y-103810000D01*
X113040000Y-103850000D02*
X114549000Y-103850000D01*
X113040000Y-103890000D02*
X114555000Y-103890000D01*
X113040000Y-103930000D02*
X114560000Y-103930000D01*
X113040000Y-103970000D02*
X114565000Y-103970000D01*
X113040000Y-104010000D02*
X114569000Y-104010000D01*
X114620000Y-104250000D02*
G75*
G02*
X109380000Y-104250000I-2620000J0D01*
G01*
X109380000Y-104250000D02*
G75*
G02*
X114620000Y-104250000I2620000J0D01*
G01*
%TO.C,R16*%
X182710000Y-94300000D02*
X183480000Y-94300000D01*
X190790000Y-94300000D02*
X190020000Y-94300000D01*
X190020000Y-95670000D02*
X183480000Y-95670000D01*
X183480000Y-92930000D01*
X190020000Y-92930000D01*
X190020000Y-95670000D01*
D10*
%TO.C,SW3*%
X103613000Y-120151100D02*
G75*
G02*
X96013000Y-120151100I-3800000J0D01*
G01*
X96013000Y-120151100D02*
G75*
G02*
X103613000Y-120151100I3800000J0D01*
G01*
D12*
X113113376Y-120151100D02*
G75*
G02*
X86512624Y-120151100I-13300376J0D01*
G01*
X86512624Y-120151100D02*
G75*
G02*
X113113376Y-120151100I13300376J0D01*
G01*
%TO.C,C8*%
X97530000Y-85130000D02*
X102470000Y-85130000D01*
X97530000Y-85460000D02*
X97530000Y-85130000D01*
X97530000Y-87870000D02*
X97530000Y-87540000D01*
X102470000Y-85130000D02*
X102470000Y-85460000D01*
X102470000Y-87540000D02*
X102470000Y-87870000D01*
X102470000Y-87870000D02*
X97530000Y-87870000D01*
%TO.C,R2*%
X152500000Y-86960000D02*
X152500000Y-87730000D01*
X152500000Y-95040000D02*
X152500000Y-94270000D01*
X153870000Y-87730000D02*
X151130000Y-87730000D01*
X151130000Y-94270000D01*
X153870000Y-94270000D01*
X153870000Y-87730000D01*
%TO.C,C15*%
X103920000Y-103915100D02*
X109080000Y-103915100D01*
X103920000Y-103955100D02*
X109080000Y-103955100D01*
X103921000Y-103875100D02*
X109079000Y-103875100D01*
X103923000Y-103835100D02*
X109077000Y-103835100D01*
X103925000Y-103795100D02*
X109075000Y-103795100D01*
X103928000Y-103755100D02*
X109072000Y-103755100D01*
X103931000Y-103715100D02*
X105460000Y-103715100D01*
X103935000Y-103675100D02*
X105460000Y-103675100D01*
X103940000Y-103635100D02*
X105460000Y-103635100D01*
X103945000Y-103595100D02*
X105460000Y-103595100D01*
X103951000Y-103555100D02*
X105460000Y-103555100D01*
X103957000Y-103515100D02*
X105460000Y-103515100D01*
X103964000Y-103475100D02*
X105460000Y-103475100D01*
X103972000Y-103435100D02*
X105460000Y-103435100D01*
X103981000Y-103395100D02*
X105460000Y-103395100D01*
X103990000Y-103355100D02*
X105460000Y-103355100D01*
X103999000Y-103315100D02*
X105460000Y-103315100D01*
X104010000Y-103275100D02*
X105460000Y-103275100D01*
X104021000Y-103235100D02*
X105460000Y-103235100D01*
X104033000Y-103195100D02*
X105460000Y-103195100D01*
X104045000Y-103155100D02*
X105460000Y-103155100D01*
X104058000Y-103115100D02*
X105460000Y-103115100D01*
X104072000Y-103075100D02*
X105460000Y-103075100D01*
X104087000Y-103035100D02*
X105460000Y-103035100D01*
X104102000Y-102995100D02*
X105460000Y-102995100D01*
X104118000Y-102955100D02*
X105460000Y-102955100D01*
X104135000Y-102915100D02*
X105460000Y-102915100D01*
X104153000Y-102875100D02*
X105460000Y-102875100D01*
X104171000Y-102835100D02*
X105460000Y-102835100D01*
X104191000Y-102795100D02*
X105460000Y-102795100D01*
X104211000Y-102755100D02*
X105460000Y-102755100D01*
X104232000Y-102715100D02*
X105460000Y-102715100D01*
X104254000Y-102675100D02*
X105460000Y-102675100D01*
X104277000Y-102635100D02*
X105460000Y-102635100D01*
X104301000Y-102595100D02*
X105460000Y-102595100D01*
X104325000Y-102555100D02*
X105460000Y-102555100D01*
X104351000Y-102515100D02*
X105460000Y-102515100D01*
X104378000Y-102475100D02*
X105460000Y-102475100D01*
X104406000Y-102435100D02*
X105460000Y-102435100D01*
X104435000Y-102395100D02*
X105460000Y-102395100D01*
X104465000Y-102355100D02*
X105460000Y-102355100D01*
X104497000Y-102315100D02*
X105460000Y-102315100D01*
X104530000Y-102275100D02*
X105460000Y-102275100D01*
X104564000Y-102235100D02*
X105460000Y-102235100D01*
X104599000Y-102195100D02*
X105460000Y-102195100D01*
X104636000Y-102155100D02*
X105460000Y-102155100D01*
X104675000Y-102115100D02*
X105460000Y-102115100D01*
X104715000Y-102075100D02*
X105460000Y-102075100D01*
X104757000Y-102035100D02*
X105460000Y-102035100D01*
X104775000Y-106509875D02*
X105275000Y-106509875D01*
X104801000Y-101995100D02*
X105460000Y-101995100D01*
X104848000Y-101955100D02*
X105460000Y-101955100D01*
X104896000Y-101915100D02*
X105460000Y-101915100D01*
X104947000Y-101875100D02*
X105460000Y-101875100D01*
X105001000Y-101835100D02*
X105460000Y-101835100D01*
X105025000Y-106759875D02*
X105025000Y-106259875D01*
X105057000Y-101795100D02*
X105460000Y-101795100D01*
X105117000Y-101755100D02*
X105460000Y-101755100D01*
X105181000Y-101715100D02*
X105460000Y-101715100D01*
X105249000Y-101675100D02*
X105460000Y-101675100D01*
X105323000Y-101635100D02*
X107677000Y-101635100D01*
X105402000Y-101595100D02*
X107598000Y-101595100D01*
X105489000Y-101555100D02*
X107511000Y-101555100D01*
X105586000Y-101515100D02*
X107414000Y-101515100D01*
X105695000Y-101475100D02*
X107305000Y-101475100D01*
X105823000Y-101435100D02*
X107177000Y-101435100D01*
X105983000Y-101395100D02*
X107017000Y-101395100D01*
X106217000Y-101355100D02*
X106783000Y-101355100D01*
X107540000Y-101675100D02*
X107751000Y-101675100D01*
X107540000Y-101715100D02*
X107819000Y-101715100D01*
X107540000Y-101755100D02*
X107883000Y-101755100D01*
X107540000Y-101795100D02*
X107943000Y-101795100D01*
X107540000Y-101835100D02*
X107999000Y-101835100D01*
X107540000Y-101875100D02*
X108053000Y-101875100D01*
X107540000Y-101915100D02*
X108104000Y-101915100D01*
X107540000Y-101955100D02*
X108152000Y-101955100D01*
X107540000Y-101995100D02*
X108199000Y-101995100D01*
X107540000Y-102035100D02*
X108243000Y-102035100D01*
X107540000Y-102075100D02*
X108285000Y-102075100D01*
X107540000Y-102115100D02*
X108325000Y-102115100D01*
X107540000Y-102155100D02*
X108364000Y-102155100D01*
X107540000Y-102195100D02*
X108401000Y-102195100D01*
X107540000Y-102235100D02*
X108436000Y-102235100D01*
X107540000Y-102275100D02*
X108470000Y-102275100D01*
X107540000Y-102315100D02*
X108503000Y-102315100D01*
X107540000Y-102355100D02*
X108535000Y-102355100D01*
X107540000Y-102395100D02*
X108565000Y-102395100D01*
X107540000Y-102435100D02*
X108594000Y-102435100D01*
X107540000Y-102475100D02*
X108622000Y-102475100D01*
X107540000Y-102515100D02*
X108649000Y-102515100D01*
X107540000Y-102555100D02*
X108675000Y-102555100D01*
X107540000Y-102595100D02*
X108699000Y-102595100D01*
X107540000Y-102635100D02*
X108723000Y-102635100D01*
X107540000Y-102675100D02*
X108746000Y-102675100D01*
X107540000Y-102715100D02*
X108768000Y-102715100D01*
X107540000Y-102755100D02*
X108789000Y-102755100D01*
X107540000Y-102795100D02*
X108809000Y-102795100D01*
X107540000Y-102835100D02*
X108829000Y-102835100D01*
X107540000Y-102875100D02*
X108847000Y-102875100D01*
X107540000Y-102915100D02*
X108865000Y-102915100D01*
X107540000Y-102955100D02*
X108882000Y-102955100D01*
X107540000Y-102995100D02*
X108898000Y-102995100D01*
X107540000Y-103035100D02*
X108913000Y-103035100D01*
X107540000Y-103075100D02*
X108928000Y-103075100D01*
X107540000Y-103115100D02*
X108942000Y-103115100D01*
X107540000Y-103155100D02*
X108955000Y-103155100D01*
X107540000Y-103195100D02*
X108967000Y-103195100D01*
X107540000Y-103235100D02*
X108979000Y-103235100D01*
X107540000Y-103275100D02*
X108990000Y-103275100D01*
X107540000Y-103315100D02*
X109001000Y-103315100D01*
X107540000Y-103355100D02*
X109010000Y-103355100D01*
X107540000Y-103395100D02*
X109019000Y-103395100D01*
X107540000Y-103435100D02*
X109028000Y-103435100D01*
X107540000Y-103475100D02*
X109036000Y-103475100D01*
X107540000Y-103515100D02*
X109043000Y-103515100D01*
X107540000Y-103555100D02*
X109049000Y-103555100D01*
X107540000Y-103595100D02*
X109055000Y-103595100D01*
X107540000Y-103635100D02*
X109060000Y-103635100D01*
X107540000Y-103675100D02*
X109065000Y-103675100D01*
X107540000Y-103715100D02*
X109069000Y-103715100D01*
X109120000Y-103955100D02*
G75*
G02*
X103880000Y-103955100I-2620000J0D01*
G01*
X103880000Y-103955100D02*
G75*
G02*
X109120000Y-103955100I2620000J0D01*
G01*
%TO.C,Q1*%
X129300000Y-81790000D02*
X125700000Y-81790000D01*
X125175816Y-82517205D02*
G75*
G02*
X125700000Y-81790000I2324184J-1122795D01*
G01*
X127500000Y-86240000D02*
G75*
G02*
X125143600Y-84738807I0J2600000D01*
G01*
X129300000Y-81790000D02*
G75*
G02*
X129824184Y-82517205I-1800000J-1850000D01*
G01*
X129856400Y-84738807D02*
G75*
G02*
X127500000Y-86240000I-2356400J1098807D01*
G01*
%TO.C,J11*%
X96580000Y-98380000D02*
X96580000Y-97000000D01*
X97960000Y-98380000D02*
X96580000Y-98380000D01*
X99230000Y-95620000D02*
X101880000Y-95620000D01*
X99230000Y-98380000D02*
X99230000Y-95620000D01*
X99230000Y-98380000D02*
X101880000Y-98380000D01*
X101880000Y-98380000D02*
X101880000Y-95620000D01*
%TO.C,R10*%
X152174900Y-99000000D02*
X152944900Y-99000000D01*
X160254900Y-99000000D02*
X159484900Y-99000000D01*
X152944900Y-97630000D02*
X159484900Y-97630000D01*
X159484900Y-100370000D01*
X152944900Y-100370000D01*
X152944900Y-97630000D01*
%TO.C,R11*%
X152254900Y-102500000D02*
X153024900Y-102500000D01*
X160334900Y-102500000D02*
X159564900Y-102500000D01*
X159564900Y-103870000D02*
X153024900Y-103870000D01*
X153024900Y-101130000D01*
X159564900Y-101130000D01*
X159564900Y-103870000D01*
%TO.C,U3*%
X172060000Y-89350000D02*
X172060000Y-99630000D01*
X172060000Y-99630000D02*
X173310000Y-99630000D01*
X175310000Y-99630000D02*
X176560000Y-99630000D01*
X176560000Y-89350000D02*
X172060000Y-89350000D01*
X176560000Y-99630000D02*
X176560000Y-89350000D01*
X173310000Y-99630000D02*
G75*
G02*
X175310000Y-99630000I1000000J0D01*
G01*
X176034000Y-98935000D02*
G75*
G02*
X175634000Y-98935000I-200000J0D01*
G01*
X175634000Y-98935000D02*
G75*
G02*
X176034000Y-98935000I200000J0D01*
G01*
X175959000Y-98935000D02*
G75*
G02*
X175709000Y-98935000I-125000J0D01*
G01*
X175709000Y-98935000D02*
G75*
G02*
X175959000Y-98935000I125000J0D01*
G01*
X175884000Y-98935000D02*
G75*
G02*
X175784000Y-98935000I-50000J0D01*
G01*
X175784000Y-98935000D02*
G75*
G02*
X175884000Y-98935000I50000J0D01*
G01*
%TO.C,R15*%
X182710000Y-98350000D02*
X183480000Y-98350000D01*
X190790000Y-98350000D02*
X190020000Y-98350000D01*
X190020000Y-99720000D02*
X183480000Y-99720000D01*
X183480000Y-96980000D01*
X190020000Y-96980000D01*
X190020000Y-99720000D01*
%TO.C,D3*%
X152530000Y-111280000D02*
X152660000Y-111280000D01*
X152530000Y-116720000D02*
X152530000Y-111280000D01*
X152660000Y-116720000D02*
X152530000Y-116720000D01*
D13*
X152857000Y-115016000D02*
X155143000Y-115016000D01*
D12*
X154000000Y-112857000D02*
X154000000Y-111587000D01*
X154000000Y-115016000D02*
X154000000Y-116413000D01*
X155340000Y-116720000D02*
X155470000Y-116720000D01*
X155470000Y-111280000D02*
X155340000Y-111280000D01*
X155470000Y-116720000D02*
X155470000Y-111280000D01*
D10*
X154000000Y-115016000D02*
X152857000Y-112857000D01*
X155143000Y-112857000D01*
X154000000Y-115016000D01*
G36*
X154000000Y-115016000D02*
G01*
X152857000Y-112857000D01*
X155143000Y-112857000D01*
X154000000Y-115016000D01*
G37*
D12*
%TO.C,C18*%
X165630000Y-86530000D02*
X165960000Y-86530000D01*
X165630000Y-91470000D02*
X165630000Y-86530000D01*
X165960000Y-91470000D02*
X165630000Y-91470000D01*
X168040000Y-86530000D02*
X168370000Y-86530000D01*
X168370000Y-86530000D02*
X168370000Y-91470000D01*
X168370000Y-91470000D02*
X168040000Y-91470000D01*
%TO.C,J3*%
X168960000Y-103620000D02*
X168960000Y-106380000D01*
X186850000Y-103620000D02*
X168960000Y-103620000D01*
X186850000Y-103620000D02*
X186850000Y-106380000D01*
X186850000Y-106380000D02*
X168960000Y-106380000D01*
X188120000Y-103620000D02*
X189500000Y-103620000D01*
X189500000Y-103620000D02*
X189500000Y-105000000D01*
%TO.C,C5*%
X92604225Y-102025000D02*
X93104225Y-102025000D01*
X92854225Y-101775000D02*
X92854225Y-102275000D01*
X95409000Y-100920000D02*
X95409000Y-106080000D01*
X95449000Y-100920000D02*
X95449000Y-106080000D01*
X95489000Y-100921000D02*
X95489000Y-106079000D01*
X95529000Y-100923000D02*
X95529000Y-106077000D01*
X95569000Y-100925000D02*
X95569000Y-106075000D01*
X95609000Y-100928000D02*
X95609000Y-106072000D01*
X95649000Y-100931000D02*
X95649000Y-102460000D01*
X95649000Y-104540000D02*
X95649000Y-106069000D01*
X95689000Y-100935000D02*
X95689000Y-102460000D01*
X95689000Y-104540000D02*
X95689000Y-106065000D01*
X95729000Y-100940000D02*
X95729000Y-102460000D01*
X95729000Y-104540000D02*
X95729000Y-106060000D01*
X95769000Y-100945000D02*
X95769000Y-102460000D01*
X95769000Y-104540000D02*
X95769000Y-106055000D01*
X95809000Y-100951000D02*
X95809000Y-102460000D01*
X95809000Y-104540000D02*
X95809000Y-106049000D01*
X95849000Y-100957000D02*
X95849000Y-102460000D01*
X95849000Y-104540000D02*
X95849000Y-106043000D01*
X95889000Y-100964000D02*
X95889000Y-102460000D01*
X95889000Y-104540000D02*
X95889000Y-106036000D01*
X95929000Y-100972000D02*
X95929000Y-102460000D01*
X95929000Y-104540000D02*
X95929000Y-106028000D01*
X95969000Y-100981000D02*
X95969000Y-102460000D01*
X95969000Y-104540000D02*
X95969000Y-106019000D01*
X96009000Y-100990000D02*
X96009000Y-102460000D01*
X96009000Y-104540000D02*
X96009000Y-106010000D01*
X96049000Y-100999000D02*
X96049000Y-102460000D01*
X96049000Y-104540000D02*
X96049000Y-106001000D01*
X96089000Y-101010000D02*
X96089000Y-102460000D01*
X96089000Y-104540000D02*
X96089000Y-105990000D01*
X96129000Y-101021000D02*
X96129000Y-102460000D01*
X96129000Y-104540000D02*
X96129000Y-105979000D01*
X96169000Y-101033000D02*
X96169000Y-102460000D01*
X96169000Y-104540000D02*
X96169000Y-105967000D01*
X96209000Y-101045000D02*
X96209000Y-102460000D01*
X96209000Y-104540000D02*
X96209000Y-105955000D01*
X96249000Y-101058000D02*
X96249000Y-102460000D01*
X96249000Y-104540000D02*
X96249000Y-105942000D01*
X96289000Y-101072000D02*
X96289000Y-102460000D01*
X96289000Y-104540000D02*
X96289000Y-105928000D01*
X96329000Y-101087000D02*
X96329000Y-102460000D01*
X96329000Y-104540000D02*
X96329000Y-105913000D01*
X96369000Y-101102000D02*
X96369000Y-102460000D01*
X96369000Y-104540000D02*
X96369000Y-105898000D01*
X96409000Y-101118000D02*
X96409000Y-102460000D01*
X96409000Y-104540000D02*
X96409000Y-105882000D01*
X96449000Y-101135000D02*
X96449000Y-102460000D01*
X96449000Y-104540000D02*
X96449000Y-105865000D01*
X96489000Y-101153000D02*
X96489000Y-102460000D01*
X96489000Y-104540000D02*
X96489000Y-105847000D01*
X96529000Y-101171000D02*
X96529000Y-102460000D01*
X96529000Y-104540000D02*
X96529000Y-105829000D01*
X96569000Y-101191000D02*
X96569000Y-102460000D01*
X96569000Y-104540000D02*
X96569000Y-105809000D01*
X96609000Y-101211000D02*
X96609000Y-102460000D01*
X96609000Y-104540000D02*
X96609000Y-105789000D01*
X96649000Y-101232000D02*
X96649000Y-102460000D01*
X96649000Y-104540000D02*
X96649000Y-105768000D01*
X96689000Y-101254000D02*
X96689000Y-102460000D01*
X96689000Y-104540000D02*
X96689000Y-105746000D01*
X96729000Y-101277000D02*
X96729000Y-102460000D01*
X96729000Y-104540000D02*
X96729000Y-105723000D01*
X96769000Y-101301000D02*
X96769000Y-102460000D01*
X96769000Y-104540000D02*
X96769000Y-105699000D01*
X96809000Y-101325000D02*
X96809000Y-102460000D01*
X96809000Y-104540000D02*
X96809000Y-105675000D01*
X96849000Y-101351000D02*
X96849000Y-102460000D01*
X96849000Y-104540000D02*
X96849000Y-105649000D01*
X96889000Y-101378000D02*
X96889000Y-102460000D01*
X96889000Y-104540000D02*
X96889000Y-105622000D01*
X96929000Y-101406000D02*
X96929000Y-102460000D01*
X96929000Y-104540000D02*
X96929000Y-105594000D01*
X96969000Y-101435000D02*
X96969000Y-102460000D01*
X96969000Y-104540000D02*
X96969000Y-105565000D01*
X97009000Y-101465000D02*
X97009000Y-102460000D01*
X97009000Y-104540000D02*
X97009000Y-105535000D01*
X97049000Y-101497000D02*
X97049000Y-102460000D01*
X97049000Y-104540000D02*
X97049000Y-105503000D01*
X97089000Y-101530000D02*
X97089000Y-102460000D01*
X97089000Y-104540000D02*
X97089000Y-105470000D01*
X97129000Y-101564000D02*
X97129000Y-102460000D01*
X97129000Y-104540000D02*
X97129000Y-105436000D01*
X97169000Y-101599000D02*
X97169000Y-102460000D01*
X97169000Y-104540000D02*
X97169000Y-105401000D01*
X97209000Y-101636000D02*
X97209000Y-102460000D01*
X97209000Y-104540000D02*
X97209000Y-105364000D01*
X97249000Y-101675000D02*
X97249000Y-102460000D01*
X97249000Y-104540000D02*
X97249000Y-105325000D01*
X97289000Y-101715000D02*
X97289000Y-102460000D01*
X97289000Y-104540000D02*
X97289000Y-105285000D01*
X97329000Y-101757000D02*
X97329000Y-102460000D01*
X97329000Y-104540000D02*
X97329000Y-105243000D01*
X97369000Y-101801000D02*
X97369000Y-102460000D01*
X97369000Y-104540000D02*
X97369000Y-105199000D01*
X97409000Y-101848000D02*
X97409000Y-102460000D01*
X97409000Y-104540000D02*
X97409000Y-105152000D01*
X97449000Y-101896000D02*
X97449000Y-102460000D01*
X97449000Y-104540000D02*
X97449000Y-105104000D01*
X97489000Y-101947000D02*
X97489000Y-102460000D01*
X97489000Y-104540000D02*
X97489000Y-105053000D01*
X97529000Y-102001000D02*
X97529000Y-102460000D01*
X97529000Y-104540000D02*
X97529000Y-104999000D01*
X97569000Y-102057000D02*
X97569000Y-102460000D01*
X97569000Y-104540000D02*
X97569000Y-104943000D01*
X97609000Y-102117000D02*
X97609000Y-102460000D01*
X97609000Y-104540000D02*
X97609000Y-104883000D01*
X97649000Y-102181000D02*
X97649000Y-102460000D01*
X97649000Y-104540000D02*
X97649000Y-104819000D01*
X97689000Y-102249000D02*
X97689000Y-102460000D01*
X97689000Y-104540000D02*
X97689000Y-104751000D01*
X97729000Y-102323000D02*
X97729000Y-104677000D01*
X97769000Y-102402000D02*
X97769000Y-104598000D01*
X97809000Y-102489000D02*
X97809000Y-104511000D01*
X97849000Y-102586000D02*
X97849000Y-104414000D01*
X97889000Y-102695000D02*
X97889000Y-104305000D01*
X97929000Y-102823000D02*
X97929000Y-104177000D01*
X97969000Y-102983000D02*
X97969000Y-104017000D01*
X98009000Y-103217000D02*
X98009000Y-103783000D01*
X98029000Y-103500000D02*
G75*
G02*
X92789000Y-103500000I-2620000J0D01*
G01*
X92789000Y-103500000D02*
G75*
G02*
X98029000Y-103500000I2620000J0D01*
G01*
%TO.C,C9*%
X105530000Y-85130000D02*
X110470000Y-85130000D01*
X105530000Y-85460000D02*
X105530000Y-85130000D01*
X105530000Y-87870000D02*
X105530000Y-87540000D01*
X110470000Y-85130000D02*
X110470000Y-85460000D01*
X110470000Y-87540000D02*
X110470000Y-87870000D01*
X110470000Y-87870000D02*
X105530000Y-87870000D01*
%TO.C,R7*%
X112040000Y-82500000D02*
X112810000Y-82500000D01*
X120120000Y-82500000D02*
X119350000Y-82500000D01*
X112810000Y-81130000D02*
X119350000Y-81130000D01*
X119350000Y-83870000D01*
X112810000Y-83870000D01*
X112810000Y-81130000D01*
%TO.C,C20*%
X98630000Y-100530000D02*
X98960000Y-100530000D01*
X98630000Y-105470000D02*
X98630000Y-100530000D01*
X98960000Y-105470000D02*
X98630000Y-105470000D01*
X101040000Y-100530000D02*
X101370000Y-100530000D01*
X101370000Y-100530000D02*
X101370000Y-105470000D01*
X101370000Y-105470000D02*
X101040000Y-105470000D01*
%TO.C,R3*%
X146000000Y-73960000D02*
X146000000Y-74730000D01*
X146000000Y-82040000D02*
X146000000Y-81270000D01*
X147370000Y-74730000D02*
X144630000Y-74730000D01*
X144630000Y-81270000D01*
X147370000Y-81270000D01*
X147370000Y-74730000D01*
%TO.C,J9*%
X124120000Y-95120000D02*
X124120000Y-97880000D01*
X126770000Y-95120000D02*
X124120000Y-95120000D01*
X126770000Y-95120000D02*
X126770000Y-97880000D01*
X126770000Y-97880000D02*
X124120000Y-97880000D01*
X128040000Y-95120000D02*
X129420000Y-95120000D01*
X129420000Y-95120000D02*
X129420000Y-96500000D01*
%TO.C,C16*%
X117130000Y-101030000D02*
X117460000Y-101030000D01*
X117130000Y-105970000D02*
X117130000Y-101030000D01*
X117460000Y-105970000D02*
X117130000Y-105970000D01*
X119540000Y-101030000D02*
X119870000Y-101030000D01*
X119870000Y-101030000D02*
X119870000Y-105970000D01*
X119870000Y-105970000D02*
X119540000Y-105970000D01*
D10*
%TO.C,S1*%
X170200000Y-115500000D02*
X170200000Y-135100000D01*
X170200000Y-135100000D02*
X187400000Y-135100000D01*
X187400000Y-115500000D02*
X170200000Y-115500000D01*
X187400000Y-135100000D02*
X187400000Y-115500000D01*
D12*
%TO.C,R13*%
X150000000Y-110960000D02*
X150000000Y-111730000D01*
X150000000Y-119040000D02*
X150000000Y-118270000D01*
X148630000Y-118270000D02*
X151370000Y-118270000D01*
X151370000Y-111730000D01*
X148630000Y-111730000D01*
X148630000Y-118270000D01*
%TO.C,R9*%
X133000000Y-74040000D02*
X133000000Y-74810000D01*
X133000000Y-82120000D02*
X133000000Y-81350000D01*
X131630000Y-81350000D02*
X134370000Y-81350000D01*
X134370000Y-74810000D01*
X131630000Y-74810000D01*
X131630000Y-81350000D01*
%TO.C,C17*%
X124130000Y-101030000D02*
X124460000Y-101030000D01*
X124130000Y-105970000D02*
X124130000Y-101030000D01*
X124460000Y-105970000D02*
X124130000Y-105970000D01*
X126540000Y-101030000D02*
X126870000Y-101030000D01*
X126870000Y-101030000D02*
X126870000Y-105970000D01*
X126870000Y-105970000D02*
X126540000Y-105970000D01*
%TO.C,R12*%
X160794900Y-111960000D02*
X160794900Y-112730000D01*
X160794900Y-120040000D02*
X160794900Y-119270000D01*
X159424900Y-119270000D02*
X162164900Y-119270000D01*
X162164900Y-112730000D01*
X159424900Y-112730000D01*
X159424900Y-119270000D01*
%TO.C,J10*%
X96345000Y-91880000D02*
X96345000Y-90500000D01*
X97725000Y-91880000D02*
X96345000Y-91880000D01*
X98995000Y-89120000D02*
X101645000Y-89120000D01*
X98995000Y-91880000D02*
X98995000Y-89120000D01*
X98995000Y-91880000D02*
X101645000Y-91880000D01*
X101645000Y-91880000D02*
X101645000Y-89120000D01*
%TO.C,R17*%
X182710000Y-90250000D02*
X183480000Y-90250000D01*
X190790000Y-90250000D02*
X190020000Y-90250000D01*
X190020000Y-91620000D02*
X183480000Y-91620000D01*
X183480000Y-88880000D01*
X190020000Y-88880000D01*
X190020000Y-91620000D01*
%TO.C,C11*%
X156945225Y-123525000D02*
X157445225Y-123525000D01*
X157195225Y-123275000D02*
X157195225Y-123775000D01*
X159750000Y-122420000D02*
X159750000Y-127580000D01*
X159790000Y-122420000D02*
X159790000Y-127580000D01*
X159830000Y-122421000D02*
X159830000Y-127579000D01*
X159870000Y-122423000D02*
X159870000Y-127577000D01*
X159910000Y-122425000D02*
X159910000Y-127575000D01*
X159950000Y-122428000D02*
X159950000Y-127572000D01*
X159990000Y-122431000D02*
X159990000Y-123960000D01*
X159990000Y-126040000D02*
X159990000Y-127569000D01*
X160030000Y-122435000D02*
X160030000Y-123960000D01*
X160030000Y-126040000D02*
X160030000Y-127565000D01*
X160070000Y-122440000D02*
X160070000Y-123960000D01*
X160070000Y-126040000D02*
X160070000Y-127560000D01*
X160110000Y-122445000D02*
X160110000Y-123960000D01*
X160110000Y-126040000D02*
X160110000Y-127555000D01*
X160150000Y-122451000D02*
X160150000Y-123960000D01*
X160150000Y-126040000D02*
X160150000Y-127549000D01*
X160190000Y-122457000D02*
X160190000Y-123960000D01*
X160190000Y-126040000D02*
X160190000Y-127543000D01*
X160230000Y-122464000D02*
X160230000Y-123960000D01*
X160230000Y-126040000D02*
X160230000Y-127536000D01*
X160270000Y-122472000D02*
X160270000Y-123960000D01*
X160270000Y-126040000D02*
X160270000Y-127528000D01*
X160310000Y-122481000D02*
X160310000Y-123960000D01*
X160310000Y-126040000D02*
X160310000Y-127519000D01*
X160350000Y-122490000D02*
X160350000Y-123960000D01*
X160350000Y-126040000D02*
X160350000Y-127510000D01*
X160390000Y-122499000D02*
X160390000Y-123960000D01*
X160390000Y-126040000D02*
X160390000Y-127501000D01*
X160430000Y-122510000D02*
X160430000Y-123960000D01*
X160430000Y-126040000D02*
X160430000Y-127490000D01*
X160470000Y-122521000D02*
X160470000Y-123960000D01*
X160470000Y-126040000D02*
X160470000Y-127479000D01*
X160510000Y-122533000D02*
X160510000Y-123960000D01*
X160510000Y-126040000D02*
X160510000Y-127467000D01*
X160550000Y-122545000D02*
X160550000Y-123960000D01*
X160550000Y-126040000D02*
X160550000Y-127455000D01*
X160590000Y-122558000D02*
X160590000Y-123960000D01*
X160590000Y-126040000D02*
X160590000Y-127442000D01*
X160630000Y-122572000D02*
X160630000Y-123960000D01*
X160630000Y-126040000D02*
X160630000Y-127428000D01*
X160670000Y-122587000D02*
X160670000Y-123960000D01*
X160670000Y-126040000D02*
X160670000Y-127413000D01*
X160710000Y-122602000D02*
X160710000Y-123960000D01*
X160710000Y-126040000D02*
X160710000Y-127398000D01*
X160750000Y-122618000D02*
X160750000Y-123960000D01*
X160750000Y-126040000D02*
X160750000Y-127382000D01*
X160790000Y-122635000D02*
X160790000Y-123960000D01*
X160790000Y-126040000D02*
X160790000Y-127365000D01*
X160830000Y-122653000D02*
X160830000Y-123960000D01*
X160830000Y-126040000D02*
X160830000Y-127347000D01*
X160870000Y-122671000D02*
X160870000Y-123960000D01*
X160870000Y-126040000D02*
X160870000Y-127329000D01*
X160910000Y-122691000D02*
X160910000Y-123960000D01*
X160910000Y-126040000D02*
X160910000Y-127309000D01*
X160950000Y-122711000D02*
X160950000Y-123960000D01*
X160950000Y-126040000D02*
X160950000Y-127289000D01*
X160990000Y-122732000D02*
X160990000Y-123960000D01*
X160990000Y-126040000D02*
X160990000Y-127268000D01*
X161030000Y-122754000D02*
X161030000Y-123960000D01*
X161030000Y-126040000D02*
X161030000Y-127246000D01*
X161070000Y-122777000D02*
X161070000Y-123960000D01*
X161070000Y-126040000D02*
X161070000Y-127223000D01*
X161110000Y-122801000D02*
X161110000Y-123960000D01*
X161110000Y-126040000D02*
X161110000Y-127199000D01*
X161150000Y-122825000D02*
X161150000Y-123960000D01*
X161150000Y-126040000D02*
X161150000Y-127175000D01*
X161190000Y-122851000D02*
X161190000Y-123960000D01*
X161190000Y-126040000D02*
X161190000Y-127149000D01*
X161230000Y-122878000D02*
X161230000Y-123960000D01*
X161230000Y-126040000D02*
X161230000Y-127122000D01*
X161270000Y-122906000D02*
X161270000Y-123960000D01*
X161270000Y-126040000D02*
X161270000Y-127094000D01*
X161310000Y-122935000D02*
X161310000Y-123960000D01*
X161310000Y-126040000D02*
X161310000Y-127065000D01*
X161350000Y-122965000D02*
X161350000Y-123960000D01*
X161350000Y-126040000D02*
X161350000Y-127035000D01*
X161390000Y-122997000D02*
X161390000Y-123960000D01*
X161390000Y-126040000D02*
X161390000Y-127003000D01*
X161430000Y-123030000D02*
X161430000Y-123960000D01*
X161430000Y-126040000D02*
X161430000Y-126970000D01*
X161470000Y-123064000D02*
X161470000Y-123960000D01*
X161470000Y-126040000D02*
X161470000Y-126936000D01*
X161510000Y-123099000D02*
X161510000Y-123960000D01*
X161510000Y-126040000D02*
X161510000Y-126901000D01*
X161550000Y-123136000D02*
X161550000Y-123960000D01*
X161550000Y-126040000D02*
X161550000Y-126864000D01*
X161590000Y-123175000D02*
X161590000Y-123960000D01*
X161590000Y-126040000D02*
X161590000Y-126825000D01*
X161630000Y-123215000D02*
X161630000Y-123960000D01*
X161630000Y-126040000D02*
X161630000Y-126785000D01*
X161670000Y-123257000D02*
X161670000Y-123960000D01*
X161670000Y-126040000D02*
X161670000Y-126743000D01*
X161710000Y-123301000D02*
X161710000Y-123960000D01*
X161710000Y-126040000D02*
X161710000Y-126699000D01*
X161750000Y-123348000D02*
X161750000Y-123960000D01*
X161750000Y-126040000D02*
X161750000Y-126652000D01*
X161790000Y-123396000D02*
X161790000Y-123960000D01*
X161790000Y-126040000D02*
X161790000Y-126604000D01*
X161830000Y-123447000D02*
X161830000Y-123960000D01*
X161830000Y-126040000D02*
X161830000Y-126553000D01*
X161870000Y-123501000D02*
X161870000Y-123960000D01*
X161870000Y-126040000D02*
X161870000Y-126499000D01*
X161910000Y-123557000D02*
X161910000Y-123960000D01*
X161910000Y-126040000D02*
X161910000Y-126443000D01*
X161950000Y-123617000D02*
X161950000Y-123960000D01*
X161950000Y-126040000D02*
X161950000Y-126383000D01*
X161990000Y-123681000D02*
X161990000Y-123960000D01*
X161990000Y-126040000D02*
X161990000Y-126319000D01*
X162030000Y-123749000D02*
X162030000Y-123960000D01*
X162030000Y-126040000D02*
X162030000Y-126251000D01*
X162070000Y-123823000D02*
X162070000Y-126177000D01*
X162110000Y-123902000D02*
X162110000Y-126098000D01*
X162150000Y-123989000D02*
X162150000Y-126011000D01*
X162190000Y-124086000D02*
X162190000Y-125914000D01*
X162230000Y-124195000D02*
X162230000Y-125805000D01*
X162270000Y-124323000D02*
X162270000Y-125677000D01*
X162310000Y-124483000D02*
X162310000Y-125517000D01*
X162350000Y-124717000D02*
X162350000Y-125283000D01*
X162370000Y-125000000D02*
G75*
G02*
X157130000Y-125000000I-2620000J0D01*
G01*
X157130000Y-125000000D02*
G75*
G02*
X162370000Y-125000000I2620000J0D01*
G01*
%TO.C,C14*%
X86445225Y-102025000D02*
X86945225Y-102025000D01*
X86695225Y-101775000D02*
X86695225Y-102275000D01*
X89250000Y-100920000D02*
X89250000Y-106080000D01*
X89290000Y-100920000D02*
X89290000Y-106080000D01*
X89330000Y-100921000D02*
X89330000Y-106079000D01*
X89370000Y-100923000D02*
X89370000Y-106077000D01*
X89410000Y-100925000D02*
X89410000Y-106075000D01*
X89450000Y-100928000D02*
X89450000Y-106072000D01*
X89490000Y-100931000D02*
X89490000Y-102460000D01*
X89490000Y-104540000D02*
X89490000Y-106069000D01*
X89530000Y-100935000D02*
X89530000Y-102460000D01*
X89530000Y-104540000D02*
X89530000Y-106065000D01*
X89570000Y-100940000D02*
X89570000Y-102460000D01*
X89570000Y-104540000D02*
X89570000Y-106060000D01*
X89610000Y-100945000D02*
X89610000Y-102460000D01*
X89610000Y-104540000D02*
X89610000Y-106055000D01*
X89650000Y-100951000D02*
X89650000Y-102460000D01*
X89650000Y-104540000D02*
X89650000Y-106049000D01*
X89690000Y-100957000D02*
X89690000Y-102460000D01*
X89690000Y-104540000D02*
X89690000Y-106043000D01*
X89730000Y-100964000D02*
X89730000Y-102460000D01*
X89730000Y-104540000D02*
X89730000Y-106036000D01*
X89770000Y-100972000D02*
X89770000Y-102460000D01*
X89770000Y-104540000D02*
X89770000Y-106028000D01*
X89810000Y-100981000D02*
X89810000Y-102460000D01*
X89810000Y-104540000D02*
X89810000Y-106019000D01*
X89850000Y-100990000D02*
X89850000Y-102460000D01*
X89850000Y-104540000D02*
X89850000Y-106010000D01*
X89890000Y-100999000D02*
X89890000Y-102460000D01*
X89890000Y-104540000D02*
X89890000Y-106001000D01*
X89930000Y-101010000D02*
X89930000Y-102460000D01*
X89930000Y-104540000D02*
X89930000Y-105990000D01*
X89970000Y-101021000D02*
X89970000Y-102460000D01*
X89970000Y-104540000D02*
X89970000Y-105979000D01*
X90010000Y-101033000D02*
X90010000Y-102460000D01*
X90010000Y-104540000D02*
X90010000Y-105967000D01*
X90050000Y-101045000D02*
X90050000Y-102460000D01*
X90050000Y-104540000D02*
X90050000Y-105955000D01*
X90090000Y-101058000D02*
X90090000Y-102460000D01*
X90090000Y-104540000D02*
X90090000Y-105942000D01*
X90130000Y-101072000D02*
X90130000Y-102460000D01*
X90130000Y-104540000D02*
X90130000Y-105928000D01*
X90170000Y-101087000D02*
X90170000Y-102460000D01*
X90170000Y-104540000D02*
X90170000Y-105913000D01*
X90210000Y-101102000D02*
X90210000Y-102460000D01*
X90210000Y-104540000D02*
X90210000Y-105898000D01*
X90250000Y-101118000D02*
X90250000Y-102460000D01*
X90250000Y-104540000D02*
X90250000Y-105882000D01*
X90290000Y-101135000D02*
X90290000Y-102460000D01*
X90290000Y-104540000D02*
X90290000Y-105865000D01*
X90330000Y-101153000D02*
X90330000Y-102460000D01*
X90330000Y-104540000D02*
X90330000Y-105847000D01*
X90370000Y-101171000D02*
X90370000Y-102460000D01*
X90370000Y-104540000D02*
X90370000Y-105829000D01*
X90410000Y-101191000D02*
X90410000Y-102460000D01*
X90410000Y-104540000D02*
X90410000Y-105809000D01*
X90450000Y-101211000D02*
X90450000Y-102460000D01*
X90450000Y-104540000D02*
X90450000Y-105789000D01*
X90490000Y-101232000D02*
X90490000Y-102460000D01*
X90490000Y-104540000D02*
X90490000Y-105768000D01*
X90530000Y-101254000D02*
X90530000Y-102460000D01*
X90530000Y-104540000D02*
X90530000Y-105746000D01*
X90570000Y-101277000D02*
X90570000Y-102460000D01*
X90570000Y-104540000D02*
X90570000Y-105723000D01*
X90610000Y-101301000D02*
X90610000Y-102460000D01*
X90610000Y-104540000D02*
X90610000Y-105699000D01*
X90650000Y-101325000D02*
X90650000Y-102460000D01*
X90650000Y-104540000D02*
X90650000Y-105675000D01*
X90690000Y-101351000D02*
X90690000Y-102460000D01*
X90690000Y-104540000D02*
X90690000Y-105649000D01*
X90730000Y-101378000D02*
X90730000Y-102460000D01*
X90730000Y-104540000D02*
X90730000Y-105622000D01*
X90770000Y-101406000D02*
X90770000Y-102460000D01*
X90770000Y-104540000D02*
X90770000Y-105594000D01*
X90810000Y-101435000D02*
X90810000Y-102460000D01*
X90810000Y-104540000D02*
X90810000Y-105565000D01*
X90850000Y-101465000D02*
X90850000Y-102460000D01*
X90850000Y-104540000D02*
X90850000Y-105535000D01*
X90890000Y-101497000D02*
X90890000Y-102460000D01*
X90890000Y-104540000D02*
X90890000Y-105503000D01*
X90930000Y-101530000D02*
X90930000Y-102460000D01*
X90930000Y-104540000D02*
X90930000Y-105470000D01*
X90970000Y-101564000D02*
X90970000Y-102460000D01*
X90970000Y-104540000D02*
X90970000Y-105436000D01*
X91010000Y-101599000D02*
X91010000Y-102460000D01*
X91010000Y-104540000D02*
X91010000Y-105401000D01*
X91050000Y-101636000D02*
X91050000Y-102460000D01*
X91050000Y-104540000D02*
X91050000Y-105364000D01*
X91090000Y-101675000D02*
X91090000Y-102460000D01*
X91090000Y-104540000D02*
X91090000Y-105325000D01*
X91130000Y-101715000D02*
X91130000Y-102460000D01*
X91130000Y-104540000D02*
X91130000Y-105285000D01*
X91170000Y-101757000D02*
X91170000Y-102460000D01*
X91170000Y-104540000D02*
X91170000Y-105243000D01*
X91210000Y-101801000D02*
X91210000Y-102460000D01*
X91210000Y-104540000D02*
X91210000Y-105199000D01*
X91250000Y-101848000D02*
X91250000Y-102460000D01*
X91250000Y-104540000D02*
X91250000Y-105152000D01*
X91290000Y-101896000D02*
X91290000Y-102460000D01*
X91290000Y-104540000D02*
X91290000Y-105104000D01*
X91330000Y-101947000D02*
X91330000Y-102460000D01*
X91330000Y-104540000D02*
X91330000Y-105053000D01*
X91370000Y-102001000D02*
X91370000Y-102460000D01*
X91370000Y-104540000D02*
X91370000Y-104999000D01*
X91410000Y-102057000D02*
X91410000Y-102460000D01*
X91410000Y-104540000D02*
X91410000Y-104943000D01*
X91450000Y-102117000D02*
X91450000Y-102460000D01*
X91450000Y-104540000D02*
X91450000Y-104883000D01*
X91490000Y-102181000D02*
X91490000Y-102460000D01*
X91490000Y-104540000D02*
X91490000Y-104819000D01*
X91530000Y-102249000D02*
X91530000Y-102460000D01*
X91530000Y-104540000D02*
X91530000Y-104751000D01*
X91570000Y-102323000D02*
X91570000Y-104677000D01*
X91610000Y-102402000D02*
X91610000Y-104598000D01*
X91650000Y-102489000D02*
X91650000Y-104511000D01*
X91690000Y-102586000D02*
X91690000Y-104414000D01*
X91730000Y-102695000D02*
X91730000Y-104305000D01*
X91770000Y-102823000D02*
X91770000Y-104177000D01*
X91810000Y-102983000D02*
X91810000Y-104017000D01*
X91850000Y-103217000D02*
X91850000Y-103783000D01*
X91870000Y-103500000D02*
G75*
G02*
X86630000Y-103500000I-2620000J0D01*
G01*
X86630000Y-103500000D02*
G75*
G02*
X91870000Y-103500000I2620000J0D01*
G01*
%TO.C,R8*%
X151460000Y-81500000D02*
X152230000Y-81500000D01*
X159540000Y-81500000D02*
X158770000Y-81500000D01*
X152230000Y-80130000D02*
X158770000Y-80130000D01*
X158770000Y-82870000D01*
X152230000Y-82870000D01*
X152230000Y-80130000D01*
%TO.C,J8*%
X124080000Y-91880000D02*
X124080000Y-90500000D01*
X125460000Y-91880000D02*
X124080000Y-91880000D01*
X126730000Y-89120000D02*
X129380000Y-89120000D01*
X126730000Y-91880000D02*
X126730000Y-89120000D01*
X126730000Y-91880000D02*
X129380000Y-91880000D01*
X129380000Y-91880000D02*
X129380000Y-89120000D01*
%TO.C,C1*%
X162630000Y-97530000D02*
X162960000Y-97530000D01*
X162630000Y-102470000D02*
X162630000Y-97530000D01*
X162960000Y-102470000D02*
X162630000Y-102470000D01*
X165040000Y-97530000D02*
X165370000Y-97530000D01*
X165370000Y-97530000D02*
X165370000Y-102470000D01*
X165370000Y-102470000D02*
X165040000Y-102470000D01*
%TO.C,R5*%
X104880000Y-96000000D02*
X105650000Y-96000000D01*
X112960000Y-96000000D02*
X112190000Y-96000000D01*
X105650000Y-94630000D02*
X112190000Y-94630000D01*
X112190000Y-97370000D01*
X105650000Y-97370000D01*
X105650000Y-94630000D01*
%TO.C,U1*%
X139870000Y-87765000D02*
X139870000Y-89015000D01*
X139870000Y-91015000D02*
X139870000Y-92265000D01*
X139870000Y-92265000D02*
X150150000Y-92265000D01*
X150150000Y-87765000D02*
X139870000Y-87765000D01*
X150150000Y-92265000D02*
X150150000Y-87765000D01*
X139870000Y-89015000D02*
G75*
G02*
X139870000Y-91015000I0J-1000000D01*
G01*
X140765000Y-91539000D02*
G75*
G02*
X140365000Y-91539000I-200000J0D01*
G01*
X140365000Y-91539000D02*
G75*
G02*
X140765000Y-91539000I200000J0D01*
G01*
X140690000Y-91539000D02*
G75*
G02*
X140440000Y-91539000I-125000J0D01*
G01*
X140440000Y-91539000D02*
G75*
G02*
X140690000Y-91539000I125000J0D01*
G01*
X140615000Y-91539000D02*
G75*
G02*
X140515000Y-91539000I-50000J0D01*
G01*
X140515000Y-91539000D02*
G75*
G02*
X140615000Y-91539000I50000J0D01*
G01*
%TO.C,C10*%
X135006413Y-73200300D02*
X135506413Y-73200300D01*
X135256413Y-72950300D02*
X135256413Y-73450300D01*
X137811188Y-72095300D02*
X137811188Y-77255300D01*
X137851188Y-72095300D02*
X137851188Y-77255300D01*
X137891188Y-72096300D02*
X137891188Y-77254300D01*
X137931188Y-72098300D02*
X137931188Y-77252300D01*
X137971188Y-72100300D02*
X137971188Y-77250300D01*
X138011188Y-72103300D02*
X138011188Y-77247300D01*
X138051188Y-72106300D02*
X138051188Y-73635300D01*
X138051188Y-75715300D02*
X138051188Y-77244300D01*
X138091188Y-72110300D02*
X138091188Y-73635300D01*
X138091188Y-75715300D02*
X138091188Y-77240300D01*
X138131188Y-72115300D02*
X138131188Y-73635300D01*
X138131188Y-75715300D02*
X138131188Y-77235300D01*
X138171188Y-72120300D02*
X138171188Y-73635300D01*
X138171188Y-75715300D02*
X138171188Y-77230300D01*
X138211188Y-72126300D02*
X138211188Y-73635300D01*
X138211188Y-75715300D02*
X138211188Y-77224300D01*
X138251188Y-72132300D02*
X138251188Y-73635300D01*
X138251188Y-75715300D02*
X138251188Y-77218300D01*
X138291188Y-72139300D02*
X138291188Y-73635300D01*
X138291188Y-75715300D02*
X138291188Y-77211300D01*
X138331188Y-72147300D02*
X138331188Y-73635300D01*
X138331188Y-75715300D02*
X138331188Y-77203300D01*
X138371188Y-72156300D02*
X138371188Y-73635300D01*
X138371188Y-75715300D02*
X138371188Y-77194300D01*
X138411188Y-72165300D02*
X138411188Y-73635300D01*
X138411188Y-75715300D02*
X138411188Y-77185300D01*
X138451188Y-72174300D02*
X138451188Y-73635300D01*
X138451188Y-75715300D02*
X138451188Y-77176300D01*
X138491188Y-72185300D02*
X138491188Y-73635300D01*
X138491188Y-75715300D02*
X138491188Y-77165300D01*
X138531188Y-72196300D02*
X138531188Y-73635300D01*
X138531188Y-75715300D02*
X138531188Y-77154300D01*
X138571188Y-72208300D02*
X138571188Y-73635300D01*
X138571188Y-75715300D02*
X138571188Y-77142300D01*
X138611188Y-72220300D02*
X138611188Y-73635300D01*
X138611188Y-75715300D02*
X138611188Y-77130300D01*
X138651188Y-72233300D02*
X138651188Y-73635300D01*
X138651188Y-75715300D02*
X138651188Y-77117300D01*
X138691188Y-72247300D02*
X138691188Y-73635300D01*
X138691188Y-75715300D02*
X138691188Y-77103300D01*
X138731188Y-72262300D02*
X138731188Y-73635300D01*
X138731188Y-75715300D02*
X138731188Y-77088300D01*
X138771188Y-72277300D02*
X138771188Y-73635300D01*
X138771188Y-75715300D02*
X138771188Y-77073300D01*
X138811188Y-72293300D02*
X138811188Y-73635300D01*
X138811188Y-75715300D02*
X138811188Y-77057300D01*
X138851188Y-72310300D02*
X138851188Y-73635300D01*
X138851188Y-75715300D02*
X138851188Y-77040300D01*
X138891188Y-72328300D02*
X138891188Y-73635300D01*
X138891188Y-75715300D02*
X138891188Y-77022300D01*
X138931188Y-72346300D02*
X138931188Y-73635300D01*
X138931188Y-75715300D02*
X138931188Y-77004300D01*
X138971188Y-72366300D02*
X138971188Y-73635300D01*
X138971188Y-75715300D02*
X138971188Y-76984300D01*
X139011188Y-72386300D02*
X139011188Y-73635300D01*
X139011188Y-75715300D02*
X139011188Y-76964300D01*
X139051188Y-72407300D02*
X139051188Y-73635300D01*
X139051188Y-75715300D02*
X139051188Y-76943300D01*
X139091188Y-72429300D02*
X139091188Y-73635300D01*
X139091188Y-75715300D02*
X139091188Y-76921300D01*
X139131188Y-72452300D02*
X139131188Y-73635300D01*
X139131188Y-75715300D02*
X139131188Y-76898300D01*
X139171188Y-72476300D02*
X139171188Y-73635300D01*
X139171188Y-75715300D02*
X139171188Y-76874300D01*
X139211188Y-72500300D02*
X139211188Y-73635300D01*
X139211188Y-75715300D02*
X139211188Y-76850300D01*
X139251188Y-72526300D02*
X139251188Y-73635300D01*
X139251188Y-75715300D02*
X139251188Y-76824300D01*
X139291188Y-72553300D02*
X139291188Y-73635300D01*
X139291188Y-75715300D02*
X139291188Y-76797300D01*
X139331188Y-72581300D02*
X139331188Y-73635300D01*
X139331188Y-75715300D02*
X139331188Y-76769300D01*
X139371188Y-72610300D02*
X139371188Y-73635300D01*
X139371188Y-75715300D02*
X139371188Y-76740300D01*
X139411188Y-72640300D02*
X139411188Y-73635300D01*
X139411188Y-75715300D02*
X139411188Y-76710300D01*
X139451188Y-72672300D02*
X139451188Y-73635300D01*
X139451188Y-75715300D02*
X139451188Y-76678300D01*
X139491188Y-72705300D02*
X139491188Y-73635300D01*
X139491188Y-75715300D02*
X139491188Y-76645300D01*
X139531188Y-72739300D02*
X139531188Y-73635300D01*
X139531188Y-75715300D02*
X139531188Y-76611300D01*
X139571188Y-72774300D02*
X139571188Y-73635300D01*
X139571188Y-75715300D02*
X139571188Y-76576300D01*
X139611188Y-72811300D02*
X139611188Y-73635300D01*
X139611188Y-75715300D02*
X139611188Y-76539300D01*
X139651188Y-72850300D02*
X139651188Y-73635300D01*
X139651188Y-75715300D02*
X139651188Y-76500300D01*
X139691188Y-72890300D02*
X139691188Y-73635300D01*
X139691188Y-75715300D02*
X139691188Y-76460300D01*
X139731188Y-72932300D02*
X139731188Y-73635300D01*
X139731188Y-75715300D02*
X139731188Y-76418300D01*
X139771188Y-72976300D02*
X139771188Y-73635300D01*
X139771188Y-75715300D02*
X139771188Y-76374300D01*
X139811188Y-73023300D02*
X139811188Y-73635300D01*
X139811188Y-75715300D02*
X139811188Y-76327300D01*
X139851188Y-73071300D02*
X139851188Y-73635300D01*
X139851188Y-75715300D02*
X139851188Y-76279300D01*
X139891188Y-73122300D02*
X139891188Y-73635300D01*
X139891188Y-75715300D02*
X139891188Y-76228300D01*
X139931188Y-73176300D02*
X139931188Y-73635300D01*
X139931188Y-75715300D02*
X139931188Y-76174300D01*
X139971188Y-73232300D02*
X139971188Y-73635300D01*
X139971188Y-75715300D02*
X139971188Y-76118300D01*
X140011188Y-73292300D02*
X140011188Y-73635300D01*
X140011188Y-75715300D02*
X140011188Y-76058300D01*
X140051188Y-73356300D02*
X140051188Y-73635300D01*
X140051188Y-75715300D02*
X140051188Y-75994300D01*
X140091188Y-73424300D02*
X140091188Y-73635300D01*
X140091188Y-75715300D02*
X140091188Y-75926300D01*
X140131188Y-73498300D02*
X140131188Y-75852300D01*
X140171188Y-73577300D02*
X140171188Y-75773300D01*
X140211188Y-73664300D02*
X140211188Y-75686300D01*
X140251188Y-73761300D02*
X140251188Y-75589300D01*
X140291188Y-73870300D02*
X140291188Y-75480300D01*
X140331188Y-73998300D02*
X140331188Y-75352300D01*
X140371188Y-74158300D02*
X140371188Y-75192300D01*
X140411188Y-74392300D02*
X140411188Y-74958300D01*
X140431188Y-74675300D02*
G75*
G02*
X135191188Y-74675300I-2620000J0D01*
G01*
X135191188Y-74675300D02*
G75*
G02*
X140431188Y-74675300I2620000J0D01*
G01*
%TO.C,C13*%
X159355100Y-107283000D02*
X159355100Y-106717000D01*
X159395100Y-107517000D02*
X159395100Y-106483000D01*
X159435100Y-107677000D02*
X159435100Y-106323000D01*
X159475100Y-107805000D02*
X159475100Y-106195000D01*
X159515100Y-107914000D02*
X159515100Y-106086000D01*
X159555100Y-108011000D02*
X159555100Y-105989000D01*
X159595100Y-108098000D02*
X159595100Y-105902000D01*
X159635100Y-108177000D02*
X159635100Y-105823000D01*
X159675100Y-105960000D02*
X159675100Y-105749000D01*
X159675100Y-108251000D02*
X159675100Y-108040000D01*
X159715100Y-105960000D02*
X159715100Y-105681000D01*
X159715100Y-108319000D02*
X159715100Y-108040000D01*
X159755100Y-105960000D02*
X159755100Y-105617000D01*
X159755100Y-108383000D02*
X159755100Y-108040000D01*
X159795100Y-105960000D02*
X159795100Y-105557000D01*
X159795100Y-108443000D02*
X159795100Y-108040000D01*
X159835100Y-105960000D02*
X159835100Y-105501000D01*
X159835100Y-108499000D02*
X159835100Y-108040000D01*
X159875100Y-105960000D02*
X159875100Y-105447000D01*
X159875100Y-108553000D02*
X159875100Y-108040000D01*
X159915100Y-105960000D02*
X159915100Y-105396000D01*
X159915100Y-108604000D02*
X159915100Y-108040000D01*
X159955100Y-105960000D02*
X159955100Y-105348000D01*
X159955100Y-108652000D02*
X159955100Y-108040000D01*
X159995100Y-105960000D02*
X159995100Y-105301000D01*
X159995100Y-108699000D02*
X159995100Y-108040000D01*
X160035100Y-105960000D02*
X160035100Y-105257000D01*
X160035100Y-108743000D02*
X160035100Y-108040000D01*
X160075100Y-105960000D02*
X160075100Y-105215000D01*
X160075100Y-108785000D02*
X160075100Y-108040000D01*
X160115100Y-105960000D02*
X160115100Y-105175000D01*
X160115100Y-108825000D02*
X160115100Y-108040000D01*
X160155100Y-105960000D02*
X160155100Y-105136000D01*
X160155100Y-108864000D02*
X160155100Y-108040000D01*
X160195100Y-105960000D02*
X160195100Y-105099000D01*
X160195100Y-108901000D02*
X160195100Y-108040000D01*
X160235100Y-105960000D02*
X160235100Y-105064000D01*
X160235100Y-108936000D02*
X160235100Y-108040000D01*
X160275100Y-105960000D02*
X160275100Y-105030000D01*
X160275100Y-108970000D02*
X160275100Y-108040000D01*
X160315100Y-105960000D02*
X160315100Y-104997000D01*
X160315100Y-109003000D02*
X160315100Y-108040000D01*
X160355100Y-105960000D02*
X160355100Y-104965000D01*
X160355100Y-109035000D02*
X160355100Y-108040000D01*
X160395100Y-105960000D02*
X160395100Y-104935000D01*
X160395100Y-109065000D02*
X160395100Y-108040000D01*
X160435100Y-105960000D02*
X160435100Y-104906000D01*
X160435100Y-109094000D02*
X160435100Y-108040000D01*
X160475100Y-105960000D02*
X160475100Y-104878000D01*
X160475100Y-109122000D02*
X160475100Y-108040000D01*
X160515100Y-105960000D02*
X160515100Y-104851000D01*
X160515100Y-109149000D02*
X160515100Y-108040000D01*
X160555100Y-105960000D02*
X160555100Y-104825000D01*
X160555100Y-109175000D02*
X160555100Y-108040000D01*
X160595100Y-105960000D02*
X160595100Y-104801000D01*
X160595100Y-109199000D02*
X160595100Y-108040000D01*
X160635100Y-105960000D02*
X160635100Y-104777000D01*
X160635100Y-109223000D02*
X160635100Y-108040000D01*
X160675100Y-105960000D02*
X160675100Y-104754000D01*
X160675100Y-109246000D02*
X160675100Y-108040000D01*
X160715100Y-105960000D02*
X160715100Y-104732000D01*
X160715100Y-109268000D02*
X160715100Y-108040000D01*
X160755100Y-105960000D02*
X160755100Y-104711000D01*
X160755100Y-109289000D02*
X160755100Y-108040000D01*
X160795100Y-105960000D02*
X160795100Y-104691000D01*
X160795100Y-109309000D02*
X160795100Y-108040000D01*
X160835100Y-105960000D02*
X160835100Y-104671000D01*
X160835100Y-109329000D02*
X160835100Y-108040000D01*
X160875100Y-105960000D02*
X160875100Y-104653000D01*
X160875100Y-109347000D02*
X160875100Y-108040000D01*
X160915100Y-105960000D02*
X160915100Y-104635000D01*
X160915100Y-109365000D02*
X160915100Y-108040000D01*
X160955100Y-105960000D02*
X160955100Y-104618000D01*
X160955100Y-109382000D02*
X160955100Y-108040000D01*
X160995100Y-105960000D02*
X160995100Y-104602000D01*
X160995100Y-109398000D02*
X160995100Y-108040000D01*
X161035100Y-105960000D02*
X161035100Y-104587000D01*
X161035100Y-109413000D02*
X161035100Y-108040000D01*
X161075100Y-105960000D02*
X161075100Y-104572000D01*
X161075100Y-109428000D02*
X161075100Y-108040000D01*
X161115100Y-105960000D02*
X161115100Y-104558000D01*
X161115100Y-109442000D02*
X161115100Y-108040000D01*
X161155100Y-105960000D02*
X161155100Y-104545000D01*
X161155100Y-109455000D02*
X161155100Y-108040000D01*
X161195100Y-105960000D02*
X161195100Y-104533000D01*
X161195100Y-109467000D02*
X161195100Y-108040000D01*
X161235100Y-105960000D02*
X161235100Y-104521000D01*
X161235100Y-109479000D02*
X161235100Y-108040000D01*
X161275100Y-105960000D02*
X161275100Y-104510000D01*
X161275100Y-109490000D02*
X161275100Y-108040000D01*
X161315100Y-105960000D02*
X161315100Y-104499000D01*
X161315100Y-109501000D02*
X161315100Y-108040000D01*
X161355100Y-105960000D02*
X161355100Y-104490000D01*
X161355100Y-109510000D02*
X161355100Y-108040000D01*
X161395100Y-105960000D02*
X161395100Y-104481000D01*
X161395100Y-109519000D02*
X161395100Y-108040000D01*
X161435100Y-105960000D02*
X161435100Y-104472000D01*
X161435100Y-109528000D02*
X161435100Y-108040000D01*
X161475100Y-105960000D02*
X161475100Y-104464000D01*
X161475100Y-109536000D02*
X161475100Y-108040000D01*
X161515100Y-105960000D02*
X161515100Y-104457000D01*
X161515100Y-109543000D02*
X161515100Y-108040000D01*
X161555100Y-105960000D02*
X161555100Y-104451000D01*
X161555100Y-109549000D02*
X161555100Y-108040000D01*
X161595100Y-105960000D02*
X161595100Y-104445000D01*
X161595100Y-109555000D02*
X161595100Y-108040000D01*
X161635100Y-105960000D02*
X161635100Y-104440000D01*
X161635100Y-109560000D02*
X161635100Y-108040000D01*
X161675100Y-105960000D02*
X161675100Y-104435000D01*
X161675100Y-109565000D02*
X161675100Y-108040000D01*
X161715100Y-105960000D02*
X161715100Y-104431000D01*
X161715100Y-109569000D02*
X161715100Y-108040000D01*
X161755100Y-109572000D02*
X161755100Y-104428000D01*
X161795100Y-109575000D02*
X161795100Y-104425000D01*
X161835100Y-109577000D02*
X161835100Y-104423000D01*
X161875100Y-109579000D02*
X161875100Y-104421000D01*
X161915100Y-109580000D02*
X161915100Y-104420000D01*
X161955100Y-109580000D02*
X161955100Y-104420000D01*
X164509875Y-108725000D02*
X164509875Y-108225000D01*
X164759875Y-108475000D02*
X164259875Y-108475000D01*
X164575100Y-107000000D02*
G75*
G02*
X159335100Y-107000000I-2620000J0D01*
G01*
X159335100Y-107000000D02*
G75*
G02*
X164575100Y-107000000I2620000J0D01*
G01*
%TO.C,R4*%
X104960000Y-99500000D02*
X105730000Y-99500000D01*
X113040000Y-99500000D02*
X112270000Y-99500000D01*
X105730000Y-98130000D02*
X112270000Y-98130000D01*
X112270000Y-100870000D01*
X105730000Y-100870000D01*
X105730000Y-98130000D01*
%TO.C,R1*%
X163880000Y-83000000D02*
X164650000Y-83000000D01*
X171960000Y-83000000D02*
X171190000Y-83000000D01*
X171190000Y-84370000D02*
X164650000Y-84370000D01*
X164650000Y-81630000D01*
X171190000Y-81630000D01*
X171190000Y-84370000D01*
%TO.C,D7*%
X143430000Y-117280000D02*
X145670000Y-117280000D01*
X143430000Y-117400000D02*
X145670000Y-117400000D01*
X143430000Y-117520000D02*
X145670000Y-117520000D01*
X144550000Y-113230000D02*
X144550000Y-113880000D01*
X144550000Y-118770000D02*
X144550000Y-118120000D01*
X143430000Y-118120000D02*
X145670000Y-118120000D01*
X145670000Y-113880000D01*
X143430000Y-113880000D01*
X143430000Y-118120000D01*
%TO.C,J7*%
X88423300Y-91880000D02*
X88423300Y-90500000D01*
X89803300Y-91880000D02*
X88423300Y-91880000D01*
X91073300Y-89120000D02*
X93723300Y-89120000D01*
X91073300Y-91880000D02*
X91073300Y-89120000D01*
X91073300Y-91880000D02*
X93723300Y-91880000D01*
X93723300Y-91880000D02*
X93723300Y-89120000D01*
%TO.C,U2*%
X157940000Y-85550000D02*
X157940000Y-95830000D01*
X157940000Y-95830000D02*
X162440000Y-95830000D01*
X159190000Y-85550000D02*
X157940000Y-85550000D01*
X162440000Y-85550000D02*
X161190000Y-85550000D01*
X162440000Y-95830000D02*
X162440000Y-85550000D01*
X161190000Y-85550000D02*
G75*
G02*
X159190000Y-85550000I-1000000J0D01*
G01*
X158716000Y-86245000D02*
G75*
G02*
X158616000Y-86245000I-50000J0D01*
G01*
X158616000Y-86245000D02*
G75*
G02*
X158716000Y-86245000I50000J0D01*
G01*
X158791000Y-86245000D02*
G75*
G02*
X158541000Y-86245000I-125000J0D01*
G01*
X158541000Y-86245000D02*
G75*
G02*
X158791000Y-86245000I125000J0D01*
G01*
X158866000Y-86245000D02*
G75*
G02*
X158466000Y-86245000I-200000J0D01*
G01*
X158466000Y-86245000D02*
G75*
G02*
X158866000Y-86245000I200000J0D01*
G01*
%TO.C,D1*%
X138040000Y-108000000D02*
X138690000Y-108000000D01*
X138651000Y-108000000D02*
X140048000Y-108000000D01*
X138690000Y-106880000D02*
X138690000Y-109120000D01*
X138690000Y-109120000D02*
X142930000Y-109120000D01*
X140048000Y-107111000D02*
X140048000Y-108889000D01*
X142930000Y-106880000D02*
X138690000Y-106880000D01*
X142930000Y-108000000D02*
X141635500Y-108000000D01*
X142930000Y-109120000D02*
X142930000Y-106880000D01*
X143580000Y-108000000D02*
X142930000Y-108000000D01*
D10*
X141572000Y-108889000D02*
X140048000Y-108000000D01*
X141572000Y-107111000D01*
X141572000Y-108889000D01*
G36*
X141572000Y-108889000D02*
G01*
X140048000Y-108000000D01*
X141572000Y-107111000D01*
X141572000Y-108889000D01*
G37*
D12*
%TO.C,C4*%
X89530000Y-81630000D02*
X94470000Y-81630000D01*
X89530000Y-81960000D02*
X89530000Y-81630000D01*
X89530000Y-84370000D02*
X89530000Y-84040000D01*
X94470000Y-81630000D02*
X94470000Y-81960000D01*
X94470000Y-84040000D02*
X94470000Y-84370000D01*
X94470000Y-84370000D02*
X89530000Y-84370000D01*
%TD*%
M02*
