%TF.GenerationSoftware,KiCad,Pcbnew,9.0.7*%
%TF.CreationDate,2026-03-19T12:52:27+00:00*%
%TF.ProjectId,GORAT circuit diagram,474f5241-5420-4636-9972-637569742064,rev?*%
%TF.SameCoordinates,Original*%
%TF.FileFunction,Profile,NP*%
%FSLAX46Y46*%
G04 Gerber Fmt 4.6, Leading zero omitted, Abs format (unit mm)*
G04 Created by KiCad (PCBNEW 9.0.7) date 2026-03-19 12:52:27*
%MOMM*%
%LPD*%
G01*
G04 APERTURE LIST*
%TA.AperFunction,Profile*%
%ADD10C,0.050000*%
%TD*%
G04 APERTURE END LIST*
D10*
X190000000Y-108000000D02*
X190000000Y-110000000D01*
X192000000Y-108000000D02*
X190000000Y-108000000D01*
X189000000Y-108000000D02*
X189000000Y-110000000D01*
X166500000Y-126500000D02*
X168000000Y-126500000D01*
X168000000Y-127500000D02*
X166500000Y-127500000D01*
X168000000Y-134500000D02*
X168000000Y-127500000D01*
X146500000Y-126500000D02*
X147500000Y-126500000D01*
X146500000Y-127500000D02*
X146500000Y-132500000D01*
X147500000Y-127500000D02*
X146500000Y-127500000D01*
X88500000Y-93000000D02*
X88500000Y-94500000D01*
X87500000Y-93000000D02*
X87500000Y-94500000D01*
X168000000Y-126500000D02*
X168000000Y-111000000D01*
X86033185Y-96001709D02*
X86000000Y-126500000D01*
X189000000Y-108000000D02*
X168500000Y-108000000D01*
X134000000Y-93000000D02*
X139000000Y-98000000D01*
X117000000Y-65000000D02*
X117000000Y-74000000D01*
X132500000Y-67000000D02*
X147000000Y-67000000D01*
X147500000Y-127500000D02*
X149500000Y-129500000D01*
X169000000Y-110000000D02*
X168000000Y-111000000D01*
X147500000Y-122500000D02*
X147500000Y-126500000D01*
X139000000Y-98000000D02*
X147000000Y-98000000D01*
X168500000Y-108000000D02*
X166500000Y-110000000D01*
X180500000Y-65000000D02*
X194000000Y-65000000D01*
X147000000Y-67000000D02*
X149000000Y-65000000D01*
X85500000Y-65000000D02*
X99000000Y-65000000D01*
X130500000Y-65000000D02*
X132500000Y-67000000D01*
X145500000Y-99500000D02*
X146500000Y-100500000D01*
X130500000Y-65000000D02*
X117000000Y-65000000D01*
X168000000Y-134500000D02*
X170000000Y-136500000D01*
X164500000Y-129500000D02*
X166500000Y-127500000D01*
X86000000Y-126500000D02*
X94000000Y-134500000D01*
X149500000Y-129500000D02*
X164500000Y-129500000D01*
X148000000Y-122000000D02*
X147500000Y-122500000D01*
X148000000Y-122000000D02*
X148000000Y-99000000D01*
X192000000Y-108000000D02*
X194000000Y-106000000D01*
X101000000Y-76000000D02*
X115000000Y-76000000D01*
X136500000Y-99500000D02*
X145500000Y-99500000D01*
X166500000Y-110000000D02*
X166500000Y-126500000D01*
X191000000Y-125500000D02*
X191000000Y-111000000D01*
X99000000Y-65000000D02*
X99000000Y-74000000D01*
X180500000Y-74000000D02*
X178500000Y-76000000D01*
X162500000Y-65000000D02*
X162500000Y-74000000D01*
X94000000Y-134500000D02*
X144500000Y-134500000D01*
X85500000Y-65000000D02*
X85500000Y-91000000D01*
X188000000Y-128500000D02*
X188000000Y-135500000D01*
X164500000Y-76000000D02*
X178500000Y-76000000D01*
X169000000Y-110000000D02*
X189000000Y-110000000D01*
X191000000Y-125500000D02*
X188000000Y-128500000D01*
X87500000Y-94500000D02*
X86033185Y-96001709D01*
X117000000Y-74000000D02*
X115000000Y-76000000D01*
X188000000Y-135500000D02*
X187000000Y-136500000D01*
X147000000Y-98000000D02*
X148000000Y-99000000D01*
X87500000Y-93000000D02*
X85500000Y-91000000D01*
X180500000Y-65000000D02*
X180500000Y-74000000D01*
X162500000Y-74000000D02*
X164500000Y-76000000D01*
X187000000Y-136500000D02*
X170000000Y-136500000D01*
X146500000Y-126500000D02*
X146500000Y-100500000D01*
X162500000Y-65000000D02*
X149000000Y-65000000D01*
X134000000Y-93000000D02*
X88500000Y-93000000D01*
X194000000Y-65000000D02*
X194000000Y-106000000D01*
X144500000Y-134500000D02*
X146500000Y-132500000D01*
X191000000Y-111000000D02*
X190000000Y-110000000D01*
X136500000Y-99500000D02*
X131500000Y-94500000D01*
X131500000Y-94500000D02*
X88500000Y-94500000D01*
X101000000Y-76000000D02*
X99000000Y-74000000D01*
M02*
