%TF.GenerationSoftware,KiCad,Pcbnew,9.0.7*%
%TF.CreationDate,2026-03-19T12:52:28+00:00*%
%TF.ProjectId,GORAT circuit diagram,474f5241-5420-4636-9972-637569742064,rev?*%
%TF.SameCoordinates,Original*%
%TF.FileFunction,Drillmap*%
%TF.FilePolarity,Positive*%
%FSLAX45Y45*%
G04 Gerber Fmt 4.5, Leading zero omitted, Abs format (unit mm)*
G04 Created by KiCad (PCBNEW 9.0.7) date 2026-03-19 12:52:28*
%MOMM*%
%LPD*%
G01*
G04 APERTURE LIST*
%ADD10C,0.050000*%
%ADD11C,0.200000*%
%ADD12C,0.100000*%
%ADD13C,0.101600*%
%ADD14C,0.110000*%
%ADD15C,0.160000*%
G04 APERTURE END LIST*
D10*
X19000000Y-10800000D02*
X19000000Y-11000000D01*
X19200000Y-10800000D02*
X19000000Y-10800000D01*
X18900000Y-10800000D02*
X18900000Y-11000000D01*
X16650000Y-12650000D02*
X16800000Y-12650000D01*
X16800000Y-12750000D02*
X16650000Y-12750000D01*
X16800000Y-13450000D02*
X16800000Y-12750000D01*
X14650000Y-12650000D02*
X14750000Y-12650000D01*
X14650000Y-12750000D02*
X14650000Y-13250000D01*
X14750000Y-12750000D02*
X14650000Y-12750000D01*
X8850000Y-9300000D02*
X8850000Y-9450000D01*
X8750000Y-9300000D02*
X8750000Y-9450000D01*
X16800000Y-12650000D02*
X16800000Y-11100000D01*
X8603319Y-9600171D02*
X8600000Y-12650000D01*
X18900000Y-10800000D02*
X16850000Y-10800000D01*
X13400000Y-9300000D02*
X13900000Y-9800000D01*
X11700000Y-6500000D02*
X11700000Y-7400000D01*
X13250000Y-6700000D02*
X14700000Y-6700000D01*
X14750000Y-12750000D02*
X14950000Y-12950000D01*
X16900000Y-11000000D02*
X16800000Y-11100000D01*
X14750000Y-12250000D02*
X14750000Y-12650000D01*
X13900000Y-9800000D02*
X14700000Y-9800000D01*
X16850000Y-10800000D02*
X16650000Y-11000000D01*
X18050000Y-6500000D02*
X19400000Y-6500000D01*
X14700000Y-6700000D02*
X14900000Y-6500000D01*
X8550000Y-6500000D02*
X9900000Y-6500000D01*
X13050000Y-6500000D02*
X13250000Y-6700000D01*
X14550000Y-9950000D02*
X14650000Y-10050000D01*
X13050000Y-6500000D02*
X11700000Y-6500000D01*
X16800000Y-13450000D02*
X17000000Y-13650000D01*
X16450000Y-12950000D02*
X16650000Y-12750000D01*
X8600000Y-12650000D02*
X9400000Y-13450000D01*
X14950000Y-12950000D02*
X16450000Y-12950000D01*
X14800000Y-12200000D02*
X14750000Y-12250000D01*
X14800000Y-12200000D02*
X14800000Y-9900000D01*
X19200000Y-10800000D02*
X19400000Y-10600000D01*
X10100000Y-7600000D02*
X11500000Y-7600000D01*
X13650000Y-9950000D02*
X14550000Y-9950000D01*
X16650000Y-11000000D02*
X16650000Y-12650000D01*
X19100000Y-12550000D02*
X19100000Y-11100000D01*
X9900000Y-6500000D02*
X9900000Y-7400000D01*
X18050000Y-7400000D02*
X17850000Y-7600000D01*
X16250000Y-6500000D02*
X16250000Y-7400000D01*
X9400000Y-13450000D02*
X14450000Y-13450000D01*
X8550000Y-6500000D02*
X8550000Y-9100000D01*
X18800000Y-12850000D02*
X18800000Y-13550000D01*
X16450000Y-7600000D02*
X17850000Y-7600000D01*
X16900000Y-11000000D02*
X18900000Y-11000000D01*
X19100000Y-12550000D02*
X18800000Y-12850000D01*
X8750000Y-9450000D02*
X8603319Y-9600171D01*
X11700000Y-7400000D02*
X11500000Y-7600000D01*
X18800000Y-13550000D02*
X18700000Y-13650000D01*
X14700000Y-9800000D02*
X14800000Y-9900000D01*
X8750000Y-9300000D02*
X8550000Y-9100000D01*
X18050000Y-6500000D02*
X18050000Y-7400000D01*
X16250000Y-7400000D02*
X16450000Y-7600000D01*
X18700000Y-13650000D02*
X17000000Y-13650000D01*
X14650000Y-12650000D02*
X14650000Y-10050000D01*
X16250000Y-6500000D02*
X14900000Y-6500000D01*
X13400000Y-9300000D02*
X8850000Y-9300000D01*
X19400000Y-6500000D02*
X19400000Y-10600000D01*
X14450000Y-13450000D02*
X14650000Y-13250000D01*
X19100000Y-11100000D02*
X19000000Y-11000000D01*
X13650000Y-9950000D02*
X13150000Y-9450000D01*
X13150000Y-9450000D02*
X8850000Y-9450000D01*
X10100000Y-7600000D02*
X9900000Y-7400000D01*
D11*
D12*
X10041040Y-10180250D02*
X10071040Y-10210250D01*
X10071040Y-10180250D02*
X10041040Y-10210250D01*
X12635000Y-8035000D02*
X12665000Y-8065000D01*
X12665000Y-8035000D02*
X12635000Y-8065000D01*
X12753385Y-11216615D02*
X12783385Y-11246615D01*
X12783385Y-11216615D02*
X12753385Y-11246615D01*
X13931920Y-9026620D02*
X13961920Y-9056620D01*
X13961920Y-9026620D02*
X13931920Y-9056620D01*
X15392810Y-10123100D02*
X15422810Y-10153100D01*
X15422810Y-10123100D02*
X15392810Y-10153100D01*
X16798000Y-8415460D02*
X16828000Y-8445460D01*
X16828000Y-8415460D02*
X16798000Y-8445460D01*
X8840000Y-10350000D02*
G75*
G02*
X8760000Y-10350000I-40000J0D01*
G01*
X8760000Y-10350000D02*
G75*
G02*
X8840000Y-10350000I40000J0D01*
G01*
X8990000Y-8300000D02*
G75*
G02*
X8910000Y-8300000I-40000J0D01*
G01*
X8910000Y-8300000D02*
G75*
G02*
X8990000Y-8300000I40000J0D01*
G01*
X9090000Y-10350000D02*
G75*
G02*
X9010000Y-10350000I-40000J0D01*
G01*
X9010000Y-10350000D02*
G75*
G02*
X9090000Y-10350000I40000J0D01*
G01*
X9455900Y-10350000D02*
G75*
G02*
X9375900Y-10350000I-40000J0D01*
G01*
X9375900Y-10350000D02*
G75*
G02*
X9455900Y-10350000I40000J0D01*
G01*
X9490000Y-8300000D02*
G75*
G02*
X9410000Y-8300000I-40000J0D01*
G01*
X9410000Y-8300000D02*
G75*
G02*
X9490000Y-8300000I40000J0D01*
G01*
X9705900Y-10350000D02*
G75*
G02*
X9625900Y-10350000I-40000J0D01*
G01*
X9625900Y-10350000D02*
G75*
G02*
X9705900Y-10350000I40000J0D01*
G01*
X9782000Y-8250000D02*
G75*
G02*
X9702000Y-8250000I-40000J0D01*
G01*
X9702000Y-8250000D02*
G75*
G02*
X9782000Y-8250000I40000J0D01*
G01*
X9790000Y-8650000D02*
G75*
G02*
X9710000Y-8650000I-40000J0D01*
G01*
X9710000Y-8650000D02*
G75*
G02*
X9790000Y-8650000I40000J0D01*
G01*
X10040000Y-10050000D02*
G75*
G02*
X9960000Y-10050000I-40000J0D01*
G01*
X9960000Y-10050000D02*
G75*
G02*
X10040000Y-10050000I40000J0D01*
G01*
X10040000Y-10550000D02*
G75*
G02*
X9960000Y-10550000I-40000J0D01*
G01*
X9960000Y-10550000D02*
G75*
G02*
X10040000Y-10550000I40000J0D01*
G01*
X10290000Y-8650000D02*
G75*
G02*
X10210000Y-8650000I-40000J0D01*
G01*
X10210000Y-8650000D02*
G75*
G02*
X10290000Y-8650000I40000J0D01*
G01*
X10424000Y-9600000D02*
G75*
G02*
X10344000Y-9600000I-40000J0D01*
G01*
X10344000Y-9600000D02*
G75*
G02*
X10424000Y-9600000I40000J0D01*
G01*
X10432000Y-9950000D02*
G75*
G02*
X10352000Y-9950000I-40000J0D01*
G01*
X10352000Y-9950000D02*
G75*
G02*
X10432000Y-9950000I40000J0D01*
G01*
X10590000Y-8650000D02*
G75*
G02*
X10510000Y-8650000I-40000J0D01*
G01*
X10510000Y-8650000D02*
G75*
G02*
X10590000Y-8650000I40000J0D01*
G01*
X10690000Y-10270510D02*
G75*
G02*
X10610000Y-10270510I-40000J0D01*
G01*
X10610000Y-10270510D02*
G75*
G02*
X10690000Y-10270510I40000J0D01*
G01*
X10690000Y-10520510D02*
G75*
G02*
X10610000Y-10520510I-40000J0D01*
G01*
X10610000Y-10520510D02*
G75*
G02*
X10690000Y-10520510I40000J0D01*
G01*
X10798000Y-8250000D02*
G75*
G02*
X10718000Y-8250000I-40000J0D01*
G01*
X10718000Y-8250000D02*
G75*
G02*
X10798000Y-8250000I40000J0D01*
G01*
X11090000Y-8650000D02*
G75*
G02*
X11010000Y-8650000I-40000J0D01*
G01*
X11010000Y-8650000D02*
G75*
G02*
X11090000Y-8650000I40000J0D01*
G01*
X11090000Y-10950000D02*
G75*
G02*
X11010000Y-10950000I-40000J0D01*
G01*
X11010000Y-10950000D02*
G75*
G02*
X11090000Y-10950000I40000J0D01*
G01*
X11140000Y-8250000D02*
G75*
G02*
X11060000Y-8250000I-40000J0D01*
G01*
X11060000Y-8250000D02*
G75*
G02*
X11140000Y-8250000I40000J0D01*
G01*
X11240000Y-10300000D02*
G75*
G02*
X11160000Y-10300000I-40000J0D01*
G01*
X11160000Y-10300000D02*
G75*
G02*
X11240000Y-10300000I40000J0D01*
G01*
X11240000Y-10550000D02*
G75*
G02*
X11160000Y-10550000I-40000J0D01*
G01*
X11160000Y-10550000D02*
G75*
G02*
X11240000Y-10550000I40000J0D01*
G01*
X11440000Y-9600000D02*
G75*
G02*
X11360000Y-9600000I-40000J0D01*
G01*
X11360000Y-9600000D02*
G75*
G02*
X11440000Y-9600000I40000J0D01*
G01*
X11448000Y-9950000D02*
G75*
G02*
X11368000Y-9950000I-40000J0D01*
G01*
X11368000Y-9950000D02*
G75*
G02*
X11448000Y-9950000I40000J0D01*
G01*
X11590000Y-10950000D02*
G75*
G02*
X11510000Y-10950000I-40000J0D01*
G01*
X11510000Y-10950000D02*
G75*
G02*
X11590000Y-10950000I40000J0D01*
G01*
X11890000Y-10100000D02*
G75*
G02*
X11810000Y-10100000I-40000J0D01*
G01*
X11810000Y-10100000D02*
G75*
G02*
X11890000Y-10100000I40000J0D01*
G01*
X11890000Y-10600000D02*
G75*
G02*
X11810000Y-10600000I-40000J0D01*
G01*
X11810000Y-10600000D02*
G75*
G02*
X11890000Y-10600000I40000J0D01*
G01*
X12156000Y-8250000D02*
G75*
G02*
X12076000Y-8250000I-40000J0D01*
G01*
X12076000Y-8250000D02*
G75*
G02*
X12156000Y-8250000I40000J0D01*
G01*
X12240000Y-10100000D02*
G75*
G02*
X12160000Y-10100000I-40000J0D01*
G01*
X12160000Y-10100000D02*
G75*
G02*
X12240000Y-10100000I40000J0D01*
G01*
X12240000Y-10600000D02*
G75*
G02*
X12160000Y-10600000I-40000J0D01*
G01*
X12160000Y-10600000D02*
G75*
G02*
X12240000Y-10600000I40000J0D01*
G01*
X12536000Y-8364000D02*
G75*
G02*
X12456000Y-8364000I-40000J0D01*
G01*
X12456000Y-8364000D02*
G75*
G02*
X12536000Y-8364000I40000J0D01*
G01*
X12590000Y-10100000D02*
G75*
G02*
X12510000Y-10100000I-40000J0D01*
G01*
X12510000Y-10100000D02*
G75*
G02*
X12590000Y-10100000I40000J0D01*
G01*
X12590000Y-10600000D02*
G75*
G02*
X12510000Y-10600000I-40000J0D01*
G01*
X12510000Y-10600000D02*
G75*
G02*
X12590000Y-10600000I40000J0D01*
G01*
X12790000Y-8364000D02*
G75*
G02*
X12710000Y-8364000I-40000J0D01*
G01*
X12710000Y-8364000D02*
G75*
G02*
X12790000Y-8364000I40000J0D01*
G01*
X13044000Y-8364000D02*
G75*
G02*
X12964000Y-8364000I-40000J0D01*
G01*
X12964000Y-8364000D02*
G75*
G02*
X13044000Y-8364000I40000J0D01*
G01*
X13340000Y-7300000D02*
G75*
G02*
X13260000Y-7300000I-40000J0D01*
G01*
X13260000Y-7300000D02*
G75*
G02*
X13340000Y-7300000I40000J0D01*
G01*
X13340000Y-8316000D02*
G75*
G02*
X13260000Y-8316000I-40000J0D01*
G01*
X13260000Y-8316000D02*
G75*
G02*
X13340000Y-8316000I40000J0D01*
G01*
X13340000Y-8750000D02*
G75*
G02*
X13260000Y-8750000I-40000J0D01*
G01*
X13260000Y-8750000D02*
G75*
G02*
X13340000Y-8750000I40000J0D01*
G01*
X13640000Y-8300000D02*
G75*
G02*
X13560000Y-8300000I-40000J0D01*
G01*
X13560000Y-8300000D02*
G75*
G02*
X13640000Y-8300000I40000J0D01*
G01*
X13696119Y-7467530D02*
G75*
G02*
X13616119Y-7467530I-40000J0D01*
G01*
X13616119Y-7467530D02*
G75*
G02*
X13696119Y-7467530I40000J0D01*
G01*
X13709000Y-10500000D02*
G75*
G02*
X13629000Y-10500000I-40000J0D01*
G01*
X13629000Y-10500000D02*
G75*
G02*
X13709000Y-10500000I40000J0D01*
G01*
X13740000Y-10800000D02*
G75*
G02*
X13660000Y-10800000I-40000J0D01*
G01*
X13660000Y-10800000D02*
G75*
G02*
X13740000Y-10800000I40000J0D01*
G01*
X13840000Y-8750000D02*
G75*
G02*
X13760000Y-8750000I-40000J0D01*
G01*
X13760000Y-8750000D02*
G75*
G02*
X13840000Y-8750000I40000J0D01*
G01*
X13890000Y-8300000D02*
G75*
G02*
X13810000Y-8300000I-40000J0D01*
G01*
X13810000Y-8300000D02*
G75*
G02*
X13890000Y-8300000I40000J0D01*
G01*
X13946119Y-7467530D02*
G75*
G02*
X13866119Y-7467530I-40000J0D01*
G01*
X13866119Y-7467530D02*
G75*
G02*
X13946119Y-7467530I40000J0D01*
G01*
X14160000Y-8620500D02*
G75*
G02*
X14080000Y-8620500I-40000J0D01*
G01*
X14080000Y-8620500D02*
G75*
G02*
X14160000Y-8620500I40000J0D01*
G01*
X14160000Y-9382500D02*
G75*
G02*
X14080000Y-9382500I-40000J0D01*
G01*
X14080000Y-9382500D02*
G75*
G02*
X14160000Y-9382500I40000J0D01*
G01*
X14240000Y-11219000D02*
G75*
G02*
X14160000Y-11219000I-40000J0D01*
G01*
X14160000Y-11219000D02*
G75*
G02*
X14240000Y-11219000I40000J0D01*
G01*
X14240000Y-11981000D02*
G75*
G02*
X14160000Y-11981000I-40000J0D01*
G01*
X14160000Y-11981000D02*
G75*
G02*
X14240000Y-11981000I40000J0D01*
G01*
X14290000Y-7284000D02*
G75*
G02*
X14210000Y-7284000I-40000J0D01*
G01*
X14210000Y-7284000D02*
G75*
G02*
X14290000Y-7284000I40000J0D01*
G01*
X14290000Y-8300000D02*
G75*
G02*
X14210000Y-8300000I-40000J0D01*
G01*
X14210000Y-8300000D02*
G75*
G02*
X14290000Y-8300000I40000J0D01*
G01*
X14414000Y-8620500D02*
G75*
G02*
X14334000Y-8620500I-40000J0D01*
G01*
X14334000Y-8620500D02*
G75*
G02*
X14414000Y-8620500I40000J0D01*
G01*
X14414000Y-9382500D02*
G75*
G02*
X14334000Y-9382500I-40000J0D01*
G01*
X14334000Y-9382500D02*
G75*
G02*
X14414000Y-9382500I40000J0D01*
G01*
X14471000Y-10500000D02*
G75*
G02*
X14391000Y-10500000I-40000J0D01*
G01*
X14391000Y-10500000D02*
G75*
G02*
X14471000Y-10500000I40000J0D01*
G01*
X14495000Y-11219000D02*
G75*
G02*
X14415000Y-11219000I-40000J0D01*
G01*
X14415000Y-11219000D02*
G75*
G02*
X14495000Y-11219000I40000J0D01*
G01*
X14495000Y-11981000D02*
G75*
G02*
X14415000Y-11981000I-40000J0D01*
G01*
X14415000Y-11981000D02*
G75*
G02*
X14495000Y-11981000I40000J0D01*
G01*
X14502000Y-10800000D02*
G75*
G02*
X14422000Y-10800000I-40000J0D01*
G01*
X14422000Y-10800000D02*
G75*
G02*
X14502000Y-10800000I40000J0D01*
G01*
X14640000Y-7292000D02*
G75*
G02*
X14560000Y-7292000I-40000J0D01*
G01*
X14560000Y-7292000D02*
G75*
G02*
X14640000Y-7292000I40000J0D01*
G01*
X14640000Y-8308000D02*
G75*
G02*
X14560000Y-8308000I-40000J0D01*
G01*
X14560000Y-8308000D02*
G75*
G02*
X14640000Y-8308000I40000J0D01*
G01*
X14668000Y-8620500D02*
G75*
G02*
X14588000Y-8620500I-40000J0D01*
G01*
X14588000Y-8620500D02*
G75*
G02*
X14668000Y-8620500I40000J0D01*
G01*
X14668000Y-9382500D02*
G75*
G02*
X14588000Y-9382500I-40000J0D01*
G01*
X14588000Y-9382500D02*
G75*
G02*
X14668000Y-9382500I40000J0D01*
G01*
X14922000Y-8620500D02*
G75*
G02*
X14842000Y-8620500I-40000J0D01*
G01*
X14842000Y-8620500D02*
G75*
G02*
X14922000Y-8620500I40000J0D01*
G01*
X14922000Y-9382500D02*
G75*
G02*
X14842000Y-9382500I-40000J0D01*
G01*
X14842000Y-9382500D02*
G75*
G02*
X14922000Y-9382500I40000J0D01*
G01*
X15040000Y-10992000D02*
G75*
G02*
X14960000Y-10992000I-40000J0D01*
G01*
X14960000Y-10992000D02*
G75*
G02*
X15040000Y-10992000I40000J0D01*
G01*
X15040000Y-12008000D02*
G75*
G02*
X14960000Y-12008000I-40000J0D01*
G01*
X14960000Y-12008000D02*
G75*
G02*
X15040000Y-12008000I40000J0D01*
G01*
X15082000Y-8150000D02*
G75*
G02*
X15002000Y-8150000I-40000J0D01*
G01*
X15002000Y-8150000D02*
G75*
G02*
X15082000Y-8150000I40000J0D01*
G01*
X15153490Y-9900000D02*
G75*
G02*
X15073490Y-9900000I-40000J0D01*
G01*
X15073490Y-9900000D02*
G75*
G02*
X15153490Y-9900000I40000J0D01*
G01*
X15161490Y-10250000D02*
G75*
G02*
X15081490Y-10250000I-40000J0D01*
G01*
X15081490Y-10250000D02*
G75*
G02*
X15161490Y-10250000I40000J0D01*
G01*
X15290000Y-8592000D02*
G75*
G02*
X15210000Y-8592000I-40000J0D01*
G01*
X15210000Y-8592000D02*
G75*
G02*
X15290000Y-8592000I40000J0D01*
G01*
X15290000Y-9608000D02*
G75*
G02*
X15210000Y-9608000I-40000J0D01*
G01*
X15210000Y-9608000D02*
G75*
G02*
X15290000Y-9608000I40000J0D01*
G01*
X15678000Y-8688000D02*
G75*
G02*
X15598000Y-8688000I-40000J0D01*
G01*
X15598000Y-8688000D02*
G75*
G02*
X15678000Y-8688000I40000J0D01*
G01*
X15678000Y-8942000D02*
G75*
G02*
X15598000Y-8942000I-40000J0D01*
G01*
X15598000Y-8942000D02*
G75*
G02*
X15678000Y-8942000I40000J0D01*
G01*
X15678000Y-9196000D02*
G75*
G02*
X15598000Y-9196000I-40000J0D01*
G01*
X15598000Y-9196000D02*
G75*
G02*
X15678000Y-9196000I40000J0D01*
G01*
X15678000Y-9450000D02*
G75*
G02*
X15598000Y-9450000I-40000J0D01*
G01*
X15598000Y-9450000D02*
G75*
G02*
X15678000Y-9450000I40000J0D01*
G01*
X15790000Y-11600000D02*
G75*
G02*
X15710000Y-11600000I-40000J0D01*
G01*
X15710000Y-11600000D02*
G75*
G02*
X15790000Y-11600000I40000J0D01*
G01*
X15790000Y-12100000D02*
G75*
G02*
X15710000Y-12100000I-40000J0D01*
G01*
X15710000Y-12100000D02*
G75*
G02*
X15790000Y-12100000I40000J0D01*
G01*
X15890000Y-12500000D02*
G75*
G02*
X15810000Y-12500000I-40000J0D01*
G01*
X15810000Y-12500000D02*
G75*
G02*
X15890000Y-12500000I40000J0D01*
G01*
X16098000Y-8150000D02*
G75*
G02*
X16018000Y-8150000I-40000J0D01*
G01*
X16018000Y-8150000D02*
G75*
G02*
X16098000Y-8150000I40000J0D01*
G01*
X16110510Y-10700000D02*
G75*
G02*
X16030510Y-10700000I-40000J0D01*
G01*
X16030510Y-10700000D02*
G75*
G02*
X16110510Y-10700000I40000J0D01*
G01*
X16119490Y-11092000D02*
G75*
G02*
X16039490Y-11092000I-40000J0D01*
G01*
X16039490Y-11092000D02*
G75*
G02*
X16119490Y-11092000I40000J0D01*
G01*
X16119490Y-12108000D02*
G75*
G02*
X16039490Y-12108000I-40000J0D01*
G01*
X16039490Y-12108000D02*
G75*
G02*
X16119490Y-12108000I40000J0D01*
G01*
X16140000Y-12500000D02*
G75*
G02*
X16060000Y-12500000I-40000J0D01*
G01*
X16060000Y-12500000D02*
G75*
G02*
X16140000Y-12500000I40000J0D01*
G01*
X16169490Y-9900000D02*
G75*
G02*
X16089490Y-9900000I-40000J0D01*
G01*
X16089490Y-9900000D02*
G75*
G02*
X16169490Y-9900000I40000J0D01*
G01*
X16177490Y-10250000D02*
G75*
G02*
X16097490Y-10250000I-40000J0D01*
G01*
X16097490Y-10250000D02*
G75*
G02*
X16177490Y-10250000I40000J0D01*
G01*
X16324000Y-8300000D02*
G75*
G02*
X16244000Y-8300000I-40000J0D01*
G01*
X16244000Y-8300000D02*
G75*
G02*
X16324000Y-8300000I40000J0D01*
G01*
X16360510Y-10700000D02*
G75*
G02*
X16280510Y-10700000I-40000J0D01*
G01*
X16280510Y-10700000D02*
G75*
G02*
X16360510Y-10700000I40000J0D01*
G01*
X16440000Y-8688000D02*
G75*
G02*
X16360000Y-8688000I-40000J0D01*
G01*
X16360000Y-8688000D02*
G75*
G02*
X16440000Y-8688000I40000J0D01*
G01*
X16440000Y-8942000D02*
G75*
G02*
X16360000Y-8942000I-40000J0D01*
G01*
X16360000Y-8942000D02*
G75*
G02*
X16440000Y-8942000I40000J0D01*
G01*
X16440000Y-9196000D02*
G75*
G02*
X16360000Y-9196000I-40000J0D01*
G01*
X16360000Y-9196000D02*
G75*
G02*
X16440000Y-9196000I40000J0D01*
G01*
X16440000Y-9450000D02*
G75*
G02*
X16360000Y-9450000I-40000J0D01*
G01*
X16360000Y-9450000D02*
G75*
G02*
X16440000Y-9450000I40000J0D01*
G01*
X16440000Y-9750000D02*
G75*
G02*
X16360000Y-9750000I-40000J0D01*
G01*
X16360000Y-9750000D02*
G75*
G02*
X16440000Y-9750000I40000J0D01*
G01*
X16440000Y-10250000D02*
G75*
G02*
X16360000Y-10250000I-40000J0D01*
G01*
X16360000Y-10250000D02*
G75*
G02*
X16440000Y-10250000I40000J0D01*
G01*
X16740000Y-8650000D02*
G75*
G02*
X16660000Y-8650000I-40000J0D01*
G01*
X16660000Y-8650000D02*
G75*
G02*
X16740000Y-8650000I40000J0D01*
G01*
X16740000Y-9150000D02*
G75*
G02*
X16660000Y-9150000I-40000J0D01*
G01*
X16660000Y-9150000D02*
G75*
G02*
X16740000Y-9150000I40000J0D01*
G01*
X17090000Y-9068000D02*
G75*
G02*
X17010000Y-9068000I-40000J0D01*
G01*
X17010000Y-9068000D02*
G75*
G02*
X17090000Y-9068000I40000J0D01*
G01*
X17090000Y-9322000D02*
G75*
G02*
X17010000Y-9322000I-40000J0D01*
G01*
X17010000Y-9322000D02*
G75*
G02*
X17090000Y-9322000I40000J0D01*
G01*
X17090000Y-9576000D02*
G75*
G02*
X17010000Y-9576000I-40000J0D01*
G01*
X17010000Y-9576000D02*
G75*
G02*
X17090000Y-9576000I40000J0D01*
G01*
X17090000Y-9830000D02*
G75*
G02*
X17010000Y-9830000I-40000J0D01*
G01*
X17010000Y-9830000D02*
G75*
G02*
X17090000Y-9830000I40000J0D01*
G01*
X17340000Y-8300000D02*
G75*
G02*
X17260000Y-8300000I-40000J0D01*
G01*
X17260000Y-8300000D02*
G75*
G02*
X17340000Y-8300000I40000J0D01*
G01*
X17588020Y-8535000D02*
G75*
G02*
X17508020Y-8535000I-40000J0D01*
G01*
X17508020Y-8535000D02*
G75*
G02*
X17588020Y-8535000I40000J0D01*
G01*
X17838020Y-8535000D02*
G75*
G02*
X17758020Y-8535000I-40000J0D01*
G01*
X17758020Y-8535000D02*
G75*
G02*
X17838020Y-8535000I40000J0D01*
G01*
X17852000Y-9068000D02*
G75*
G02*
X17772000Y-9068000I-40000J0D01*
G01*
X17772000Y-9068000D02*
G75*
G02*
X17852000Y-9068000I40000J0D01*
G01*
X17852000Y-9322000D02*
G75*
G02*
X17772000Y-9322000I-40000J0D01*
G01*
X17772000Y-9322000D02*
G75*
G02*
X17852000Y-9322000I40000J0D01*
G01*
X17852000Y-9576000D02*
G75*
G02*
X17772000Y-9576000I-40000J0D01*
G01*
X17772000Y-9576000D02*
G75*
G02*
X17852000Y-9576000I40000J0D01*
G01*
X17852000Y-9830000D02*
G75*
G02*
X17772000Y-9830000I-40000J0D01*
G01*
X17772000Y-9830000D02*
G75*
G02*
X17852000Y-9830000I40000J0D01*
G01*
X18207000Y-8620000D02*
G75*
G02*
X18127000Y-8620000I-40000J0D01*
G01*
X18127000Y-8620000D02*
G75*
G02*
X18207000Y-8620000I40000J0D01*
G01*
X18207000Y-9025000D02*
G75*
G02*
X18127000Y-9025000I-40000J0D01*
G01*
X18127000Y-9025000D02*
G75*
G02*
X18207000Y-9025000I40000J0D01*
G01*
X18207000Y-9430000D02*
G75*
G02*
X18127000Y-9430000I-40000J0D01*
G01*
X18127000Y-9430000D02*
G75*
G02*
X18207000Y-9430000I40000J0D01*
G01*
X18207000Y-9835000D02*
G75*
G02*
X18127000Y-9835000I-40000J0D01*
G01*
X18127000Y-9835000D02*
G75*
G02*
X18207000Y-9835000I40000J0D01*
G01*
X19223000Y-8620000D02*
G75*
G02*
X19143000Y-8620000I-40000J0D01*
G01*
X19143000Y-8620000D02*
G75*
G02*
X19223000Y-8620000I40000J0D01*
G01*
X19223000Y-9025000D02*
G75*
G02*
X19143000Y-9025000I-40000J0D01*
G01*
X19143000Y-9025000D02*
G75*
G02*
X19223000Y-9025000I40000J0D01*
G01*
X19223000Y-9430000D02*
G75*
G02*
X19143000Y-9430000I-40000J0D01*
G01*
X19143000Y-9430000D02*
G75*
G02*
X19223000Y-9430000I40000J0D01*
G01*
X19223000Y-9835000D02*
G75*
G02*
X19143000Y-9835000I-40000J0D01*
G01*
X19143000Y-9835000D02*
G75*
G02*
X19223000Y-9835000I40000J0D01*
G01*
X8980000Y-7750000D02*
X8980000Y-7850000D01*
X8930000Y-7800000D02*
X9030000Y-7800000D01*
X8980330Y-9000000D02*
X8980330Y-9100000D01*
X8930330Y-9050000D02*
X9030330Y-9050000D01*
X8980330Y-9650000D02*
X8980330Y-9750000D01*
X8930330Y-9700000D02*
X9030330Y-9700000D01*
X9230000Y-7750000D02*
X9230000Y-7850000D01*
X9180000Y-7800000D02*
X9280000Y-7800000D01*
X9234330Y-9000000D02*
X9234330Y-9100000D01*
X9184330Y-9050000D02*
X9284330Y-9050000D01*
X9234330Y-9650000D02*
X9234330Y-9750000D01*
X9184330Y-9700000D02*
X9284330Y-9700000D01*
X9480000Y-7750000D02*
X9480000Y-7850000D01*
X9430000Y-7800000D02*
X9530000Y-7800000D01*
X9772500Y-9000000D02*
X9772500Y-9100000D01*
X9722500Y-9050000D02*
X9822500Y-9050000D01*
X9796000Y-9650000D02*
X9796000Y-9750000D01*
X9746000Y-9700000D02*
X9846000Y-9700000D01*
X10026500Y-9000000D02*
X10026500Y-9100000D01*
X9976500Y-9050000D02*
X10076500Y-9050000D01*
X10050000Y-9650000D02*
X10050000Y-9750000D01*
X10000000Y-9700000D02*
X10100000Y-9700000D01*
X12145000Y-7750000D02*
X12145000Y-7850000D01*
X12095000Y-7800000D02*
X12195000Y-7800000D01*
X12395000Y-7750000D02*
X12395000Y-7850000D01*
X12345000Y-7800000D02*
X12445000Y-7800000D01*
X12546000Y-9000000D02*
X12546000Y-9100000D01*
X12496000Y-9050000D02*
X12596000Y-9050000D01*
X12550000Y-9600000D02*
X12550000Y-9700000D01*
X12500000Y-9650000D02*
X12600000Y-9650000D01*
X12645000Y-7750000D02*
X12645000Y-7850000D01*
X12595000Y-7800000D02*
X12695000Y-7800000D01*
X12800000Y-9000000D02*
X12800000Y-9100000D01*
X12750000Y-9050000D02*
X12850000Y-9050000D01*
X12804000Y-9600000D02*
X12804000Y-9700000D01*
X12754000Y-9650000D02*
X12854000Y-9650000D01*
X15310000Y-7750000D02*
X15310000Y-7850000D01*
X15260000Y-7800000D02*
X15360000Y-7800000D01*
X15560000Y-7750000D02*
X15560000Y-7850000D01*
X15510000Y-7800000D02*
X15610000Y-7800000D01*
X15810000Y-7750000D02*
X15810000Y-7850000D01*
X15760000Y-7800000D02*
X15860000Y-7800000D01*
X17034000Y-10450000D02*
X17034000Y-10550000D01*
X16984000Y-10500000D02*
X17084000Y-10500000D01*
X17034000Y-11200000D02*
X17034000Y-11300000D01*
X16984000Y-11250000D02*
X17084000Y-11250000D01*
X17288000Y-10450000D02*
X17288000Y-10550000D01*
X17238000Y-10500000D02*
X17338000Y-10500000D01*
X17288000Y-11200000D02*
X17288000Y-11300000D01*
X17238000Y-11250000D02*
X17338000Y-11250000D01*
X17542000Y-10450000D02*
X17542000Y-10550000D01*
X17492000Y-10500000D02*
X17592000Y-10500000D01*
X17542000Y-11200000D02*
X17542000Y-11300000D01*
X17492000Y-11250000D02*
X17592000Y-11250000D01*
X17796000Y-10450000D02*
X17796000Y-10550000D01*
X17746000Y-10500000D02*
X17846000Y-10500000D01*
X17796000Y-11200000D02*
X17796000Y-11300000D01*
X17746000Y-11250000D02*
X17846000Y-11250000D01*
X18050000Y-10450000D02*
X18050000Y-10550000D01*
X18000000Y-10500000D02*
X18100000Y-10500000D01*
X18050000Y-11200000D02*
X18050000Y-11300000D01*
X18000000Y-11250000D02*
X18100000Y-11250000D01*
X18304000Y-10450000D02*
X18304000Y-10550000D01*
X18254000Y-10500000D02*
X18354000Y-10500000D01*
X18304000Y-11200000D02*
X18304000Y-11300000D01*
X18254000Y-11250000D02*
X18354000Y-11250000D01*
X18475000Y-7750000D02*
X18475000Y-7850000D01*
X18425000Y-7800000D02*
X18525000Y-7800000D01*
X18475000Y-8000000D02*
X18475000Y-8100000D01*
X18425000Y-8050000D02*
X18525000Y-8050000D01*
X18558000Y-10450000D02*
X18558000Y-10550000D01*
X18508000Y-10500000D02*
X18608000Y-10500000D01*
X18558000Y-11200000D02*
X18558000Y-11300000D01*
X18508000Y-11250000D02*
X18608000Y-11250000D01*
X18725000Y-7750000D02*
X18725000Y-7850000D01*
X18675000Y-7800000D02*
X18775000Y-7800000D01*
X18725000Y-8000000D02*
X18725000Y-8100000D01*
X18675000Y-8050000D02*
X18775000Y-8050000D01*
X18812000Y-10450000D02*
X18812000Y-10550000D01*
X18762000Y-10500000D02*
X18862000Y-10500000D01*
X18812000Y-11200000D02*
X18812000Y-11300000D01*
X18762000Y-11250000D02*
X18862000Y-11250000D01*
X18975000Y-7750000D02*
X18975000Y-7850000D01*
X18925000Y-7800000D02*
X19025000Y-7800000D01*
X18975000Y-8000000D02*
X18975000Y-8100000D01*
X18925000Y-8050000D02*
X19025000Y-8050000D01*
D13*
X14208921Y-13235921D02*
X14208921Y-13164079D01*
X14137079Y-13164079D01*
X14137079Y-13235921D01*
X14208921Y-13235921D01*
X14231921Y-12485921D02*
X14231921Y-12414079D01*
X14160079Y-12414079D01*
X14160079Y-12485921D01*
X14231921Y-12485921D01*
X14462921Y-13235921D02*
X14462921Y-13164079D01*
X14391079Y-13164079D01*
X14391079Y-13235921D01*
X14462921Y-13235921D01*
X14485921Y-12485921D02*
X14485921Y-12414079D01*
X14414079Y-12414079D01*
X14414079Y-12485921D01*
X14485921Y-12485921D01*
X14935921Y-12635921D02*
X14935921Y-12564079D01*
X14864079Y-12564079D01*
X14864079Y-12635921D01*
X14935921Y-12635921D01*
X15189921Y-12635921D02*
X15189921Y-12564079D01*
X15118079Y-12564079D01*
X15118079Y-12635921D01*
X15189921Y-12635921D01*
D14*
X8750000Y-7105000D02*
X8805000Y-7050000D01*
X8750000Y-6995000D01*
X8695000Y-7050000D01*
X8750000Y-7105000D01*
D12*
X8805000Y-7085000D02*
X8805000Y-7015000D01*
X8695000Y-7015000D02*
G75*
G02*
X8805000Y-7015000I55000J0D01*
G01*
X8695000Y-7015000D02*
X8695000Y-7085000D01*
X8695000Y-7085000D02*
G75*
G03*
X8805000Y-7085000I55000J0D01*
G01*
D14*
X9710000Y-7105000D02*
X9765000Y-7050000D01*
X9710000Y-6995000D01*
X9655000Y-7050000D01*
X9710000Y-7105000D01*
D12*
X9765000Y-7085000D02*
X9765000Y-7015000D01*
X9655000Y-7015000D02*
G75*
G02*
X9765000Y-7015000I55000J0D01*
G01*
X9655000Y-7015000D02*
X9655000Y-7085000D01*
X9655000Y-7085000D02*
G75*
G03*
X9765000Y-7085000I55000J0D01*
G01*
D14*
X11915000Y-7105000D02*
X11970000Y-7050000D01*
X11915000Y-6995000D01*
X11860000Y-7050000D01*
X11915000Y-7105000D01*
D12*
X11970000Y-7085000D02*
X11970000Y-7015000D01*
X11860000Y-7015000D02*
G75*
G02*
X11970000Y-7015000I55000J0D01*
G01*
X11860000Y-7015000D02*
X11860000Y-7085000D01*
X11860000Y-7085000D02*
G75*
G03*
X11970000Y-7085000I55000J0D01*
G01*
D14*
X12875000Y-7105000D02*
X12930000Y-7050000D01*
X12875000Y-6995000D01*
X12820000Y-7050000D01*
X12875000Y-7105000D01*
D12*
X12930000Y-7085000D02*
X12930000Y-7015000D01*
X12820000Y-7015000D02*
G75*
G02*
X12930000Y-7015000I55000J0D01*
G01*
X12820000Y-7015000D02*
X12820000Y-7085000D01*
X12820000Y-7085000D02*
G75*
G03*
X12930000Y-7085000I55000J0D01*
G01*
D14*
X15080000Y-7105000D02*
X15135000Y-7050000D01*
X15080000Y-6995000D01*
X15025000Y-7050000D01*
X15080000Y-7105000D01*
D12*
X15135000Y-7085000D02*
X15135000Y-7015000D01*
X15025000Y-7015000D02*
G75*
G02*
X15135000Y-7015000I55000J0D01*
G01*
X15025000Y-7015000D02*
X15025000Y-7085000D01*
X15025000Y-7085000D02*
G75*
G03*
X15135000Y-7085000I55000J0D01*
G01*
D14*
X15400000Y-11074000D02*
X15455000Y-11019000D01*
X15400000Y-10964000D01*
X15345000Y-11019000D01*
X15400000Y-11074000D01*
X15400000Y-11836000D02*
X15455000Y-11781000D01*
X15400000Y-11726000D01*
X15345000Y-11781000D01*
X15400000Y-11836000D01*
X16040000Y-7105000D02*
X16095000Y-7050000D01*
X16040000Y-6995000D01*
X15985000Y-7050000D01*
X16040000Y-7105000D01*
D12*
X16095000Y-7085000D02*
X16095000Y-7015000D01*
X15985000Y-7015000D02*
G75*
G02*
X16095000Y-7015000I55000J0D01*
G01*
X15985000Y-7015000D02*
X15985000Y-7085000D01*
X15985000Y-7085000D02*
G75*
G03*
X16095000Y-7085000I55000J0D01*
G01*
D14*
X18250000Y-7105000D02*
X18305000Y-7050000D01*
X18250000Y-6995000D01*
X18195000Y-7050000D01*
X18250000Y-7105000D01*
D12*
X18305000Y-7085000D02*
X18305000Y-7015000D01*
X18195000Y-7015000D02*
G75*
G02*
X18305000Y-7015000I55000J0D01*
G01*
X18195000Y-7015000D02*
X18195000Y-7085000D01*
X18195000Y-7085000D02*
G75*
G03*
X18305000Y-7085000I55000J0D01*
G01*
D14*
X19200000Y-7105000D02*
X19255000Y-7050000D01*
X19200000Y-6995000D01*
X19145000Y-7050000D01*
X19200000Y-7105000D01*
D12*
X19255000Y-7085000D02*
X19255000Y-7015000D01*
X19145000Y-7015000D02*
G75*
G02*
X19255000Y-7015000I55000J0D01*
G01*
X19145000Y-7015000D02*
X19145000Y-7085000D01*
X19145000Y-7085000D02*
G75*
G03*
X19255000Y-7085000I55000J0D01*
G01*
D15*
X8829122Y-11647821D02*
X8989122Y-11807821D01*
X8989122Y-11647821D02*
X8829122Y-11807821D01*
X8989122Y-11727821D02*
G75*
G02*
X8829122Y-11727821I-80000J0D01*
G01*
X8829122Y-11727821D02*
G75*
G02*
X8989122Y-11727821I80000J0D01*
G01*
X8829122Y-12222399D02*
X8989122Y-12382399D01*
X8989122Y-12222399D02*
X8829122Y-12382399D01*
X8989122Y-12302399D02*
G75*
G02*
X8829122Y-12302399I-80000J0D01*
G01*
X8829122Y-12302399D02*
G75*
G02*
X8989122Y-12302399I80000J0D01*
G01*
X9116412Y-11150222D02*
X9276412Y-11310222D01*
X9276412Y-11150222D02*
X9116412Y-11310222D01*
X9276412Y-11230222D02*
G75*
G02*
X9116412Y-11230222I-80000J0D01*
G01*
X9116412Y-11230222D02*
G75*
G02*
X9276412Y-11230222I80000J0D01*
G01*
X9116412Y-12719998D02*
X9276412Y-12879998D01*
X9276412Y-12719998D02*
X9116412Y-12879998D01*
X9276412Y-12799998D02*
G75*
G02*
X9116412Y-12799998I-80000J0D01*
G01*
X9116412Y-12799998D02*
G75*
G02*
X9276412Y-12799998I80000J0D01*
G01*
X9614011Y-10862932D02*
X9774011Y-11022932D01*
X9774011Y-10862932D02*
X9614011Y-11022932D01*
X9774011Y-10942932D02*
G75*
G02*
X9614011Y-10942932I-80000J0D01*
G01*
X9614011Y-10942932D02*
G75*
G02*
X9774011Y-10942932I80000J0D01*
G01*
X9614011Y-13007288D02*
X9774011Y-13167288D01*
X9774011Y-13007288D02*
X9614011Y-13167288D01*
X9774011Y-13087288D02*
G75*
G02*
X9614011Y-13087288I-80000J0D01*
G01*
X9614011Y-13087288D02*
G75*
G02*
X9774011Y-13087288I80000J0D01*
G01*
X9632599Y-11666409D02*
X9792599Y-11826409D01*
X9792599Y-11666409D02*
X9632599Y-11826409D01*
X9792599Y-11746409D02*
G75*
G02*
X9632599Y-11746409I-80000J0D01*
G01*
X9632599Y-11746409D02*
G75*
G02*
X9792599Y-11746409I80000J0D01*
G01*
X9632599Y-12203811D02*
X9792599Y-12363811D01*
X9792599Y-12203811D02*
X9632599Y-12363811D01*
X9792599Y-12283811D02*
G75*
G02*
X9632599Y-12283811I-80000J0D01*
G01*
X9632599Y-12283811D02*
G75*
G02*
X9792599Y-12283811I80000J0D01*
G01*
X10170001Y-11666409D02*
X10330001Y-11826409D01*
X10330001Y-11666409D02*
X10170001Y-11826409D01*
X10330001Y-11746409D02*
G75*
G02*
X10170001Y-11746409I-80000J0D01*
G01*
X10170001Y-11746409D02*
G75*
G02*
X10330001Y-11746409I80000J0D01*
G01*
X10170001Y-12203811D02*
X10330001Y-12363811D01*
X10330001Y-12203811D02*
X10170001Y-12363811D01*
X10330001Y-12283811D02*
G75*
G02*
X10170001Y-12283811I-80000J0D01*
G01*
X10170001Y-12283811D02*
G75*
G02*
X10330001Y-12283811I80000J0D01*
G01*
X10188589Y-10862932D02*
X10348589Y-11022932D01*
X10348589Y-10862932D02*
X10188589Y-11022932D01*
X10348589Y-10942932D02*
G75*
G02*
X10188589Y-10942932I-80000J0D01*
G01*
X10188589Y-10942932D02*
G75*
G02*
X10348589Y-10942932I80000J0D01*
G01*
X10188589Y-13007288D02*
X10348589Y-13167288D01*
X10348589Y-13007288D02*
X10188589Y-13167288D01*
X10348589Y-13087288D02*
G75*
G02*
X10188589Y-13087288I-80000J0D01*
G01*
X10188589Y-13087288D02*
G75*
G02*
X10348589Y-13087288I80000J0D01*
G01*
X10686188Y-11150222D02*
X10846188Y-11310221D01*
X10846188Y-11150222D02*
X10686188Y-11310221D01*
X10846188Y-11230221D02*
G75*
G02*
X10686188Y-11230221I-80000J0D01*
G01*
X10686188Y-11230221D02*
G75*
G02*
X10846188Y-11230221I80000J0D01*
G01*
X10686188Y-12719998D02*
X10846188Y-12879998D01*
X10846188Y-12719998D02*
X10686188Y-12879998D01*
X10846188Y-12799998D02*
G75*
G02*
X10686188Y-12799998I-80000J0D01*
G01*
X10686188Y-12799998D02*
G75*
G02*
X10846188Y-12799998I80000J0D01*
G01*
X10973477Y-11647821D02*
X11133477Y-11807821D01*
X11133477Y-11647821D02*
X10973477Y-11807821D01*
X11133477Y-11727821D02*
G75*
G02*
X10973477Y-11727821I-80000J0D01*
G01*
X10973477Y-11727821D02*
G75*
G02*
X11133477Y-11727821I80000J0D01*
G01*
X10973478Y-12222399D02*
X11133478Y-12382399D01*
X11133478Y-12222399D02*
X10973478Y-12382399D01*
X11133478Y-12302399D02*
G75*
G02*
X10973478Y-12302399I-80000J0D01*
G01*
X10973478Y-12302399D02*
G75*
G02*
X11133478Y-12302399I80000J0D01*
G01*
X11510000Y-11935110D02*
X11670000Y-12095110D01*
X11670000Y-11935110D02*
X11510000Y-12095110D01*
X11670000Y-12015110D02*
G75*
G02*
X11510000Y-12015110I-80000J0D01*
G01*
X11510000Y-12015110D02*
G75*
G02*
X11670000Y-12015110I80000J0D01*
G01*
X11658712Y-11380110D02*
X11818712Y-11540110D01*
X11818712Y-11380110D02*
X11658712Y-11540110D01*
X11818712Y-11460110D02*
G75*
G02*
X11658712Y-11460110I-80000J0D01*
G01*
X11658712Y-11460110D02*
G75*
G02*
X11818712Y-11460110I80000J0D01*
G01*
X11658712Y-12490110D02*
X11818712Y-12650110D01*
X11818712Y-12490110D02*
X11658712Y-12650110D01*
X11818712Y-12570110D02*
G75*
G02*
X11658712Y-12570110I-80000J0D01*
G01*
X11658712Y-12570110D02*
G75*
G02*
X11818712Y-12570110I80000J0D01*
G01*
X12065000Y-10973822D02*
X12225000Y-11133822D01*
X12225000Y-10973822D02*
X12065000Y-11133822D01*
X12225000Y-11053822D02*
G75*
G02*
X12065000Y-11053822I-80000J0D01*
G01*
X12065000Y-11053822D02*
G75*
G02*
X12225000Y-11053822I80000J0D01*
G01*
X12065000Y-12896398D02*
X12225000Y-13056398D01*
X12225000Y-12896398D02*
X12065000Y-13056398D01*
X12225000Y-12976398D02*
G75*
G02*
X12065000Y-12976398I-80000J0D01*
G01*
X12065000Y-12976398D02*
G75*
G02*
X12225000Y-12976398I80000J0D01*
G01*
X12290910Y-11745110D02*
X12450910Y-11905110D01*
X12450910Y-11745110D02*
X12290910Y-11905110D01*
X12450910Y-11825110D02*
G75*
G02*
X12290910Y-11825110I-80000J0D01*
G01*
X12290910Y-11825110D02*
G75*
G02*
X12450910Y-11825110I80000J0D01*
G01*
X12430000Y-12264200D02*
X12590000Y-12424200D01*
X12590000Y-12264200D02*
X12430000Y-12424200D01*
X12590000Y-12344200D02*
G75*
G02*
X12430000Y-12344200I-80000J0D01*
G01*
X12430000Y-12344200D02*
G75*
G02*
X12590000Y-12344200I80000J0D01*
G01*
X12620000Y-10825110D02*
X12780000Y-10985110D01*
X12780000Y-10825110D02*
X12620000Y-10985110D01*
X12780000Y-10905110D02*
G75*
G02*
X12620000Y-10905110I-80000J0D01*
G01*
X12620000Y-10905110D02*
G75*
G02*
X12780000Y-10905110I80000J0D01*
G01*
X12620000Y-13045110D02*
X12780000Y-13205110D01*
X12780000Y-13045110D02*
X12620000Y-13205110D01*
X12780000Y-13125110D02*
G75*
G02*
X12620000Y-13125110I-80000J0D01*
G01*
X12620000Y-13125110D02*
G75*
G02*
X12780000Y-13125110I80000J0D01*
G01*
X12810000Y-11606020D02*
X12970000Y-11766020D01*
X12970000Y-11606020D02*
X12810000Y-11766020D01*
X12970000Y-11686020D02*
G75*
G02*
X12810000Y-11686020I-80000J0D01*
G01*
X12810000Y-11686020D02*
G75*
G02*
X12970000Y-11686020I80000J0D01*
G01*
X12949090Y-12125110D02*
X13109090Y-12285110D01*
X13109090Y-12125110D02*
X12949090Y-12285110D01*
X13109090Y-12205110D02*
G75*
G02*
X12949090Y-12205110I-80000J0D01*
G01*
X12949090Y-12205110D02*
G75*
G02*
X13109090Y-12205110I80000J0D01*
G01*
X13175000Y-10973822D02*
X13335000Y-11133822D01*
X13335000Y-10973822D02*
X13175000Y-11133822D01*
X13335000Y-11053822D02*
G75*
G02*
X13175000Y-11053822I-80000J0D01*
G01*
X13175000Y-11053822D02*
G75*
G02*
X13335000Y-11053822I80000J0D01*
G01*
X13175000Y-12896398D02*
X13335000Y-13056398D01*
X13335000Y-12896398D02*
X13175000Y-13056398D01*
X13335000Y-12976398D02*
G75*
G02*
X13175000Y-12976398I-80000J0D01*
G01*
X13175000Y-12976398D02*
G75*
G02*
X13335000Y-12976398I80000J0D01*
G01*
X13581288Y-11380110D02*
X13741288Y-11540110D01*
X13741288Y-11380110D02*
X13581288Y-11540110D01*
X13741288Y-11460110D02*
G75*
G02*
X13581288Y-11460110I-80000J0D01*
G01*
X13581288Y-11460110D02*
G75*
G02*
X13741288Y-11460110I80000J0D01*
G01*
X13581288Y-12490110D02*
X13741288Y-12650110D01*
X13741288Y-12490110D02*
X13581288Y-12650110D01*
X13741288Y-12570110D02*
G75*
G02*
X13581288Y-12570110I-80000J0D01*
G01*
X13581288Y-12570110D02*
G75*
G02*
X13741288Y-12570110I80000J0D01*
G01*
X13730000Y-11935110D02*
X13890000Y-12095110D01*
X13890000Y-11935110D02*
X13730000Y-12095110D01*
X13890000Y-12015110D02*
G75*
G02*
X13730000Y-12015110I-80000J0D01*
G01*
X13730000Y-12015110D02*
G75*
G02*
X13890000Y-12015110I80000J0D01*
G01*
X17275000Y-11970000D02*
X17435000Y-12130000D01*
X17435000Y-11970000D02*
X17275000Y-12130000D01*
X17435000Y-12050000D02*
G75*
G02*
X17275000Y-12050000I-80000J0D01*
G01*
X17275000Y-12050000D02*
G75*
G02*
X17435000Y-12050000I80000J0D01*
G01*
D12*
X17285000Y-12130000D02*
X17425000Y-12130000D01*
X17425000Y-11970000D02*
G75*
G02*
X17425000Y-12130000I0J-80000D01*
G01*
X17425000Y-11970000D02*
X17285000Y-11970000D01*
X17285000Y-11970000D02*
G75*
G03*
X17285000Y-12130000I0J-80000D01*
G01*
D15*
X17285000Y-12450000D02*
X17445000Y-12610000D01*
X17445000Y-12450000D02*
X17285000Y-12610000D01*
X17445000Y-12530000D02*
G75*
G02*
X17285000Y-12530000I-80000J0D01*
G01*
X17285000Y-12530000D02*
G75*
G02*
X17445000Y-12530000I80000J0D01*
G01*
D12*
X17295000Y-12610000D02*
X17435000Y-12610000D01*
X17435000Y-12450000D02*
G75*
G02*
X17435000Y-12610000I0J-80000D01*
G01*
X17435000Y-12450000D02*
X17295000Y-12450000D01*
X17295000Y-12450000D02*
G75*
G03*
X17295000Y-12610000I0J-80000D01*
G01*
D15*
X17285000Y-12930000D02*
X17445000Y-13090000D01*
X17445000Y-12930000D02*
X17285000Y-13090000D01*
X17445000Y-13010000D02*
G75*
G02*
X17285000Y-13010000I-80000J0D01*
G01*
X17285000Y-13010000D02*
G75*
G02*
X17445000Y-13010000I80000J0D01*
G01*
D12*
X17295000Y-13090000D02*
X17435000Y-13090000D01*
X17435000Y-12930000D02*
G75*
G02*
X17435000Y-13090000I0J-80000D01*
G01*
X17435000Y-12930000D02*
X17295000Y-12930000D01*
X17295000Y-12930000D02*
G75*
G03*
X17295000Y-13090000I0J-80000D01*
G01*
D15*
X17800000Y-12450000D02*
X17960000Y-12610000D01*
X17960000Y-12450000D02*
X17800000Y-12610000D01*
X17960000Y-12530000D02*
G75*
G02*
X17800000Y-12530000I-80000J0D01*
G01*
X17800000Y-12530000D02*
G75*
G02*
X17960000Y-12530000I80000J0D01*
G01*
D12*
X17810000Y-12610000D02*
X17950000Y-12610000D01*
X17950000Y-12450000D02*
G75*
G02*
X17950000Y-12610000I0J-80000D01*
G01*
X17950000Y-12450000D02*
X17810000Y-12450000D01*
X17810000Y-12450000D02*
G75*
G03*
X17810000Y-12610000I0J-80000D01*
G01*
D15*
X17800000Y-12930000D02*
X17960000Y-13090000D01*
X17960000Y-12930000D02*
X17800000Y-13090000D01*
X17960000Y-13010000D02*
G75*
G02*
X17800000Y-13010000I-80000J0D01*
G01*
X17800000Y-13010000D02*
G75*
G02*
X17960000Y-13010000I80000J0D01*
G01*
D12*
X17810000Y-13090000D02*
X17950000Y-13090000D01*
X17950000Y-12930000D02*
G75*
G02*
X17950000Y-13090000I0J-80000D01*
G01*
X17950000Y-12930000D02*
X17810000Y-12930000D01*
X17810000Y-12930000D02*
G75*
G03*
X17810000Y-13090000I0J-80000D01*
G01*
D15*
X17805000Y-11970000D02*
X17965000Y-12130000D01*
X17965000Y-11970000D02*
X17805000Y-12130000D01*
X17965000Y-12050000D02*
G75*
G02*
X17805000Y-12050000I-80000J0D01*
G01*
X17805000Y-12050000D02*
G75*
G02*
X17965000Y-12050000I80000J0D01*
G01*
D12*
X17815000Y-12130000D02*
X17955000Y-12130000D01*
X17955000Y-11970000D02*
G75*
G02*
X17955000Y-12130000I0J-80000D01*
G01*
X17955000Y-11970000D02*
X17815000Y-11970000D01*
X17815000Y-11970000D02*
G75*
G03*
X17815000Y-12130000I0J-80000D01*
G01*
D15*
X18315000Y-11970000D02*
X18475000Y-12130000D01*
X18475000Y-11970000D02*
X18315000Y-12130000D01*
X18475000Y-12050000D02*
G75*
G02*
X18315000Y-12050000I-80000J0D01*
G01*
X18315000Y-12050000D02*
G75*
G02*
X18475000Y-12050000I80000J0D01*
G01*
D12*
X18325000Y-12130000D02*
X18465000Y-12130000D01*
X18465000Y-11970000D02*
G75*
G02*
X18465000Y-12130000I0J-80000D01*
G01*
X18465000Y-11970000D02*
X18325000Y-11970000D01*
X18325000Y-11970000D02*
G75*
G03*
X18325000Y-12130000I0J-80000D01*
G01*
D15*
X18315000Y-12450000D02*
X18475000Y-12610000D01*
X18475000Y-12450000D02*
X18315000Y-12610000D01*
X18475000Y-12530000D02*
G75*
G02*
X18315000Y-12530000I-80000J0D01*
G01*
X18315000Y-12530000D02*
G75*
G02*
X18475000Y-12530000I80000J0D01*
G01*
D12*
X18325000Y-12610000D02*
X18465000Y-12610000D01*
X18465000Y-12450000D02*
G75*
G02*
X18465000Y-12610000I0J-80000D01*
G01*
X18465000Y-12450000D02*
X18325000Y-12450000D01*
X18325000Y-12450000D02*
G75*
G03*
X18325000Y-12610000I0J-80000D01*
G01*
D15*
X18315000Y-12930000D02*
X18475000Y-13090000D01*
X18475000Y-12930000D02*
X18315000Y-13090000D01*
X18475000Y-13010000D02*
G75*
G02*
X18315000Y-13010000I-80000J0D01*
G01*
X18315000Y-13010000D02*
G75*
G02*
X18475000Y-13010000I80000J0D01*
G01*
D12*
X18325000Y-13090000D02*
X18465000Y-13090000D01*
X18465000Y-12930000D02*
G75*
G02*
X18465000Y-13090000I0J-80000D01*
G01*
X18465000Y-12930000D02*
X18325000Y-12930000D01*
X18325000Y-12930000D02*
G75*
G03*
X18325000Y-13090000I0J-80000D01*
G01*
D11*
X10350000Y-7750000D02*
X10550000Y-7950000D01*
X10550000Y-7750000D02*
X10350000Y-7950000D01*
X10450000Y-7750000D02*
X10450000Y-7950000D01*
X10350000Y-7850000D02*
X10550000Y-7850000D01*
X11050000Y-7750000D02*
X11250000Y-7950000D01*
X11250000Y-7750000D02*
X11050000Y-7950000D01*
X11150000Y-7750000D02*
X11150000Y-7950000D01*
X11050000Y-7850000D02*
X11250000Y-7850000D01*
X13650000Y-6800000D02*
X13850000Y-7000000D01*
X13850000Y-6800000D02*
X13650000Y-7000000D01*
X13750000Y-6800000D02*
X13750000Y-7000000D01*
X13650000Y-6900000D02*
X13850000Y-6900000D01*
X14110000Y-6800000D02*
X14310000Y-7000000D01*
X14310000Y-6800000D02*
X14110000Y-7000000D01*
X14210000Y-6800000D02*
X14210000Y-7000000D01*
X14110000Y-6900000D02*
X14310000Y-6900000D01*
X16800000Y-7750000D02*
X17000000Y-7950000D01*
X17000000Y-7750000D02*
X16800000Y-7950000D01*
X16900000Y-7750000D02*
X16900000Y-7950000D01*
X16800000Y-7850000D02*
X17000000Y-7850000D01*
X17500000Y-7750000D02*
X17700000Y-7950000D01*
X17700000Y-7750000D02*
X17500000Y-7950000D01*
X17600000Y-7750000D02*
X17600000Y-7950000D01*
X17500000Y-7850000D02*
X17700000Y-7850000D01*
X8808277Y-13963984D02*
X8808277Y-13763984D01*
X8808277Y-13763984D02*
X8855896Y-13763984D01*
X8855896Y-13763984D02*
X8884467Y-13773508D01*
X8884467Y-13773508D02*
X8903515Y-13792555D01*
X8903515Y-13792555D02*
X8913039Y-13811603D01*
X8913039Y-13811603D02*
X8922563Y-13849698D01*
X8922563Y-13849698D02*
X8922563Y-13878269D01*
X8922563Y-13878269D02*
X8913039Y-13916365D01*
X8913039Y-13916365D02*
X8903515Y-13935412D01*
X8903515Y-13935412D02*
X8884467Y-13954460D01*
X8884467Y-13954460D02*
X8855896Y-13963984D01*
X8855896Y-13963984D02*
X8808277Y-13963984D01*
X9008277Y-13963984D02*
X9008277Y-13830650D01*
X9008277Y-13868746D02*
X9017801Y-13849698D01*
X9017801Y-13849698D02*
X9027324Y-13840174D01*
X9027324Y-13840174D02*
X9046372Y-13830650D01*
X9046372Y-13830650D02*
X9065420Y-13830650D01*
X9132086Y-13963984D02*
X9132086Y-13830650D01*
X9132086Y-13763984D02*
X9122563Y-13773508D01*
X9122563Y-13773508D02*
X9132086Y-13783031D01*
X9132086Y-13783031D02*
X9141610Y-13773508D01*
X9141610Y-13773508D02*
X9132086Y-13763984D01*
X9132086Y-13763984D02*
X9132086Y-13783031D01*
X9255896Y-13963984D02*
X9236848Y-13954460D01*
X9236848Y-13954460D02*
X9227324Y-13935412D01*
X9227324Y-13935412D02*
X9227324Y-13763984D01*
X9360658Y-13963984D02*
X9341610Y-13954460D01*
X9341610Y-13954460D02*
X9332086Y-13935412D01*
X9332086Y-13935412D02*
X9332086Y-13763984D01*
X9589229Y-13963984D02*
X9589229Y-13763984D01*
X9589229Y-13763984D02*
X9655896Y-13906841D01*
X9655896Y-13906841D02*
X9722563Y-13763984D01*
X9722563Y-13763984D02*
X9722563Y-13963984D01*
X9903515Y-13963984D02*
X9903515Y-13859222D01*
X9903515Y-13859222D02*
X9893991Y-13840174D01*
X9893991Y-13840174D02*
X9874944Y-13830650D01*
X9874944Y-13830650D02*
X9836848Y-13830650D01*
X9836848Y-13830650D02*
X9817801Y-13840174D01*
X9903515Y-13954460D02*
X9884467Y-13963984D01*
X9884467Y-13963984D02*
X9836848Y-13963984D01*
X9836848Y-13963984D02*
X9817801Y-13954460D01*
X9817801Y-13954460D02*
X9808277Y-13935412D01*
X9808277Y-13935412D02*
X9808277Y-13916365D01*
X9808277Y-13916365D02*
X9817801Y-13897317D01*
X9817801Y-13897317D02*
X9836848Y-13887793D01*
X9836848Y-13887793D02*
X9884467Y-13887793D01*
X9884467Y-13887793D02*
X9903515Y-13878269D01*
X9998753Y-13830650D02*
X9998753Y-14030650D01*
X9998753Y-13840174D02*
X10017801Y-13830650D01*
X10017801Y-13830650D02*
X10055896Y-13830650D01*
X10055896Y-13830650D02*
X10074944Y-13840174D01*
X10074944Y-13840174D02*
X10084467Y-13849698D01*
X10084467Y-13849698D02*
X10093991Y-13868746D01*
X10093991Y-13868746D02*
X10093991Y-13925888D01*
X10093991Y-13925888D02*
X10084467Y-13944936D01*
X10084467Y-13944936D02*
X10074944Y-13954460D01*
X10074944Y-13954460D02*
X10055896Y-13963984D01*
X10055896Y-13963984D02*
X10017801Y-13963984D01*
X10017801Y-13963984D02*
X9998753Y-13954460D01*
X10179705Y-13944936D02*
X10189229Y-13954460D01*
X10189229Y-13954460D02*
X10179705Y-13963984D01*
X10179705Y-13963984D02*
X10170182Y-13954460D01*
X10170182Y-13954460D02*
X10179705Y-13944936D01*
X10179705Y-13944936D02*
X10179705Y-13963984D01*
X10179705Y-13840174D02*
X10189229Y-13849698D01*
X10189229Y-13849698D02*
X10179705Y-13859222D01*
X10179705Y-13859222D02*
X10170182Y-13849698D01*
X10170182Y-13849698D02*
X10179705Y-13840174D01*
X10179705Y-13840174D02*
X10179705Y-13859222D01*
D12*
X8517500Y-14277500D02*
X8547500Y-14307500D01*
X8547500Y-14277500D02*
X8517500Y-14307500D01*
D11*
X8846372Y-14183984D02*
X8865420Y-14183984D01*
X8865420Y-14183984D02*
X8884467Y-14193508D01*
X8884467Y-14193508D02*
X8893991Y-14203031D01*
X8893991Y-14203031D02*
X8903515Y-14222079D01*
X8903515Y-14222079D02*
X8913039Y-14260174D01*
X8913039Y-14260174D02*
X8913039Y-14307793D01*
X8913039Y-14307793D02*
X8903515Y-14345888D01*
X8903515Y-14345888D02*
X8893991Y-14364936D01*
X8893991Y-14364936D02*
X8884467Y-14374460D01*
X8884467Y-14374460D02*
X8865420Y-14383984D01*
X8865420Y-14383984D02*
X8846372Y-14383984D01*
X8846372Y-14383984D02*
X8827324Y-14374460D01*
X8827324Y-14374460D02*
X8817801Y-14364936D01*
X8817801Y-14364936D02*
X8808277Y-14345888D01*
X8808277Y-14345888D02*
X8798753Y-14307793D01*
X8798753Y-14307793D02*
X8798753Y-14260174D01*
X8798753Y-14260174D02*
X8808277Y-14222079D01*
X8808277Y-14222079D02*
X8817801Y-14203031D01*
X8817801Y-14203031D02*
X8827324Y-14193508D01*
X8827324Y-14193508D02*
X8846372Y-14183984D01*
X8998753Y-14364936D02*
X9008277Y-14374460D01*
X9008277Y-14374460D02*
X8998753Y-14383984D01*
X8998753Y-14383984D02*
X8989229Y-14374460D01*
X8989229Y-14374460D02*
X8998753Y-14364936D01*
X8998753Y-14364936D02*
X8998753Y-14383984D01*
X9074944Y-14183984D02*
X9198753Y-14183984D01*
X9198753Y-14183984D02*
X9132086Y-14260174D01*
X9132086Y-14260174D02*
X9160658Y-14260174D01*
X9160658Y-14260174D02*
X9179705Y-14269698D01*
X9179705Y-14269698D02*
X9189229Y-14279222D01*
X9189229Y-14279222D02*
X9198753Y-14298269D01*
X9198753Y-14298269D02*
X9198753Y-14345888D01*
X9198753Y-14345888D02*
X9189229Y-14364936D01*
X9189229Y-14364936D02*
X9179705Y-14374460D01*
X9179705Y-14374460D02*
X9160658Y-14383984D01*
X9160658Y-14383984D02*
X9103515Y-14383984D01*
X9103515Y-14383984D02*
X9084467Y-14374460D01*
X9084467Y-14374460D02*
X9074944Y-14364936D01*
X9322563Y-14183984D02*
X9341610Y-14183984D01*
X9341610Y-14183984D02*
X9360658Y-14193508D01*
X9360658Y-14193508D02*
X9370182Y-14203031D01*
X9370182Y-14203031D02*
X9379705Y-14222079D01*
X9379705Y-14222079D02*
X9389229Y-14260174D01*
X9389229Y-14260174D02*
X9389229Y-14307793D01*
X9389229Y-14307793D02*
X9379705Y-14345888D01*
X9379705Y-14345888D02*
X9370182Y-14364936D01*
X9370182Y-14364936D02*
X9360658Y-14374460D01*
X9360658Y-14374460D02*
X9341610Y-14383984D01*
X9341610Y-14383984D02*
X9322563Y-14383984D01*
X9322563Y-14383984D02*
X9303515Y-14374460D01*
X9303515Y-14374460D02*
X9293991Y-14364936D01*
X9293991Y-14364936D02*
X9284467Y-14345888D01*
X9284467Y-14345888D02*
X9274944Y-14307793D01*
X9274944Y-14307793D02*
X9274944Y-14260174D01*
X9274944Y-14260174D02*
X9284467Y-14222079D01*
X9284467Y-14222079D02*
X9293991Y-14203031D01*
X9293991Y-14203031D02*
X9303515Y-14193508D01*
X9303515Y-14193508D02*
X9322563Y-14183984D01*
X9513039Y-14183984D02*
X9532086Y-14183984D01*
X9532086Y-14183984D02*
X9551134Y-14193508D01*
X9551134Y-14193508D02*
X9560658Y-14203031D01*
X9560658Y-14203031D02*
X9570182Y-14222079D01*
X9570182Y-14222079D02*
X9579705Y-14260174D01*
X9579705Y-14260174D02*
X9579705Y-14307793D01*
X9579705Y-14307793D02*
X9570182Y-14345888D01*
X9570182Y-14345888D02*
X9560658Y-14364936D01*
X9560658Y-14364936D02*
X9551134Y-14374460D01*
X9551134Y-14374460D02*
X9532086Y-14383984D01*
X9532086Y-14383984D02*
X9513039Y-14383984D01*
X9513039Y-14383984D02*
X9493991Y-14374460D01*
X9493991Y-14374460D02*
X9484467Y-14364936D01*
X9484467Y-14364936D02*
X9474944Y-14345888D01*
X9474944Y-14345888D02*
X9465420Y-14307793D01*
X9465420Y-14307793D02*
X9465420Y-14260174D01*
X9465420Y-14260174D02*
X9474944Y-14222079D01*
X9474944Y-14222079D02*
X9484467Y-14203031D01*
X9484467Y-14203031D02*
X9493991Y-14193508D01*
X9493991Y-14193508D02*
X9513039Y-14183984D01*
X9665420Y-14383984D02*
X9665420Y-14250650D01*
X9665420Y-14269698D02*
X9674944Y-14260174D01*
X9674944Y-14260174D02*
X9693991Y-14250650D01*
X9693991Y-14250650D02*
X9722563Y-14250650D01*
X9722563Y-14250650D02*
X9741610Y-14260174D01*
X9741610Y-14260174D02*
X9751134Y-14279222D01*
X9751134Y-14279222D02*
X9751134Y-14383984D01*
X9751134Y-14279222D02*
X9760658Y-14260174D01*
X9760658Y-14260174D02*
X9779705Y-14250650D01*
X9779705Y-14250650D02*
X9808277Y-14250650D01*
X9808277Y-14250650D02*
X9827325Y-14260174D01*
X9827325Y-14260174D02*
X9836848Y-14279222D01*
X9836848Y-14279222D02*
X9836848Y-14383984D01*
X9932086Y-14383984D02*
X9932086Y-14250650D01*
X9932086Y-14269698D02*
X9941610Y-14260174D01*
X9941610Y-14260174D02*
X9960658Y-14250650D01*
X9960658Y-14250650D02*
X9989229Y-14250650D01*
X9989229Y-14250650D02*
X10008277Y-14260174D01*
X10008277Y-14260174D02*
X10017801Y-14279222D01*
X10017801Y-14279222D02*
X10017801Y-14383984D01*
X10017801Y-14279222D02*
X10027325Y-14260174D01*
X10027325Y-14260174D02*
X10046372Y-14250650D01*
X10046372Y-14250650D02*
X10074944Y-14250650D01*
X10074944Y-14250650D02*
X10093991Y-14260174D01*
X10093991Y-14260174D02*
X10103515Y-14279222D01*
X10103515Y-14279222D02*
X10103515Y-14383984D01*
X10493991Y-14174460D02*
X10322563Y-14431603D01*
X10751134Y-14183984D02*
X10770182Y-14183984D01*
X10770182Y-14183984D02*
X10789229Y-14193508D01*
X10789229Y-14193508D02*
X10798753Y-14203031D01*
X10798753Y-14203031D02*
X10808277Y-14222079D01*
X10808277Y-14222079D02*
X10817801Y-14260174D01*
X10817801Y-14260174D02*
X10817801Y-14307793D01*
X10817801Y-14307793D02*
X10808277Y-14345888D01*
X10808277Y-14345888D02*
X10798753Y-14364936D01*
X10798753Y-14364936D02*
X10789229Y-14374460D01*
X10789229Y-14374460D02*
X10770182Y-14383984D01*
X10770182Y-14383984D02*
X10751134Y-14383984D01*
X10751134Y-14383984D02*
X10732087Y-14374460D01*
X10732087Y-14374460D02*
X10722563Y-14364936D01*
X10722563Y-14364936D02*
X10713039Y-14345888D01*
X10713039Y-14345888D02*
X10703515Y-14307793D01*
X10703515Y-14307793D02*
X10703515Y-14260174D01*
X10703515Y-14260174D02*
X10713039Y-14222079D01*
X10713039Y-14222079D02*
X10722563Y-14203031D01*
X10722563Y-14203031D02*
X10732087Y-14193508D01*
X10732087Y-14193508D02*
X10751134Y-14183984D01*
X10903515Y-14364936D02*
X10913039Y-14374460D01*
X10913039Y-14374460D02*
X10903515Y-14383984D01*
X10903515Y-14383984D02*
X10893991Y-14374460D01*
X10893991Y-14374460D02*
X10903515Y-14364936D01*
X10903515Y-14364936D02*
X10903515Y-14383984D01*
X11036848Y-14183984D02*
X11055896Y-14183984D01*
X11055896Y-14183984D02*
X11074944Y-14193508D01*
X11074944Y-14193508D02*
X11084468Y-14203031D01*
X11084468Y-14203031D02*
X11093991Y-14222079D01*
X11093991Y-14222079D02*
X11103515Y-14260174D01*
X11103515Y-14260174D02*
X11103515Y-14307793D01*
X11103515Y-14307793D02*
X11093991Y-14345888D01*
X11093991Y-14345888D02*
X11084468Y-14364936D01*
X11084468Y-14364936D02*
X11074944Y-14374460D01*
X11074944Y-14374460D02*
X11055896Y-14383984D01*
X11055896Y-14383984D02*
X11036848Y-14383984D01*
X11036848Y-14383984D02*
X11017801Y-14374460D01*
X11017801Y-14374460D02*
X11008277Y-14364936D01*
X11008277Y-14364936D02*
X10998753Y-14345888D01*
X10998753Y-14345888D02*
X10989229Y-14307793D01*
X10989229Y-14307793D02*
X10989229Y-14260174D01*
X10989229Y-14260174D02*
X10998753Y-14222079D01*
X10998753Y-14222079D02*
X11008277Y-14203031D01*
X11008277Y-14203031D02*
X11017801Y-14193508D01*
X11017801Y-14193508D02*
X11036848Y-14183984D01*
X11293991Y-14383984D02*
X11179706Y-14383984D01*
X11236848Y-14383984D02*
X11236848Y-14183984D01*
X11236848Y-14183984D02*
X11217801Y-14212555D01*
X11217801Y-14212555D02*
X11198753Y-14231603D01*
X11198753Y-14231603D02*
X11179706Y-14241127D01*
X11484467Y-14383984D02*
X11370182Y-14383984D01*
X11427325Y-14383984D02*
X11427325Y-14183984D01*
X11427325Y-14183984D02*
X11408277Y-14212555D01*
X11408277Y-14212555D02*
X11389229Y-14231603D01*
X11389229Y-14231603D02*
X11370182Y-14241127D01*
X11598753Y-14269698D02*
X11579706Y-14260174D01*
X11579706Y-14260174D02*
X11570182Y-14250650D01*
X11570182Y-14250650D02*
X11560658Y-14231603D01*
X11560658Y-14231603D02*
X11560658Y-14222079D01*
X11560658Y-14222079D02*
X11570182Y-14203031D01*
X11570182Y-14203031D02*
X11579706Y-14193508D01*
X11579706Y-14193508D02*
X11598753Y-14183984D01*
X11598753Y-14183984D02*
X11636848Y-14183984D01*
X11636848Y-14183984D02*
X11655896Y-14193508D01*
X11655896Y-14193508D02*
X11665420Y-14203031D01*
X11665420Y-14203031D02*
X11674944Y-14222079D01*
X11674944Y-14222079D02*
X11674944Y-14231603D01*
X11674944Y-14231603D02*
X11665420Y-14250650D01*
X11665420Y-14250650D02*
X11655896Y-14260174D01*
X11655896Y-14260174D02*
X11636848Y-14269698D01*
X11636848Y-14269698D02*
X11598753Y-14269698D01*
X11598753Y-14269698D02*
X11579706Y-14279222D01*
X11579706Y-14279222D02*
X11570182Y-14288746D01*
X11570182Y-14288746D02*
X11560658Y-14307793D01*
X11560658Y-14307793D02*
X11560658Y-14345888D01*
X11560658Y-14345888D02*
X11570182Y-14364936D01*
X11570182Y-14364936D02*
X11579706Y-14374460D01*
X11579706Y-14374460D02*
X11598753Y-14383984D01*
X11598753Y-14383984D02*
X11636848Y-14383984D01*
X11636848Y-14383984D02*
X11655896Y-14374460D01*
X11655896Y-14374460D02*
X11665420Y-14364936D01*
X11665420Y-14364936D02*
X11674944Y-14345888D01*
X11674944Y-14345888D02*
X11674944Y-14307793D01*
X11674944Y-14307793D02*
X11665420Y-14288746D01*
X11665420Y-14288746D02*
X11655896Y-14279222D01*
X11655896Y-14279222D02*
X11636848Y-14269698D01*
X11751134Y-14183984D02*
X11751134Y-14222079D01*
X11827325Y-14183984D02*
X11827325Y-14222079D01*
X12122563Y-14460174D02*
X12113039Y-14450650D01*
X12113039Y-14450650D02*
X12093991Y-14422079D01*
X12093991Y-14422079D02*
X12084468Y-14403031D01*
X12084468Y-14403031D02*
X12074944Y-14374460D01*
X12074944Y-14374460D02*
X12065420Y-14326841D01*
X12065420Y-14326841D02*
X12065420Y-14288746D01*
X12065420Y-14288746D02*
X12074944Y-14241127D01*
X12074944Y-14241127D02*
X12084468Y-14212555D01*
X12084468Y-14212555D02*
X12093991Y-14193508D01*
X12093991Y-14193508D02*
X12113039Y-14164936D01*
X12113039Y-14164936D02*
X12122563Y-14155412D01*
X12284468Y-14183984D02*
X12246372Y-14183984D01*
X12246372Y-14183984D02*
X12227325Y-14193508D01*
X12227325Y-14193508D02*
X12217801Y-14203031D01*
X12217801Y-14203031D02*
X12198753Y-14231603D01*
X12198753Y-14231603D02*
X12189229Y-14269698D01*
X12189229Y-14269698D02*
X12189229Y-14345888D01*
X12189229Y-14345888D02*
X12198753Y-14364936D01*
X12198753Y-14364936D02*
X12208277Y-14374460D01*
X12208277Y-14374460D02*
X12227325Y-14383984D01*
X12227325Y-14383984D02*
X12265420Y-14383984D01*
X12265420Y-14383984D02*
X12284468Y-14374460D01*
X12284468Y-14374460D02*
X12293991Y-14364936D01*
X12293991Y-14364936D02*
X12303515Y-14345888D01*
X12303515Y-14345888D02*
X12303515Y-14298269D01*
X12303515Y-14298269D02*
X12293991Y-14279222D01*
X12293991Y-14279222D02*
X12284468Y-14269698D01*
X12284468Y-14269698D02*
X12265420Y-14260174D01*
X12265420Y-14260174D02*
X12227325Y-14260174D01*
X12227325Y-14260174D02*
X12208277Y-14269698D01*
X12208277Y-14269698D02*
X12198753Y-14279222D01*
X12198753Y-14279222D02*
X12189229Y-14298269D01*
X12541610Y-14383984D02*
X12541610Y-14183984D01*
X12627325Y-14383984D02*
X12627325Y-14279222D01*
X12627325Y-14279222D02*
X12617801Y-14260174D01*
X12617801Y-14260174D02*
X12598753Y-14250650D01*
X12598753Y-14250650D02*
X12570182Y-14250650D01*
X12570182Y-14250650D02*
X12551134Y-14260174D01*
X12551134Y-14260174D02*
X12541610Y-14269698D01*
X12751134Y-14383984D02*
X12732087Y-14374460D01*
X12732087Y-14374460D02*
X12722563Y-14364936D01*
X12722563Y-14364936D02*
X12713039Y-14345888D01*
X12713039Y-14345888D02*
X12713039Y-14288746D01*
X12713039Y-14288746D02*
X12722563Y-14269698D01*
X12722563Y-14269698D02*
X12732087Y-14260174D01*
X12732087Y-14260174D02*
X12751134Y-14250650D01*
X12751134Y-14250650D02*
X12779706Y-14250650D01*
X12779706Y-14250650D02*
X12798753Y-14260174D01*
X12798753Y-14260174D02*
X12808277Y-14269698D01*
X12808277Y-14269698D02*
X12817801Y-14288746D01*
X12817801Y-14288746D02*
X12817801Y-14345888D01*
X12817801Y-14345888D02*
X12808277Y-14364936D01*
X12808277Y-14364936D02*
X12798753Y-14374460D01*
X12798753Y-14374460D02*
X12779706Y-14383984D01*
X12779706Y-14383984D02*
X12751134Y-14383984D01*
X12932087Y-14383984D02*
X12913039Y-14374460D01*
X12913039Y-14374460D02*
X12903515Y-14355412D01*
X12903515Y-14355412D02*
X12903515Y-14183984D01*
X13084468Y-14374460D02*
X13065420Y-14383984D01*
X13065420Y-14383984D02*
X13027325Y-14383984D01*
X13027325Y-14383984D02*
X13008277Y-14374460D01*
X13008277Y-14374460D02*
X12998753Y-14355412D01*
X12998753Y-14355412D02*
X12998753Y-14279222D01*
X12998753Y-14279222D02*
X13008277Y-14260174D01*
X13008277Y-14260174D02*
X13027325Y-14250650D01*
X13027325Y-14250650D02*
X13065420Y-14250650D01*
X13065420Y-14250650D02*
X13084468Y-14260174D01*
X13084468Y-14260174D02*
X13093991Y-14279222D01*
X13093991Y-14279222D02*
X13093991Y-14298269D01*
X13093991Y-14298269D02*
X12998753Y-14317317D01*
X13170182Y-14374460D02*
X13189230Y-14383984D01*
X13189230Y-14383984D02*
X13227325Y-14383984D01*
X13227325Y-14383984D02*
X13246372Y-14374460D01*
X13246372Y-14374460D02*
X13255896Y-14355412D01*
X13255896Y-14355412D02*
X13255896Y-14345888D01*
X13255896Y-14345888D02*
X13246372Y-14326841D01*
X13246372Y-14326841D02*
X13227325Y-14317317D01*
X13227325Y-14317317D02*
X13198753Y-14317317D01*
X13198753Y-14317317D02*
X13179706Y-14307793D01*
X13179706Y-14307793D02*
X13170182Y-14288746D01*
X13170182Y-14288746D02*
X13170182Y-14279222D01*
X13170182Y-14279222D02*
X13179706Y-14260174D01*
X13179706Y-14260174D02*
X13198753Y-14250650D01*
X13198753Y-14250650D02*
X13227325Y-14250650D01*
X13227325Y-14250650D02*
X13246372Y-14260174D01*
X13322563Y-14460174D02*
X13332087Y-14450650D01*
X13332087Y-14450650D02*
X13351134Y-14422079D01*
X13351134Y-14422079D02*
X13360658Y-14403031D01*
X13360658Y-14403031D02*
X13370182Y-14374460D01*
X13370182Y-14374460D02*
X13379706Y-14326841D01*
X13379706Y-14326841D02*
X13379706Y-14288746D01*
X13379706Y-14288746D02*
X13370182Y-14241127D01*
X13370182Y-14241127D02*
X13360658Y-14212555D01*
X13360658Y-14212555D02*
X13351134Y-14193508D01*
X13351134Y-14193508D02*
X13332087Y-14164936D01*
X13332087Y-14164936D02*
X13322563Y-14155412D01*
D12*
X8547500Y-14556500D02*
G75*
G02*
X8467500Y-14556500I-40000J0D01*
G01*
X8467500Y-14556500D02*
G75*
G02*
X8547500Y-14556500I40000J0D01*
G01*
D11*
X8846372Y-14447984D02*
X8865420Y-14447984D01*
X8865420Y-14447984D02*
X8884467Y-14457508D01*
X8884467Y-14457508D02*
X8893991Y-14467031D01*
X8893991Y-14467031D02*
X8903515Y-14486079D01*
X8903515Y-14486079D02*
X8913039Y-14524174D01*
X8913039Y-14524174D02*
X8913039Y-14571793D01*
X8913039Y-14571793D02*
X8903515Y-14609888D01*
X8903515Y-14609888D02*
X8893991Y-14628936D01*
X8893991Y-14628936D02*
X8884467Y-14638460D01*
X8884467Y-14638460D02*
X8865420Y-14647984D01*
X8865420Y-14647984D02*
X8846372Y-14647984D01*
X8846372Y-14647984D02*
X8827324Y-14638460D01*
X8827324Y-14638460D02*
X8817801Y-14628936D01*
X8817801Y-14628936D02*
X8808277Y-14609888D01*
X8808277Y-14609888D02*
X8798753Y-14571793D01*
X8798753Y-14571793D02*
X8798753Y-14524174D01*
X8798753Y-14524174D02*
X8808277Y-14486079D01*
X8808277Y-14486079D02*
X8817801Y-14467031D01*
X8817801Y-14467031D02*
X8827324Y-14457508D01*
X8827324Y-14457508D02*
X8846372Y-14447984D01*
X8998753Y-14628936D02*
X9008277Y-14638460D01*
X9008277Y-14638460D02*
X8998753Y-14647984D01*
X8998753Y-14647984D02*
X8989229Y-14638460D01*
X8989229Y-14638460D02*
X8998753Y-14628936D01*
X8998753Y-14628936D02*
X8998753Y-14647984D01*
X9122563Y-14533698D02*
X9103515Y-14524174D01*
X9103515Y-14524174D02*
X9093991Y-14514650D01*
X9093991Y-14514650D02*
X9084467Y-14495603D01*
X9084467Y-14495603D02*
X9084467Y-14486079D01*
X9084467Y-14486079D02*
X9093991Y-14467031D01*
X9093991Y-14467031D02*
X9103515Y-14457508D01*
X9103515Y-14457508D02*
X9122563Y-14447984D01*
X9122563Y-14447984D02*
X9160658Y-14447984D01*
X9160658Y-14447984D02*
X9179705Y-14457508D01*
X9179705Y-14457508D02*
X9189229Y-14467031D01*
X9189229Y-14467031D02*
X9198753Y-14486079D01*
X9198753Y-14486079D02*
X9198753Y-14495603D01*
X9198753Y-14495603D02*
X9189229Y-14514650D01*
X9189229Y-14514650D02*
X9179705Y-14524174D01*
X9179705Y-14524174D02*
X9160658Y-14533698D01*
X9160658Y-14533698D02*
X9122563Y-14533698D01*
X9122563Y-14533698D02*
X9103515Y-14543222D01*
X9103515Y-14543222D02*
X9093991Y-14552746D01*
X9093991Y-14552746D02*
X9084467Y-14571793D01*
X9084467Y-14571793D02*
X9084467Y-14609888D01*
X9084467Y-14609888D02*
X9093991Y-14628936D01*
X9093991Y-14628936D02*
X9103515Y-14638460D01*
X9103515Y-14638460D02*
X9122563Y-14647984D01*
X9122563Y-14647984D02*
X9160658Y-14647984D01*
X9160658Y-14647984D02*
X9179705Y-14638460D01*
X9179705Y-14638460D02*
X9189229Y-14628936D01*
X9189229Y-14628936D02*
X9198753Y-14609888D01*
X9198753Y-14609888D02*
X9198753Y-14571793D01*
X9198753Y-14571793D02*
X9189229Y-14552746D01*
X9189229Y-14552746D02*
X9179705Y-14543222D01*
X9179705Y-14543222D02*
X9160658Y-14533698D01*
X9322563Y-14447984D02*
X9341610Y-14447984D01*
X9341610Y-14447984D02*
X9360658Y-14457508D01*
X9360658Y-14457508D02*
X9370182Y-14467031D01*
X9370182Y-14467031D02*
X9379705Y-14486079D01*
X9379705Y-14486079D02*
X9389229Y-14524174D01*
X9389229Y-14524174D02*
X9389229Y-14571793D01*
X9389229Y-14571793D02*
X9379705Y-14609888D01*
X9379705Y-14609888D02*
X9370182Y-14628936D01*
X9370182Y-14628936D02*
X9360658Y-14638460D01*
X9360658Y-14638460D02*
X9341610Y-14647984D01*
X9341610Y-14647984D02*
X9322563Y-14647984D01*
X9322563Y-14647984D02*
X9303515Y-14638460D01*
X9303515Y-14638460D02*
X9293991Y-14628936D01*
X9293991Y-14628936D02*
X9284467Y-14609888D01*
X9284467Y-14609888D02*
X9274944Y-14571793D01*
X9274944Y-14571793D02*
X9274944Y-14524174D01*
X9274944Y-14524174D02*
X9284467Y-14486079D01*
X9284467Y-14486079D02*
X9293991Y-14467031D01*
X9293991Y-14467031D02*
X9303515Y-14457508D01*
X9303515Y-14457508D02*
X9322563Y-14447984D01*
X9513039Y-14447984D02*
X9532086Y-14447984D01*
X9532086Y-14447984D02*
X9551134Y-14457508D01*
X9551134Y-14457508D02*
X9560658Y-14467031D01*
X9560658Y-14467031D02*
X9570182Y-14486079D01*
X9570182Y-14486079D02*
X9579705Y-14524174D01*
X9579705Y-14524174D02*
X9579705Y-14571793D01*
X9579705Y-14571793D02*
X9570182Y-14609888D01*
X9570182Y-14609888D02*
X9560658Y-14628936D01*
X9560658Y-14628936D02*
X9551134Y-14638460D01*
X9551134Y-14638460D02*
X9532086Y-14647984D01*
X9532086Y-14647984D02*
X9513039Y-14647984D01*
X9513039Y-14647984D02*
X9493991Y-14638460D01*
X9493991Y-14638460D02*
X9484467Y-14628936D01*
X9484467Y-14628936D02*
X9474944Y-14609888D01*
X9474944Y-14609888D02*
X9465420Y-14571793D01*
X9465420Y-14571793D02*
X9465420Y-14524174D01*
X9465420Y-14524174D02*
X9474944Y-14486079D01*
X9474944Y-14486079D02*
X9484467Y-14467031D01*
X9484467Y-14467031D02*
X9493991Y-14457508D01*
X9493991Y-14457508D02*
X9513039Y-14447984D01*
X9665420Y-14647984D02*
X9665420Y-14514650D01*
X9665420Y-14533698D02*
X9674944Y-14524174D01*
X9674944Y-14524174D02*
X9693991Y-14514650D01*
X9693991Y-14514650D02*
X9722563Y-14514650D01*
X9722563Y-14514650D02*
X9741610Y-14524174D01*
X9741610Y-14524174D02*
X9751134Y-14543222D01*
X9751134Y-14543222D02*
X9751134Y-14647984D01*
X9751134Y-14543222D02*
X9760658Y-14524174D01*
X9760658Y-14524174D02*
X9779705Y-14514650D01*
X9779705Y-14514650D02*
X9808277Y-14514650D01*
X9808277Y-14514650D02*
X9827325Y-14524174D01*
X9827325Y-14524174D02*
X9836848Y-14543222D01*
X9836848Y-14543222D02*
X9836848Y-14647984D01*
X9932086Y-14647984D02*
X9932086Y-14514650D01*
X9932086Y-14533698D02*
X9941610Y-14524174D01*
X9941610Y-14524174D02*
X9960658Y-14514650D01*
X9960658Y-14514650D02*
X9989229Y-14514650D01*
X9989229Y-14514650D02*
X10008277Y-14524174D01*
X10008277Y-14524174D02*
X10017801Y-14543222D01*
X10017801Y-14543222D02*
X10017801Y-14647984D01*
X10017801Y-14543222D02*
X10027325Y-14524174D01*
X10027325Y-14524174D02*
X10046372Y-14514650D01*
X10046372Y-14514650D02*
X10074944Y-14514650D01*
X10074944Y-14514650D02*
X10093991Y-14524174D01*
X10093991Y-14524174D02*
X10103515Y-14543222D01*
X10103515Y-14543222D02*
X10103515Y-14647984D01*
X10493991Y-14438460D02*
X10322563Y-14695603D01*
X10751134Y-14447984D02*
X10770182Y-14447984D01*
X10770182Y-14447984D02*
X10789229Y-14457508D01*
X10789229Y-14457508D02*
X10798753Y-14467031D01*
X10798753Y-14467031D02*
X10808277Y-14486079D01*
X10808277Y-14486079D02*
X10817801Y-14524174D01*
X10817801Y-14524174D02*
X10817801Y-14571793D01*
X10817801Y-14571793D02*
X10808277Y-14609888D01*
X10808277Y-14609888D02*
X10798753Y-14628936D01*
X10798753Y-14628936D02*
X10789229Y-14638460D01*
X10789229Y-14638460D02*
X10770182Y-14647984D01*
X10770182Y-14647984D02*
X10751134Y-14647984D01*
X10751134Y-14647984D02*
X10732087Y-14638460D01*
X10732087Y-14638460D02*
X10722563Y-14628936D01*
X10722563Y-14628936D02*
X10713039Y-14609888D01*
X10713039Y-14609888D02*
X10703515Y-14571793D01*
X10703515Y-14571793D02*
X10703515Y-14524174D01*
X10703515Y-14524174D02*
X10713039Y-14486079D01*
X10713039Y-14486079D02*
X10722563Y-14467031D01*
X10722563Y-14467031D02*
X10732087Y-14457508D01*
X10732087Y-14457508D02*
X10751134Y-14447984D01*
X10903515Y-14628936D02*
X10913039Y-14638460D01*
X10913039Y-14638460D02*
X10903515Y-14647984D01*
X10903515Y-14647984D02*
X10893991Y-14638460D01*
X10893991Y-14638460D02*
X10903515Y-14628936D01*
X10903515Y-14628936D02*
X10903515Y-14647984D01*
X11036848Y-14447984D02*
X11055896Y-14447984D01*
X11055896Y-14447984D02*
X11074944Y-14457508D01*
X11074944Y-14457508D02*
X11084468Y-14467031D01*
X11084468Y-14467031D02*
X11093991Y-14486079D01*
X11093991Y-14486079D02*
X11103515Y-14524174D01*
X11103515Y-14524174D02*
X11103515Y-14571793D01*
X11103515Y-14571793D02*
X11093991Y-14609888D01*
X11093991Y-14609888D02*
X11084468Y-14628936D01*
X11084468Y-14628936D02*
X11074944Y-14638460D01*
X11074944Y-14638460D02*
X11055896Y-14647984D01*
X11055896Y-14647984D02*
X11036848Y-14647984D01*
X11036848Y-14647984D02*
X11017801Y-14638460D01*
X11017801Y-14638460D02*
X11008277Y-14628936D01*
X11008277Y-14628936D02*
X10998753Y-14609888D01*
X10998753Y-14609888D02*
X10989229Y-14571793D01*
X10989229Y-14571793D02*
X10989229Y-14524174D01*
X10989229Y-14524174D02*
X10998753Y-14486079D01*
X10998753Y-14486079D02*
X11008277Y-14467031D01*
X11008277Y-14467031D02*
X11017801Y-14457508D01*
X11017801Y-14457508D02*
X11036848Y-14447984D01*
X11170182Y-14447984D02*
X11293991Y-14447984D01*
X11293991Y-14447984D02*
X11227325Y-14524174D01*
X11227325Y-14524174D02*
X11255896Y-14524174D01*
X11255896Y-14524174D02*
X11274944Y-14533698D01*
X11274944Y-14533698D02*
X11284467Y-14543222D01*
X11284467Y-14543222D02*
X11293991Y-14562269D01*
X11293991Y-14562269D02*
X11293991Y-14609888D01*
X11293991Y-14609888D02*
X11284467Y-14628936D01*
X11284467Y-14628936D02*
X11274944Y-14638460D01*
X11274944Y-14638460D02*
X11255896Y-14647984D01*
X11255896Y-14647984D02*
X11198753Y-14647984D01*
X11198753Y-14647984D02*
X11179706Y-14638460D01*
X11179706Y-14638460D02*
X11170182Y-14628936D01*
X11484467Y-14647984D02*
X11370182Y-14647984D01*
X11427325Y-14647984D02*
X11427325Y-14447984D01*
X11427325Y-14447984D02*
X11408277Y-14476555D01*
X11408277Y-14476555D02*
X11389229Y-14495603D01*
X11389229Y-14495603D02*
X11370182Y-14505127D01*
X11665420Y-14447984D02*
X11570182Y-14447984D01*
X11570182Y-14447984D02*
X11560658Y-14543222D01*
X11560658Y-14543222D02*
X11570182Y-14533698D01*
X11570182Y-14533698D02*
X11589229Y-14524174D01*
X11589229Y-14524174D02*
X11636848Y-14524174D01*
X11636848Y-14524174D02*
X11655896Y-14533698D01*
X11655896Y-14533698D02*
X11665420Y-14543222D01*
X11665420Y-14543222D02*
X11674944Y-14562269D01*
X11674944Y-14562269D02*
X11674944Y-14609888D01*
X11674944Y-14609888D02*
X11665420Y-14628936D01*
X11665420Y-14628936D02*
X11655896Y-14638460D01*
X11655896Y-14638460D02*
X11636848Y-14647984D01*
X11636848Y-14647984D02*
X11589229Y-14647984D01*
X11589229Y-14647984D02*
X11570182Y-14638460D01*
X11570182Y-14638460D02*
X11560658Y-14628936D01*
X11751134Y-14447984D02*
X11751134Y-14486079D01*
X11827325Y-14447984D02*
X11827325Y-14486079D01*
X12122563Y-14724174D02*
X12113039Y-14714650D01*
X12113039Y-14714650D02*
X12093991Y-14686079D01*
X12093991Y-14686079D02*
X12084468Y-14667031D01*
X12084468Y-14667031D02*
X12074944Y-14638460D01*
X12074944Y-14638460D02*
X12065420Y-14590841D01*
X12065420Y-14590841D02*
X12065420Y-14552746D01*
X12065420Y-14552746D02*
X12074944Y-14505127D01*
X12074944Y-14505127D02*
X12084468Y-14476555D01*
X12084468Y-14476555D02*
X12093991Y-14457508D01*
X12093991Y-14457508D02*
X12113039Y-14428936D01*
X12113039Y-14428936D02*
X12122563Y-14419412D01*
X12303515Y-14647984D02*
X12189229Y-14647984D01*
X12246372Y-14647984D02*
X12246372Y-14447984D01*
X12246372Y-14447984D02*
X12227325Y-14476555D01*
X12227325Y-14476555D02*
X12208277Y-14495603D01*
X12208277Y-14495603D02*
X12189229Y-14505127D01*
X12493991Y-14647984D02*
X12379706Y-14647984D01*
X12436848Y-14647984D02*
X12436848Y-14447984D01*
X12436848Y-14447984D02*
X12417801Y-14476555D01*
X12417801Y-14476555D02*
X12398753Y-14495603D01*
X12398753Y-14495603D02*
X12379706Y-14505127D01*
X12560658Y-14447984D02*
X12684468Y-14447984D01*
X12684468Y-14447984D02*
X12617801Y-14524174D01*
X12617801Y-14524174D02*
X12646372Y-14524174D01*
X12646372Y-14524174D02*
X12665420Y-14533698D01*
X12665420Y-14533698D02*
X12674944Y-14543222D01*
X12674944Y-14543222D02*
X12684468Y-14562269D01*
X12684468Y-14562269D02*
X12684468Y-14609888D01*
X12684468Y-14609888D02*
X12674944Y-14628936D01*
X12674944Y-14628936D02*
X12665420Y-14638460D01*
X12665420Y-14638460D02*
X12646372Y-14647984D01*
X12646372Y-14647984D02*
X12589229Y-14647984D01*
X12589229Y-14647984D02*
X12570182Y-14638460D01*
X12570182Y-14638460D02*
X12560658Y-14628936D01*
X12922563Y-14647984D02*
X12922563Y-14447984D01*
X13008277Y-14647984D02*
X13008277Y-14543222D01*
X13008277Y-14543222D02*
X12998753Y-14524174D01*
X12998753Y-14524174D02*
X12979706Y-14514650D01*
X12979706Y-14514650D02*
X12951134Y-14514650D01*
X12951134Y-14514650D02*
X12932087Y-14524174D01*
X12932087Y-14524174D02*
X12922563Y-14533698D01*
X13132087Y-14647984D02*
X13113039Y-14638460D01*
X13113039Y-14638460D02*
X13103515Y-14628936D01*
X13103515Y-14628936D02*
X13093991Y-14609888D01*
X13093991Y-14609888D02*
X13093991Y-14552746D01*
X13093991Y-14552746D02*
X13103515Y-14533698D01*
X13103515Y-14533698D02*
X13113039Y-14524174D01*
X13113039Y-14524174D02*
X13132087Y-14514650D01*
X13132087Y-14514650D02*
X13160658Y-14514650D01*
X13160658Y-14514650D02*
X13179706Y-14524174D01*
X13179706Y-14524174D02*
X13189230Y-14533698D01*
X13189230Y-14533698D02*
X13198753Y-14552746D01*
X13198753Y-14552746D02*
X13198753Y-14609888D01*
X13198753Y-14609888D02*
X13189230Y-14628936D01*
X13189230Y-14628936D02*
X13179706Y-14638460D01*
X13179706Y-14638460D02*
X13160658Y-14647984D01*
X13160658Y-14647984D02*
X13132087Y-14647984D01*
X13313039Y-14647984D02*
X13293991Y-14638460D01*
X13293991Y-14638460D02*
X13284468Y-14619412D01*
X13284468Y-14619412D02*
X13284468Y-14447984D01*
X13465420Y-14638460D02*
X13446372Y-14647984D01*
X13446372Y-14647984D02*
X13408277Y-14647984D01*
X13408277Y-14647984D02*
X13389230Y-14638460D01*
X13389230Y-14638460D02*
X13379706Y-14619412D01*
X13379706Y-14619412D02*
X13379706Y-14543222D01*
X13379706Y-14543222D02*
X13389230Y-14524174D01*
X13389230Y-14524174D02*
X13408277Y-14514650D01*
X13408277Y-14514650D02*
X13446372Y-14514650D01*
X13446372Y-14514650D02*
X13465420Y-14524174D01*
X13465420Y-14524174D02*
X13474944Y-14543222D01*
X13474944Y-14543222D02*
X13474944Y-14562269D01*
X13474944Y-14562269D02*
X13379706Y-14581317D01*
X13551134Y-14638460D02*
X13570182Y-14647984D01*
X13570182Y-14647984D02*
X13608277Y-14647984D01*
X13608277Y-14647984D02*
X13627325Y-14638460D01*
X13627325Y-14638460D02*
X13636849Y-14619412D01*
X13636849Y-14619412D02*
X13636849Y-14609888D01*
X13636849Y-14609888D02*
X13627325Y-14590841D01*
X13627325Y-14590841D02*
X13608277Y-14581317D01*
X13608277Y-14581317D02*
X13579706Y-14581317D01*
X13579706Y-14581317D02*
X13560658Y-14571793D01*
X13560658Y-14571793D02*
X13551134Y-14552746D01*
X13551134Y-14552746D02*
X13551134Y-14543222D01*
X13551134Y-14543222D02*
X13560658Y-14524174D01*
X13560658Y-14524174D02*
X13579706Y-14514650D01*
X13579706Y-14514650D02*
X13608277Y-14514650D01*
X13608277Y-14514650D02*
X13627325Y-14524174D01*
X13703515Y-14724174D02*
X13713039Y-14714650D01*
X13713039Y-14714650D02*
X13732087Y-14686079D01*
X13732087Y-14686079D02*
X13741611Y-14667031D01*
X13741611Y-14667031D02*
X13751134Y-14638460D01*
X13751134Y-14638460D02*
X13760658Y-14590841D01*
X13760658Y-14590841D02*
X13760658Y-14552746D01*
X13760658Y-14552746D02*
X13751134Y-14505127D01*
X13751134Y-14505127D02*
X13741611Y-14476555D01*
X13741611Y-14476555D02*
X13732087Y-14457508D01*
X13732087Y-14457508D02*
X13713039Y-14428936D01*
X13713039Y-14428936D02*
X13703515Y-14419412D01*
D12*
X8497500Y-14770500D02*
X8497500Y-14870500D01*
X8447500Y-14820500D02*
X8547500Y-14820500D01*
D11*
X8913039Y-14911984D02*
X8798753Y-14911984D01*
X8855896Y-14911984D02*
X8855896Y-14711984D01*
X8855896Y-14711984D02*
X8836848Y-14740555D01*
X8836848Y-14740555D02*
X8817801Y-14759603D01*
X8817801Y-14759603D02*
X8798753Y-14769127D01*
X8998753Y-14892936D02*
X9008277Y-14902460D01*
X9008277Y-14902460D02*
X8998753Y-14911984D01*
X8998753Y-14911984D02*
X8989229Y-14902460D01*
X8989229Y-14902460D02*
X8998753Y-14892936D01*
X8998753Y-14892936D02*
X8998753Y-14911984D01*
X9132086Y-14711984D02*
X9151134Y-14711984D01*
X9151134Y-14711984D02*
X9170182Y-14721508D01*
X9170182Y-14721508D02*
X9179705Y-14731031D01*
X9179705Y-14731031D02*
X9189229Y-14750079D01*
X9189229Y-14750079D02*
X9198753Y-14788174D01*
X9198753Y-14788174D02*
X9198753Y-14835793D01*
X9198753Y-14835793D02*
X9189229Y-14873888D01*
X9189229Y-14873888D02*
X9179705Y-14892936D01*
X9179705Y-14892936D02*
X9170182Y-14902460D01*
X9170182Y-14902460D02*
X9151134Y-14911984D01*
X9151134Y-14911984D02*
X9132086Y-14911984D01*
X9132086Y-14911984D02*
X9113039Y-14902460D01*
X9113039Y-14902460D02*
X9103515Y-14892936D01*
X9103515Y-14892936D02*
X9093991Y-14873888D01*
X9093991Y-14873888D02*
X9084467Y-14835793D01*
X9084467Y-14835793D02*
X9084467Y-14788174D01*
X9084467Y-14788174D02*
X9093991Y-14750079D01*
X9093991Y-14750079D02*
X9103515Y-14731031D01*
X9103515Y-14731031D02*
X9113039Y-14721508D01*
X9113039Y-14721508D02*
X9132086Y-14711984D01*
X9322563Y-14711984D02*
X9341610Y-14711984D01*
X9341610Y-14711984D02*
X9360658Y-14721508D01*
X9360658Y-14721508D02*
X9370182Y-14731031D01*
X9370182Y-14731031D02*
X9379705Y-14750079D01*
X9379705Y-14750079D02*
X9389229Y-14788174D01*
X9389229Y-14788174D02*
X9389229Y-14835793D01*
X9389229Y-14835793D02*
X9379705Y-14873888D01*
X9379705Y-14873888D02*
X9370182Y-14892936D01*
X9370182Y-14892936D02*
X9360658Y-14902460D01*
X9360658Y-14902460D02*
X9341610Y-14911984D01*
X9341610Y-14911984D02*
X9322563Y-14911984D01*
X9322563Y-14911984D02*
X9303515Y-14902460D01*
X9303515Y-14902460D02*
X9293991Y-14892936D01*
X9293991Y-14892936D02*
X9284467Y-14873888D01*
X9284467Y-14873888D02*
X9274944Y-14835793D01*
X9274944Y-14835793D02*
X9274944Y-14788174D01*
X9274944Y-14788174D02*
X9284467Y-14750079D01*
X9284467Y-14750079D02*
X9293991Y-14731031D01*
X9293991Y-14731031D02*
X9303515Y-14721508D01*
X9303515Y-14721508D02*
X9322563Y-14711984D01*
X9513039Y-14711984D02*
X9532086Y-14711984D01*
X9532086Y-14711984D02*
X9551134Y-14721508D01*
X9551134Y-14721508D02*
X9560658Y-14731031D01*
X9560658Y-14731031D02*
X9570182Y-14750079D01*
X9570182Y-14750079D02*
X9579705Y-14788174D01*
X9579705Y-14788174D02*
X9579705Y-14835793D01*
X9579705Y-14835793D02*
X9570182Y-14873888D01*
X9570182Y-14873888D02*
X9560658Y-14892936D01*
X9560658Y-14892936D02*
X9551134Y-14902460D01*
X9551134Y-14902460D02*
X9532086Y-14911984D01*
X9532086Y-14911984D02*
X9513039Y-14911984D01*
X9513039Y-14911984D02*
X9493991Y-14902460D01*
X9493991Y-14902460D02*
X9484467Y-14892936D01*
X9484467Y-14892936D02*
X9474944Y-14873888D01*
X9474944Y-14873888D02*
X9465420Y-14835793D01*
X9465420Y-14835793D02*
X9465420Y-14788174D01*
X9465420Y-14788174D02*
X9474944Y-14750079D01*
X9474944Y-14750079D02*
X9484467Y-14731031D01*
X9484467Y-14731031D02*
X9493991Y-14721508D01*
X9493991Y-14721508D02*
X9513039Y-14711984D01*
X9665420Y-14911984D02*
X9665420Y-14778650D01*
X9665420Y-14797698D02*
X9674944Y-14788174D01*
X9674944Y-14788174D02*
X9693991Y-14778650D01*
X9693991Y-14778650D02*
X9722563Y-14778650D01*
X9722563Y-14778650D02*
X9741610Y-14788174D01*
X9741610Y-14788174D02*
X9751134Y-14807222D01*
X9751134Y-14807222D02*
X9751134Y-14911984D01*
X9751134Y-14807222D02*
X9760658Y-14788174D01*
X9760658Y-14788174D02*
X9779705Y-14778650D01*
X9779705Y-14778650D02*
X9808277Y-14778650D01*
X9808277Y-14778650D02*
X9827325Y-14788174D01*
X9827325Y-14788174D02*
X9836848Y-14807222D01*
X9836848Y-14807222D02*
X9836848Y-14911984D01*
X9932086Y-14911984D02*
X9932086Y-14778650D01*
X9932086Y-14797698D02*
X9941610Y-14788174D01*
X9941610Y-14788174D02*
X9960658Y-14778650D01*
X9960658Y-14778650D02*
X9989229Y-14778650D01*
X9989229Y-14778650D02*
X10008277Y-14788174D01*
X10008277Y-14788174D02*
X10017801Y-14807222D01*
X10017801Y-14807222D02*
X10017801Y-14911984D01*
X10017801Y-14807222D02*
X10027325Y-14788174D01*
X10027325Y-14788174D02*
X10046372Y-14778650D01*
X10046372Y-14778650D02*
X10074944Y-14778650D01*
X10074944Y-14778650D02*
X10093991Y-14788174D01*
X10093991Y-14788174D02*
X10103515Y-14807222D01*
X10103515Y-14807222D02*
X10103515Y-14911984D01*
X10493991Y-14702460D02*
X10322563Y-14959603D01*
X10751134Y-14711984D02*
X10770182Y-14711984D01*
X10770182Y-14711984D02*
X10789229Y-14721508D01*
X10789229Y-14721508D02*
X10798753Y-14731031D01*
X10798753Y-14731031D02*
X10808277Y-14750079D01*
X10808277Y-14750079D02*
X10817801Y-14788174D01*
X10817801Y-14788174D02*
X10817801Y-14835793D01*
X10817801Y-14835793D02*
X10808277Y-14873888D01*
X10808277Y-14873888D02*
X10798753Y-14892936D01*
X10798753Y-14892936D02*
X10789229Y-14902460D01*
X10789229Y-14902460D02*
X10770182Y-14911984D01*
X10770182Y-14911984D02*
X10751134Y-14911984D01*
X10751134Y-14911984D02*
X10732087Y-14902460D01*
X10732087Y-14902460D02*
X10722563Y-14892936D01*
X10722563Y-14892936D02*
X10713039Y-14873888D01*
X10713039Y-14873888D02*
X10703515Y-14835793D01*
X10703515Y-14835793D02*
X10703515Y-14788174D01*
X10703515Y-14788174D02*
X10713039Y-14750079D01*
X10713039Y-14750079D02*
X10722563Y-14731031D01*
X10722563Y-14731031D02*
X10732087Y-14721508D01*
X10732087Y-14721508D02*
X10751134Y-14711984D01*
X10903515Y-14892936D02*
X10913039Y-14902460D01*
X10913039Y-14902460D02*
X10903515Y-14911984D01*
X10903515Y-14911984D02*
X10893991Y-14902460D01*
X10893991Y-14902460D02*
X10903515Y-14892936D01*
X10903515Y-14892936D02*
X10903515Y-14911984D01*
X11036848Y-14711984D02*
X11055896Y-14711984D01*
X11055896Y-14711984D02*
X11074944Y-14721508D01*
X11074944Y-14721508D02*
X11084468Y-14731031D01*
X11084468Y-14731031D02*
X11093991Y-14750079D01*
X11093991Y-14750079D02*
X11103515Y-14788174D01*
X11103515Y-14788174D02*
X11103515Y-14835793D01*
X11103515Y-14835793D02*
X11093991Y-14873888D01*
X11093991Y-14873888D02*
X11084468Y-14892936D01*
X11084468Y-14892936D02*
X11074944Y-14902460D01*
X11074944Y-14902460D02*
X11055896Y-14911984D01*
X11055896Y-14911984D02*
X11036848Y-14911984D01*
X11036848Y-14911984D02*
X11017801Y-14902460D01*
X11017801Y-14902460D02*
X11008277Y-14892936D01*
X11008277Y-14892936D02*
X10998753Y-14873888D01*
X10998753Y-14873888D02*
X10989229Y-14835793D01*
X10989229Y-14835793D02*
X10989229Y-14788174D01*
X10989229Y-14788174D02*
X10998753Y-14750079D01*
X10998753Y-14750079D02*
X11008277Y-14731031D01*
X11008277Y-14731031D02*
X11017801Y-14721508D01*
X11017801Y-14721508D02*
X11036848Y-14711984D01*
X11170182Y-14711984D02*
X11293991Y-14711984D01*
X11293991Y-14711984D02*
X11227325Y-14788174D01*
X11227325Y-14788174D02*
X11255896Y-14788174D01*
X11255896Y-14788174D02*
X11274944Y-14797698D01*
X11274944Y-14797698D02*
X11284467Y-14807222D01*
X11284467Y-14807222D02*
X11293991Y-14826269D01*
X11293991Y-14826269D02*
X11293991Y-14873888D01*
X11293991Y-14873888D02*
X11284467Y-14892936D01*
X11284467Y-14892936D02*
X11274944Y-14902460D01*
X11274944Y-14902460D02*
X11255896Y-14911984D01*
X11255896Y-14911984D02*
X11198753Y-14911984D01*
X11198753Y-14911984D02*
X11179706Y-14902460D01*
X11179706Y-14902460D02*
X11170182Y-14892936D01*
X11389229Y-14911984D02*
X11427325Y-14911984D01*
X11427325Y-14911984D02*
X11446372Y-14902460D01*
X11446372Y-14902460D02*
X11455896Y-14892936D01*
X11455896Y-14892936D02*
X11474944Y-14864365D01*
X11474944Y-14864365D02*
X11484467Y-14826269D01*
X11484467Y-14826269D02*
X11484467Y-14750079D01*
X11484467Y-14750079D02*
X11474944Y-14731031D01*
X11474944Y-14731031D02*
X11465420Y-14721508D01*
X11465420Y-14721508D02*
X11446372Y-14711984D01*
X11446372Y-14711984D02*
X11408277Y-14711984D01*
X11408277Y-14711984D02*
X11389229Y-14721508D01*
X11389229Y-14721508D02*
X11379706Y-14731031D01*
X11379706Y-14731031D02*
X11370182Y-14750079D01*
X11370182Y-14750079D02*
X11370182Y-14797698D01*
X11370182Y-14797698D02*
X11379706Y-14816746D01*
X11379706Y-14816746D02*
X11389229Y-14826269D01*
X11389229Y-14826269D02*
X11408277Y-14835793D01*
X11408277Y-14835793D02*
X11446372Y-14835793D01*
X11446372Y-14835793D02*
X11465420Y-14826269D01*
X11465420Y-14826269D02*
X11474944Y-14816746D01*
X11474944Y-14816746D02*
X11484467Y-14797698D01*
X11655896Y-14778650D02*
X11655896Y-14911984D01*
X11608277Y-14702460D02*
X11560658Y-14845317D01*
X11560658Y-14845317D02*
X11684467Y-14845317D01*
X11751134Y-14711984D02*
X11751134Y-14750079D01*
X11827325Y-14711984D02*
X11827325Y-14750079D01*
X12122563Y-14988174D02*
X12113039Y-14978650D01*
X12113039Y-14978650D02*
X12093991Y-14950079D01*
X12093991Y-14950079D02*
X12084468Y-14931031D01*
X12084468Y-14931031D02*
X12074944Y-14902460D01*
X12074944Y-14902460D02*
X12065420Y-14854841D01*
X12065420Y-14854841D02*
X12065420Y-14816746D01*
X12065420Y-14816746D02*
X12074944Y-14769127D01*
X12074944Y-14769127D02*
X12084468Y-14740555D01*
X12084468Y-14740555D02*
X12093991Y-14721508D01*
X12093991Y-14721508D02*
X12113039Y-14692936D01*
X12113039Y-14692936D02*
X12122563Y-14683412D01*
X12284468Y-14778650D02*
X12284468Y-14911984D01*
X12236848Y-14702460D02*
X12189229Y-14845317D01*
X12189229Y-14845317D02*
X12313039Y-14845317D01*
X12370182Y-14711984D02*
X12493991Y-14711984D01*
X12493991Y-14711984D02*
X12427325Y-14788174D01*
X12427325Y-14788174D02*
X12455896Y-14788174D01*
X12455896Y-14788174D02*
X12474944Y-14797698D01*
X12474944Y-14797698D02*
X12484468Y-14807222D01*
X12484468Y-14807222D02*
X12493991Y-14826269D01*
X12493991Y-14826269D02*
X12493991Y-14873888D01*
X12493991Y-14873888D02*
X12484468Y-14892936D01*
X12484468Y-14892936D02*
X12474944Y-14902460D01*
X12474944Y-14902460D02*
X12455896Y-14911984D01*
X12455896Y-14911984D02*
X12398753Y-14911984D01*
X12398753Y-14911984D02*
X12379706Y-14902460D01*
X12379706Y-14902460D02*
X12370182Y-14892936D01*
X12732087Y-14911984D02*
X12732087Y-14711984D01*
X12817801Y-14911984D02*
X12817801Y-14807222D01*
X12817801Y-14807222D02*
X12808277Y-14788174D01*
X12808277Y-14788174D02*
X12789230Y-14778650D01*
X12789230Y-14778650D02*
X12760658Y-14778650D01*
X12760658Y-14778650D02*
X12741610Y-14788174D01*
X12741610Y-14788174D02*
X12732087Y-14797698D01*
X12941610Y-14911984D02*
X12922563Y-14902460D01*
X12922563Y-14902460D02*
X12913039Y-14892936D01*
X12913039Y-14892936D02*
X12903515Y-14873888D01*
X12903515Y-14873888D02*
X12903515Y-14816746D01*
X12903515Y-14816746D02*
X12913039Y-14797698D01*
X12913039Y-14797698D02*
X12922563Y-14788174D01*
X12922563Y-14788174D02*
X12941610Y-14778650D01*
X12941610Y-14778650D02*
X12970182Y-14778650D01*
X12970182Y-14778650D02*
X12989230Y-14788174D01*
X12989230Y-14788174D02*
X12998753Y-14797698D01*
X12998753Y-14797698D02*
X13008277Y-14816746D01*
X13008277Y-14816746D02*
X13008277Y-14873888D01*
X13008277Y-14873888D02*
X12998753Y-14892936D01*
X12998753Y-14892936D02*
X12989230Y-14902460D01*
X12989230Y-14902460D02*
X12970182Y-14911984D01*
X12970182Y-14911984D02*
X12941610Y-14911984D01*
X13122563Y-14911984D02*
X13103515Y-14902460D01*
X13103515Y-14902460D02*
X13093991Y-14883412D01*
X13093991Y-14883412D02*
X13093991Y-14711984D01*
X13274944Y-14902460D02*
X13255896Y-14911984D01*
X13255896Y-14911984D02*
X13217801Y-14911984D01*
X13217801Y-14911984D02*
X13198753Y-14902460D01*
X13198753Y-14902460D02*
X13189230Y-14883412D01*
X13189230Y-14883412D02*
X13189230Y-14807222D01*
X13189230Y-14807222D02*
X13198753Y-14788174D01*
X13198753Y-14788174D02*
X13217801Y-14778650D01*
X13217801Y-14778650D02*
X13255896Y-14778650D01*
X13255896Y-14778650D02*
X13274944Y-14788174D01*
X13274944Y-14788174D02*
X13284468Y-14807222D01*
X13284468Y-14807222D02*
X13284468Y-14826269D01*
X13284468Y-14826269D02*
X13189230Y-14845317D01*
X13360658Y-14902460D02*
X13379706Y-14911984D01*
X13379706Y-14911984D02*
X13417801Y-14911984D01*
X13417801Y-14911984D02*
X13436849Y-14902460D01*
X13436849Y-14902460D02*
X13446372Y-14883412D01*
X13446372Y-14883412D02*
X13446372Y-14873888D01*
X13446372Y-14873888D02*
X13436849Y-14854841D01*
X13436849Y-14854841D02*
X13417801Y-14845317D01*
X13417801Y-14845317D02*
X13389230Y-14845317D01*
X13389230Y-14845317D02*
X13370182Y-14835793D01*
X13370182Y-14835793D02*
X13360658Y-14816746D01*
X13360658Y-14816746D02*
X13360658Y-14807222D01*
X13360658Y-14807222D02*
X13370182Y-14788174D01*
X13370182Y-14788174D02*
X13389230Y-14778650D01*
X13389230Y-14778650D02*
X13417801Y-14778650D01*
X13417801Y-14778650D02*
X13436849Y-14788174D01*
X13513039Y-14988174D02*
X13522563Y-14978650D01*
X13522563Y-14978650D02*
X13541611Y-14950079D01*
X13541611Y-14950079D02*
X13551134Y-14931031D01*
X13551134Y-14931031D02*
X13560658Y-14902460D01*
X13560658Y-14902460D02*
X13570182Y-14854841D01*
X13570182Y-14854841D02*
X13570182Y-14816746D01*
X13570182Y-14816746D02*
X13560658Y-14769127D01*
X13560658Y-14769127D02*
X13551134Y-14740555D01*
X13551134Y-14740555D02*
X13541611Y-14721508D01*
X13541611Y-14721508D02*
X13522563Y-14692936D01*
X13522563Y-14692936D02*
X13513039Y-14683412D01*
D13*
X8532621Y-15120421D02*
X8532621Y-15048579D01*
X8460779Y-15048579D01*
X8460779Y-15120421D01*
X8532621Y-15120421D01*
D11*
X8913039Y-15175984D02*
X8798753Y-15175984D01*
X8855896Y-15175984D02*
X8855896Y-14975984D01*
X8855896Y-14975984D02*
X8836848Y-15004555D01*
X8836848Y-15004555D02*
X8817801Y-15023603D01*
X8817801Y-15023603D02*
X8798753Y-15033127D01*
X8998753Y-15156936D02*
X9008277Y-15166460D01*
X9008277Y-15166460D02*
X8998753Y-15175984D01*
X8998753Y-15175984D02*
X8989229Y-15166460D01*
X8989229Y-15166460D02*
X8998753Y-15156936D01*
X8998753Y-15156936D02*
X8998753Y-15175984D01*
X9132086Y-14975984D02*
X9151134Y-14975984D01*
X9151134Y-14975984D02*
X9170182Y-14985508D01*
X9170182Y-14985508D02*
X9179705Y-14995031D01*
X9179705Y-14995031D02*
X9189229Y-15014079D01*
X9189229Y-15014079D02*
X9198753Y-15052174D01*
X9198753Y-15052174D02*
X9198753Y-15099793D01*
X9198753Y-15099793D02*
X9189229Y-15137888D01*
X9189229Y-15137888D02*
X9179705Y-15156936D01*
X9179705Y-15156936D02*
X9170182Y-15166460D01*
X9170182Y-15166460D02*
X9151134Y-15175984D01*
X9151134Y-15175984D02*
X9132086Y-15175984D01*
X9132086Y-15175984D02*
X9113039Y-15166460D01*
X9113039Y-15166460D02*
X9103515Y-15156936D01*
X9103515Y-15156936D02*
X9093991Y-15137888D01*
X9093991Y-15137888D02*
X9084467Y-15099793D01*
X9084467Y-15099793D02*
X9084467Y-15052174D01*
X9084467Y-15052174D02*
X9093991Y-15014079D01*
X9093991Y-15014079D02*
X9103515Y-14995031D01*
X9103515Y-14995031D02*
X9113039Y-14985508D01*
X9113039Y-14985508D02*
X9132086Y-14975984D01*
X9389229Y-15175984D02*
X9274944Y-15175984D01*
X9332086Y-15175984D02*
X9332086Y-14975984D01*
X9332086Y-14975984D02*
X9313039Y-15004555D01*
X9313039Y-15004555D02*
X9293991Y-15023603D01*
X9293991Y-15023603D02*
X9274944Y-15033127D01*
X9560658Y-14975984D02*
X9522563Y-14975984D01*
X9522563Y-14975984D02*
X9503515Y-14985508D01*
X9503515Y-14985508D02*
X9493991Y-14995031D01*
X9493991Y-14995031D02*
X9474944Y-15023603D01*
X9474944Y-15023603D02*
X9465420Y-15061698D01*
X9465420Y-15061698D02*
X9465420Y-15137888D01*
X9465420Y-15137888D02*
X9474944Y-15156936D01*
X9474944Y-15156936D02*
X9484467Y-15166460D01*
X9484467Y-15166460D02*
X9503515Y-15175984D01*
X9503515Y-15175984D02*
X9541610Y-15175984D01*
X9541610Y-15175984D02*
X9560658Y-15166460D01*
X9560658Y-15166460D02*
X9570182Y-15156936D01*
X9570182Y-15156936D02*
X9579705Y-15137888D01*
X9579705Y-15137888D02*
X9579705Y-15090269D01*
X9579705Y-15090269D02*
X9570182Y-15071222D01*
X9570182Y-15071222D02*
X9560658Y-15061698D01*
X9560658Y-15061698D02*
X9541610Y-15052174D01*
X9541610Y-15052174D02*
X9503515Y-15052174D01*
X9503515Y-15052174D02*
X9484467Y-15061698D01*
X9484467Y-15061698D02*
X9474944Y-15071222D01*
X9474944Y-15071222D02*
X9465420Y-15090269D01*
X9665420Y-15175984D02*
X9665420Y-15042650D01*
X9665420Y-15061698D02*
X9674944Y-15052174D01*
X9674944Y-15052174D02*
X9693991Y-15042650D01*
X9693991Y-15042650D02*
X9722563Y-15042650D01*
X9722563Y-15042650D02*
X9741610Y-15052174D01*
X9741610Y-15052174D02*
X9751134Y-15071222D01*
X9751134Y-15071222D02*
X9751134Y-15175984D01*
X9751134Y-15071222D02*
X9760658Y-15052174D01*
X9760658Y-15052174D02*
X9779705Y-15042650D01*
X9779705Y-15042650D02*
X9808277Y-15042650D01*
X9808277Y-15042650D02*
X9827325Y-15052174D01*
X9827325Y-15052174D02*
X9836848Y-15071222D01*
X9836848Y-15071222D02*
X9836848Y-15175984D01*
X9932086Y-15175984D02*
X9932086Y-15042650D01*
X9932086Y-15061698D02*
X9941610Y-15052174D01*
X9941610Y-15052174D02*
X9960658Y-15042650D01*
X9960658Y-15042650D02*
X9989229Y-15042650D01*
X9989229Y-15042650D02*
X10008277Y-15052174D01*
X10008277Y-15052174D02*
X10017801Y-15071222D01*
X10017801Y-15071222D02*
X10017801Y-15175984D01*
X10017801Y-15071222D02*
X10027325Y-15052174D01*
X10027325Y-15052174D02*
X10046372Y-15042650D01*
X10046372Y-15042650D02*
X10074944Y-15042650D01*
X10074944Y-15042650D02*
X10093991Y-15052174D01*
X10093991Y-15052174D02*
X10103515Y-15071222D01*
X10103515Y-15071222D02*
X10103515Y-15175984D01*
X10493991Y-14966460D02*
X10322563Y-15223603D01*
X10751134Y-14975984D02*
X10770182Y-14975984D01*
X10770182Y-14975984D02*
X10789229Y-14985508D01*
X10789229Y-14985508D02*
X10798753Y-14995031D01*
X10798753Y-14995031D02*
X10808277Y-15014079D01*
X10808277Y-15014079D02*
X10817801Y-15052174D01*
X10817801Y-15052174D02*
X10817801Y-15099793D01*
X10817801Y-15099793D02*
X10808277Y-15137888D01*
X10808277Y-15137888D02*
X10798753Y-15156936D01*
X10798753Y-15156936D02*
X10789229Y-15166460D01*
X10789229Y-15166460D02*
X10770182Y-15175984D01*
X10770182Y-15175984D02*
X10751134Y-15175984D01*
X10751134Y-15175984D02*
X10732087Y-15166460D01*
X10732087Y-15166460D02*
X10722563Y-15156936D01*
X10722563Y-15156936D02*
X10713039Y-15137888D01*
X10713039Y-15137888D02*
X10703515Y-15099793D01*
X10703515Y-15099793D02*
X10703515Y-15052174D01*
X10703515Y-15052174D02*
X10713039Y-15014079D01*
X10713039Y-15014079D02*
X10722563Y-14995031D01*
X10722563Y-14995031D02*
X10732087Y-14985508D01*
X10732087Y-14985508D02*
X10751134Y-14975984D01*
X10903515Y-15156936D02*
X10913039Y-15166460D01*
X10913039Y-15166460D02*
X10903515Y-15175984D01*
X10903515Y-15175984D02*
X10893991Y-15166460D01*
X10893991Y-15166460D02*
X10903515Y-15156936D01*
X10903515Y-15156936D02*
X10903515Y-15175984D01*
X11036848Y-14975984D02*
X11055896Y-14975984D01*
X11055896Y-14975984D02*
X11074944Y-14985508D01*
X11074944Y-14985508D02*
X11084468Y-14995031D01*
X11084468Y-14995031D02*
X11093991Y-15014079D01*
X11093991Y-15014079D02*
X11103515Y-15052174D01*
X11103515Y-15052174D02*
X11103515Y-15099793D01*
X11103515Y-15099793D02*
X11093991Y-15137888D01*
X11093991Y-15137888D02*
X11084468Y-15156936D01*
X11084468Y-15156936D02*
X11074944Y-15166460D01*
X11074944Y-15166460D02*
X11055896Y-15175984D01*
X11055896Y-15175984D02*
X11036848Y-15175984D01*
X11036848Y-15175984D02*
X11017801Y-15166460D01*
X11017801Y-15166460D02*
X11008277Y-15156936D01*
X11008277Y-15156936D02*
X10998753Y-15137888D01*
X10998753Y-15137888D02*
X10989229Y-15099793D01*
X10989229Y-15099793D02*
X10989229Y-15052174D01*
X10989229Y-15052174D02*
X10998753Y-15014079D01*
X10998753Y-15014079D02*
X11008277Y-14995031D01*
X11008277Y-14995031D02*
X11017801Y-14985508D01*
X11017801Y-14985508D02*
X11036848Y-14975984D01*
X11274944Y-15042650D02*
X11274944Y-15175984D01*
X11227325Y-14966460D02*
X11179706Y-15109317D01*
X11179706Y-15109317D02*
X11303515Y-15109317D01*
X11417801Y-14975984D02*
X11436848Y-14975984D01*
X11436848Y-14975984D02*
X11455896Y-14985508D01*
X11455896Y-14985508D02*
X11465420Y-14995031D01*
X11465420Y-14995031D02*
X11474944Y-15014079D01*
X11474944Y-15014079D02*
X11484467Y-15052174D01*
X11484467Y-15052174D02*
X11484467Y-15099793D01*
X11484467Y-15099793D02*
X11474944Y-15137888D01*
X11474944Y-15137888D02*
X11465420Y-15156936D01*
X11465420Y-15156936D02*
X11455896Y-15166460D01*
X11455896Y-15166460D02*
X11436848Y-15175984D01*
X11436848Y-15175984D02*
X11417801Y-15175984D01*
X11417801Y-15175984D02*
X11398753Y-15166460D01*
X11398753Y-15166460D02*
X11389229Y-15156936D01*
X11389229Y-15156936D02*
X11379706Y-15137888D01*
X11379706Y-15137888D02*
X11370182Y-15099793D01*
X11370182Y-15099793D02*
X11370182Y-15052174D01*
X11370182Y-15052174D02*
X11379706Y-15014079D01*
X11379706Y-15014079D02*
X11389229Y-14995031D01*
X11389229Y-14995031D02*
X11398753Y-14985508D01*
X11398753Y-14985508D02*
X11417801Y-14975984D01*
X11608277Y-14975984D02*
X11627325Y-14975984D01*
X11627325Y-14975984D02*
X11646372Y-14985508D01*
X11646372Y-14985508D02*
X11655896Y-14995031D01*
X11655896Y-14995031D02*
X11665420Y-15014079D01*
X11665420Y-15014079D02*
X11674944Y-15052174D01*
X11674944Y-15052174D02*
X11674944Y-15099793D01*
X11674944Y-15099793D02*
X11665420Y-15137888D01*
X11665420Y-15137888D02*
X11655896Y-15156936D01*
X11655896Y-15156936D02*
X11646372Y-15166460D01*
X11646372Y-15166460D02*
X11627325Y-15175984D01*
X11627325Y-15175984D02*
X11608277Y-15175984D01*
X11608277Y-15175984D02*
X11589229Y-15166460D01*
X11589229Y-15166460D02*
X11579706Y-15156936D01*
X11579706Y-15156936D02*
X11570182Y-15137888D01*
X11570182Y-15137888D02*
X11560658Y-15099793D01*
X11560658Y-15099793D02*
X11560658Y-15052174D01*
X11560658Y-15052174D02*
X11570182Y-15014079D01*
X11570182Y-15014079D02*
X11579706Y-14995031D01*
X11579706Y-14995031D02*
X11589229Y-14985508D01*
X11589229Y-14985508D02*
X11608277Y-14975984D01*
X11751134Y-14975984D02*
X11751134Y-15014079D01*
X11827325Y-14975984D02*
X11827325Y-15014079D01*
X12122563Y-15252174D02*
X12113039Y-15242650D01*
X12113039Y-15242650D02*
X12093991Y-15214079D01*
X12093991Y-15214079D02*
X12084468Y-15195031D01*
X12084468Y-15195031D02*
X12074944Y-15166460D01*
X12074944Y-15166460D02*
X12065420Y-15118841D01*
X12065420Y-15118841D02*
X12065420Y-15080746D01*
X12065420Y-15080746D02*
X12074944Y-15033127D01*
X12074944Y-15033127D02*
X12084468Y-15004555D01*
X12084468Y-15004555D02*
X12093991Y-14985508D01*
X12093991Y-14985508D02*
X12113039Y-14956936D01*
X12113039Y-14956936D02*
X12122563Y-14947412D01*
X12284468Y-14975984D02*
X12246372Y-14975984D01*
X12246372Y-14975984D02*
X12227325Y-14985508D01*
X12227325Y-14985508D02*
X12217801Y-14995031D01*
X12217801Y-14995031D02*
X12198753Y-15023603D01*
X12198753Y-15023603D02*
X12189229Y-15061698D01*
X12189229Y-15061698D02*
X12189229Y-15137888D01*
X12189229Y-15137888D02*
X12198753Y-15156936D01*
X12198753Y-15156936D02*
X12208277Y-15166460D01*
X12208277Y-15166460D02*
X12227325Y-15175984D01*
X12227325Y-15175984D02*
X12265420Y-15175984D01*
X12265420Y-15175984D02*
X12284468Y-15166460D01*
X12284468Y-15166460D02*
X12293991Y-15156936D01*
X12293991Y-15156936D02*
X12303515Y-15137888D01*
X12303515Y-15137888D02*
X12303515Y-15090269D01*
X12303515Y-15090269D02*
X12293991Y-15071222D01*
X12293991Y-15071222D02*
X12284468Y-15061698D01*
X12284468Y-15061698D02*
X12265420Y-15052174D01*
X12265420Y-15052174D02*
X12227325Y-15052174D01*
X12227325Y-15052174D02*
X12208277Y-15061698D01*
X12208277Y-15061698D02*
X12198753Y-15071222D01*
X12198753Y-15071222D02*
X12189229Y-15090269D01*
X12541610Y-15175984D02*
X12541610Y-14975984D01*
X12627325Y-15175984D02*
X12627325Y-15071222D01*
X12627325Y-15071222D02*
X12617801Y-15052174D01*
X12617801Y-15052174D02*
X12598753Y-15042650D01*
X12598753Y-15042650D02*
X12570182Y-15042650D01*
X12570182Y-15042650D02*
X12551134Y-15052174D01*
X12551134Y-15052174D02*
X12541610Y-15061698D01*
X12751134Y-15175984D02*
X12732087Y-15166460D01*
X12732087Y-15166460D02*
X12722563Y-15156936D01*
X12722563Y-15156936D02*
X12713039Y-15137888D01*
X12713039Y-15137888D02*
X12713039Y-15080746D01*
X12713039Y-15080746D02*
X12722563Y-15061698D01*
X12722563Y-15061698D02*
X12732087Y-15052174D01*
X12732087Y-15052174D02*
X12751134Y-15042650D01*
X12751134Y-15042650D02*
X12779706Y-15042650D01*
X12779706Y-15042650D02*
X12798753Y-15052174D01*
X12798753Y-15052174D02*
X12808277Y-15061698D01*
X12808277Y-15061698D02*
X12817801Y-15080746D01*
X12817801Y-15080746D02*
X12817801Y-15137888D01*
X12817801Y-15137888D02*
X12808277Y-15156936D01*
X12808277Y-15156936D02*
X12798753Y-15166460D01*
X12798753Y-15166460D02*
X12779706Y-15175984D01*
X12779706Y-15175984D02*
X12751134Y-15175984D01*
X12932087Y-15175984D02*
X12913039Y-15166460D01*
X12913039Y-15166460D02*
X12903515Y-15147412D01*
X12903515Y-15147412D02*
X12903515Y-14975984D01*
X13084468Y-15166460D02*
X13065420Y-15175984D01*
X13065420Y-15175984D02*
X13027325Y-15175984D01*
X13027325Y-15175984D02*
X13008277Y-15166460D01*
X13008277Y-15166460D02*
X12998753Y-15147412D01*
X12998753Y-15147412D02*
X12998753Y-15071222D01*
X12998753Y-15071222D02*
X13008277Y-15052174D01*
X13008277Y-15052174D02*
X13027325Y-15042650D01*
X13027325Y-15042650D02*
X13065420Y-15042650D01*
X13065420Y-15042650D02*
X13084468Y-15052174D01*
X13084468Y-15052174D02*
X13093991Y-15071222D01*
X13093991Y-15071222D02*
X13093991Y-15090269D01*
X13093991Y-15090269D02*
X12998753Y-15109317D01*
X13170182Y-15166460D02*
X13189230Y-15175984D01*
X13189230Y-15175984D02*
X13227325Y-15175984D01*
X13227325Y-15175984D02*
X13246372Y-15166460D01*
X13246372Y-15166460D02*
X13255896Y-15147412D01*
X13255896Y-15147412D02*
X13255896Y-15137888D01*
X13255896Y-15137888D02*
X13246372Y-15118841D01*
X13246372Y-15118841D02*
X13227325Y-15109317D01*
X13227325Y-15109317D02*
X13198753Y-15109317D01*
X13198753Y-15109317D02*
X13179706Y-15099793D01*
X13179706Y-15099793D02*
X13170182Y-15080746D01*
X13170182Y-15080746D02*
X13170182Y-15071222D01*
X13170182Y-15071222D02*
X13179706Y-15052174D01*
X13179706Y-15052174D02*
X13198753Y-15042650D01*
X13198753Y-15042650D02*
X13227325Y-15042650D01*
X13227325Y-15042650D02*
X13246372Y-15052174D01*
X13322563Y-15252174D02*
X13332087Y-15242650D01*
X13332087Y-15242650D02*
X13351134Y-15214079D01*
X13351134Y-15214079D02*
X13360658Y-15195031D01*
X13360658Y-15195031D02*
X13370182Y-15166460D01*
X13370182Y-15166460D02*
X13379706Y-15118841D01*
X13379706Y-15118841D02*
X13379706Y-15080746D01*
X13379706Y-15080746D02*
X13370182Y-15033127D01*
X13370182Y-15033127D02*
X13360658Y-15004555D01*
X13360658Y-15004555D02*
X13351134Y-14985508D01*
X13351134Y-14985508D02*
X13332087Y-14956936D01*
X13332087Y-14956936D02*
X13322563Y-14947412D01*
D14*
X8492500Y-15403500D02*
X8547500Y-15348500D01*
X8492500Y-15293500D01*
X8437500Y-15348500D01*
X8492500Y-15403500D01*
D11*
X8913039Y-15439984D02*
X8798753Y-15439984D01*
X8855896Y-15439984D02*
X8855896Y-15239984D01*
X8855896Y-15239984D02*
X8836848Y-15268555D01*
X8836848Y-15268555D02*
X8817801Y-15287603D01*
X8817801Y-15287603D02*
X8798753Y-15297127D01*
X8998753Y-15420936D02*
X9008277Y-15430460D01*
X9008277Y-15430460D02*
X8998753Y-15439984D01*
X8998753Y-15439984D02*
X8989229Y-15430460D01*
X8989229Y-15430460D02*
X8998753Y-15420936D01*
X8998753Y-15420936D02*
X8998753Y-15439984D01*
X9198753Y-15439984D02*
X9084467Y-15439984D01*
X9141610Y-15439984D02*
X9141610Y-15239984D01*
X9141610Y-15239984D02*
X9122563Y-15268555D01*
X9122563Y-15268555D02*
X9103515Y-15287603D01*
X9103515Y-15287603D02*
X9084467Y-15297127D01*
X9322563Y-15239984D02*
X9341610Y-15239984D01*
X9341610Y-15239984D02*
X9360658Y-15249508D01*
X9360658Y-15249508D02*
X9370182Y-15259031D01*
X9370182Y-15259031D02*
X9379705Y-15278079D01*
X9379705Y-15278079D02*
X9389229Y-15316174D01*
X9389229Y-15316174D02*
X9389229Y-15363793D01*
X9389229Y-15363793D02*
X9379705Y-15401888D01*
X9379705Y-15401888D02*
X9370182Y-15420936D01*
X9370182Y-15420936D02*
X9360658Y-15430460D01*
X9360658Y-15430460D02*
X9341610Y-15439984D01*
X9341610Y-15439984D02*
X9322563Y-15439984D01*
X9322563Y-15439984D02*
X9303515Y-15430460D01*
X9303515Y-15430460D02*
X9293991Y-15420936D01*
X9293991Y-15420936D02*
X9284467Y-15401888D01*
X9284467Y-15401888D02*
X9274944Y-15363793D01*
X9274944Y-15363793D02*
X9274944Y-15316174D01*
X9274944Y-15316174D02*
X9284467Y-15278079D01*
X9284467Y-15278079D02*
X9293991Y-15259031D01*
X9293991Y-15259031D02*
X9303515Y-15249508D01*
X9303515Y-15249508D02*
X9322563Y-15239984D01*
X9513039Y-15239984D02*
X9532086Y-15239984D01*
X9532086Y-15239984D02*
X9551134Y-15249508D01*
X9551134Y-15249508D02*
X9560658Y-15259031D01*
X9560658Y-15259031D02*
X9570182Y-15278079D01*
X9570182Y-15278079D02*
X9579705Y-15316174D01*
X9579705Y-15316174D02*
X9579705Y-15363793D01*
X9579705Y-15363793D02*
X9570182Y-15401888D01*
X9570182Y-15401888D02*
X9560658Y-15420936D01*
X9560658Y-15420936D02*
X9551134Y-15430460D01*
X9551134Y-15430460D02*
X9532086Y-15439984D01*
X9532086Y-15439984D02*
X9513039Y-15439984D01*
X9513039Y-15439984D02*
X9493991Y-15430460D01*
X9493991Y-15430460D02*
X9484467Y-15420936D01*
X9484467Y-15420936D02*
X9474944Y-15401888D01*
X9474944Y-15401888D02*
X9465420Y-15363793D01*
X9465420Y-15363793D02*
X9465420Y-15316174D01*
X9465420Y-15316174D02*
X9474944Y-15278079D01*
X9474944Y-15278079D02*
X9484467Y-15259031D01*
X9484467Y-15259031D02*
X9493991Y-15249508D01*
X9493991Y-15249508D02*
X9513039Y-15239984D01*
X9665420Y-15439984D02*
X9665420Y-15306650D01*
X9665420Y-15325698D02*
X9674944Y-15316174D01*
X9674944Y-15316174D02*
X9693991Y-15306650D01*
X9693991Y-15306650D02*
X9722563Y-15306650D01*
X9722563Y-15306650D02*
X9741610Y-15316174D01*
X9741610Y-15316174D02*
X9751134Y-15335222D01*
X9751134Y-15335222D02*
X9751134Y-15439984D01*
X9751134Y-15335222D02*
X9760658Y-15316174D01*
X9760658Y-15316174D02*
X9779705Y-15306650D01*
X9779705Y-15306650D02*
X9808277Y-15306650D01*
X9808277Y-15306650D02*
X9827325Y-15316174D01*
X9827325Y-15316174D02*
X9836848Y-15335222D01*
X9836848Y-15335222D02*
X9836848Y-15439984D01*
X9932086Y-15439984D02*
X9932086Y-15306650D01*
X9932086Y-15325698D02*
X9941610Y-15316174D01*
X9941610Y-15316174D02*
X9960658Y-15306650D01*
X9960658Y-15306650D02*
X9989229Y-15306650D01*
X9989229Y-15306650D02*
X10008277Y-15316174D01*
X10008277Y-15316174D02*
X10017801Y-15335222D01*
X10017801Y-15335222D02*
X10017801Y-15439984D01*
X10017801Y-15335222D02*
X10027325Y-15316174D01*
X10027325Y-15316174D02*
X10046372Y-15306650D01*
X10046372Y-15306650D02*
X10074944Y-15306650D01*
X10074944Y-15306650D02*
X10093991Y-15316174D01*
X10093991Y-15316174D02*
X10103515Y-15335222D01*
X10103515Y-15335222D02*
X10103515Y-15439984D01*
X10493991Y-15230460D02*
X10322563Y-15487603D01*
X10751134Y-15239984D02*
X10770182Y-15239984D01*
X10770182Y-15239984D02*
X10789229Y-15249508D01*
X10789229Y-15249508D02*
X10798753Y-15259031D01*
X10798753Y-15259031D02*
X10808277Y-15278079D01*
X10808277Y-15278079D02*
X10817801Y-15316174D01*
X10817801Y-15316174D02*
X10817801Y-15363793D01*
X10817801Y-15363793D02*
X10808277Y-15401888D01*
X10808277Y-15401888D02*
X10798753Y-15420936D01*
X10798753Y-15420936D02*
X10789229Y-15430460D01*
X10789229Y-15430460D02*
X10770182Y-15439984D01*
X10770182Y-15439984D02*
X10751134Y-15439984D01*
X10751134Y-15439984D02*
X10732087Y-15430460D01*
X10732087Y-15430460D02*
X10722563Y-15420936D01*
X10722563Y-15420936D02*
X10713039Y-15401888D01*
X10713039Y-15401888D02*
X10703515Y-15363793D01*
X10703515Y-15363793D02*
X10703515Y-15316174D01*
X10703515Y-15316174D02*
X10713039Y-15278079D01*
X10713039Y-15278079D02*
X10722563Y-15259031D01*
X10722563Y-15259031D02*
X10732087Y-15249508D01*
X10732087Y-15249508D02*
X10751134Y-15239984D01*
X10903515Y-15420936D02*
X10913039Y-15430460D01*
X10913039Y-15430460D02*
X10903515Y-15439984D01*
X10903515Y-15439984D02*
X10893991Y-15430460D01*
X10893991Y-15430460D02*
X10903515Y-15420936D01*
X10903515Y-15420936D02*
X10903515Y-15439984D01*
X11036848Y-15239984D02*
X11055896Y-15239984D01*
X11055896Y-15239984D02*
X11074944Y-15249508D01*
X11074944Y-15249508D02*
X11084468Y-15259031D01*
X11084468Y-15259031D02*
X11093991Y-15278079D01*
X11093991Y-15278079D02*
X11103515Y-15316174D01*
X11103515Y-15316174D02*
X11103515Y-15363793D01*
X11103515Y-15363793D02*
X11093991Y-15401888D01*
X11093991Y-15401888D02*
X11084468Y-15420936D01*
X11084468Y-15420936D02*
X11074944Y-15430460D01*
X11074944Y-15430460D02*
X11055896Y-15439984D01*
X11055896Y-15439984D02*
X11036848Y-15439984D01*
X11036848Y-15439984D02*
X11017801Y-15430460D01*
X11017801Y-15430460D02*
X11008277Y-15420936D01*
X11008277Y-15420936D02*
X10998753Y-15401888D01*
X10998753Y-15401888D02*
X10989229Y-15363793D01*
X10989229Y-15363793D02*
X10989229Y-15316174D01*
X10989229Y-15316174D02*
X10998753Y-15278079D01*
X10998753Y-15278079D02*
X11008277Y-15259031D01*
X11008277Y-15259031D02*
X11017801Y-15249508D01*
X11017801Y-15249508D02*
X11036848Y-15239984D01*
X11274944Y-15306650D02*
X11274944Y-15439984D01*
X11227325Y-15230460D02*
X11179706Y-15373317D01*
X11179706Y-15373317D02*
X11303515Y-15373317D01*
X11360658Y-15239984D02*
X11484467Y-15239984D01*
X11484467Y-15239984D02*
X11417801Y-15316174D01*
X11417801Y-15316174D02*
X11446372Y-15316174D01*
X11446372Y-15316174D02*
X11465420Y-15325698D01*
X11465420Y-15325698D02*
X11474944Y-15335222D01*
X11474944Y-15335222D02*
X11484467Y-15354269D01*
X11484467Y-15354269D02*
X11484467Y-15401888D01*
X11484467Y-15401888D02*
X11474944Y-15420936D01*
X11474944Y-15420936D02*
X11465420Y-15430460D01*
X11465420Y-15430460D02*
X11446372Y-15439984D01*
X11446372Y-15439984D02*
X11389229Y-15439984D01*
X11389229Y-15439984D02*
X11370182Y-15430460D01*
X11370182Y-15430460D02*
X11360658Y-15420936D01*
X11551134Y-15239984D02*
X11674944Y-15239984D01*
X11674944Y-15239984D02*
X11608277Y-15316174D01*
X11608277Y-15316174D02*
X11636848Y-15316174D01*
X11636848Y-15316174D02*
X11655896Y-15325698D01*
X11655896Y-15325698D02*
X11665420Y-15335222D01*
X11665420Y-15335222D02*
X11674944Y-15354269D01*
X11674944Y-15354269D02*
X11674944Y-15401888D01*
X11674944Y-15401888D02*
X11665420Y-15420936D01*
X11665420Y-15420936D02*
X11655896Y-15430460D01*
X11655896Y-15430460D02*
X11636848Y-15439984D01*
X11636848Y-15439984D02*
X11579706Y-15439984D01*
X11579706Y-15439984D02*
X11560658Y-15430460D01*
X11560658Y-15430460D02*
X11551134Y-15420936D01*
X11751134Y-15239984D02*
X11751134Y-15278079D01*
X11827325Y-15239984D02*
X11827325Y-15278079D01*
X12122563Y-15516174D02*
X12113039Y-15506650D01*
X12113039Y-15506650D02*
X12093991Y-15478079D01*
X12093991Y-15478079D02*
X12084468Y-15459031D01*
X12084468Y-15459031D02*
X12074944Y-15430460D01*
X12074944Y-15430460D02*
X12065420Y-15382841D01*
X12065420Y-15382841D02*
X12065420Y-15344746D01*
X12065420Y-15344746D02*
X12074944Y-15297127D01*
X12074944Y-15297127D02*
X12084468Y-15268555D01*
X12084468Y-15268555D02*
X12093991Y-15249508D01*
X12093991Y-15249508D02*
X12113039Y-15220936D01*
X12113039Y-15220936D02*
X12122563Y-15211412D01*
X12189229Y-15259031D02*
X12198753Y-15249508D01*
X12198753Y-15249508D02*
X12217801Y-15239984D01*
X12217801Y-15239984D02*
X12265420Y-15239984D01*
X12265420Y-15239984D02*
X12284468Y-15249508D01*
X12284468Y-15249508D02*
X12293991Y-15259031D01*
X12293991Y-15259031D02*
X12303515Y-15278079D01*
X12303515Y-15278079D02*
X12303515Y-15297127D01*
X12303515Y-15297127D02*
X12293991Y-15325698D01*
X12293991Y-15325698D02*
X12179706Y-15439984D01*
X12179706Y-15439984D02*
X12303515Y-15439984D01*
X12541610Y-15439984D02*
X12541610Y-15239984D01*
X12627325Y-15439984D02*
X12627325Y-15335222D01*
X12627325Y-15335222D02*
X12617801Y-15316174D01*
X12617801Y-15316174D02*
X12598753Y-15306650D01*
X12598753Y-15306650D02*
X12570182Y-15306650D01*
X12570182Y-15306650D02*
X12551134Y-15316174D01*
X12551134Y-15316174D02*
X12541610Y-15325698D01*
X12751134Y-15439984D02*
X12732087Y-15430460D01*
X12732087Y-15430460D02*
X12722563Y-15420936D01*
X12722563Y-15420936D02*
X12713039Y-15401888D01*
X12713039Y-15401888D02*
X12713039Y-15344746D01*
X12713039Y-15344746D02*
X12722563Y-15325698D01*
X12722563Y-15325698D02*
X12732087Y-15316174D01*
X12732087Y-15316174D02*
X12751134Y-15306650D01*
X12751134Y-15306650D02*
X12779706Y-15306650D01*
X12779706Y-15306650D02*
X12798753Y-15316174D01*
X12798753Y-15316174D02*
X12808277Y-15325698D01*
X12808277Y-15325698D02*
X12817801Y-15344746D01*
X12817801Y-15344746D02*
X12817801Y-15401888D01*
X12817801Y-15401888D02*
X12808277Y-15420936D01*
X12808277Y-15420936D02*
X12798753Y-15430460D01*
X12798753Y-15430460D02*
X12779706Y-15439984D01*
X12779706Y-15439984D02*
X12751134Y-15439984D01*
X12932087Y-15439984D02*
X12913039Y-15430460D01*
X12913039Y-15430460D02*
X12903515Y-15411412D01*
X12903515Y-15411412D02*
X12903515Y-15239984D01*
X13084468Y-15430460D02*
X13065420Y-15439984D01*
X13065420Y-15439984D02*
X13027325Y-15439984D01*
X13027325Y-15439984D02*
X13008277Y-15430460D01*
X13008277Y-15430460D02*
X12998753Y-15411412D01*
X12998753Y-15411412D02*
X12998753Y-15335222D01*
X12998753Y-15335222D02*
X13008277Y-15316174D01*
X13008277Y-15316174D02*
X13027325Y-15306650D01*
X13027325Y-15306650D02*
X13065420Y-15306650D01*
X13065420Y-15306650D02*
X13084468Y-15316174D01*
X13084468Y-15316174D02*
X13093991Y-15335222D01*
X13093991Y-15335222D02*
X13093991Y-15354269D01*
X13093991Y-15354269D02*
X12998753Y-15373317D01*
X13170182Y-15430460D02*
X13189230Y-15439984D01*
X13189230Y-15439984D02*
X13227325Y-15439984D01*
X13227325Y-15439984D02*
X13246372Y-15430460D01*
X13246372Y-15430460D02*
X13255896Y-15411412D01*
X13255896Y-15411412D02*
X13255896Y-15401888D01*
X13255896Y-15401888D02*
X13246372Y-15382841D01*
X13246372Y-15382841D02*
X13227325Y-15373317D01*
X13227325Y-15373317D02*
X13198753Y-15373317D01*
X13198753Y-15373317D02*
X13179706Y-15363793D01*
X13179706Y-15363793D02*
X13170182Y-15344746D01*
X13170182Y-15344746D02*
X13170182Y-15335222D01*
X13170182Y-15335222D02*
X13179706Y-15316174D01*
X13179706Y-15316174D02*
X13198753Y-15306650D01*
X13198753Y-15306650D02*
X13227325Y-15306650D01*
X13227325Y-15306650D02*
X13246372Y-15316174D01*
X13493992Y-15363793D02*
X13646373Y-15363793D01*
X13570182Y-15439984D02*
X13570182Y-15287603D01*
X13922563Y-15325698D02*
X13903515Y-15316174D01*
X13903515Y-15316174D02*
X13893992Y-15306650D01*
X13893992Y-15306650D02*
X13884468Y-15287603D01*
X13884468Y-15287603D02*
X13884468Y-15278079D01*
X13884468Y-15278079D02*
X13893992Y-15259031D01*
X13893992Y-15259031D02*
X13903515Y-15249508D01*
X13903515Y-15249508D02*
X13922563Y-15239984D01*
X13922563Y-15239984D02*
X13960658Y-15239984D01*
X13960658Y-15239984D02*
X13979706Y-15249508D01*
X13979706Y-15249508D02*
X13989230Y-15259031D01*
X13989230Y-15259031D02*
X13998753Y-15278079D01*
X13998753Y-15278079D02*
X13998753Y-15287603D01*
X13998753Y-15287603D02*
X13989230Y-15306650D01*
X13989230Y-15306650D02*
X13979706Y-15316174D01*
X13979706Y-15316174D02*
X13960658Y-15325698D01*
X13960658Y-15325698D02*
X13922563Y-15325698D01*
X13922563Y-15325698D02*
X13903515Y-15335222D01*
X13903515Y-15335222D02*
X13893992Y-15344746D01*
X13893992Y-15344746D02*
X13884468Y-15363793D01*
X13884468Y-15363793D02*
X13884468Y-15401888D01*
X13884468Y-15401888D02*
X13893992Y-15420936D01*
X13893992Y-15420936D02*
X13903515Y-15430460D01*
X13903515Y-15430460D02*
X13922563Y-15439984D01*
X13922563Y-15439984D02*
X13960658Y-15439984D01*
X13960658Y-15439984D02*
X13979706Y-15430460D01*
X13979706Y-15430460D02*
X13989230Y-15420936D01*
X13989230Y-15420936D02*
X13998753Y-15401888D01*
X13998753Y-15401888D02*
X13998753Y-15363793D01*
X13998753Y-15363793D02*
X13989230Y-15344746D01*
X13989230Y-15344746D02*
X13979706Y-15335222D01*
X13979706Y-15335222D02*
X13960658Y-15325698D01*
X14227325Y-15430460D02*
X14246373Y-15439984D01*
X14246373Y-15439984D02*
X14284468Y-15439984D01*
X14284468Y-15439984D02*
X14303515Y-15430460D01*
X14303515Y-15430460D02*
X14313039Y-15411412D01*
X14313039Y-15411412D02*
X14313039Y-15401888D01*
X14313039Y-15401888D02*
X14303515Y-15382841D01*
X14303515Y-15382841D02*
X14284468Y-15373317D01*
X14284468Y-15373317D02*
X14255896Y-15373317D01*
X14255896Y-15373317D02*
X14236849Y-15363793D01*
X14236849Y-15363793D02*
X14227325Y-15344746D01*
X14227325Y-15344746D02*
X14227325Y-15335222D01*
X14227325Y-15335222D02*
X14236849Y-15316174D01*
X14236849Y-15316174D02*
X14255896Y-15306650D01*
X14255896Y-15306650D02*
X14284468Y-15306650D01*
X14284468Y-15306650D02*
X14303515Y-15316174D01*
X14427325Y-15439984D02*
X14408277Y-15430460D01*
X14408277Y-15430460D02*
X14398754Y-15411412D01*
X14398754Y-15411412D02*
X14398754Y-15239984D01*
X14532087Y-15439984D02*
X14513039Y-15430460D01*
X14513039Y-15430460D02*
X14503515Y-15420936D01*
X14503515Y-15420936D02*
X14493992Y-15401888D01*
X14493992Y-15401888D02*
X14493992Y-15344746D01*
X14493992Y-15344746D02*
X14503515Y-15325698D01*
X14503515Y-15325698D02*
X14513039Y-15316174D01*
X14513039Y-15316174D02*
X14532087Y-15306650D01*
X14532087Y-15306650D02*
X14560658Y-15306650D01*
X14560658Y-15306650D02*
X14579706Y-15316174D01*
X14579706Y-15316174D02*
X14589230Y-15325698D01*
X14589230Y-15325698D02*
X14598754Y-15344746D01*
X14598754Y-15344746D02*
X14598754Y-15401888D01*
X14598754Y-15401888D02*
X14589230Y-15420936D01*
X14589230Y-15420936D02*
X14579706Y-15430460D01*
X14579706Y-15430460D02*
X14560658Y-15439984D01*
X14560658Y-15439984D02*
X14532087Y-15439984D01*
X14655896Y-15306650D02*
X14732087Y-15306650D01*
X14684468Y-15239984D02*
X14684468Y-15411412D01*
X14684468Y-15411412D02*
X14693992Y-15430460D01*
X14693992Y-15430460D02*
X14713039Y-15439984D01*
X14713039Y-15439984D02*
X14732087Y-15439984D01*
X14789230Y-15430460D02*
X14808277Y-15439984D01*
X14808277Y-15439984D02*
X14846373Y-15439984D01*
X14846373Y-15439984D02*
X14865420Y-15430460D01*
X14865420Y-15430460D02*
X14874944Y-15411412D01*
X14874944Y-15411412D02*
X14874944Y-15401888D01*
X14874944Y-15401888D02*
X14865420Y-15382841D01*
X14865420Y-15382841D02*
X14846373Y-15373317D01*
X14846373Y-15373317D02*
X14817801Y-15373317D01*
X14817801Y-15373317D02*
X14798754Y-15363793D01*
X14798754Y-15363793D02*
X14789230Y-15344746D01*
X14789230Y-15344746D02*
X14789230Y-15335222D01*
X14789230Y-15335222D02*
X14798754Y-15316174D01*
X14798754Y-15316174D02*
X14817801Y-15306650D01*
X14817801Y-15306650D02*
X14846373Y-15306650D01*
X14846373Y-15306650D02*
X14865420Y-15316174D01*
X14941611Y-15516174D02*
X14951135Y-15506650D01*
X14951135Y-15506650D02*
X14970182Y-15478079D01*
X14970182Y-15478079D02*
X14979706Y-15459031D01*
X14979706Y-15459031D02*
X14989230Y-15430460D01*
X14989230Y-15430460D02*
X14998754Y-15382841D01*
X14998754Y-15382841D02*
X14998754Y-15344746D01*
X14998754Y-15344746D02*
X14989230Y-15297127D01*
X14989230Y-15297127D02*
X14979706Y-15268555D01*
X14979706Y-15268555D02*
X14970182Y-15249508D01*
X14970182Y-15249508D02*
X14951135Y-15220936D01*
X14951135Y-15220936D02*
X14941611Y-15211412D01*
D15*
X8387500Y-15532500D02*
X8547500Y-15692500D01*
X8547500Y-15532500D02*
X8387500Y-15692500D01*
X8547500Y-15612500D02*
G75*
G02*
X8387500Y-15612500I-80000J0D01*
G01*
X8387500Y-15612500D02*
G75*
G02*
X8547500Y-15612500I80000J0D01*
G01*
D11*
X8913039Y-15703984D02*
X8798753Y-15703984D01*
X8855896Y-15703984D02*
X8855896Y-15503984D01*
X8855896Y-15503984D02*
X8836848Y-15532555D01*
X8836848Y-15532555D02*
X8817801Y-15551603D01*
X8817801Y-15551603D02*
X8798753Y-15561127D01*
X8998753Y-15684936D02*
X9008277Y-15694460D01*
X9008277Y-15694460D02*
X8998753Y-15703984D01*
X8998753Y-15703984D02*
X8989229Y-15694460D01*
X8989229Y-15694460D02*
X8998753Y-15684936D01*
X8998753Y-15684936D02*
X8998753Y-15703984D01*
X9179705Y-15503984D02*
X9141610Y-15503984D01*
X9141610Y-15503984D02*
X9122563Y-15513508D01*
X9122563Y-15513508D02*
X9113039Y-15523031D01*
X9113039Y-15523031D02*
X9093991Y-15551603D01*
X9093991Y-15551603D02*
X9084467Y-15589698D01*
X9084467Y-15589698D02*
X9084467Y-15665888D01*
X9084467Y-15665888D02*
X9093991Y-15684936D01*
X9093991Y-15684936D02*
X9103515Y-15694460D01*
X9103515Y-15694460D02*
X9122563Y-15703984D01*
X9122563Y-15703984D02*
X9160658Y-15703984D01*
X9160658Y-15703984D02*
X9179705Y-15694460D01*
X9179705Y-15694460D02*
X9189229Y-15684936D01*
X9189229Y-15684936D02*
X9198753Y-15665888D01*
X9198753Y-15665888D02*
X9198753Y-15618269D01*
X9198753Y-15618269D02*
X9189229Y-15599222D01*
X9189229Y-15599222D02*
X9179705Y-15589698D01*
X9179705Y-15589698D02*
X9160658Y-15580174D01*
X9160658Y-15580174D02*
X9122563Y-15580174D01*
X9122563Y-15580174D02*
X9103515Y-15589698D01*
X9103515Y-15589698D02*
X9093991Y-15599222D01*
X9093991Y-15599222D02*
X9084467Y-15618269D01*
X9322563Y-15503984D02*
X9341610Y-15503984D01*
X9341610Y-15503984D02*
X9360658Y-15513508D01*
X9360658Y-15513508D02*
X9370182Y-15523031D01*
X9370182Y-15523031D02*
X9379705Y-15542079D01*
X9379705Y-15542079D02*
X9389229Y-15580174D01*
X9389229Y-15580174D02*
X9389229Y-15627793D01*
X9389229Y-15627793D02*
X9379705Y-15665888D01*
X9379705Y-15665888D02*
X9370182Y-15684936D01*
X9370182Y-15684936D02*
X9360658Y-15694460D01*
X9360658Y-15694460D02*
X9341610Y-15703984D01*
X9341610Y-15703984D02*
X9322563Y-15703984D01*
X9322563Y-15703984D02*
X9303515Y-15694460D01*
X9303515Y-15694460D02*
X9293991Y-15684936D01*
X9293991Y-15684936D02*
X9284467Y-15665888D01*
X9284467Y-15665888D02*
X9274944Y-15627793D01*
X9274944Y-15627793D02*
X9274944Y-15580174D01*
X9274944Y-15580174D02*
X9284467Y-15542079D01*
X9284467Y-15542079D02*
X9293991Y-15523031D01*
X9293991Y-15523031D02*
X9303515Y-15513508D01*
X9303515Y-15513508D02*
X9322563Y-15503984D01*
X9513039Y-15503984D02*
X9532086Y-15503984D01*
X9532086Y-15503984D02*
X9551134Y-15513508D01*
X9551134Y-15513508D02*
X9560658Y-15523031D01*
X9560658Y-15523031D02*
X9570182Y-15542079D01*
X9570182Y-15542079D02*
X9579705Y-15580174D01*
X9579705Y-15580174D02*
X9579705Y-15627793D01*
X9579705Y-15627793D02*
X9570182Y-15665888D01*
X9570182Y-15665888D02*
X9560658Y-15684936D01*
X9560658Y-15684936D02*
X9551134Y-15694460D01*
X9551134Y-15694460D02*
X9532086Y-15703984D01*
X9532086Y-15703984D02*
X9513039Y-15703984D01*
X9513039Y-15703984D02*
X9493991Y-15694460D01*
X9493991Y-15694460D02*
X9484467Y-15684936D01*
X9484467Y-15684936D02*
X9474944Y-15665888D01*
X9474944Y-15665888D02*
X9465420Y-15627793D01*
X9465420Y-15627793D02*
X9465420Y-15580174D01*
X9465420Y-15580174D02*
X9474944Y-15542079D01*
X9474944Y-15542079D02*
X9484467Y-15523031D01*
X9484467Y-15523031D02*
X9493991Y-15513508D01*
X9493991Y-15513508D02*
X9513039Y-15503984D01*
X9665420Y-15703984D02*
X9665420Y-15570650D01*
X9665420Y-15589698D02*
X9674944Y-15580174D01*
X9674944Y-15580174D02*
X9693991Y-15570650D01*
X9693991Y-15570650D02*
X9722563Y-15570650D01*
X9722563Y-15570650D02*
X9741610Y-15580174D01*
X9741610Y-15580174D02*
X9751134Y-15599222D01*
X9751134Y-15599222D02*
X9751134Y-15703984D01*
X9751134Y-15599222D02*
X9760658Y-15580174D01*
X9760658Y-15580174D02*
X9779705Y-15570650D01*
X9779705Y-15570650D02*
X9808277Y-15570650D01*
X9808277Y-15570650D02*
X9827325Y-15580174D01*
X9827325Y-15580174D02*
X9836848Y-15599222D01*
X9836848Y-15599222D02*
X9836848Y-15703984D01*
X9932086Y-15703984D02*
X9932086Y-15570650D01*
X9932086Y-15589698D02*
X9941610Y-15580174D01*
X9941610Y-15580174D02*
X9960658Y-15570650D01*
X9960658Y-15570650D02*
X9989229Y-15570650D01*
X9989229Y-15570650D02*
X10008277Y-15580174D01*
X10008277Y-15580174D02*
X10017801Y-15599222D01*
X10017801Y-15599222D02*
X10017801Y-15703984D01*
X10017801Y-15599222D02*
X10027325Y-15580174D01*
X10027325Y-15580174D02*
X10046372Y-15570650D01*
X10046372Y-15570650D02*
X10074944Y-15570650D01*
X10074944Y-15570650D02*
X10093991Y-15580174D01*
X10093991Y-15580174D02*
X10103515Y-15599222D01*
X10103515Y-15599222D02*
X10103515Y-15703984D01*
X10493991Y-15494460D02*
X10322563Y-15751603D01*
X10751134Y-15503984D02*
X10770182Y-15503984D01*
X10770182Y-15503984D02*
X10789229Y-15513508D01*
X10789229Y-15513508D02*
X10798753Y-15523031D01*
X10798753Y-15523031D02*
X10808277Y-15542079D01*
X10808277Y-15542079D02*
X10817801Y-15580174D01*
X10817801Y-15580174D02*
X10817801Y-15627793D01*
X10817801Y-15627793D02*
X10808277Y-15665888D01*
X10808277Y-15665888D02*
X10798753Y-15684936D01*
X10798753Y-15684936D02*
X10789229Y-15694460D01*
X10789229Y-15694460D02*
X10770182Y-15703984D01*
X10770182Y-15703984D02*
X10751134Y-15703984D01*
X10751134Y-15703984D02*
X10732087Y-15694460D01*
X10732087Y-15694460D02*
X10722563Y-15684936D01*
X10722563Y-15684936D02*
X10713039Y-15665888D01*
X10713039Y-15665888D02*
X10703515Y-15627793D01*
X10703515Y-15627793D02*
X10703515Y-15580174D01*
X10703515Y-15580174D02*
X10713039Y-15542079D01*
X10713039Y-15542079D02*
X10722563Y-15523031D01*
X10722563Y-15523031D02*
X10732087Y-15513508D01*
X10732087Y-15513508D02*
X10751134Y-15503984D01*
X10903515Y-15684936D02*
X10913039Y-15694460D01*
X10913039Y-15694460D02*
X10903515Y-15703984D01*
X10903515Y-15703984D02*
X10893991Y-15694460D01*
X10893991Y-15694460D02*
X10903515Y-15684936D01*
X10903515Y-15684936D02*
X10903515Y-15703984D01*
X11036848Y-15503984D02*
X11055896Y-15503984D01*
X11055896Y-15503984D02*
X11074944Y-15513508D01*
X11074944Y-15513508D02*
X11084468Y-15523031D01*
X11084468Y-15523031D02*
X11093991Y-15542079D01*
X11093991Y-15542079D02*
X11103515Y-15580174D01*
X11103515Y-15580174D02*
X11103515Y-15627793D01*
X11103515Y-15627793D02*
X11093991Y-15665888D01*
X11093991Y-15665888D02*
X11084468Y-15684936D01*
X11084468Y-15684936D02*
X11074944Y-15694460D01*
X11074944Y-15694460D02*
X11055896Y-15703984D01*
X11055896Y-15703984D02*
X11036848Y-15703984D01*
X11036848Y-15703984D02*
X11017801Y-15694460D01*
X11017801Y-15694460D02*
X11008277Y-15684936D01*
X11008277Y-15684936D02*
X10998753Y-15665888D01*
X10998753Y-15665888D02*
X10989229Y-15627793D01*
X10989229Y-15627793D02*
X10989229Y-15580174D01*
X10989229Y-15580174D02*
X10998753Y-15542079D01*
X10998753Y-15542079D02*
X11008277Y-15523031D01*
X11008277Y-15523031D02*
X11017801Y-15513508D01*
X11017801Y-15513508D02*
X11036848Y-15503984D01*
X11274944Y-15503984D02*
X11236848Y-15503984D01*
X11236848Y-15503984D02*
X11217801Y-15513508D01*
X11217801Y-15513508D02*
X11208277Y-15523031D01*
X11208277Y-15523031D02*
X11189229Y-15551603D01*
X11189229Y-15551603D02*
X11179706Y-15589698D01*
X11179706Y-15589698D02*
X11179706Y-15665888D01*
X11179706Y-15665888D02*
X11189229Y-15684936D01*
X11189229Y-15684936D02*
X11198753Y-15694460D01*
X11198753Y-15694460D02*
X11217801Y-15703984D01*
X11217801Y-15703984D02*
X11255896Y-15703984D01*
X11255896Y-15703984D02*
X11274944Y-15694460D01*
X11274944Y-15694460D02*
X11284467Y-15684936D01*
X11284467Y-15684936D02*
X11293991Y-15665888D01*
X11293991Y-15665888D02*
X11293991Y-15618269D01*
X11293991Y-15618269D02*
X11284467Y-15599222D01*
X11284467Y-15599222D02*
X11274944Y-15589698D01*
X11274944Y-15589698D02*
X11255896Y-15580174D01*
X11255896Y-15580174D02*
X11217801Y-15580174D01*
X11217801Y-15580174D02*
X11198753Y-15589698D01*
X11198753Y-15589698D02*
X11189229Y-15599222D01*
X11189229Y-15599222D02*
X11179706Y-15618269D01*
X11360658Y-15503984D02*
X11484467Y-15503984D01*
X11484467Y-15503984D02*
X11417801Y-15580174D01*
X11417801Y-15580174D02*
X11446372Y-15580174D01*
X11446372Y-15580174D02*
X11465420Y-15589698D01*
X11465420Y-15589698D02*
X11474944Y-15599222D01*
X11474944Y-15599222D02*
X11484467Y-15618269D01*
X11484467Y-15618269D02*
X11484467Y-15665888D01*
X11484467Y-15665888D02*
X11474944Y-15684936D01*
X11474944Y-15684936D02*
X11465420Y-15694460D01*
X11465420Y-15694460D02*
X11446372Y-15703984D01*
X11446372Y-15703984D02*
X11389229Y-15703984D01*
X11389229Y-15703984D02*
X11370182Y-15694460D01*
X11370182Y-15694460D02*
X11360658Y-15684936D01*
X11608277Y-15503984D02*
X11627325Y-15503984D01*
X11627325Y-15503984D02*
X11646372Y-15513508D01*
X11646372Y-15513508D02*
X11655896Y-15523031D01*
X11655896Y-15523031D02*
X11665420Y-15542079D01*
X11665420Y-15542079D02*
X11674944Y-15580174D01*
X11674944Y-15580174D02*
X11674944Y-15627793D01*
X11674944Y-15627793D02*
X11665420Y-15665888D01*
X11665420Y-15665888D02*
X11655896Y-15684936D01*
X11655896Y-15684936D02*
X11646372Y-15694460D01*
X11646372Y-15694460D02*
X11627325Y-15703984D01*
X11627325Y-15703984D02*
X11608277Y-15703984D01*
X11608277Y-15703984D02*
X11589229Y-15694460D01*
X11589229Y-15694460D02*
X11579706Y-15684936D01*
X11579706Y-15684936D02*
X11570182Y-15665888D01*
X11570182Y-15665888D02*
X11560658Y-15627793D01*
X11560658Y-15627793D02*
X11560658Y-15580174D01*
X11560658Y-15580174D02*
X11570182Y-15542079D01*
X11570182Y-15542079D02*
X11579706Y-15523031D01*
X11579706Y-15523031D02*
X11589229Y-15513508D01*
X11589229Y-15513508D02*
X11608277Y-15503984D01*
X11751134Y-15503984D02*
X11751134Y-15542079D01*
X11827325Y-15503984D02*
X11827325Y-15542079D01*
X12122563Y-15780174D02*
X12113039Y-15770650D01*
X12113039Y-15770650D02*
X12093991Y-15742079D01*
X12093991Y-15742079D02*
X12084468Y-15723031D01*
X12084468Y-15723031D02*
X12074944Y-15694460D01*
X12074944Y-15694460D02*
X12065420Y-15646841D01*
X12065420Y-15646841D02*
X12065420Y-15608746D01*
X12065420Y-15608746D02*
X12074944Y-15561127D01*
X12074944Y-15561127D02*
X12084468Y-15532555D01*
X12084468Y-15532555D02*
X12093991Y-15513508D01*
X12093991Y-15513508D02*
X12113039Y-15484936D01*
X12113039Y-15484936D02*
X12122563Y-15475412D01*
X12179706Y-15503984D02*
X12303515Y-15503984D01*
X12303515Y-15503984D02*
X12236848Y-15580174D01*
X12236848Y-15580174D02*
X12265420Y-15580174D01*
X12265420Y-15580174D02*
X12284468Y-15589698D01*
X12284468Y-15589698D02*
X12293991Y-15599222D01*
X12293991Y-15599222D02*
X12303515Y-15618269D01*
X12303515Y-15618269D02*
X12303515Y-15665888D01*
X12303515Y-15665888D02*
X12293991Y-15684936D01*
X12293991Y-15684936D02*
X12284468Y-15694460D01*
X12284468Y-15694460D02*
X12265420Y-15703984D01*
X12265420Y-15703984D02*
X12208277Y-15703984D01*
X12208277Y-15703984D02*
X12189229Y-15694460D01*
X12189229Y-15694460D02*
X12179706Y-15684936D01*
X12379706Y-15523031D02*
X12389229Y-15513508D01*
X12389229Y-15513508D02*
X12408277Y-15503984D01*
X12408277Y-15503984D02*
X12455896Y-15503984D01*
X12455896Y-15503984D02*
X12474944Y-15513508D01*
X12474944Y-15513508D02*
X12484468Y-15523031D01*
X12484468Y-15523031D02*
X12493991Y-15542079D01*
X12493991Y-15542079D02*
X12493991Y-15561127D01*
X12493991Y-15561127D02*
X12484468Y-15589698D01*
X12484468Y-15589698D02*
X12370182Y-15703984D01*
X12370182Y-15703984D02*
X12493991Y-15703984D01*
X12732087Y-15703984D02*
X12732087Y-15503984D01*
X12817801Y-15703984D02*
X12817801Y-15599222D01*
X12817801Y-15599222D02*
X12808277Y-15580174D01*
X12808277Y-15580174D02*
X12789230Y-15570650D01*
X12789230Y-15570650D02*
X12760658Y-15570650D01*
X12760658Y-15570650D02*
X12741610Y-15580174D01*
X12741610Y-15580174D02*
X12732087Y-15589698D01*
X12941610Y-15703984D02*
X12922563Y-15694460D01*
X12922563Y-15694460D02*
X12913039Y-15684936D01*
X12913039Y-15684936D02*
X12903515Y-15665888D01*
X12903515Y-15665888D02*
X12903515Y-15608746D01*
X12903515Y-15608746D02*
X12913039Y-15589698D01*
X12913039Y-15589698D02*
X12922563Y-15580174D01*
X12922563Y-15580174D02*
X12941610Y-15570650D01*
X12941610Y-15570650D02*
X12970182Y-15570650D01*
X12970182Y-15570650D02*
X12989230Y-15580174D01*
X12989230Y-15580174D02*
X12998753Y-15589698D01*
X12998753Y-15589698D02*
X13008277Y-15608746D01*
X13008277Y-15608746D02*
X13008277Y-15665888D01*
X13008277Y-15665888D02*
X12998753Y-15684936D01*
X12998753Y-15684936D02*
X12989230Y-15694460D01*
X12989230Y-15694460D02*
X12970182Y-15703984D01*
X12970182Y-15703984D02*
X12941610Y-15703984D01*
X13122563Y-15703984D02*
X13103515Y-15694460D01*
X13103515Y-15694460D02*
X13093991Y-15675412D01*
X13093991Y-15675412D02*
X13093991Y-15503984D01*
X13274944Y-15694460D02*
X13255896Y-15703984D01*
X13255896Y-15703984D02*
X13217801Y-15703984D01*
X13217801Y-15703984D02*
X13198753Y-15694460D01*
X13198753Y-15694460D02*
X13189230Y-15675412D01*
X13189230Y-15675412D02*
X13189230Y-15599222D01*
X13189230Y-15599222D02*
X13198753Y-15580174D01*
X13198753Y-15580174D02*
X13217801Y-15570650D01*
X13217801Y-15570650D02*
X13255896Y-15570650D01*
X13255896Y-15570650D02*
X13274944Y-15580174D01*
X13274944Y-15580174D02*
X13284468Y-15599222D01*
X13284468Y-15599222D02*
X13284468Y-15618269D01*
X13284468Y-15618269D02*
X13189230Y-15637317D01*
X13360658Y-15694460D02*
X13379706Y-15703984D01*
X13379706Y-15703984D02*
X13417801Y-15703984D01*
X13417801Y-15703984D02*
X13436849Y-15694460D01*
X13436849Y-15694460D02*
X13446372Y-15675412D01*
X13446372Y-15675412D02*
X13446372Y-15665888D01*
X13446372Y-15665888D02*
X13436849Y-15646841D01*
X13436849Y-15646841D02*
X13417801Y-15637317D01*
X13417801Y-15637317D02*
X13389230Y-15637317D01*
X13389230Y-15637317D02*
X13370182Y-15627793D01*
X13370182Y-15627793D02*
X13360658Y-15608746D01*
X13360658Y-15608746D02*
X13360658Y-15599222D01*
X13360658Y-15599222D02*
X13370182Y-15580174D01*
X13370182Y-15580174D02*
X13389230Y-15570650D01*
X13389230Y-15570650D02*
X13417801Y-15570650D01*
X13417801Y-15570650D02*
X13436849Y-15580174D01*
X13684468Y-15627793D02*
X13836849Y-15627793D01*
X13760658Y-15703984D02*
X13760658Y-15551603D01*
X14093992Y-15703984D02*
X14132087Y-15703984D01*
X14132087Y-15703984D02*
X14151134Y-15694460D01*
X14151134Y-15694460D02*
X14160658Y-15684936D01*
X14160658Y-15684936D02*
X14179706Y-15656365D01*
X14179706Y-15656365D02*
X14189230Y-15618269D01*
X14189230Y-15618269D02*
X14189230Y-15542079D01*
X14189230Y-15542079D02*
X14179706Y-15523031D01*
X14179706Y-15523031D02*
X14170182Y-15513508D01*
X14170182Y-15513508D02*
X14151134Y-15503984D01*
X14151134Y-15503984D02*
X14113039Y-15503984D01*
X14113039Y-15503984D02*
X14093992Y-15513508D01*
X14093992Y-15513508D02*
X14084468Y-15523031D01*
X14084468Y-15523031D02*
X14074944Y-15542079D01*
X14074944Y-15542079D02*
X14074944Y-15589698D01*
X14074944Y-15589698D02*
X14084468Y-15608746D01*
X14084468Y-15608746D02*
X14093992Y-15618269D01*
X14093992Y-15618269D02*
X14113039Y-15627793D01*
X14113039Y-15627793D02*
X14151134Y-15627793D01*
X14151134Y-15627793D02*
X14170182Y-15618269D01*
X14170182Y-15618269D02*
X14179706Y-15608746D01*
X14179706Y-15608746D02*
X14189230Y-15589698D01*
X14417801Y-15694460D02*
X14436849Y-15703984D01*
X14436849Y-15703984D02*
X14474944Y-15703984D01*
X14474944Y-15703984D02*
X14493992Y-15694460D01*
X14493992Y-15694460D02*
X14503515Y-15675412D01*
X14503515Y-15675412D02*
X14503515Y-15665888D01*
X14503515Y-15665888D02*
X14493992Y-15646841D01*
X14493992Y-15646841D02*
X14474944Y-15637317D01*
X14474944Y-15637317D02*
X14446373Y-15637317D01*
X14446373Y-15637317D02*
X14427325Y-15627793D01*
X14427325Y-15627793D02*
X14417801Y-15608746D01*
X14417801Y-15608746D02*
X14417801Y-15599222D01*
X14417801Y-15599222D02*
X14427325Y-15580174D01*
X14427325Y-15580174D02*
X14446373Y-15570650D01*
X14446373Y-15570650D02*
X14474944Y-15570650D01*
X14474944Y-15570650D02*
X14493992Y-15580174D01*
X14617801Y-15703984D02*
X14598754Y-15694460D01*
X14598754Y-15694460D02*
X14589230Y-15675412D01*
X14589230Y-15675412D02*
X14589230Y-15503984D01*
X14722563Y-15703984D02*
X14703515Y-15694460D01*
X14703515Y-15694460D02*
X14693992Y-15684936D01*
X14693992Y-15684936D02*
X14684468Y-15665888D01*
X14684468Y-15665888D02*
X14684468Y-15608746D01*
X14684468Y-15608746D02*
X14693992Y-15589698D01*
X14693992Y-15589698D02*
X14703515Y-15580174D01*
X14703515Y-15580174D02*
X14722563Y-15570650D01*
X14722563Y-15570650D02*
X14751135Y-15570650D01*
X14751135Y-15570650D02*
X14770182Y-15580174D01*
X14770182Y-15580174D02*
X14779706Y-15589698D01*
X14779706Y-15589698D02*
X14789230Y-15608746D01*
X14789230Y-15608746D02*
X14789230Y-15665888D01*
X14789230Y-15665888D02*
X14779706Y-15684936D01*
X14779706Y-15684936D02*
X14770182Y-15694460D01*
X14770182Y-15694460D02*
X14751135Y-15703984D01*
X14751135Y-15703984D02*
X14722563Y-15703984D01*
X14846373Y-15570650D02*
X14922563Y-15570650D01*
X14874944Y-15503984D02*
X14874944Y-15675412D01*
X14874944Y-15675412D02*
X14884468Y-15694460D01*
X14884468Y-15694460D02*
X14903515Y-15703984D01*
X14903515Y-15703984D02*
X14922563Y-15703984D01*
X14979706Y-15694460D02*
X14998754Y-15703984D01*
X14998754Y-15703984D02*
X15036849Y-15703984D01*
X15036849Y-15703984D02*
X15055896Y-15694460D01*
X15055896Y-15694460D02*
X15065420Y-15675412D01*
X15065420Y-15675412D02*
X15065420Y-15665888D01*
X15065420Y-15665888D02*
X15055896Y-15646841D01*
X15055896Y-15646841D02*
X15036849Y-15637317D01*
X15036849Y-15637317D02*
X15008277Y-15637317D01*
X15008277Y-15637317D02*
X14989230Y-15627793D01*
X14989230Y-15627793D02*
X14979706Y-15608746D01*
X14979706Y-15608746D02*
X14979706Y-15599222D01*
X14979706Y-15599222D02*
X14989230Y-15580174D01*
X14989230Y-15580174D02*
X15008277Y-15570650D01*
X15008277Y-15570650D02*
X15036849Y-15570650D01*
X15036849Y-15570650D02*
X15055896Y-15580174D01*
X15132087Y-15780174D02*
X15141611Y-15770650D01*
X15141611Y-15770650D02*
X15160658Y-15742079D01*
X15160658Y-15742079D02*
X15170182Y-15723031D01*
X15170182Y-15723031D02*
X15179706Y-15694460D01*
X15179706Y-15694460D02*
X15189230Y-15646841D01*
X15189230Y-15646841D02*
X15189230Y-15608746D01*
X15189230Y-15608746D02*
X15179706Y-15561127D01*
X15179706Y-15561127D02*
X15170182Y-15532555D01*
X15170182Y-15532555D02*
X15160658Y-15513508D01*
X15160658Y-15513508D02*
X15141611Y-15484936D01*
X15141611Y-15484936D02*
X15132087Y-15475412D01*
X8347500Y-15792500D02*
X8547500Y-15992500D01*
X8547500Y-15792500D02*
X8347500Y-15992500D01*
X8447500Y-15792500D02*
X8447500Y-15992500D01*
X8347500Y-15892500D02*
X8547500Y-15892500D01*
X8798753Y-15803031D02*
X8808277Y-15793508D01*
X8808277Y-15793508D02*
X8827324Y-15783984D01*
X8827324Y-15783984D02*
X8874944Y-15783984D01*
X8874944Y-15783984D02*
X8893991Y-15793508D01*
X8893991Y-15793508D02*
X8903515Y-15803031D01*
X8903515Y-15803031D02*
X8913039Y-15822079D01*
X8913039Y-15822079D02*
X8913039Y-15841127D01*
X8913039Y-15841127D02*
X8903515Y-15869698D01*
X8903515Y-15869698D02*
X8789229Y-15983984D01*
X8789229Y-15983984D02*
X8913039Y-15983984D01*
X8998753Y-15964936D02*
X9008277Y-15974460D01*
X9008277Y-15974460D02*
X8998753Y-15983984D01*
X8998753Y-15983984D02*
X8989229Y-15974460D01*
X8989229Y-15974460D02*
X8998753Y-15964936D01*
X8998753Y-15964936D02*
X8998753Y-15983984D01*
X9132086Y-15783984D02*
X9151134Y-15783984D01*
X9151134Y-15783984D02*
X9170182Y-15793508D01*
X9170182Y-15793508D02*
X9179705Y-15803031D01*
X9179705Y-15803031D02*
X9189229Y-15822079D01*
X9189229Y-15822079D02*
X9198753Y-15860174D01*
X9198753Y-15860174D02*
X9198753Y-15907793D01*
X9198753Y-15907793D02*
X9189229Y-15945888D01*
X9189229Y-15945888D02*
X9179705Y-15964936D01*
X9179705Y-15964936D02*
X9170182Y-15974460D01*
X9170182Y-15974460D02*
X9151134Y-15983984D01*
X9151134Y-15983984D02*
X9132086Y-15983984D01*
X9132086Y-15983984D02*
X9113039Y-15974460D01*
X9113039Y-15974460D02*
X9103515Y-15964936D01*
X9103515Y-15964936D02*
X9093991Y-15945888D01*
X9093991Y-15945888D02*
X9084467Y-15907793D01*
X9084467Y-15907793D02*
X9084467Y-15860174D01*
X9084467Y-15860174D02*
X9093991Y-15822079D01*
X9093991Y-15822079D02*
X9103515Y-15803031D01*
X9103515Y-15803031D02*
X9113039Y-15793508D01*
X9113039Y-15793508D02*
X9132086Y-15783984D01*
X9322563Y-15783984D02*
X9341610Y-15783984D01*
X9341610Y-15783984D02*
X9360658Y-15793508D01*
X9360658Y-15793508D02*
X9370182Y-15803031D01*
X9370182Y-15803031D02*
X9379705Y-15822079D01*
X9379705Y-15822079D02*
X9389229Y-15860174D01*
X9389229Y-15860174D02*
X9389229Y-15907793D01*
X9389229Y-15907793D02*
X9379705Y-15945888D01*
X9379705Y-15945888D02*
X9370182Y-15964936D01*
X9370182Y-15964936D02*
X9360658Y-15974460D01*
X9360658Y-15974460D02*
X9341610Y-15983984D01*
X9341610Y-15983984D02*
X9322563Y-15983984D01*
X9322563Y-15983984D02*
X9303515Y-15974460D01*
X9303515Y-15974460D02*
X9293991Y-15964936D01*
X9293991Y-15964936D02*
X9284467Y-15945888D01*
X9284467Y-15945888D02*
X9274944Y-15907793D01*
X9274944Y-15907793D02*
X9274944Y-15860174D01*
X9274944Y-15860174D02*
X9284467Y-15822079D01*
X9284467Y-15822079D02*
X9293991Y-15803031D01*
X9293991Y-15803031D02*
X9303515Y-15793508D01*
X9303515Y-15793508D02*
X9322563Y-15783984D01*
X9513039Y-15783984D02*
X9532086Y-15783984D01*
X9532086Y-15783984D02*
X9551134Y-15793508D01*
X9551134Y-15793508D02*
X9560658Y-15803031D01*
X9560658Y-15803031D02*
X9570182Y-15822079D01*
X9570182Y-15822079D02*
X9579705Y-15860174D01*
X9579705Y-15860174D02*
X9579705Y-15907793D01*
X9579705Y-15907793D02*
X9570182Y-15945888D01*
X9570182Y-15945888D02*
X9560658Y-15964936D01*
X9560658Y-15964936D02*
X9551134Y-15974460D01*
X9551134Y-15974460D02*
X9532086Y-15983984D01*
X9532086Y-15983984D02*
X9513039Y-15983984D01*
X9513039Y-15983984D02*
X9493991Y-15974460D01*
X9493991Y-15974460D02*
X9484467Y-15964936D01*
X9484467Y-15964936D02*
X9474944Y-15945888D01*
X9474944Y-15945888D02*
X9465420Y-15907793D01*
X9465420Y-15907793D02*
X9465420Y-15860174D01*
X9465420Y-15860174D02*
X9474944Y-15822079D01*
X9474944Y-15822079D02*
X9484467Y-15803031D01*
X9484467Y-15803031D02*
X9493991Y-15793508D01*
X9493991Y-15793508D02*
X9513039Y-15783984D01*
X9665420Y-15983984D02*
X9665420Y-15850650D01*
X9665420Y-15869698D02*
X9674944Y-15860174D01*
X9674944Y-15860174D02*
X9693991Y-15850650D01*
X9693991Y-15850650D02*
X9722563Y-15850650D01*
X9722563Y-15850650D02*
X9741610Y-15860174D01*
X9741610Y-15860174D02*
X9751134Y-15879222D01*
X9751134Y-15879222D02*
X9751134Y-15983984D01*
X9751134Y-15879222D02*
X9760658Y-15860174D01*
X9760658Y-15860174D02*
X9779705Y-15850650D01*
X9779705Y-15850650D02*
X9808277Y-15850650D01*
X9808277Y-15850650D02*
X9827325Y-15860174D01*
X9827325Y-15860174D02*
X9836848Y-15879222D01*
X9836848Y-15879222D02*
X9836848Y-15983984D01*
X9932086Y-15983984D02*
X9932086Y-15850650D01*
X9932086Y-15869698D02*
X9941610Y-15860174D01*
X9941610Y-15860174D02*
X9960658Y-15850650D01*
X9960658Y-15850650D02*
X9989229Y-15850650D01*
X9989229Y-15850650D02*
X10008277Y-15860174D01*
X10008277Y-15860174D02*
X10017801Y-15879222D01*
X10017801Y-15879222D02*
X10017801Y-15983984D01*
X10017801Y-15879222D02*
X10027325Y-15860174D01*
X10027325Y-15860174D02*
X10046372Y-15850650D01*
X10046372Y-15850650D02*
X10074944Y-15850650D01*
X10074944Y-15850650D02*
X10093991Y-15860174D01*
X10093991Y-15860174D02*
X10103515Y-15879222D01*
X10103515Y-15879222D02*
X10103515Y-15983984D01*
X10493991Y-15774460D02*
X10322563Y-16031603D01*
X10751134Y-15783984D02*
X10770182Y-15783984D01*
X10770182Y-15783984D02*
X10789229Y-15793508D01*
X10789229Y-15793508D02*
X10798753Y-15803031D01*
X10798753Y-15803031D02*
X10808277Y-15822079D01*
X10808277Y-15822079D02*
X10817801Y-15860174D01*
X10817801Y-15860174D02*
X10817801Y-15907793D01*
X10817801Y-15907793D02*
X10808277Y-15945888D01*
X10808277Y-15945888D02*
X10798753Y-15964936D01*
X10798753Y-15964936D02*
X10789229Y-15974460D01*
X10789229Y-15974460D02*
X10770182Y-15983984D01*
X10770182Y-15983984D02*
X10751134Y-15983984D01*
X10751134Y-15983984D02*
X10732087Y-15974460D01*
X10732087Y-15974460D02*
X10722563Y-15964936D01*
X10722563Y-15964936D02*
X10713039Y-15945888D01*
X10713039Y-15945888D02*
X10703515Y-15907793D01*
X10703515Y-15907793D02*
X10703515Y-15860174D01*
X10703515Y-15860174D02*
X10713039Y-15822079D01*
X10713039Y-15822079D02*
X10722563Y-15803031D01*
X10722563Y-15803031D02*
X10732087Y-15793508D01*
X10732087Y-15793508D02*
X10751134Y-15783984D01*
X10903515Y-15964936D02*
X10913039Y-15974460D01*
X10913039Y-15974460D02*
X10903515Y-15983984D01*
X10903515Y-15983984D02*
X10893991Y-15974460D01*
X10893991Y-15974460D02*
X10903515Y-15964936D01*
X10903515Y-15964936D02*
X10903515Y-15983984D01*
X11036848Y-15783984D02*
X11055896Y-15783984D01*
X11055896Y-15783984D02*
X11074944Y-15793508D01*
X11074944Y-15793508D02*
X11084468Y-15803031D01*
X11084468Y-15803031D02*
X11093991Y-15822079D01*
X11093991Y-15822079D02*
X11103515Y-15860174D01*
X11103515Y-15860174D02*
X11103515Y-15907793D01*
X11103515Y-15907793D02*
X11093991Y-15945888D01*
X11093991Y-15945888D02*
X11084468Y-15964936D01*
X11084468Y-15964936D02*
X11074944Y-15974460D01*
X11074944Y-15974460D02*
X11055896Y-15983984D01*
X11055896Y-15983984D02*
X11036848Y-15983984D01*
X11036848Y-15983984D02*
X11017801Y-15974460D01*
X11017801Y-15974460D02*
X11008277Y-15964936D01*
X11008277Y-15964936D02*
X10998753Y-15945888D01*
X10998753Y-15945888D02*
X10989229Y-15907793D01*
X10989229Y-15907793D02*
X10989229Y-15860174D01*
X10989229Y-15860174D02*
X10998753Y-15822079D01*
X10998753Y-15822079D02*
X11008277Y-15803031D01*
X11008277Y-15803031D02*
X11017801Y-15793508D01*
X11017801Y-15793508D02*
X11036848Y-15783984D01*
X11170182Y-15783984D02*
X11303515Y-15783984D01*
X11303515Y-15783984D02*
X11217801Y-15983984D01*
X11408277Y-15869698D02*
X11389229Y-15860174D01*
X11389229Y-15860174D02*
X11379706Y-15850650D01*
X11379706Y-15850650D02*
X11370182Y-15831603D01*
X11370182Y-15831603D02*
X11370182Y-15822079D01*
X11370182Y-15822079D02*
X11379706Y-15803031D01*
X11379706Y-15803031D02*
X11389229Y-15793508D01*
X11389229Y-15793508D02*
X11408277Y-15783984D01*
X11408277Y-15783984D02*
X11446372Y-15783984D01*
X11446372Y-15783984D02*
X11465420Y-15793508D01*
X11465420Y-15793508D02*
X11474944Y-15803031D01*
X11474944Y-15803031D02*
X11484467Y-15822079D01*
X11484467Y-15822079D02*
X11484467Y-15831603D01*
X11484467Y-15831603D02*
X11474944Y-15850650D01*
X11474944Y-15850650D02*
X11465420Y-15860174D01*
X11465420Y-15860174D02*
X11446372Y-15869698D01*
X11446372Y-15869698D02*
X11408277Y-15869698D01*
X11408277Y-15869698D02*
X11389229Y-15879222D01*
X11389229Y-15879222D02*
X11379706Y-15888746D01*
X11379706Y-15888746D02*
X11370182Y-15907793D01*
X11370182Y-15907793D02*
X11370182Y-15945888D01*
X11370182Y-15945888D02*
X11379706Y-15964936D01*
X11379706Y-15964936D02*
X11389229Y-15974460D01*
X11389229Y-15974460D02*
X11408277Y-15983984D01*
X11408277Y-15983984D02*
X11446372Y-15983984D01*
X11446372Y-15983984D02*
X11465420Y-15974460D01*
X11465420Y-15974460D02*
X11474944Y-15964936D01*
X11474944Y-15964936D02*
X11484467Y-15945888D01*
X11484467Y-15945888D02*
X11484467Y-15907793D01*
X11484467Y-15907793D02*
X11474944Y-15888746D01*
X11474944Y-15888746D02*
X11465420Y-15879222D01*
X11465420Y-15879222D02*
X11446372Y-15869698D01*
X11551134Y-15783984D02*
X11684467Y-15783984D01*
X11684467Y-15783984D02*
X11598753Y-15983984D01*
X11751134Y-15783984D02*
X11751134Y-15822079D01*
X11827325Y-15783984D02*
X11827325Y-15822079D01*
X12122563Y-16060174D02*
X12113039Y-16050650D01*
X12113039Y-16050650D02*
X12093991Y-16022079D01*
X12093991Y-16022079D02*
X12084468Y-16003031D01*
X12084468Y-16003031D02*
X12074944Y-15974460D01*
X12074944Y-15974460D02*
X12065420Y-15926841D01*
X12065420Y-15926841D02*
X12065420Y-15888746D01*
X12065420Y-15888746D02*
X12074944Y-15841127D01*
X12074944Y-15841127D02*
X12084468Y-15812555D01*
X12084468Y-15812555D02*
X12093991Y-15793508D01*
X12093991Y-15793508D02*
X12113039Y-15764936D01*
X12113039Y-15764936D02*
X12122563Y-15755412D01*
X12284468Y-15783984D02*
X12246372Y-15783984D01*
X12246372Y-15783984D02*
X12227325Y-15793508D01*
X12227325Y-15793508D02*
X12217801Y-15803031D01*
X12217801Y-15803031D02*
X12198753Y-15831603D01*
X12198753Y-15831603D02*
X12189229Y-15869698D01*
X12189229Y-15869698D02*
X12189229Y-15945888D01*
X12189229Y-15945888D02*
X12198753Y-15964936D01*
X12198753Y-15964936D02*
X12208277Y-15974460D01*
X12208277Y-15974460D02*
X12227325Y-15983984D01*
X12227325Y-15983984D02*
X12265420Y-15983984D01*
X12265420Y-15983984D02*
X12284468Y-15974460D01*
X12284468Y-15974460D02*
X12293991Y-15964936D01*
X12293991Y-15964936D02*
X12303515Y-15945888D01*
X12303515Y-15945888D02*
X12303515Y-15898269D01*
X12303515Y-15898269D02*
X12293991Y-15879222D01*
X12293991Y-15879222D02*
X12284468Y-15869698D01*
X12284468Y-15869698D02*
X12265420Y-15860174D01*
X12265420Y-15860174D02*
X12227325Y-15860174D01*
X12227325Y-15860174D02*
X12208277Y-15869698D01*
X12208277Y-15869698D02*
X12198753Y-15879222D01*
X12198753Y-15879222D02*
X12189229Y-15898269D01*
X12541610Y-15983984D02*
X12541610Y-15783984D01*
X12627325Y-15983984D02*
X12627325Y-15879222D01*
X12627325Y-15879222D02*
X12617801Y-15860174D01*
X12617801Y-15860174D02*
X12598753Y-15850650D01*
X12598753Y-15850650D02*
X12570182Y-15850650D01*
X12570182Y-15850650D02*
X12551134Y-15860174D01*
X12551134Y-15860174D02*
X12541610Y-15869698D01*
X12751134Y-15983984D02*
X12732087Y-15974460D01*
X12732087Y-15974460D02*
X12722563Y-15964936D01*
X12722563Y-15964936D02*
X12713039Y-15945888D01*
X12713039Y-15945888D02*
X12713039Y-15888746D01*
X12713039Y-15888746D02*
X12722563Y-15869698D01*
X12722563Y-15869698D02*
X12732087Y-15860174D01*
X12732087Y-15860174D02*
X12751134Y-15850650D01*
X12751134Y-15850650D02*
X12779706Y-15850650D01*
X12779706Y-15850650D02*
X12798753Y-15860174D01*
X12798753Y-15860174D02*
X12808277Y-15869698D01*
X12808277Y-15869698D02*
X12817801Y-15888746D01*
X12817801Y-15888746D02*
X12817801Y-15945888D01*
X12817801Y-15945888D02*
X12808277Y-15964936D01*
X12808277Y-15964936D02*
X12798753Y-15974460D01*
X12798753Y-15974460D02*
X12779706Y-15983984D01*
X12779706Y-15983984D02*
X12751134Y-15983984D01*
X12932087Y-15983984D02*
X12913039Y-15974460D01*
X12913039Y-15974460D02*
X12903515Y-15955412D01*
X12903515Y-15955412D02*
X12903515Y-15783984D01*
X13084468Y-15974460D02*
X13065420Y-15983984D01*
X13065420Y-15983984D02*
X13027325Y-15983984D01*
X13027325Y-15983984D02*
X13008277Y-15974460D01*
X13008277Y-15974460D02*
X12998753Y-15955412D01*
X12998753Y-15955412D02*
X12998753Y-15879222D01*
X12998753Y-15879222D02*
X13008277Y-15860174D01*
X13008277Y-15860174D02*
X13027325Y-15850650D01*
X13027325Y-15850650D02*
X13065420Y-15850650D01*
X13065420Y-15850650D02*
X13084468Y-15860174D01*
X13084468Y-15860174D02*
X13093991Y-15879222D01*
X13093991Y-15879222D02*
X13093991Y-15898269D01*
X13093991Y-15898269D02*
X12998753Y-15917317D01*
X13170182Y-15974460D02*
X13189230Y-15983984D01*
X13189230Y-15983984D02*
X13227325Y-15983984D01*
X13227325Y-15983984D02*
X13246372Y-15974460D01*
X13246372Y-15974460D02*
X13255896Y-15955412D01*
X13255896Y-15955412D02*
X13255896Y-15945888D01*
X13255896Y-15945888D02*
X13246372Y-15926841D01*
X13246372Y-15926841D02*
X13227325Y-15917317D01*
X13227325Y-15917317D02*
X13198753Y-15917317D01*
X13198753Y-15917317D02*
X13179706Y-15907793D01*
X13179706Y-15907793D02*
X13170182Y-15888746D01*
X13170182Y-15888746D02*
X13170182Y-15879222D01*
X13170182Y-15879222D02*
X13179706Y-15860174D01*
X13179706Y-15860174D02*
X13198753Y-15850650D01*
X13198753Y-15850650D02*
X13227325Y-15850650D01*
X13227325Y-15850650D02*
X13246372Y-15860174D01*
X13322563Y-16060174D02*
X13332087Y-16050650D01*
X13332087Y-16050650D02*
X13351134Y-16022079D01*
X13351134Y-16022079D02*
X13360658Y-16003031D01*
X13360658Y-16003031D02*
X13370182Y-15974460D01*
X13370182Y-15974460D02*
X13379706Y-15926841D01*
X13379706Y-15926841D02*
X13379706Y-15888746D01*
X13379706Y-15888746D02*
X13370182Y-15841127D01*
X13370182Y-15841127D02*
X13360658Y-15812555D01*
X13360658Y-15812555D02*
X13351134Y-15793508D01*
X13351134Y-15793508D02*
X13332087Y-15764936D01*
X13332087Y-15764936D02*
X13322563Y-15755412D01*
M02*
