M48
; DRILL file {KiCad 9.0.7} date 2026-04-23T15:13:24+0100
; FORMAT={-:-/ absolute / metric / decimal}
; #@! TF.CreationDate,2026-04-23T15:13:24+01:00
; #@! TF.GenerationSoftware,Kicad,Pcbnew,9.0.7
; #@! TF.FileFunction,Plated,1,2,PTH
FMAT,2
METRIC
; #@! TA.AperFunction,Plated,PTH,ViaDrill
T1C0.300
; #@! TA.AperFunction,Plated,PTH,ComponentDrill
T2C0.800
; #@! TA.AperFunction,Plated,PTH,ComponentDrill
T3C1.000
; #@! TA.AperFunction,Plated,PTH,ComponentDrill
T4C1.100
; #@! TA.AperFunction,Plated,PTH,ComponentDrill
T5C1.600
; #@! TA.AperFunction,Plated,PTH,ComponentDrill
T6C2.000
%
G90
G05
T1
X104.014Y-78.344
X112.712Y-90.189
X114.016Y-92.609
X118.539Y-90.159
X140.75Y-82.0
X154.995Y-87.503
X160.316Y-75.356
X180.25Y-82.5
X184.0Y-107.0
X185.488Y-122.9
X185.5Y-107.0
X187.0Y-107.0
X188.5Y-107.0
X192.486Y-105.14
T2
X87.17Y-83.0
X87.17Y-86.25
X87.25Y-89.42
X87.25Y-99.58
X97.33Y-83.0
X97.33Y-86.25
X101.5Y-82.25
X101.5Y-87.25
X103.5Y-89.42
X103.5Y-99.58
X104.25Y-82.75
X108.0Y-85.75
X108.0Y-90.75
X108.0Y-94.0
X108.0Y-99.0
X111.25Y-85.75
X111.25Y-90.75
X111.25Y-94.0
X111.25Y-99.0
X114.41Y-82.75
X114.44Y-108.5
X114.44Y-111.25
X114.5Y-85.75
X114.5Y-95.91
X116.485Y-130.75
X116.94Y-114.25
X116.94Y-117.0
X117.75Y-85.75
X117.75Y-95.91
X119.025Y-130.75
X120.67Y-98.5
X121.13Y-87.7
X121.13Y-90.24
X121.13Y-92.78
X121.13Y-95.32
X121.485Y-130.5
X122.06Y-108.5
X122.06Y-111.25
X122.5Y-84.5
X122.5Y-101.75
X124.025Y-130.5
X124.56Y-114.25
X124.56Y-117.0
X127.5Y-84.5
X127.5Y-101.75
X128.75Y-87.7
X128.75Y-90.24
X128.75Y-92.78
X128.75Y-95.32
X130.83Y-98.5
X131.5Y-103.25
X131.5Y-105.75
X131.5Y-109.25
X131.5Y-111.75
X131.5Y-115.5
X131.5Y-118.0
X133.42Y-96.25
X133.5Y-78.42
X133.5Y-88.58
X135.96Y-96.25
X136.25Y-75.5
X136.25Y-78.83
X137.17Y-114.75
X137.17Y-118.0
X137.17Y-121.25
X137.59Y-88.5
X137.59Y-91.75
X137.67Y-82.08
X137.67Y-85.33
X138.455Y-103.95
X138.455Y-106.49
X138.455Y-109.03
X138.455Y-111.57
X138.5Y-96.25
X139.75Y-100.75
X139.75Y-124.5
X139.75Y-127.75
X144.75Y-100.75
X144.75Y-124.5
X144.75Y-127.75
X146.0Y-96.25
X146.075Y-103.95
X146.075Y-106.49
X146.075Y-109.03
X146.075Y-111.57
X146.41Y-75.5
X146.41Y-78.83
X147.33Y-114.75
X147.33Y-118.0
X147.33Y-121.25
X147.75Y-88.5
X147.75Y-91.75
X147.83Y-82.08
X147.83Y-85.33
X148.5Y-96.25
X150.25Y-111.17
X150.25Y-121.33
X150.96Y-126.0
X151.75Y-95.67
X151.75Y-105.83
X152.88Y-83.13
X152.88Y-85.67
X152.88Y-88.21
X152.88Y-90.75
X153.5Y-126.0
X155.25Y-95.67
X155.25Y-105.83
X159.75Y-95.705
X159.75Y-98.205
X159.75Y-101.875
X159.75Y-104.375
X160.5Y-83.13
X160.5Y-85.67
X160.5Y-88.21
X160.5Y-90.75
X166.0Y-82.67
X166.0Y-92.83
X169.25Y-82.67
X169.25Y-92.83
X172.75Y-83.0
X172.75Y-86.25
X172.75Y-89.5
X172.75Y-92.75
X177.75Y-83.0
X177.75Y-86.25
X177.75Y-89.5
X177.75Y-92.75
X181.92Y-81.0
X181.92Y-84.25
X181.92Y-87.5
X181.92Y-90.75
X192.08Y-81.0
X192.08Y-84.25
X192.08Y-87.5
X192.08Y-90.75
T3
X92.8Y-78.0
X95.3Y-78.0
X97.8Y-78.0
X115.185Y-105.0
X115.21Y-99.75
X117.725Y-105.0
X117.75Y-99.75
X122.433Y-78.0
X122.433Y-80.5
X124.75Y-121.475
X124.75Y-124.015
X124.933Y-78.0
X124.933Y-80.5
X127.433Y-78.0
X127.433Y-80.5
X130.25Y-121.5
X130.25Y-124.04
X152.067Y-78.0
X154.567Y-78.0
X157.067Y-78.0
X170.34Y-105.0
X170.34Y-112.5
X172.88Y-105.0
X172.88Y-112.5
X175.42Y-105.0
X175.42Y-112.5
X177.96Y-105.0
X177.96Y-112.5
X180.5Y-105.0
X180.5Y-112.5
X181.75Y-78.0
X183.04Y-105.0
X183.04Y-112.5
X184.25Y-78.0
X185.58Y-105.0
X185.58Y-112.5
X186.75Y-78.0
X188.12Y-105.0
X188.12Y-112.5
T4
X166.75Y-97.94
X166.75Y-105.56
T5
X88.55Y-120.209
X90.037Y-114.659
X90.037Y-125.759
X94.1Y-110.596
X94.1Y-129.822
X96.359Y-118.309
X97.75Y-123.5
X99.65Y-109.109
X99.65Y-131.309
X101.55Y-116.918
X102.941Y-122.109
X105.2Y-110.596
X105.2Y-129.822
X109.263Y-114.659
X109.263Y-125.759
X110.75Y-120.209
T6
X106.75Y-78.5
X113.75Y-78.5
X137.5Y-69.75
X142.1Y-69.75
X166.0Y-78.5
X173.0Y-78.5
T4
X90.5Y-70.85G85X90.5Y-70.15
G05
X100.1Y-70.85G85X100.1Y-70.15
G05
X120.183Y-70.85G85X120.183Y-70.15
G05
X129.683Y-70.85G85X129.683Y-70.15
G05
X149.767Y-70.85G85X149.767Y-70.15
G05
X159.367Y-70.85G85X159.367Y-70.15
G05
X179.45Y-70.85G85X179.45Y-70.15
G05
X189.05Y-70.85G85X189.05Y-70.15
G05
T5
X92.0Y-95.0G85X93.4Y-95.0
G05
X92.0Y-99.8G85X93.4Y-99.8
G05
X92.05Y-90.2G85X93.45Y-90.2
G05
X97.15Y-90.2G85X98.55Y-90.2
G05
X97.15Y-95.0G85X98.55Y-95.0
G05
X97.15Y-99.8G85X98.55Y-99.8
G05
X172.85Y-120.5G85X174.25Y-120.5
G05
X172.95Y-125.3G85X174.35Y-125.3
G05
X172.95Y-130.1G85X174.35Y-130.1
G05
X178.1Y-125.3G85X179.5Y-125.3
G05
X178.1Y-130.1G85X179.5Y-130.1
G05
X178.15Y-120.5G85X179.55Y-120.5
G05
X183.25Y-120.5G85X184.65Y-120.5
G05
X183.25Y-125.3G85X184.65Y-125.3
G05
X183.25Y-130.1G85X184.65Y-130.1
G05
M30
