%TF.GenerationSoftware,KiCad,Pcbnew,9.0.7*%
%TF.CreationDate,2026-04-23T15:12:55+01:00*%
%TF.ProjectId,GORAT circuit diagram,474f5241-5420-4636-9972-637569742064,rev?*%
%TF.SameCoordinates,Original*%
%TF.FileFunction,Legend,Top*%
%TF.FilePolarity,Positive*%
%FSLAX46Y46*%
G04 Gerber Fmt 4.6, Leading zero omitted, Abs format (unit mm)*
G04 Created by KiCad (PCBNEW 9.0.7) date 2026-04-23 15:12:55*
%MOMM*%
%LPD*%
G01*
G04 APERTURE LIST*
%ADD10C,0.100000*%
%ADD11C,0.150000*%
%ADD12C,0.120000*%
G04 APERTURE END LIST*
D10*
X126250000Y-127000000D02*
X125500000Y-127750000D01*
X88000000Y-103125000D02*
X87500000Y-103875000D01*
X88187500Y-102500000D02*
X87812500Y-102500000D01*
X88000000Y-105625000D02*
X88000000Y-103125000D01*
X88000000Y-103125000D02*
X88500000Y-103875000D01*
X125500000Y-126250000D02*
X126250000Y-127000000D01*
X124250000Y-127000000D02*
X126250000Y-127000000D01*
D11*
X160627506Y-78869819D02*
X160627506Y-77869819D01*
X161103696Y-78203152D02*
X161103696Y-78869819D01*
X161103696Y-78298390D02*
X161151315Y-78250771D01*
X161151315Y-78250771D02*
X161246553Y-78203152D01*
X161246553Y-78203152D02*
X161389410Y-78203152D01*
X161389410Y-78203152D02*
X161484648Y-78250771D01*
X161484648Y-78250771D02*
X161532267Y-78346009D01*
X161532267Y-78346009D02*
X161532267Y-78869819D01*
X162008458Y-78203152D02*
X162008458Y-79203152D01*
X162008458Y-78250771D02*
X162103696Y-78203152D01*
X162103696Y-78203152D02*
X162294172Y-78203152D01*
X162294172Y-78203152D02*
X162389410Y-78250771D01*
X162389410Y-78250771D02*
X162437029Y-78298390D01*
X162437029Y-78298390D02*
X162484648Y-78393628D01*
X162484648Y-78393628D02*
X162484648Y-78679342D01*
X162484648Y-78679342D02*
X162437029Y-78774580D01*
X162437029Y-78774580D02*
X162389410Y-78822200D01*
X162389410Y-78822200D02*
X162294172Y-78869819D01*
X162294172Y-78869819D02*
X162103696Y-78869819D01*
X162103696Y-78869819D02*
X162008458Y-78822200D01*
X163341791Y-78203152D02*
X163341791Y-78869819D01*
X162913220Y-78203152D02*
X162913220Y-78726961D01*
X162913220Y-78726961D02*
X162960839Y-78822200D01*
X162960839Y-78822200D02*
X163056077Y-78869819D01*
X163056077Y-78869819D02*
X163198934Y-78869819D01*
X163198934Y-78869819D02*
X163294172Y-78822200D01*
X163294172Y-78822200D02*
X163341791Y-78774580D01*
X163675125Y-78203152D02*
X164056077Y-78203152D01*
X163817982Y-77869819D02*
X163817982Y-78726961D01*
X163817982Y-78726961D02*
X163865601Y-78822200D01*
X163865601Y-78822200D02*
X163960839Y-78869819D01*
X163960839Y-78869819D02*
X164056077Y-78869819D01*
X116277255Y-77869819D02*
X116467731Y-77869819D01*
X116467731Y-77869819D02*
X116562969Y-77917438D01*
X116562969Y-77917438D02*
X116658207Y-78012676D01*
X116658207Y-78012676D02*
X116705826Y-78203152D01*
X116705826Y-78203152D02*
X116705826Y-78536485D01*
X116705826Y-78536485D02*
X116658207Y-78726961D01*
X116658207Y-78726961D02*
X116562969Y-78822200D01*
X116562969Y-78822200D02*
X116467731Y-78869819D01*
X116467731Y-78869819D02*
X116277255Y-78869819D01*
X116277255Y-78869819D02*
X116182017Y-78822200D01*
X116182017Y-78822200D02*
X116086779Y-78726961D01*
X116086779Y-78726961D02*
X116039160Y-78536485D01*
X116039160Y-78536485D02*
X116039160Y-78203152D01*
X116039160Y-78203152D02*
X116086779Y-78012676D01*
X116086779Y-78012676D02*
X116182017Y-77917438D01*
X116182017Y-77917438D02*
X116277255Y-77869819D01*
X117562969Y-78203152D02*
X117562969Y-78869819D01*
X117134398Y-78203152D02*
X117134398Y-78726961D01*
X117134398Y-78726961D02*
X117182017Y-78822200D01*
X117182017Y-78822200D02*
X117277255Y-78869819D01*
X117277255Y-78869819D02*
X117420112Y-78869819D01*
X117420112Y-78869819D02*
X117515350Y-78822200D01*
X117515350Y-78822200D02*
X117562969Y-78774580D01*
X117896303Y-78203152D02*
X118277255Y-78203152D01*
X118039160Y-77869819D02*
X118039160Y-78726961D01*
X118039160Y-78726961D02*
X118086779Y-78822200D01*
X118086779Y-78822200D02*
X118182017Y-78869819D01*
X118182017Y-78869819D02*
X118277255Y-78869819D01*
X118610589Y-78203152D02*
X118610589Y-79203152D01*
X118610589Y-78250771D02*
X118705827Y-78203152D01*
X118705827Y-78203152D02*
X118896303Y-78203152D01*
X118896303Y-78203152D02*
X118991541Y-78250771D01*
X118991541Y-78250771D02*
X119039160Y-78298390D01*
X119039160Y-78298390D02*
X119086779Y-78393628D01*
X119086779Y-78393628D02*
X119086779Y-78679342D01*
X119086779Y-78679342D02*
X119039160Y-78774580D01*
X119039160Y-78774580D02*
X118991541Y-78822200D01*
X118991541Y-78822200D02*
X118896303Y-78869819D01*
X118896303Y-78869819D02*
X118705827Y-78869819D01*
X118705827Y-78869819D02*
X118610589Y-78822200D01*
X119943922Y-78203152D02*
X119943922Y-78869819D01*
X119515351Y-78203152D02*
X119515351Y-78726961D01*
X119515351Y-78726961D02*
X119562970Y-78822200D01*
X119562970Y-78822200D02*
X119658208Y-78869819D01*
X119658208Y-78869819D02*
X119801065Y-78869819D01*
X119801065Y-78869819D02*
X119896303Y-78822200D01*
X119896303Y-78822200D02*
X119943922Y-78774580D01*
X120277256Y-78203152D02*
X120658208Y-78203152D01*
X120420113Y-77869819D02*
X120420113Y-78726961D01*
X120420113Y-78726961D02*
X120467732Y-78822200D01*
X120467732Y-78822200D02*
X120562970Y-78869819D01*
X120562970Y-78869819D02*
X120658208Y-78869819D01*
D10*
X118637217Y-126848609D02*
X118780074Y-126896228D01*
X118780074Y-126896228D02*
X118827693Y-126943847D01*
X118827693Y-126943847D02*
X118875312Y-127039085D01*
X118875312Y-127039085D02*
X118875312Y-127181942D01*
X118875312Y-127181942D02*
X118827693Y-127277180D01*
X118827693Y-127277180D02*
X118780074Y-127324800D01*
X118780074Y-127324800D02*
X118684836Y-127372419D01*
X118684836Y-127372419D02*
X118303884Y-127372419D01*
X118303884Y-127372419D02*
X118303884Y-126372419D01*
X118303884Y-126372419D02*
X118637217Y-126372419D01*
X118637217Y-126372419D02*
X118732455Y-126420038D01*
X118732455Y-126420038D02*
X118780074Y-126467657D01*
X118780074Y-126467657D02*
X118827693Y-126562895D01*
X118827693Y-126562895D02*
X118827693Y-126658133D01*
X118827693Y-126658133D02*
X118780074Y-126753371D01*
X118780074Y-126753371D02*
X118732455Y-126800990D01*
X118732455Y-126800990D02*
X118637217Y-126848609D01*
X118637217Y-126848609D02*
X118303884Y-126848609D01*
X119875312Y-127372419D02*
X119541979Y-126896228D01*
X119303884Y-127372419D02*
X119303884Y-126372419D01*
X119303884Y-126372419D02*
X119684836Y-126372419D01*
X119684836Y-126372419D02*
X119780074Y-126420038D01*
X119780074Y-126420038D02*
X119827693Y-126467657D01*
X119827693Y-126467657D02*
X119875312Y-126562895D01*
X119875312Y-126562895D02*
X119875312Y-126705752D01*
X119875312Y-126705752D02*
X119827693Y-126800990D01*
X119827693Y-126800990D02*
X119780074Y-126848609D01*
X119780074Y-126848609D02*
X119684836Y-126896228D01*
X119684836Y-126896228D02*
X119303884Y-126896228D01*
X120303884Y-126848609D02*
X120637217Y-126848609D01*
X120780074Y-127372419D02*
X120303884Y-127372419D01*
X120303884Y-127372419D02*
X120303884Y-126372419D01*
X120303884Y-126372419D02*
X120780074Y-126372419D01*
X121161027Y-127086704D02*
X121637217Y-127086704D01*
X121065789Y-127372419D02*
X121399122Y-126372419D01*
X121399122Y-126372419D02*
X121732455Y-127372419D01*
X122065789Y-127372419D02*
X122065789Y-126372419D01*
X122637217Y-127372419D02*
X122208646Y-126800990D01*
X122637217Y-126372419D02*
X122065789Y-126943847D01*
X123065789Y-127277180D02*
X123113408Y-127324800D01*
X123113408Y-127324800D02*
X123065789Y-127372419D01*
X123065789Y-127372419D02*
X123018170Y-127324800D01*
X123018170Y-127324800D02*
X123065789Y-127277180D01*
X123065789Y-127277180D02*
X123065789Y-127372419D01*
X123065789Y-126991466D02*
X123018170Y-126420038D01*
X123018170Y-126420038D02*
X123065789Y-126372419D01*
X123065789Y-126372419D02*
X123113408Y-126420038D01*
X123113408Y-126420038D02*
X123065789Y-126991466D01*
X123065789Y-126991466D02*
X123065789Y-126372419D01*
X123541979Y-127277180D02*
X123589598Y-127324800D01*
X123589598Y-127324800D02*
X123541979Y-127372419D01*
X123541979Y-127372419D02*
X123494360Y-127324800D01*
X123494360Y-127324800D02*
X123541979Y-127277180D01*
X123541979Y-127277180D02*
X123541979Y-127372419D01*
X123541979Y-126991466D02*
X123494360Y-126420038D01*
X123494360Y-126420038D02*
X123541979Y-126372419D01*
X123541979Y-126372419D02*
X123589598Y-126420038D01*
X123589598Y-126420038D02*
X123541979Y-126991466D01*
X123541979Y-126991466D02*
X123541979Y-126372419D01*
X124018169Y-127277180D02*
X124065788Y-127324800D01*
X124065788Y-127324800D02*
X124018169Y-127372419D01*
X124018169Y-127372419D02*
X123970550Y-127324800D01*
X123970550Y-127324800D02*
X124018169Y-127277180D01*
X124018169Y-127277180D02*
X124018169Y-127372419D01*
X124018169Y-126991466D02*
X123970550Y-126420038D01*
X123970550Y-126420038D02*
X124018169Y-126372419D01*
X124018169Y-126372419D02*
X124065788Y-126420038D01*
X124065788Y-126420038D02*
X124018169Y-126991466D01*
X124018169Y-126991466D02*
X124018169Y-126372419D01*
D11*
X102360588Y-77917438D02*
X102265350Y-77869819D01*
X102265350Y-77869819D02*
X102122493Y-77869819D01*
X102122493Y-77869819D02*
X101979636Y-77917438D01*
X101979636Y-77917438D02*
X101884398Y-78012676D01*
X101884398Y-78012676D02*
X101836779Y-78107914D01*
X101836779Y-78107914D02*
X101789160Y-78298390D01*
X101789160Y-78298390D02*
X101789160Y-78441247D01*
X101789160Y-78441247D02*
X101836779Y-78631723D01*
X101836779Y-78631723D02*
X101884398Y-78726961D01*
X101884398Y-78726961D02*
X101979636Y-78822200D01*
X101979636Y-78822200D02*
X102122493Y-78869819D01*
X102122493Y-78869819D02*
X102217731Y-78869819D01*
X102217731Y-78869819D02*
X102360588Y-78822200D01*
X102360588Y-78822200D02*
X102408207Y-78774580D01*
X102408207Y-78774580D02*
X102408207Y-78441247D01*
X102408207Y-78441247D02*
X102217731Y-78441247D01*
X102836779Y-78869819D02*
X102836779Y-77869819D01*
X102836779Y-77869819D02*
X103408207Y-78869819D01*
X103408207Y-78869819D02*
X103408207Y-77869819D01*
X103884398Y-78869819D02*
X103884398Y-77869819D01*
X103884398Y-77869819D02*
X104122493Y-77869819D01*
X104122493Y-77869819D02*
X104265350Y-77917438D01*
X104265350Y-77917438D02*
X104360588Y-78012676D01*
X104360588Y-78012676D02*
X104408207Y-78107914D01*
X104408207Y-78107914D02*
X104455826Y-78298390D01*
X104455826Y-78298390D02*
X104455826Y-78441247D01*
X104455826Y-78441247D02*
X104408207Y-78631723D01*
X104408207Y-78631723D02*
X104360588Y-78726961D01*
X104360588Y-78726961D02*
X104265350Y-78822200D01*
X104265350Y-78822200D02*
X104122493Y-78869819D01*
X104122493Y-78869819D02*
X103884398Y-78869819D01*
X132836777Y-69988866D02*
X133598682Y-69988866D01*
X133217729Y-70369819D02*
X133217729Y-69607914D01*
X134122491Y-70369819D02*
X134312967Y-70369819D01*
X134312967Y-70369819D02*
X134408205Y-70322200D01*
X134408205Y-70322200D02*
X134455824Y-70274580D01*
X134455824Y-70274580D02*
X134551062Y-70131723D01*
X134551062Y-70131723D02*
X134598681Y-69941247D01*
X134598681Y-69941247D02*
X134598681Y-69560295D01*
X134598681Y-69560295D02*
X134551062Y-69465057D01*
X134551062Y-69465057D02*
X134503443Y-69417438D01*
X134503443Y-69417438D02*
X134408205Y-69369819D01*
X134408205Y-69369819D02*
X134217729Y-69369819D01*
X134217729Y-69369819D02*
X134122491Y-69417438D01*
X134122491Y-69417438D02*
X134074872Y-69465057D01*
X134074872Y-69465057D02*
X134027253Y-69560295D01*
X134027253Y-69560295D02*
X134027253Y-69798390D01*
X134027253Y-69798390D02*
X134074872Y-69893628D01*
X134074872Y-69893628D02*
X134122491Y-69941247D01*
X134122491Y-69941247D02*
X134217729Y-69988866D01*
X134217729Y-69988866D02*
X134408205Y-69988866D01*
X134408205Y-69988866D02*
X134503443Y-69941247D01*
X134503443Y-69941247D02*
X134551062Y-69893628D01*
X134551062Y-69893628D02*
X134598681Y-69798390D01*
X134884396Y-69369819D02*
X135217729Y-70369819D01*
X135217729Y-70369819D02*
X135551062Y-69369819D01*
X144860588Y-68417438D02*
X144765350Y-68369819D01*
X144765350Y-68369819D02*
X144622493Y-68369819D01*
X144622493Y-68369819D02*
X144479636Y-68417438D01*
X144479636Y-68417438D02*
X144384398Y-68512676D01*
X144384398Y-68512676D02*
X144336779Y-68607914D01*
X144336779Y-68607914D02*
X144289160Y-68798390D01*
X144289160Y-68798390D02*
X144289160Y-68941247D01*
X144289160Y-68941247D02*
X144336779Y-69131723D01*
X144336779Y-69131723D02*
X144384398Y-69226961D01*
X144384398Y-69226961D02*
X144479636Y-69322200D01*
X144479636Y-69322200D02*
X144622493Y-69369819D01*
X144622493Y-69369819D02*
X144717731Y-69369819D01*
X144717731Y-69369819D02*
X144860588Y-69322200D01*
X144860588Y-69322200D02*
X144908207Y-69274580D01*
X144908207Y-69274580D02*
X144908207Y-68941247D01*
X144908207Y-68941247D02*
X144717731Y-68941247D01*
X145336779Y-69369819D02*
X145336779Y-68369819D01*
X145336779Y-68369819D02*
X145908207Y-69369819D01*
X145908207Y-69369819D02*
X145908207Y-68369819D01*
X146384398Y-69369819D02*
X146384398Y-68369819D01*
X146384398Y-68369819D02*
X146622493Y-68369819D01*
X146622493Y-68369819D02*
X146765350Y-68417438D01*
X146765350Y-68417438D02*
X146860588Y-68512676D01*
X146860588Y-68512676D02*
X146908207Y-68607914D01*
X146908207Y-68607914D02*
X146955826Y-68798390D01*
X146955826Y-68798390D02*
X146955826Y-68941247D01*
X146955826Y-68941247D02*
X146908207Y-69131723D01*
X146908207Y-69131723D02*
X146860588Y-69226961D01*
X146860588Y-69226961D02*
X146765350Y-69322200D01*
X146765350Y-69322200D02*
X146622493Y-69369819D01*
X146622493Y-69369819D02*
X146384398Y-69369819D01*
X175865601Y-77917438D02*
X175770363Y-77869819D01*
X175770363Y-77869819D02*
X175627506Y-77869819D01*
X175627506Y-77869819D02*
X175484649Y-77917438D01*
X175484649Y-77917438D02*
X175389411Y-78012676D01*
X175389411Y-78012676D02*
X175341792Y-78107914D01*
X175341792Y-78107914D02*
X175294173Y-78298390D01*
X175294173Y-78298390D02*
X175294173Y-78441247D01*
X175294173Y-78441247D02*
X175341792Y-78631723D01*
X175341792Y-78631723D02*
X175389411Y-78726961D01*
X175389411Y-78726961D02*
X175484649Y-78822200D01*
X175484649Y-78822200D02*
X175627506Y-78869819D01*
X175627506Y-78869819D02*
X175722744Y-78869819D01*
X175722744Y-78869819D02*
X175865601Y-78822200D01*
X175865601Y-78822200D02*
X175913220Y-78774580D01*
X175913220Y-78774580D02*
X175913220Y-78441247D01*
X175913220Y-78441247D02*
X175722744Y-78441247D01*
X176341792Y-78869819D02*
X176341792Y-77869819D01*
X176341792Y-77869819D02*
X176913220Y-78869819D01*
X176913220Y-78869819D02*
X176913220Y-77869819D01*
X177389411Y-78869819D02*
X177389411Y-77869819D01*
X177389411Y-77869819D02*
X177627506Y-77869819D01*
X177627506Y-77869819D02*
X177770363Y-77917438D01*
X177770363Y-77917438D02*
X177865601Y-78012676D01*
X177865601Y-78012676D02*
X177913220Y-78107914D01*
X177913220Y-78107914D02*
X177960839Y-78298390D01*
X177960839Y-78298390D02*
X177960839Y-78441247D01*
X177960839Y-78441247D02*
X177913220Y-78631723D01*
X177913220Y-78631723D02*
X177865601Y-78726961D01*
X177865601Y-78726961D02*
X177770363Y-78822200D01*
X177770363Y-78822200D02*
X177627506Y-78869819D01*
X177627506Y-78869819D02*
X177389411Y-78869819D01*
X189704819Y-113583333D02*
X190419104Y-113583333D01*
X190419104Y-113583333D02*
X190561961Y-113630952D01*
X190561961Y-113630952D02*
X190657200Y-113726190D01*
X190657200Y-113726190D02*
X190704819Y-113869047D01*
X190704819Y-113869047D02*
X190704819Y-113964285D01*
X190038152Y-112678571D02*
X190704819Y-112678571D01*
X189657200Y-112916666D02*
X190371485Y-113154761D01*
X190371485Y-113154761D02*
X190371485Y-112535714D01*
X149454819Y-126738094D02*
X148454819Y-126738094D01*
X148454819Y-126738094D02*
X148454819Y-126499999D01*
X148454819Y-126499999D02*
X148502438Y-126357142D01*
X148502438Y-126357142D02*
X148597676Y-126261904D01*
X148597676Y-126261904D02*
X148692914Y-126214285D01*
X148692914Y-126214285D02*
X148883390Y-126166666D01*
X148883390Y-126166666D02*
X149026247Y-126166666D01*
X149026247Y-126166666D02*
X149216723Y-126214285D01*
X149216723Y-126214285D02*
X149311961Y-126261904D01*
X149311961Y-126261904D02*
X149407200Y-126357142D01*
X149407200Y-126357142D02*
X149454819Y-126499999D01*
X149454819Y-126499999D02*
X149454819Y-126738094D01*
X148788152Y-125309523D02*
X149454819Y-125309523D01*
X148407200Y-125547618D02*
X149121485Y-125785713D01*
X149121485Y-125785713D02*
X149121485Y-125166666D01*
X189954819Y-105333333D02*
X190669104Y-105333333D01*
X190669104Y-105333333D02*
X190811961Y-105380952D01*
X190811961Y-105380952D02*
X190907200Y-105476190D01*
X190907200Y-105476190D02*
X190954819Y-105619047D01*
X190954819Y-105619047D02*
X190954819Y-105714285D01*
X189954819Y-104952380D02*
X189954819Y-104333333D01*
X189954819Y-104333333D02*
X190335771Y-104666666D01*
X190335771Y-104666666D02*
X190335771Y-104523809D01*
X190335771Y-104523809D02*
X190383390Y-104428571D01*
X190383390Y-104428571D02*
X190431009Y-104380952D01*
X190431009Y-104380952D02*
X190526247Y-104333333D01*
X190526247Y-104333333D02*
X190764342Y-104333333D01*
X190764342Y-104333333D02*
X190859580Y-104380952D01*
X190859580Y-104380952D02*
X190907200Y-104428571D01*
X190907200Y-104428571D02*
X190954819Y-104523809D01*
X190954819Y-104523809D02*
X190954819Y-104809523D01*
X190954819Y-104809523D02*
X190907200Y-104904761D01*
X190907200Y-104904761D02*
X190859580Y-104952380D01*
X134166664Y-68204819D02*
X134166664Y-68919104D01*
X134166664Y-68919104D02*
X134119045Y-69061961D01*
X134119045Y-69061961D02*
X134023807Y-69157200D01*
X134023807Y-69157200D02*
X133880950Y-69204819D01*
X133880950Y-69204819D02*
X133785712Y-69204819D01*
X135071426Y-68204819D02*
X134880950Y-68204819D01*
X134880950Y-68204819D02*
X134785712Y-68252438D01*
X134785712Y-68252438D02*
X134738093Y-68300057D01*
X134738093Y-68300057D02*
X134642855Y-68442914D01*
X134642855Y-68442914D02*
X134595236Y-68633390D01*
X134595236Y-68633390D02*
X134595236Y-69014342D01*
X134595236Y-69014342D02*
X134642855Y-69109580D01*
X134642855Y-69109580D02*
X134690474Y-69157200D01*
X134690474Y-69157200D02*
X134785712Y-69204819D01*
X134785712Y-69204819D02*
X134976188Y-69204819D01*
X134976188Y-69204819D02*
X135071426Y-69157200D01*
X135071426Y-69157200D02*
X135119045Y-69109580D01*
X135119045Y-69109580D02*
X135166664Y-69014342D01*
X135166664Y-69014342D02*
X135166664Y-68776247D01*
X135166664Y-68776247D02*
X135119045Y-68681009D01*
X135119045Y-68681009D02*
X135071426Y-68633390D01*
X135071426Y-68633390D02*
X134976188Y-68585771D01*
X134976188Y-68585771D02*
X134785712Y-68585771D01*
X134785712Y-68585771D02*
X134690474Y-68633390D01*
X134690474Y-68633390D02*
X134642855Y-68681009D01*
X134642855Y-68681009D02*
X134595236Y-68776247D01*
X119559819Y-105333333D02*
X120274104Y-105333333D01*
X120274104Y-105333333D02*
X120416961Y-105380952D01*
X120416961Y-105380952D02*
X120512200Y-105476190D01*
X120512200Y-105476190D02*
X120559819Y-105619047D01*
X120559819Y-105619047D02*
X120559819Y-105714285D01*
X120559819Y-104809523D02*
X120559819Y-104619047D01*
X120559819Y-104619047D02*
X120512200Y-104523809D01*
X120512200Y-104523809D02*
X120464580Y-104476190D01*
X120464580Y-104476190D02*
X120321723Y-104380952D01*
X120321723Y-104380952D02*
X120131247Y-104333333D01*
X120131247Y-104333333D02*
X119750295Y-104333333D01*
X119750295Y-104333333D02*
X119655057Y-104380952D01*
X119655057Y-104380952D02*
X119607438Y-104428571D01*
X119607438Y-104428571D02*
X119559819Y-104523809D01*
X119559819Y-104523809D02*
X119559819Y-104714285D01*
X119559819Y-104714285D02*
X119607438Y-104809523D01*
X119607438Y-104809523D02*
X119655057Y-104857142D01*
X119655057Y-104857142D02*
X119750295Y-104904761D01*
X119750295Y-104904761D02*
X119988390Y-104904761D01*
X119988390Y-104904761D02*
X120083628Y-104857142D01*
X120083628Y-104857142D02*
X120131247Y-104809523D01*
X120131247Y-104809523D02*
X120178866Y-104714285D01*
X120178866Y-104714285D02*
X120178866Y-104523809D01*
X120178866Y-104523809D02*
X120131247Y-104428571D01*
X120131247Y-104428571D02*
X120083628Y-104380952D01*
X120083628Y-104380952D02*
X119988390Y-104333333D01*
X169166666Y-77954819D02*
X169166666Y-78669104D01*
X169166666Y-78669104D02*
X169119047Y-78811961D01*
X169119047Y-78811961D02*
X169023809Y-78907200D01*
X169023809Y-78907200D02*
X168880952Y-78954819D01*
X168880952Y-78954819D02*
X168785714Y-78954819D01*
X170166666Y-78954819D02*
X169595238Y-78954819D01*
X169880952Y-78954819D02*
X169880952Y-77954819D01*
X169880952Y-77954819D02*
X169785714Y-78097676D01*
X169785714Y-78097676D02*
X169690476Y-78192914D01*
X169690476Y-78192914D02*
X169595238Y-78240533D01*
D10*
X171359800Y-126361904D02*
X171407419Y-126219047D01*
X171407419Y-126219047D02*
X171407419Y-125980952D01*
X171407419Y-125980952D02*
X171359800Y-125885714D01*
X171359800Y-125885714D02*
X171312180Y-125838095D01*
X171312180Y-125838095D02*
X171216942Y-125790476D01*
X171216942Y-125790476D02*
X171121704Y-125790476D01*
X171121704Y-125790476D02*
X171026466Y-125838095D01*
X171026466Y-125838095D02*
X170978847Y-125885714D01*
X170978847Y-125885714D02*
X170931228Y-125980952D01*
X170931228Y-125980952D02*
X170883609Y-126171428D01*
X170883609Y-126171428D02*
X170835990Y-126266666D01*
X170835990Y-126266666D02*
X170788371Y-126314285D01*
X170788371Y-126314285D02*
X170693133Y-126361904D01*
X170693133Y-126361904D02*
X170597895Y-126361904D01*
X170597895Y-126361904D02*
X170502657Y-126314285D01*
X170502657Y-126314285D02*
X170455038Y-126266666D01*
X170455038Y-126266666D02*
X170407419Y-126171428D01*
X170407419Y-126171428D02*
X170407419Y-125933333D01*
X170407419Y-125933333D02*
X170455038Y-125790476D01*
X171407419Y-124838095D02*
X171407419Y-125409523D01*
X171407419Y-125123809D02*
X170407419Y-125123809D01*
X170407419Y-125123809D02*
X170550276Y-125219047D01*
X170550276Y-125219047D02*
X170645514Y-125314285D01*
X170645514Y-125314285D02*
X170693133Y-125409523D01*
D11*
X109916666Y-77954819D02*
X109916666Y-78669104D01*
X109916666Y-78669104D02*
X109869047Y-78811961D01*
X109869047Y-78811961D02*
X109773809Y-78907200D01*
X109773809Y-78907200D02*
X109630952Y-78954819D01*
X109630952Y-78954819D02*
X109535714Y-78954819D01*
X110345238Y-78050057D02*
X110392857Y-78002438D01*
X110392857Y-78002438D02*
X110488095Y-77954819D01*
X110488095Y-77954819D02*
X110726190Y-77954819D01*
X110726190Y-77954819D02*
X110821428Y-78002438D01*
X110821428Y-78002438D02*
X110869047Y-78050057D01*
X110869047Y-78050057D02*
X110916666Y-78145295D01*
X110916666Y-78145295D02*
X110916666Y-78240533D01*
X110916666Y-78240533D02*
X110869047Y-78383390D01*
X110869047Y-78383390D02*
X110297619Y-78954819D01*
X110297619Y-78954819D02*
X110916666Y-78954819D01*
X112164819Y-100583333D02*
X112879104Y-100583333D01*
X112879104Y-100583333D02*
X113021961Y-100630952D01*
X113021961Y-100630952D02*
X113117200Y-100726190D01*
X113117200Y-100726190D02*
X113164819Y-100869047D01*
X113164819Y-100869047D02*
X113164819Y-100964285D01*
X112593390Y-99964285D02*
X112545771Y-100059523D01*
X112545771Y-100059523D02*
X112498152Y-100107142D01*
X112498152Y-100107142D02*
X112402914Y-100154761D01*
X112402914Y-100154761D02*
X112355295Y-100154761D01*
X112355295Y-100154761D02*
X112260057Y-100107142D01*
X112260057Y-100107142D02*
X112212438Y-100059523D01*
X112212438Y-100059523D02*
X112164819Y-99964285D01*
X112164819Y-99964285D02*
X112164819Y-99773809D01*
X112164819Y-99773809D02*
X112212438Y-99678571D01*
X112212438Y-99678571D02*
X112260057Y-99630952D01*
X112260057Y-99630952D02*
X112355295Y-99583333D01*
X112355295Y-99583333D02*
X112402914Y-99583333D01*
X112402914Y-99583333D02*
X112498152Y-99630952D01*
X112498152Y-99630952D02*
X112545771Y-99678571D01*
X112545771Y-99678571D02*
X112593390Y-99773809D01*
X112593390Y-99773809D02*
X112593390Y-99964285D01*
X112593390Y-99964285D02*
X112641009Y-100059523D01*
X112641009Y-100059523D02*
X112688628Y-100107142D01*
X112688628Y-100107142D02*
X112783866Y-100154761D01*
X112783866Y-100154761D02*
X112974342Y-100154761D01*
X112974342Y-100154761D02*
X113069580Y-100107142D01*
X113069580Y-100107142D02*
X113117200Y-100059523D01*
X113117200Y-100059523D02*
X113164819Y-99964285D01*
X113164819Y-99964285D02*
X113164819Y-99773809D01*
X113164819Y-99773809D02*
X113117200Y-99678571D01*
X113117200Y-99678571D02*
X113069580Y-99630952D01*
X113069580Y-99630952D02*
X112974342Y-99583333D01*
X112974342Y-99583333D02*
X112783866Y-99583333D01*
X112783866Y-99583333D02*
X112688628Y-99630952D01*
X112688628Y-99630952D02*
X112641009Y-99678571D01*
X112641009Y-99678571D02*
X112593390Y-99773809D01*
X128738095Y-127157200D02*
X128880952Y-127204819D01*
X128880952Y-127204819D02*
X129119047Y-127204819D01*
X129119047Y-127204819D02*
X129214285Y-127157200D01*
X129214285Y-127157200D02*
X129261904Y-127109580D01*
X129261904Y-127109580D02*
X129309523Y-127014342D01*
X129309523Y-127014342D02*
X129309523Y-126919104D01*
X129309523Y-126919104D02*
X129261904Y-126823866D01*
X129261904Y-126823866D02*
X129214285Y-126776247D01*
X129214285Y-126776247D02*
X129119047Y-126728628D01*
X129119047Y-126728628D02*
X128928571Y-126681009D01*
X128928571Y-126681009D02*
X128833333Y-126633390D01*
X128833333Y-126633390D02*
X128785714Y-126585771D01*
X128785714Y-126585771D02*
X128738095Y-126490533D01*
X128738095Y-126490533D02*
X128738095Y-126395295D01*
X128738095Y-126395295D02*
X128785714Y-126300057D01*
X128785714Y-126300057D02*
X128833333Y-126252438D01*
X128833333Y-126252438D02*
X128928571Y-126204819D01*
X128928571Y-126204819D02*
X129166666Y-126204819D01*
X129166666Y-126204819D02*
X129309523Y-126252438D01*
X129738095Y-127204819D02*
X129738095Y-126204819D01*
X129738095Y-126204819D02*
X130119047Y-126204819D01*
X130119047Y-126204819D02*
X130214285Y-126252438D01*
X130214285Y-126252438D02*
X130261904Y-126300057D01*
X130261904Y-126300057D02*
X130309523Y-126395295D01*
X130309523Y-126395295D02*
X130309523Y-126538152D01*
X130309523Y-126538152D02*
X130261904Y-126633390D01*
X130261904Y-126633390D02*
X130214285Y-126681009D01*
X130214285Y-126681009D02*
X130119047Y-126728628D01*
X130119047Y-126728628D02*
X129738095Y-126728628D01*
X130690476Y-126300057D02*
X130738095Y-126252438D01*
X130738095Y-126252438D02*
X130833333Y-126204819D01*
X130833333Y-126204819D02*
X131071428Y-126204819D01*
X131071428Y-126204819D02*
X131166666Y-126252438D01*
X131166666Y-126252438D02*
X131214285Y-126300057D01*
X131214285Y-126300057D02*
X131261904Y-126395295D01*
X131261904Y-126395295D02*
X131261904Y-126490533D01*
X131261904Y-126490533D02*
X131214285Y-126633390D01*
X131214285Y-126633390D02*
X130642857Y-127204819D01*
X130642857Y-127204819D02*
X131261904Y-127204819D01*
X123488095Y-119502200D02*
X123630952Y-119549819D01*
X123630952Y-119549819D02*
X123869047Y-119549819D01*
X123869047Y-119549819D02*
X123964285Y-119502200D01*
X123964285Y-119502200D02*
X124011904Y-119454580D01*
X124011904Y-119454580D02*
X124059523Y-119359342D01*
X124059523Y-119359342D02*
X124059523Y-119264104D01*
X124059523Y-119264104D02*
X124011904Y-119168866D01*
X124011904Y-119168866D02*
X123964285Y-119121247D01*
X123964285Y-119121247D02*
X123869047Y-119073628D01*
X123869047Y-119073628D02*
X123678571Y-119026009D01*
X123678571Y-119026009D02*
X123583333Y-118978390D01*
X123583333Y-118978390D02*
X123535714Y-118930771D01*
X123535714Y-118930771D02*
X123488095Y-118835533D01*
X123488095Y-118835533D02*
X123488095Y-118740295D01*
X123488095Y-118740295D02*
X123535714Y-118645057D01*
X123535714Y-118645057D02*
X123583333Y-118597438D01*
X123583333Y-118597438D02*
X123678571Y-118549819D01*
X123678571Y-118549819D02*
X123916666Y-118549819D01*
X123916666Y-118549819D02*
X124059523Y-118597438D01*
X124488095Y-119549819D02*
X124488095Y-118549819D01*
X124488095Y-118549819D02*
X124869047Y-118549819D01*
X124869047Y-118549819D02*
X124964285Y-118597438D01*
X124964285Y-118597438D02*
X125011904Y-118645057D01*
X125011904Y-118645057D02*
X125059523Y-118740295D01*
X125059523Y-118740295D02*
X125059523Y-118883152D01*
X125059523Y-118883152D02*
X125011904Y-118978390D01*
X125011904Y-118978390D02*
X124964285Y-119026009D01*
X124964285Y-119026009D02*
X124869047Y-119073628D01*
X124869047Y-119073628D02*
X124488095Y-119073628D01*
X126011904Y-119549819D02*
X125440476Y-119549819D01*
X125726190Y-119549819D02*
X125726190Y-118549819D01*
X125726190Y-118549819D02*
X125630952Y-118692676D01*
X125630952Y-118692676D02*
X125535714Y-118787914D01*
X125535714Y-118787914D02*
X125440476Y-118835533D01*
D10*
X90259800Y-91383332D02*
X90307419Y-91240475D01*
X90307419Y-91240475D02*
X90307419Y-91002380D01*
X90307419Y-91002380D02*
X90259800Y-90907142D01*
X90259800Y-90907142D02*
X90212180Y-90859523D01*
X90212180Y-90859523D02*
X90116942Y-90811904D01*
X90116942Y-90811904D02*
X90021704Y-90811904D01*
X90021704Y-90811904D02*
X89926466Y-90859523D01*
X89926466Y-90859523D02*
X89878847Y-90907142D01*
X89878847Y-90907142D02*
X89831228Y-91002380D01*
X89831228Y-91002380D02*
X89783609Y-91192856D01*
X89783609Y-91192856D02*
X89735990Y-91288094D01*
X89735990Y-91288094D02*
X89688371Y-91335713D01*
X89688371Y-91335713D02*
X89593133Y-91383332D01*
X89593133Y-91383332D02*
X89497895Y-91383332D01*
X89497895Y-91383332D02*
X89402657Y-91335713D01*
X89402657Y-91335713D02*
X89355038Y-91288094D01*
X89355038Y-91288094D02*
X89307419Y-91192856D01*
X89307419Y-91192856D02*
X89307419Y-90954761D01*
X89307419Y-90954761D02*
X89355038Y-90811904D01*
X89307419Y-90478570D02*
X90307419Y-90240475D01*
X90307419Y-90240475D02*
X89593133Y-90049999D01*
X89593133Y-90049999D02*
X90307419Y-89859523D01*
X90307419Y-89859523D02*
X89307419Y-89621428D01*
X90307419Y-88716666D02*
X90307419Y-89288094D01*
X90307419Y-89002380D02*
X89307419Y-89002380D01*
X89307419Y-89002380D02*
X89450276Y-89097618D01*
X89450276Y-89097618D02*
X89545514Y-89192856D01*
X89545514Y-89192856D02*
X89593133Y-89288094D01*
D12*
%TO.C,J4*%
X168960000Y-111120000D02*
X168960000Y-113880000D01*
X186850000Y-111120000D02*
X168960000Y-111120000D01*
X186850000Y-111120000D02*
X186850000Y-113880000D01*
X186850000Y-113880000D02*
X168960000Y-113880000D01*
X188120000Y-111120000D02*
X189500000Y-111120000D01*
X189500000Y-111120000D02*
X189500000Y-112500000D01*
%TO.C,RV1-GAIN1*%
X90420000Y-77120000D02*
X90420000Y-72400000D01*
X90430000Y-68590000D02*
X90430000Y-65530000D01*
X91610000Y-77120000D02*
X90430000Y-77120000D01*
X94510000Y-77120000D02*
X93980000Y-77120000D01*
X96960000Y-77120000D02*
X96130000Y-77120000D01*
X100170000Y-65530000D02*
X90430000Y-65530000D01*
X100170000Y-68590000D02*
X100170000Y-65530000D01*
X100170000Y-77120000D02*
X98680000Y-77120000D01*
X100170000Y-77120000D02*
X100170000Y-72400000D01*
%TO.C,D4*%
X149670000Y-124455000D02*
X149670000Y-127545000D01*
X151341000Y-124793500D02*
X152166500Y-123968000D01*
X151912500Y-125428500D02*
X151912500Y-126571500D01*
X152293500Y-124793500D02*
X153119000Y-123968000D01*
X149670000Y-124455170D02*
G75*
G02*
X155220000Y-126000462I2560000J-1544830D01*
G01*
X155220000Y-125999538D02*
G75*
G02*
X149670000Y-127544830I-2990000J-462D01*
G01*
X154730000Y-126000000D02*
G75*
G02*
X149730000Y-126000000I-2500000J0D01*
G01*
X149730000Y-126000000D02*
G75*
G02*
X154730000Y-126000000I2500000J0D01*
G01*
X152166500Y-124349000D02*
X151785500Y-123968000D01*
X152166500Y-123968000D01*
X152166500Y-124349000D01*
G36*
X152166500Y-124349000D02*
G01*
X151785500Y-123968000D01*
X152166500Y-123968000D01*
X152166500Y-124349000D01*
G37*
X152547500Y-126571500D02*
X151912500Y-126000000D01*
X152547500Y-125428500D01*
X152547500Y-126571500D01*
G36*
X152547500Y-126571500D02*
G01*
X151912500Y-126000000D01*
X152547500Y-125428500D01*
X152547500Y-126571500D01*
G37*
X153119000Y-124349000D02*
X152738000Y-123968000D01*
X153119000Y-123968000D01*
X153119000Y-124349000D01*
G36*
X153119000Y-124349000D02*
G01*
X152738000Y-123968000D01*
X153119000Y-123968000D01*
X153119000Y-124349000D01*
G37*
D10*
%TO.C,SW8*%
X105377128Y-120209100D02*
G75*
G02*
X93922872Y-120209100I-5727128J0D01*
G01*
X93922872Y-120209100D02*
G75*
G02*
X105377128Y-120209100I5727128J0D01*
G01*
D12*
X112950376Y-120209100D02*
G75*
G02*
X86349624Y-120209100I-13300376J0D01*
G01*
X86349624Y-120209100D02*
G75*
G02*
X112950376Y-120209100I13300376J0D01*
G01*
%TO.C,J3*%
X168960000Y-103620000D02*
X168960000Y-106380000D01*
X186850000Y-103620000D02*
X168960000Y-103620000D01*
X186850000Y-103620000D02*
X186850000Y-106380000D01*
X186850000Y-106380000D02*
X168960000Y-106380000D01*
X188120000Y-103620000D02*
X189500000Y-103620000D01*
X189500000Y-103620000D02*
X189500000Y-105000000D01*
%TO.C,J9*%
X113805000Y-103620000D02*
X113805000Y-106380000D01*
X116455000Y-103620000D02*
X113805000Y-103620000D01*
X116455000Y-103620000D02*
X116455000Y-106380000D01*
X116455000Y-106380000D02*
X113805000Y-106380000D01*
X117725000Y-103620000D02*
X119105000Y-103620000D01*
X119105000Y-103620000D02*
X119105000Y-105000000D01*
D10*
%TO.C,S1*%
X170200000Y-115500000D02*
X170200000Y-135100000D01*
X170200000Y-135100000D02*
X187400000Y-135100000D01*
X187400000Y-115500000D02*
X170200000Y-115500000D01*
X187400000Y-135100000D02*
X187400000Y-115500000D01*
D12*
%TO.C,RV3-VOLWet1*%
X149686700Y-77120000D02*
X149686700Y-72400000D01*
X149696700Y-68590000D02*
X149696700Y-65530000D01*
X150876700Y-77120000D02*
X149696700Y-77120000D01*
X153776700Y-77120000D02*
X153246700Y-77120000D01*
X156226700Y-77120000D02*
X155396700Y-77120000D01*
X159436700Y-65530000D02*
X149696700Y-65530000D01*
X159436700Y-68590000D02*
X159436700Y-65530000D01*
X159436700Y-77120000D02*
X157946700Y-77120000D01*
X159436700Y-77120000D02*
X159436700Y-72400000D01*
%TO.C,RV4-VOLDry1*%
X179370000Y-77120000D02*
X179370000Y-72400000D01*
X179380000Y-68590000D02*
X179380000Y-65530000D01*
X180560000Y-77120000D02*
X179380000Y-77120000D01*
X183460000Y-77120000D02*
X182930000Y-77120000D01*
X185910000Y-77120000D02*
X185080000Y-77120000D01*
X189120000Y-65530000D02*
X179380000Y-65530000D01*
X189120000Y-68590000D02*
X189120000Y-65530000D01*
X189120000Y-77120000D02*
X187630000Y-77120000D01*
X189120000Y-77120000D02*
X189120000Y-72400000D01*
%TO.C,J8*%
X113830000Y-98370000D02*
X113830000Y-101130000D01*
X116480000Y-98370000D02*
X113830000Y-98370000D01*
X116480000Y-98370000D02*
X116480000Y-101130000D01*
X116480000Y-101130000D02*
X113830000Y-101130000D01*
X117750000Y-98370000D02*
X119130000Y-98370000D01*
X119130000Y-98370000D02*
X119130000Y-99750000D01*
%TO.C,SP2*%
X128870000Y-120120000D02*
X130250000Y-120120000D01*
X128870000Y-121500000D02*
X128870000Y-120120000D01*
X128870000Y-122770000D02*
X128870000Y-125420000D01*
X128870000Y-122770000D02*
X131630000Y-122770000D01*
X128870000Y-125420000D02*
X131630000Y-125420000D01*
X131630000Y-122770000D02*
X131630000Y-125420000D01*
%TO.C,SP1*%
X123370000Y-120095000D02*
X124750000Y-120095000D01*
X123370000Y-121475000D02*
X123370000Y-120095000D01*
X123370000Y-122745000D02*
X123370000Y-125395000D01*
X123370000Y-122745000D02*
X126130000Y-122745000D01*
X123370000Y-125395000D02*
X126130000Y-125395000D01*
X126130000Y-122745000D02*
X126130000Y-125395000D01*
%TO.C,RV2-TILT1*%
X120063300Y-68590000D02*
X120063300Y-65530000D01*
X120063300Y-77120000D02*
X120063300Y-72400000D01*
X121243300Y-77120000D02*
X120063300Y-77120000D01*
X124143300Y-77120000D02*
X123613300Y-77120000D01*
X126593300Y-77120000D02*
X125763300Y-77120000D01*
X129803300Y-65530000D02*
X120063300Y-65530000D01*
X129803300Y-68590000D02*
X129803300Y-65530000D01*
X129803300Y-77120000D02*
X128313300Y-77120000D01*
X129803300Y-77120000D02*
X129803300Y-72400000D01*
%TO.C,SW1*%
D10*
X89000000Y-101500000D02*
X101600000Y-101500000D01*
X101600000Y-88500000D01*
X89000000Y-88500000D01*
X89000000Y-101500000D01*
%TD*%
M02*
